M48
;GenerationSoftware,Autodesk,EAGLE,9.6.2*%
;CreationDate,2021-04-02T01:42:36Z*%
FMAT,2
ICI,OFF
METRIC,TZ,000.000
T9C0.350
T8C0.559
T7C0.889
T6C0.900
T5C0.940
T4C0.991
T3C1.000
T2C1.016
T1C4.064
%
G90
M71
T1
X133250Y71000
X132750Y10250
X68250Y7750
T2
X99020Y15230
X104100Y15230
X101560Y15230
X96480Y15230
X93940Y15230
X91400Y15230
T3
X128380Y39080
X125280Y34280
X131380Y34280
T4
X117650Y68900
X115620Y68900
X116635Y76520
X109000Y68900
X106970Y68900
X107985Y76520
T5
X64126Y47980
X64126Y69570
X64126Y58775
X64126Y15960
X64126Y37550
X64126Y26755
T6
X122840Y62030
X120300Y62030
X117760Y62030
X112680Y62030
X110140Y62030
X107600Y62030
X105060Y62030
X102520Y62030
X99980Y62030
X97440Y62030
X94900Y62030
X94900Y41710
X97440Y41710
X99980Y41710
X102520Y41710
X105060Y41710
X107600Y41710
X110140Y41710
X112680Y41710
X115220Y41710
X117760Y41710
X120300Y41710
X87280Y59490
X87280Y56950
X87280Y54410
X87280Y51870
X87280Y49330
X87280Y46790
X87280Y44250
X87280Y41710
X84740Y59490
X84740Y56950
X84740Y54410
X84740Y51870
X84740Y49330
X84740Y46790
X84740Y44250
X84740Y41710
X122840Y41710
X115220Y62030
X133000Y62030
X130460Y62030
X127920Y62030
X125380Y62030
T7
X132646Y24460
X132646Y20040
T8
X68190Y54330
X68190Y55600
X68190Y56870
X68190Y58140
X68190Y59410
X68190Y60680
X68190Y61950
X68190Y63220
X68190Y64490
X68190Y67030
X68190Y68300
X68190Y69570
X68190Y70840
X68190Y46710
X68190Y47980
X68190Y14690
X68190Y15960
X68190Y17230
X68190Y18500
X68190Y19770
X68190Y21040
X68190Y22310
X68190Y23580
X68190Y24850
X68190Y26120
X68190Y27390
X68190Y28660
X68190Y29930
X68190Y31200
X68190Y32470
X68190Y33740
X68190Y35010
X68190Y36280
X68190Y37550
X68190Y38820
X68190Y49250
X68190Y50520
X68190Y51790
X68190Y53060
X68190Y65760
T9
X78000Y39250
X101500Y39500
X100250Y49500
X86625Y21375
X91619Y21500
X120500Y64500
X97625Y70625
X103750Y68500
X98000Y73000
X105000Y71000
X98250Y27500
X92250Y18000
X109250Y59500
X126500Y59750
X72000Y15000
X101000Y19000
X75500Y19000
X101740Y22760
X97500Y48250
X97250Y39000
X96250Y53250
X74500Y53000
X101250Y34250
X102500Y33500
X72250Y12750
X100750Y27250
X97500Y32250
X88000Y61500
X82250Y63750
X83000Y61750
X115750Y39500
X76500Y39250
X80250Y22750
X84000Y33750
X97500Y31000
X102500Y52500
X77750Y80750
X85500Y31250
X109750Y37517
X91119Y35000
X90097Y42046
X114500Y72500
X113250Y21500
X103881Y33625
X90250Y70500
X103500Y26250
X98000Y80500
X86000Y27250
X126000Y23500
X126250Y22250
X74000Y38000
X117250Y31500
X117750Y32500
X116250Y30500
X103250Y11250
X105749Y8014
X108250Y14750
X108250Y23500
X120500Y45250
X122250Y43500
X105000Y80000
X113000Y79750
X128750Y80250
X127500Y79750
X110500Y17500
X110500Y19500
X95750Y18000
X92750Y41500
X92250Y49000
X122250Y57500
X85000Y27250
X78500Y21881
X98750Y4750
X92500Y11750
X91500Y9500
X99500Y29250
X96750Y22250
X107250Y50000
X105500Y23750
X91750Y27000
X93801Y34591
X100000Y72369
X107750Y33000
X107750Y38500
X94000Y17500
X95000Y45750
X90500Y75500
X100750Y75500
X97750Y50500
X100000Y69750
X109000Y67000
X113250Y67750
X106500Y57750
X115625Y57875
X103750Y66750
X120250Y71000
X101250Y56500
X120000Y56500
X95500Y31250
X73000Y25000
X73000Y17000
X98250Y17250
X81750Y24750
X96750Y26250
X81750Y26500
X96500Y29500
X92250Y28687
X81750Y28000
X81750Y29500
X95750Y28750
X81750Y22750
X99500Y26250
X83250Y22750
X102000Y26500
X99750Y22750
X74250Y33000
X85000Y34500
X94000Y35500
X71750Y35000
X90750Y37500
X100750Y31000
X79000Y28250
X101000Y32750
X79500Y33000
X102000Y30000
X98000Y26500
X75250Y42750
X100000Y43250
X99250Y39000
X102000Y45000
X90750Y43750
X97750Y43381
X76250Y36250
X114228Y39869
X79250Y39250
X79750Y34750
X103000Y27750
X113500Y65250
X80750Y65256
X111375Y64625
X79250Y64750
X110000Y39250
X72500Y36000
X105500Y34750
X73250Y37000
X103000Y39500
M30