G04 EAGLE Gerber RS-274X export*
G75*
%MOMM*%
%FSLAX34Y34*%
%LPD*%
%INCopper Layer 15*%
%IPPOS*%
%AMOC8*
5,1,8,0,0,1.08239X$1,22.5*%
G01*
%ADD10C,1.508000*%
%ADD11C,1.524000*%
%ADD12C,1.408000*%
%ADD13C,1.066800*%
%ADD14C,1.447800*%
%ADD15C,1.397000*%
%ADD16C,0.756400*%
%ADD17C,0.500000*%

G36*
X1000064Y32675D02*
X1000064Y32675D01*
X1000128Y32674D01*
X1000203Y32695D01*
X1000279Y32706D01*
X1000338Y32732D01*
X1000400Y32749D01*
X1000466Y32790D01*
X1000536Y32822D01*
X1000585Y32864D01*
X1000640Y32897D01*
X1000692Y32955D01*
X1000750Y33005D01*
X1000786Y33059D01*
X1000829Y33107D01*
X1000862Y33176D01*
X1000905Y33241D01*
X1000924Y33303D01*
X1000952Y33360D01*
X1000963Y33430D01*
X1000987Y33511D01*
X1000988Y33596D01*
X1000999Y33665D01*
X1000999Y125000D01*
X1000990Y125064D01*
X1000991Y125128D01*
X1000970Y125203D01*
X1000959Y125279D01*
X1000933Y125338D01*
X1000916Y125400D01*
X1000875Y125466D01*
X1000843Y125536D01*
X1000801Y125585D01*
X1000768Y125640D01*
X1000710Y125692D01*
X1000660Y125750D01*
X1000606Y125786D01*
X1000558Y125829D01*
X1000489Y125862D01*
X1000424Y125905D01*
X1000362Y125924D01*
X1000305Y125952D01*
X1000235Y125963D01*
X1000154Y125987D01*
X1000069Y125988D01*
X1000000Y125999D01*
X912500Y125999D01*
X912436Y125990D01*
X912372Y125991D01*
X912297Y125970D01*
X912221Y125959D01*
X912162Y125933D01*
X912100Y125916D01*
X912034Y125875D01*
X911964Y125843D01*
X911915Y125801D01*
X911860Y125768D01*
X911808Y125710D01*
X911750Y125660D01*
X911714Y125606D01*
X911671Y125558D01*
X911638Y125489D01*
X911595Y125424D01*
X911576Y125362D01*
X911548Y125305D01*
X911537Y125235D01*
X911513Y125154D01*
X911512Y125069D01*
X911501Y125000D01*
X911501Y118499D01*
X633499Y118499D01*
X633499Y155237D01*
X633493Y155278D01*
X633496Y155319D01*
X633476Y155403D01*
X633459Y155516D01*
X633435Y155569D01*
X633423Y155619D01*
X632496Y157857D01*
X632496Y161343D01*
X633423Y163581D01*
X633434Y163621D01*
X633452Y163659D01*
X633465Y163744D01*
X633493Y163854D01*
X633491Y163913D01*
X633499Y163963D01*
X633499Y209008D01*
X674037Y208815D01*
X674103Y208824D01*
X674170Y208823D01*
X674242Y208843D01*
X674317Y208854D01*
X674377Y208881D01*
X674442Y208898D01*
X674506Y208938D01*
X674574Y208969D01*
X674625Y209012D01*
X674682Y209047D01*
X674732Y209102D01*
X674789Y209151D01*
X674826Y209206D01*
X674871Y209256D01*
X674903Y209324D01*
X674945Y209386D01*
X674965Y209450D01*
X674994Y209510D01*
X675004Y209577D01*
X675029Y209655D01*
X675030Y209743D01*
X675041Y209814D01*
X675041Y211764D01*
X676085Y214285D01*
X677844Y216043D01*
X677882Y216095D01*
X677928Y216140D01*
X677967Y216207D01*
X678013Y216269D01*
X678036Y216329D01*
X678067Y216385D01*
X678085Y216460D01*
X678113Y216533D01*
X678117Y216597D01*
X678132Y216659D01*
X678128Y216737D01*
X678134Y216814D01*
X678121Y216877D01*
X678118Y216941D01*
X678092Y217014D01*
X678077Y217090D01*
X678047Y217147D01*
X678025Y217208D01*
X677984Y217264D01*
X677944Y217339D01*
X677885Y217400D01*
X677844Y217457D01*
X676085Y219215D01*
X675041Y221736D01*
X675041Y224464D01*
X676085Y226985D01*
X677844Y228743D01*
X677882Y228795D01*
X677928Y228840D01*
X677967Y228907D01*
X678013Y228969D01*
X678036Y229029D01*
X678067Y229085D01*
X678085Y229160D01*
X678113Y229233D01*
X678117Y229297D01*
X678132Y229359D01*
X678128Y229437D01*
X678134Y229514D01*
X678121Y229577D01*
X678118Y229641D01*
X678092Y229714D01*
X678077Y229790D01*
X678047Y229847D01*
X678025Y229908D01*
X677984Y229964D01*
X677944Y230039D01*
X677885Y230100D01*
X677844Y230157D01*
X676085Y231915D01*
X675041Y234436D01*
X675041Y237164D01*
X676085Y239685D01*
X677844Y241443D01*
X677882Y241495D01*
X677928Y241540D01*
X677967Y241607D01*
X678013Y241669D01*
X678036Y241729D01*
X678067Y241785D01*
X678085Y241860D01*
X678113Y241933D01*
X678117Y241997D01*
X678132Y242059D01*
X678128Y242137D01*
X678134Y242214D01*
X678121Y242277D01*
X678118Y242341D01*
X678092Y242414D01*
X678077Y242490D01*
X678047Y242547D01*
X678025Y242608D01*
X677984Y242664D01*
X677944Y242739D01*
X677885Y242800D01*
X677844Y242857D01*
X676085Y244615D01*
X675041Y247136D01*
X675041Y249864D01*
X676085Y252385D01*
X677844Y254143D01*
X677882Y254195D01*
X677928Y254240D01*
X677967Y254307D01*
X678013Y254369D01*
X678036Y254429D01*
X678067Y254485D01*
X678085Y254560D01*
X678113Y254633D01*
X678117Y254697D01*
X678132Y254759D01*
X678128Y254837D01*
X678134Y254914D01*
X678121Y254977D01*
X678118Y255041D01*
X678092Y255114D01*
X678077Y255190D01*
X678047Y255247D01*
X678025Y255308D01*
X677984Y255364D01*
X677944Y255439D01*
X677885Y255500D01*
X677844Y255557D01*
X676085Y257315D01*
X675041Y259836D01*
X675041Y262564D01*
X676085Y265085D01*
X677844Y266843D01*
X677882Y266895D01*
X677928Y266940D01*
X677967Y267007D01*
X678013Y267069D01*
X678036Y267129D01*
X678067Y267185D01*
X678085Y267260D01*
X678113Y267333D01*
X678117Y267397D01*
X678132Y267459D01*
X678128Y267537D01*
X678134Y267614D01*
X678121Y267677D01*
X678118Y267741D01*
X678092Y267814D01*
X678077Y267890D01*
X678047Y267947D01*
X678025Y268008D01*
X677984Y268064D01*
X677944Y268139D01*
X677885Y268200D01*
X677844Y268257D01*
X676085Y270015D01*
X675041Y272536D01*
X675041Y275264D01*
X676085Y277785D01*
X677844Y279543D01*
X677882Y279595D01*
X677928Y279640D01*
X677967Y279707D01*
X678013Y279769D01*
X678036Y279829D01*
X678067Y279885D01*
X678085Y279960D01*
X678113Y280033D01*
X678117Y280097D01*
X678132Y280159D01*
X678128Y280237D01*
X678134Y280314D01*
X678121Y280377D01*
X678118Y280441D01*
X678092Y280514D01*
X678077Y280590D01*
X678047Y280647D01*
X678025Y280708D01*
X677984Y280764D01*
X677944Y280839D01*
X677885Y280900D01*
X677844Y280957D01*
X676085Y282715D01*
X675041Y285236D01*
X675041Y287964D01*
X676085Y290485D01*
X677844Y292243D01*
X677882Y292295D01*
X677928Y292340D01*
X677967Y292407D01*
X678013Y292469D01*
X678036Y292529D01*
X678067Y292585D01*
X678085Y292660D01*
X678113Y292733D01*
X678117Y292797D01*
X678132Y292859D01*
X678128Y292937D01*
X678134Y293014D01*
X678121Y293077D01*
X678118Y293141D01*
X678092Y293214D01*
X678077Y293290D01*
X678047Y293347D01*
X678025Y293408D01*
X677984Y293464D01*
X677944Y293539D01*
X677885Y293600D01*
X677844Y293657D01*
X676085Y295415D01*
X675041Y297936D01*
X675041Y300664D01*
X676085Y303185D01*
X677844Y304943D01*
X677882Y304995D01*
X677928Y305040D01*
X677967Y305107D01*
X678013Y305169D01*
X678036Y305229D01*
X678067Y305285D01*
X678085Y305360D01*
X678113Y305433D01*
X678117Y305497D01*
X678132Y305559D01*
X678128Y305637D01*
X678134Y305714D01*
X678121Y305777D01*
X678118Y305841D01*
X678092Y305914D01*
X678077Y305990D01*
X678047Y306047D01*
X678025Y306108D01*
X677984Y306164D01*
X677944Y306239D01*
X677885Y306300D01*
X677844Y306357D01*
X676085Y308115D01*
X675041Y310636D01*
X675041Y313364D01*
X676085Y315885D01*
X677844Y317643D01*
X677882Y317695D01*
X677928Y317740D01*
X677967Y317807D01*
X678013Y317869D01*
X678036Y317929D01*
X678067Y317985D01*
X678085Y318060D01*
X678113Y318133D01*
X678117Y318197D01*
X678132Y318259D01*
X678128Y318337D01*
X678134Y318414D01*
X678121Y318477D01*
X678118Y318541D01*
X678092Y318614D01*
X678077Y318690D01*
X678047Y318747D01*
X678025Y318808D01*
X677984Y318864D01*
X677944Y318939D01*
X677885Y319000D01*
X677844Y319057D01*
X676085Y320815D01*
X675041Y323336D01*
X675041Y326064D01*
X676085Y328585D01*
X677844Y330343D01*
X677882Y330395D01*
X677928Y330440D01*
X677967Y330507D01*
X678013Y330569D01*
X678036Y330629D01*
X678067Y330685D01*
X678085Y330760D01*
X678113Y330833D01*
X678117Y330897D01*
X678132Y330959D01*
X678128Y331037D01*
X678134Y331114D01*
X678121Y331177D01*
X678118Y331241D01*
X678092Y331314D01*
X678077Y331390D01*
X678047Y331447D01*
X678025Y331508D01*
X677984Y331564D01*
X677944Y331639D01*
X677885Y331700D01*
X677844Y331757D01*
X676085Y333515D01*
X675041Y336036D01*
X675041Y338764D01*
X676085Y341285D01*
X677844Y343043D01*
X677882Y343095D01*
X677928Y343140D01*
X677967Y343207D01*
X678013Y343269D01*
X678036Y343329D01*
X678067Y343385D01*
X678085Y343460D01*
X678113Y343533D01*
X678117Y343597D01*
X678132Y343659D01*
X678128Y343737D01*
X678134Y343814D01*
X678121Y343877D01*
X678118Y343941D01*
X678092Y344014D01*
X678077Y344090D01*
X678047Y344147D01*
X678025Y344208D01*
X677984Y344264D01*
X677944Y344339D01*
X677885Y344400D01*
X677844Y344457D01*
X676085Y346215D01*
X675041Y348736D01*
X675041Y351464D01*
X676085Y353985D01*
X677844Y355743D01*
X677855Y355758D01*
X677860Y355763D01*
X677874Y355784D01*
X677882Y355795D01*
X677928Y355840D01*
X677967Y355907D01*
X678013Y355969D01*
X678036Y356029D01*
X678067Y356085D01*
X678085Y356160D01*
X678113Y356233D01*
X678117Y356297D01*
X678132Y356359D01*
X678128Y356437D01*
X678134Y356514D01*
X678121Y356577D01*
X678118Y356641D01*
X678092Y356714D01*
X678077Y356790D01*
X678047Y356847D01*
X678025Y356908D01*
X677984Y356964D01*
X677944Y357039D01*
X677885Y357100D01*
X677844Y357157D01*
X676085Y358915D01*
X675041Y361436D01*
X675041Y364164D01*
X676085Y366685D01*
X677844Y368443D01*
X677882Y368495D01*
X677928Y368540D01*
X677967Y368607D01*
X678013Y368669D01*
X678036Y368729D01*
X678067Y368785D01*
X678085Y368860D01*
X678113Y368933D01*
X678117Y368997D01*
X678132Y369059D01*
X678128Y369137D01*
X678134Y369214D01*
X678121Y369277D01*
X678118Y369341D01*
X678092Y369414D01*
X678077Y369490D01*
X678047Y369547D01*
X678025Y369608D01*
X677984Y369664D01*
X677944Y369739D01*
X677885Y369800D01*
X677844Y369857D01*
X676085Y371615D01*
X675041Y374136D01*
X675041Y376864D01*
X676085Y379385D01*
X677844Y381143D01*
X677882Y381195D01*
X677928Y381240D01*
X677967Y381307D01*
X678013Y381369D01*
X678036Y381429D01*
X678067Y381485D01*
X678085Y381560D01*
X678113Y381633D01*
X678117Y381697D01*
X678132Y381759D01*
X678128Y381837D01*
X678134Y381914D01*
X678121Y381977D01*
X678118Y382041D01*
X678092Y382114D01*
X678077Y382190D01*
X678047Y382247D01*
X678025Y382308D01*
X677984Y382364D01*
X677944Y382439D01*
X677885Y382500D01*
X677844Y382557D01*
X676085Y384315D01*
X675041Y386836D01*
X675041Y389564D01*
X676085Y392085D01*
X678015Y394015D01*
X680536Y395059D01*
X683264Y395059D01*
X685785Y394015D01*
X687715Y392085D01*
X688759Y389564D01*
X688759Y386836D01*
X687715Y384315D01*
X685956Y382557D01*
X685918Y382505D01*
X685872Y382460D01*
X685833Y382393D01*
X685787Y382331D01*
X685764Y382271D01*
X685733Y382215D01*
X685715Y382140D01*
X685687Y382067D01*
X685683Y382003D01*
X685668Y381940D01*
X685672Y381863D01*
X685666Y381786D01*
X685679Y381723D01*
X685682Y381659D01*
X685707Y381586D01*
X685723Y381510D01*
X685753Y381453D01*
X685775Y381392D01*
X685816Y381336D01*
X685856Y381261D01*
X685915Y381200D01*
X685956Y381143D01*
X687715Y379385D01*
X688759Y376864D01*
X688759Y374136D01*
X687715Y371615D01*
X685956Y369857D01*
X685918Y369805D01*
X685872Y369760D01*
X685833Y369693D01*
X685787Y369631D01*
X685764Y369571D01*
X685733Y369515D01*
X685715Y369440D01*
X685687Y369367D01*
X685683Y369303D01*
X685668Y369240D01*
X685672Y369163D01*
X685666Y369086D01*
X685679Y369023D01*
X685682Y368959D01*
X685707Y368886D01*
X685723Y368810D01*
X685753Y368753D01*
X685775Y368692D01*
X685816Y368636D01*
X685856Y368561D01*
X685915Y368500D01*
X685956Y368443D01*
X687715Y366685D01*
X688759Y364164D01*
X688759Y361436D01*
X687715Y358915D01*
X685956Y357157D01*
X685918Y357105D01*
X685872Y357060D01*
X685833Y356993D01*
X685787Y356931D01*
X685764Y356871D01*
X685733Y356815D01*
X685715Y356740D01*
X685687Y356667D01*
X685683Y356603D01*
X685668Y356540D01*
X685672Y356463D01*
X685666Y356386D01*
X685679Y356323D01*
X685682Y356259D01*
X685707Y356186D01*
X685723Y356110D01*
X685753Y356053D01*
X685775Y355992D01*
X685816Y355936D01*
X685856Y355861D01*
X685907Y355808D01*
X685922Y355783D01*
X685937Y355770D01*
X685956Y355743D01*
X687715Y353985D01*
X688759Y351464D01*
X688759Y348736D01*
X687715Y346215D01*
X685956Y344457D01*
X685918Y344405D01*
X685872Y344360D01*
X685833Y344293D01*
X685787Y344231D01*
X685764Y344171D01*
X685733Y344115D01*
X685715Y344040D01*
X685687Y343967D01*
X685683Y343903D01*
X685668Y343840D01*
X685672Y343763D01*
X685666Y343686D01*
X685679Y343623D01*
X685682Y343559D01*
X685707Y343486D01*
X685723Y343410D01*
X685753Y343353D01*
X685775Y343292D01*
X685816Y343236D01*
X685856Y343161D01*
X685915Y343100D01*
X685956Y343043D01*
X687715Y341285D01*
X688759Y338764D01*
X688759Y336036D01*
X687715Y333515D01*
X685956Y331757D01*
X685918Y331705D01*
X685872Y331660D01*
X685833Y331593D01*
X685787Y331531D01*
X685764Y331471D01*
X685733Y331415D01*
X685715Y331340D01*
X685687Y331267D01*
X685683Y331203D01*
X685668Y331140D01*
X685672Y331063D01*
X685666Y330986D01*
X685679Y330923D01*
X685682Y330859D01*
X685707Y330786D01*
X685723Y330710D01*
X685753Y330653D01*
X685775Y330592D01*
X685816Y330536D01*
X685856Y330461D01*
X685915Y330400D01*
X685956Y330343D01*
X687715Y328585D01*
X688759Y326064D01*
X688759Y323336D01*
X687715Y320815D01*
X685956Y319057D01*
X685918Y319005D01*
X685872Y318960D01*
X685833Y318893D01*
X685787Y318831D01*
X685764Y318771D01*
X685733Y318715D01*
X685715Y318640D01*
X685687Y318567D01*
X685683Y318503D01*
X685668Y318440D01*
X685672Y318363D01*
X685666Y318286D01*
X685679Y318223D01*
X685682Y318159D01*
X685707Y318086D01*
X685723Y318010D01*
X685753Y317953D01*
X685775Y317892D01*
X685816Y317836D01*
X685856Y317761D01*
X685915Y317700D01*
X685956Y317643D01*
X687715Y315885D01*
X688759Y313364D01*
X688759Y310636D01*
X687715Y308115D01*
X685956Y306357D01*
X685918Y306305D01*
X685872Y306260D01*
X685833Y306193D01*
X685787Y306131D01*
X685764Y306071D01*
X685733Y306015D01*
X685715Y305940D01*
X685687Y305867D01*
X685683Y305803D01*
X685668Y305740D01*
X685672Y305663D01*
X685666Y305586D01*
X685679Y305523D01*
X685682Y305459D01*
X685707Y305386D01*
X685723Y305310D01*
X685753Y305253D01*
X685775Y305192D01*
X685816Y305136D01*
X685856Y305061D01*
X685915Y305000D01*
X685956Y304943D01*
X687715Y303185D01*
X688759Y300664D01*
X688759Y297936D01*
X687715Y295415D01*
X685956Y293657D01*
X685918Y293605D01*
X685872Y293560D01*
X685833Y293493D01*
X685787Y293431D01*
X685764Y293371D01*
X685733Y293315D01*
X685715Y293240D01*
X685687Y293167D01*
X685683Y293103D01*
X685668Y293040D01*
X685672Y292963D01*
X685666Y292886D01*
X685679Y292823D01*
X685682Y292759D01*
X685707Y292686D01*
X685723Y292610D01*
X685753Y292553D01*
X685775Y292492D01*
X685816Y292436D01*
X685856Y292361D01*
X685915Y292300D01*
X685956Y292243D01*
X687715Y290485D01*
X688759Y287964D01*
X688759Y285236D01*
X687715Y282715D01*
X685956Y280957D01*
X685918Y280905D01*
X685872Y280860D01*
X685833Y280793D01*
X685787Y280731D01*
X685764Y280671D01*
X685733Y280615D01*
X685715Y280540D01*
X685687Y280467D01*
X685683Y280403D01*
X685668Y280340D01*
X685672Y280263D01*
X685666Y280186D01*
X685679Y280123D01*
X685682Y280059D01*
X685707Y279986D01*
X685723Y279910D01*
X685753Y279853D01*
X685775Y279792D01*
X685816Y279736D01*
X685856Y279661D01*
X685915Y279600D01*
X685956Y279543D01*
X687715Y277785D01*
X688759Y275264D01*
X688759Y272536D01*
X687715Y270015D01*
X685956Y268257D01*
X685918Y268205D01*
X685872Y268160D01*
X685833Y268093D01*
X685787Y268031D01*
X685764Y267971D01*
X685733Y267915D01*
X685715Y267840D01*
X685687Y267767D01*
X685683Y267703D01*
X685668Y267640D01*
X685672Y267563D01*
X685666Y267486D01*
X685679Y267423D01*
X685682Y267359D01*
X685707Y267286D01*
X685723Y267210D01*
X685753Y267153D01*
X685775Y267092D01*
X685816Y267036D01*
X685856Y266961D01*
X685915Y266900D01*
X685956Y266843D01*
X687715Y265085D01*
X688759Y262564D01*
X688759Y259836D01*
X687715Y257315D01*
X685956Y255557D01*
X685918Y255505D01*
X685872Y255460D01*
X685833Y255393D01*
X685787Y255331D01*
X685764Y255271D01*
X685733Y255215D01*
X685715Y255140D01*
X685687Y255067D01*
X685683Y255003D01*
X685668Y254940D01*
X685672Y254863D01*
X685666Y254786D01*
X685679Y254723D01*
X685682Y254659D01*
X685707Y254586D01*
X685723Y254510D01*
X685753Y254453D01*
X685775Y254392D01*
X685816Y254336D01*
X685856Y254261D01*
X685915Y254200D01*
X685956Y254143D01*
X687715Y252385D01*
X688759Y249864D01*
X688759Y247136D01*
X687715Y244615D01*
X685956Y242857D01*
X685918Y242805D01*
X685872Y242760D01*
X685833Y242693D01*
X685787Y242631D01*
X685764Y242571D01*
X685733Y242515D01*
X685715Y242440D01*
X685687Y242367D01*
X685683Y242303D01*
X685668Y242240D01*
X685672Y242163D01*
X685666Y242086D01*
X685679Y242023D01*
X685682Y241959D01*
X685707Y241886D01*
X685723Y241810D01*
X685753Y241753D01*
X685775Y241692D01*
X685816Y241636D01*
X685856Y241561D01*
X685915Y241500D01*
X685956Y241443D01*
X687715Y239685D01*
X688759Y237164D01*
X688759Y234436D01*
X687715Y231915D01*
X685956Y230157D01*
X685918Y230105D01*
X685872Y230060D01*
X685833Y229993D01*
X685787Y229931D01*
X685764Y229871D01*
X685733Y229815D01*
X685715Y229740D01*
X685687Y229667D01*
X685683Y229603D01*
X685668Y229540D01*
X685672Y229463D01*
X685666Y229386D01*
X685679Y229323D01*
X685682Y229259D01*
X685707Y229186D01*
X685723Y229110D01*
X685753Y229053D01*
X685775Y228992D01*
X685816Y228936D01*
X685856Y228861D01*
X685915Y228800D01*
X685956Y228743D01*
X687715Y226985D01*
X688759Y224464D01*
X688759Y221736D01*
X687715Y219215D01*
X685956Y217457D01*
X685918Y217405D01*
X685872Y217360D01*
X685833Y217293D01*
X685787Y217231D01*
X685764Y217171D01*
X685733Y217115D01*
X685715Y217040D01*
X685687Y216967D01*
X685683Y216903D01*
X685668Y216840D01*
X685672Y216763D01*
X685666Y216686D01*
X685679Y216623D01*
X685682Y216559D01*
X685707Y216486D01*
X685723Y216410D01*
X685753Y216353D01*
X685775Y216292D01*
X685816Y216236D01*
X685856Y216161D01*
X685915Y216100D01*
X685956Y216043D01*
X687715Y214285D01*
X688759Y211764D01*
X688759Y209740D01*
X688767Y209678D01*
X688766Y209616D01*
X688787Y209539D01*
X688799Y209460D01*
X688824Y209404D01*
X688840Y209344D01*
X688882Y209276D01*
X688915Y209203D01*
X688955Y209156D01*
X688987Y209104D01*
X689046Y209050D01*
X689098Y208989D01*
X689150Y208955D01*
X689196Y208914D01*
X689267Y208878D01*
X689334Y208835D01*
X689393Y208817D01*
X689449Y208789D01*
X689520Y208778D01*
X689604Y208752D01*
X689686Y208751D01*
X689753Y208740D01*
X862157Y207921D01*
X862192Y207925D01*
X862226Y207923D01*
X862331Y207944D01*
X862437Y207959D01*
X862469Y207973D01*
X862502Y207980D01*
X862597Y208030D01*
X862694Y208074D01*
X862721Y208096D01*
X862751Y208113D01*
X862828Y208187D01*
X862910Y208256D01*
X862929Y208285D01*
X862953Y208309D01*
X863006Y208402D01*
X863065Y208492D01*
X863075Y208525D01*
X863092Y208555D01*
X863117Y208659D01*
X863149Y208761D01*
X863149Y208795D01*
X863157Y208829D01*
X863152Y208936D01*
X863154Y209043D01*
X863145Y209076D01*
X863143Y209111D01*
X863108Y209212D01*
X863080Y209315D01*
X863062Y209345D01*
X863051Y209377D01*
X862998Y209450D01*
X862933Y209556D01*
X862895Y209590D01*
X862869Y209626D01*
X861751Y210744D01*
X860943Y212694D01*
X860943Y214806D01*
X861751Y216756D01*
X863244Y218249D01*
X865194Y219057D01*
X867306Y219057D01*
X869256Y218249D01*
X870749Y216756D01*
X871557Y214806D01*
X871557Y212694D01*
X870749Y210744D01*
X869593Y209588D01*
X869575Y209564D01*
X869552Y209544D01*
X869490Y209451D01*
X869423Y209362D01*
X869413Y209334D01*
X869396Y209309D01*
X869363Y209203D01*
X869324Y209098D01*
X869321Y209068D01*
X869313Y209040D01*
X869311Y208928D01*
X869302Y208817D01*
X869308Y208788D01*
X869307Y208758D01*
X869337Y208650D01*
X869360Y208541D01*
X869374Y208515D01*
X869381Y208486D01*
X869439Y208391D01*
X869492Y208292D01*
X869513Y208271D01*
X869528Y208245D01*
X869611Y208170D01*
X869689Y208090D01*
X869715Y208075D01*
X869737Y208055D01*
X869837Y208006D01*
X869934Y207951D01*
X869963Y207944D01*
X869990Y207931D01*
X870080Y207916D01*
X870209Y207886D01*
X870254Y207888D01*
X870294Y207882D01*
X1087495Y206849D01*
X1087561Y206858D01*
X1087628Y206857D01*
X1087700Y206877D01*
X1087775Y206887D01*
X1087835Y206915D01*
X1087900Y206932D01*
X1087964Y206972D01*
X1088032Y207003D01*
X1088083Y207046D01*
X1088140Y207081D01*
X1088190Y207136D01*
X1088247Y207185D01*
X1088284Y207240D01*
X1088329Y207290D01*
X1088361Y207357D01*
X1088403Y207420D01*
X1088423Y207484D01*
X1088452Y207544D01*
X1088462Y207611D01*
X1088487Y207689D01*
X1088488Y207777D01*
X1088499Y207848D01*
X1088499Y231082D01*
X1088495Y231114D01*
X1088497Y231146D01*
X1088475Y231253D01*
X1088459Y231361D01*
X1088446Y231391D01*
X1088440Y231422D01*
X1088388Y231519D01*
X1088343Y231618D01*
X1088322Y231643D01*
X1088307Y231671D01*
X1088231Y231750D01*
X1088160Y231832D01*
X1088133Y231850D01*
X1088110Y231873D01*
X1088015Y231927D01*
X1087924Y231987D01*
X1087893Y231996D01*
X1087865Y232012D01*
X1087758Y232037D01*
X1087654Y232069D01*
X1087622Y232070D01*
X1087591Y232077D01*
X1087481Y232072D01*
X1087372Y232073D01*
X1087341Y232064D01*
X1087309Y232063D01*
X1087206Y232027D01*
X1087100Y231998D01*
X1087073Y231981D01*
X1087042Y231970D01*
X1086969Y231917D01*
X1086860Y231850D01*
X1086828Y231814D01*
X1086793Y231789D01*
X1085506Y230501D01*
X1083556Y229693D01*
X1081444Y229693D01*
X1079494Y230501D01*
X1078001Y231994D01*
X1077193Y233944D01*
X1077193Y236056D01*
X1078001Y238006D01*
X1079494Y239499D01*
X1081444Y240307D01*
X1083556Y240307D01*
X1085506Y239499D01*
X1086793Y238211D01*
X1086819Y238192D01*
X1086840Y238168D01*
X1086932Y238108D01*
X1087019Y238042D01*
X1087049Y238031D01*
X1087076Y238013D01*
X1087181Y237981D01*
X1087283Y237943D01*
X1087315Y237940D01*
X1087346Y237931D01*
X1087455Y237929D01*
X1087564Y237921D01*
X1087596Y237927D01*
X1087628Y237927D01*
X1087733Y237956D01*
X1087840Y237978D01*
X1087869Y237994D01*
X1087900Y238002D01*
X1087993Y238060D01*
X1088089Y238111D01*
X1088112Y238133D01*
X1088140Y238150D01*
X1088213Y238231D01*
X1088291Y238308D01*
X1088307Y238336D01*
X1088329Y238360D01*
X1088376Y238458D01*
X1088430Y238553D01*
X1088438Y238584D01*
X1088452Y238613D01*
X1088466Y238703D01*
X1088495Y238827D01*
X1088493Y238876D01*
X1088499Y238918D01*
X1088499Y471501D01*
X1275000Y471501D01*
X1275064Y471510D01*
X1275128Y471509D01*
X1275203Y471530D01*
X1275279Y471541D01*
X1275338Y471567D01*
X1275400Y471584D01*
X1275466Y471625D01*
X1275536Y471657D01*
X1275585Y471699D01*
X1275640Y471732D01*
X1275692Y471790D01*
X1275750Y471840D01*
X1275786Y471894D01*
X1275829Y471942D01*
X1275862Y472011D01*
X1275905Y472076D01*
X1275924Y472138D01*
X1275952Y472195D01*
X1275963Y472265D01*
X1275987Y472346D01*
X1275988Y472431D01*
X1275999Y472500D01*
X1275999Y611688D01*
X1275998Y611697D01*
X1275999Y611706D01*
X1275978Y611836D01*
X1275959Y611967D01*
X1275956Y611976D01*
X1275954Y611985D01*
X1275897Y612104D01*
X1275843Y612224D01*
X1275837Y612231D01*
X1275833Y612240D01*
X1275745Y612338D01*
X1275660Y612438D01*
X1275652Y612443D01*
X1275646Y612450D01*
X1275580Y612490D01*
X1275424Y612593D01*
X1275401Y612600D01*
X1275382Y612611D01*
X1274348Y613039D01*
X1271939Y615448D01*
X1270635Y618596D01*
X1270635Y622004D01*
X1271939Y625152D01*
X1274348Y627561D01*
X1275382Y627989D01*
X1275391Y627994D01*
X1275400Y627996D01*
X1275512Y628066D01*
X1275625Y628133D01*
X1275632Y628140D01*
X1275640Y628145D01*
X1275728Y628243D01*
X1275818Y628338D01*
X1275822Y628347D01*
X1275829Y628354D01*
X1275886Y628473D01*
X1275946Y628590D01*
X1275948Y628599D01*
X1275952Y628608D01*
X1275964Y628684D01*
X1275998Y628867D01*
X1275996Y628891D01*
X1275999Y628912D01*
X1275999Y790000D01*
X1275990Y790062D01*
X1275992Y790124D01*
X1275971Y790200D01*
X1275959Y790279D01*
X1275934Y790336D01*
X1275918Y790396D01*
X1275876Y790464D01*
X1275843Y790536D01*
X1275803Y790583D01*
X1275770Y790636D01*
X1275712Y790690D01*
X1275660Y790750D01*
X1275608Y790785D01*
X1275562Y790826D01*
X1275491Y790861D01*
X1275424Y790905D01*
X1275364Y790923D01*
X1275309Y790950D01*
X1275238Y790962D01*
X1275154Y790987D01*
X1275072Y790988D01*
X1275004Y790999D01*
X969504Y792305D01*
X969438Y792296D01*
X969372Y792297D01*
X969299Y792276D01*
X969225Y792266D01*
X969164Y792239D01*
X969100Y792221D01*
X969036Y792182D01*
X968967Y792151D01*
X968917Y792108D01*
X968860Y792073D01*
X968810Y792017D01*
X968752Y791969D01*
X968716Y791913D01*
X968671Y791864D01*
X968638Y791796D01*
X968597Y791733D01*
X968577Y791670D01*
X968548Y791610D01*
X968538Y791542D01*
X968513Y791464D01*
X968512Y791377D01*
X968501Y791306D01*
X968501Y777085D01*
X967915Y776499D01*
X834585Y776499D01*
X833999Y777085D01*
X833999Y791889D01*
X833990Y791950D01*
X833992Y792013D01*
X833971Y792089D01*
X833959Y792168D01*
X833934Y792225D01*
X833918Y792285D01*
X833876Y792353D01*
X833843Y792425D01*
X833803Y792472D01*
X833770Y792525D01*
X833712Y792579D01*
X833660Y792639D01*
X833608Y792673D01*
X833562Y792715D01*
X833491Y792750D01*
X833424Y792794D01*
X833364Y792812D01*
X833309Y792839D01*
X833238Y792851D01*
X833154Y792876D01*
X833072Y792877D01*
X833004Y792888D01*
X690004Y793499D01*
X690002Y793499D01*
X690000Y793499D01*
X625000Y793499D01*
X624936Y793490D01*
X624872Y793491D01*
X624797Y793470D01*
X624721Y793459D01*
X624662Y793433D01*
X624600Y793416D01*
X624534Y793375D01*
X624464Y793343D01*
X624415Y793301D01*
X624360Y793268D01*
X624308Y793210D01*
X624250Y793160D01*
X624214Y793106D01*
X624171Y793058D01*
X624138Y792989D01*
X624095Y792924D01*
X624076Y792862D01*
X624048Y792805D01*
X624037Y792735D01*
X624013Y792654D01*
X624012Y792569D01*
X624001Y792500D01*
X624001Y33665D01*
X624010Y33601D01*
X624009Y33537D01*
X624030Y33462D01*
X624041Y33386D01*
X624067Y33327D01*
X624084Y33265D01*
X624125Y33199D01*
X624157Y33129D01*
X624199Y33080D01*
X624232Y33025D01*
X624290Y32973D01*
X624340Y32915D01*
X624394Y32879D01*
X624442Y32836D01*
X624511Y32803D01*
X624576Y32760D01*
X624638Y32741D01*
X624695Y32713D01*
X624765Y32702D01*
X624846Y32678D01*
X624931Y32677D01*
X625000Y32666D01*
X1000000Y32666D01*
X1000064Y32675D01*
G37*
G36*
X1242564Y64010D02*
X1242564Y64010D01*
X1242628Y64009D01*
X1242703Y64030D01*
X1242779Y64041D01*
X1242838Y64067D01*
X1242900Y64084D01*
X1242966Y64125D01*
X1243036Y64157D01*
X1243085Y64199D01*
X1243140Y64232D01*
X1243192Y64290D01*
X1243250Y64340D01*
X1243286Y64394D01*
X1243329Y64442D01*
X1243362Y64511D01*
X1243405Y64576D01*
X1243424Y64638D01*
X1243452Y64695D01*
X1243463Y64765D01*
X1243487Y64846D01*
X1243488Y64931D01*
X1243499Y65000D01*
X1243499Y467500D01*
X1243490Y467564D01*
X1243491Y467628D01*
X1243470Y467703D01*
X1243459Y467779D01*
X1243433Y467838D01*
X1243416Y467900D01*
X1243375Y467966D01*
X1243343Y468036D01*
X1243301Y468085D01*
X1243268Y468140D01*
X1243210Y468192D01*
X1243160Y468250D01*
X1243106Y468286D01*
X1243058Y468329D01*
X1242989Y468362D01*
X1242924Y468405D01*
X1242862Y468424D01*
X1242805Y468452D01*
X1242735Y468463D01*
X1242654Y468487D01*
X1242569Y468488D01*
X1242500Y468499D01*
X1097500Y468499D01*
X1097436Y468490D01*
X1097372Y468491D01*
X1097297Y468470D01*
X1097221Y468459D01*
X1097162Y468433D01*
X1097100Y468416D01*
X1097034Y468375D01*
X1096964Y468343D01*
X1096915Y468301D01*
X1096860Y468268D01*
X1096808Y468210D01*
X1096750Y468160D01*
X1096714Y468106D01*
X1096671Y468058D01*
X1096638Y467989D01*
X1096595Y467924D01*
X1096576Y467862D01*
X1096548Y467805D01*
X1096537Y467735D01*
X1096513Y467654D01*
X1096512Y467569D01*
X1096501Y467500D01*
X1096501Y425837D01*
X1096517Y425719D01*
X1096529Y425601D01*
X1096537Y425580D01*
X1096541Y425557D01*
X1096589Y425450D01*
X1096633Y425339D01*
X1096647Y425321D01*
X1096657Y425300D01*
X1096734Y425210D01*
X1096807Y425117D01*
X1096825Y425103D01*
X1096840Y425086D01*
X1096940Y425021D01*
X1097036Y424952D01*
X1097057Y424944D01*
X1097076Y424932D01*
X1097190Y424897D01*
X1097301Y424857D01*
X1097324Y424856D01*
X1097346Y424849D01*
X1097464Y424848D01*
X1097583Y424841D01*
X1097604Y424846D01*
X1097628Y424846D01*
X1097807Y424895D01*
X1097882Y424913D01*
X1099696Y425665D01*
X1103104Y425665D01*
X1106252Y424361D01*
X1108661Y421952D01*
X1109965Y418804D01*
X1109965Y415396D01*
X1108661Y412248D01*
X1106252Y409839D01*
X1103104Y408535D01*
X1099696Y408535D01*
X1097882Y409287D01*
X1097768Y409316D01*
X1097654Y409351D01*
X1097631Y409351D01*
X1097609Y409357D01*
X1097491Y409353D01*
X1097372Y409354D01*
X1097350Y409348D01*
X1097327Y409348D01*
X1097215Y409311D01*
X1097100Y409279D01*
X1097081Y409267D01*
X1097059Y409260D01*
X1096961Y409193D01*
X1096860Y409131D01*
X1096845Y409114D01*
X1096826Y409101D01*
X1096751Y409010D01*
X1096671Y408922D01*
X1096661Y408901D01*
X1096647Y408884D01*
X1096600Y408775D01*
X1096548Y408668D01*
X1096545Y408647D01*
X1096535Y408625D01*
X1096513Y408440D01*
X1096501Y408363D01*
X1096501Y398290D01*
X1096517Y398173D01*
X1096529Y398055D01*
X1096537Y398033D01*
X1096541Y398011D01*
X1096589Y397903D01*
X1096633Y397793D01*
X1096647Y397775D01*
X1096657Y397754D01*
X1096734Y397664D01*
X1096807Y397570D01*
X1096825Y397557D01*
X1096840Y397540D01*
X1096940Y397474D01*
X1097036Y397405D01*
X1097057Y397398D01*
X1097076Y397385D01*
X1097190Y397350D01*
X1097301Y397311D01*
X1097324Y397309D01*
X1097346Y397303D01*
X1097464Y397301D01*
X1097583Y397294D01*
X1097604Y397299D01*
X1097628Y397299D01*
X1097807Y397349D01*
X1097882Y397367D01*
X1098944Y397807D01*
X1101056Y397807D01*
X1103006Y396999D01*
X1104499Y395506D01*
X1105307Y393556D01*
X1105307Y391444D01*
X1104499Y389494D01*
X1103006Y388001D01*
X1101056Y387193D01*
X1098944Y387193D01*
X1097882Y387633D01*
X1097767Y387663D01*
X1097654Y387697D01*
X1097631Y387698D01*
X1097609Y387703D01*
X1097491Y387699D01*
X1097372Y387701D01*
X1097350Y387695D01*
X1097327Y387694D01*
X1097215Y387658D01*
X1097100Y387626D01*
X1097081Y387614D01*
X1097059Y387607D01*
X1096961Y387540D01*
X1096860Y387478D01*
X1096845Y387461D01*
X1096826Y387448D01*
X1096751Y387357D01*
X1096671Y387268D01*
X1096661Y387248D01*
X1096647Y387230D01*
X1096600Y387121D01*
X1096548Y387015D01*
X1096545Y386993D01*
X1096535Y386971D01*
X1096513Y386786D01*
X1096501Y386710D01*
X1096501Y381476D01*
X1096510Y381412D01*
X1096509Y381348D01*
X1096530Y381273D01*
X1096541Y381197D01*
X1096567Y381138D01*
X1096584Y381076D01*
X1096625Y381010D01*
X1096657Y380940D01*
X1096699Y380891D01*
X1096732Y380836D01*
X1096790Y380784D01*
X1096840Y380726D01*
X1096894Y380690D01*
X1096942Y380647D01*
X1097011Y380614D01*
X1097076Y380571D01*
X1097138Y380552D01*
X1097195Y380524D01*
X1097265Y380513D01*
X1097346Y380489D01*
X1097431Y380488D01*
X1097500Y380477D01*
X1098556Y380477D01*
X1100506Y379669D01*
X1101999Y378176D01*
X1102807Y376226D01*
X1102807Y374114D01*
X1101999Y372164D01*
X1100506Y370671D01*
X1098556Y369863D01*
X1097500Y369863D01*
X1097436Y369854D01*
X1097372Y369855D01*
X1097297Y369834D01*
X1097221Y369823D01*
X1097162Y369797D01*
X1097100Y369780D01*
X1097034Y369739D01*
X1096964Y369707D01*
X1096915Y369665D01*
X1096860Y369632D01*
X1096808Y369574D01*
X1096750Y369524D01*
X1096714Y369470D01*
X1096671Y369422D01*
X1096638Y369353D01*
X1096595Y369288D01*
X1096576Y369226D01*
X1096548Y369169D01*
X1096537Y369099D01*
X1096513Y369018D01*
X1096512Y368933D01*
X1096501Y368864D01*
X1096501Y153499D01*
X1051144Y153499D01*
X1051080Y153490D01*
X1051016Y153491D01*
X1050941Y153470D01*
X1050865Y153459D01*
X1050806Y153433D01*
X1050744Y153416D01*
X1050678Y153375D01*
X1050608Y153343D01*
X1050559Y153301D01*
X1050504Y153268D01*
X1050452Y153210D01*
X1050394Y153160D01*
X1050358Y153106D01*
X1050315Y153058D01*
X1050282Y152989D01*
X1050239Y152924D01*
X1050220Y152862D01*
X1050192Y152805D01*
X1050181Y152735D01*
X1050157Y152654D01*
X1050156Y152569D01*
X1050145Y152500D01*
X1050145Y150481D01*
X1048753Y147120D01*
X1046180Y144547D01*
X1042819Y143155D01*
X1039181Y143155D01*
X1035820Y144547D01*
X1033247Y147120D01*
X1031855Y150481D01*
X1031855Y152500D01*
X1031846Y152564D01*
X1031847Y152628D01*
X1031826Y152703D01*
X1031815Y152779D01*
X1031789Y152838D01*
X1031772Y152900D01*
X1031731Y152966D01*
X1031699Y153036D01*
X1031657Y153085D01*
X1031624Y153140D01*
X1031566Y153192D01*
X1031516Y153250D01*
X1031462Y153286D01*
X1031414Y153329D01*
X1031345Y153362D01*
X1031280Y153405D01*
X1031218Y153424D01*
X1031161Y153452D01*
X1031091Y153463D01*
X1031010Y153487D01*
X1030925Y153488D01*
X1030856Y153499D01*
X1025744Y153499D01*
X1025680Y153490D01*
X1025616Y153491D01*
X1025541Y153470D01*
X1025465Y153459D01*
X1025406Y153433D01*
X1025344Y153416D01*
X1025278Y153375D01*
X1025208Y153343D01*
X1025159Y153301D01*
X1025104Y153268D01*
X1025052Y153210D01*
X1024994Y153160D01*
X1024958Y153106D01*
X1024915Y153058D01*
X1024882Y152989D01*
X1024839Y152924D01*
X1024820Y152862D01*
X1024792Y152805D01*
X1024781Y152735D01*
X1024757Y152654D01*
X1024756Y152569D01*
X1024745Y152500D01*
X1024745Y150481D01*
X1023353Y147120D01*
X1020780Y144547D01*
X1017419Y143155D01*
X1013781Y143155D01*
X1010420Y144547D01*
X1007847Y147120D01*
X1006455Y150481D01*
X1006455Y152500D01*
X1006446Y152564D01*
X1006447Y152628D01*
X1006426Y152703D01*
X1006415Y152779D01*
X1006389Y152838D01*
X1006372Y152900D01*
X1006331Y152966D01*
X1006299Y153036D01*
X1006257Y153085D01*
X1006224Y153140D01*
X1006166Y153192D01*
X1006116Y153250D01*
X1006062Y153286D01*
X1006014Y153329D01*
X1005945Y153362D01*
X1005880Y153405D01*
X1005818Y153424D01*
X1005761Y153452D01*
X1005691Y153463D01*
X1005610Y153487D01*
X1005525Y153488D01*
X1005456Y153499D01*
X1000344Y153499D01*
X1000280Y153490D01*
X1000216Y153491D01*
X1000141Y153470D01*
X1000065Y153459D01*
X1000006Y153433D01*
X999944Y153416D01*
X999878Y153375D01*
X999808Y153343D01*
X999759Y153301D01*
X999704Y153268D01*
X999652Y153210D01*
X999594Y153160D01*
X999558Y153106D01*
X999515Y153058D01*
X999482Y152989D01*
X999439Y152924D01*
X999420Y152862D01*
X999392Y152805D01*
X999381Y152735D01*
X999357Y152654D01*
X999356Y152569D01*
X999345Y152500D01*
X999345Y150481D01*
X997953Y147120D01*
X995380Y144547D01*
X992019Y143155D01*
X988381Y143155D01*
X985020Y144547D01*
X982447Y147120D01*
X981055Y150481D01*
X981055Y152500D01*
X981046Y152564D01*
X981047Y152628D01*
X981026Y152703D01*
X981015Y152779D01*
X980989Y152838D01*
X980972Y152900D01*
X980931Y152966D01*
X980899Y153036D01*
X980857Y153085D01*
X980824Y153140D01*
X980766Y153192D01*
X980716Y153250D01*
X980662Y153286D01*
X980614Y153329D01*
X980545Y153362D01*
X980480Y153405D01*
X980418Y153424D01*
X980361Y153452D01*
X980291Y153463D01*
X980210Y153487D01*
X980125Y153488D01*
X980056Y153499D01*
X974944Y153499D01*
X974880Y153490D01*
X974816Y153491D01*
X974741Y153470D01*
X974665Y153459D01*
X974606Y153433D01*
X974544Y153416D01*
X974478Y153375D01*
X974408Y153343D01*
X974359Y153301D01*
X974304Y153268D01*
X974252Y153210D01*
X974194Y153160D01*
X974158Y153106D01*
X974115Y153058D01*
X974082Y152989D01*
X974039Y152924D01*
X974020Y152862D01*
X973992Y152805D01*
X973981Y152735D01*
X973957Y152654D01*
X973956Y152569D01*
X973945Y152500D01*
X973945Y150481D01*
X972553Y147120D01*
X969980Y144547D01*
X966619Y143155D01*
X962981Y143155D01*
X959620Y144547D01*
X957047Y147120D01*
X955655Y150481D01*
X955655Y152500D01*
X955646Y152564D01*
X955647Y152628D01*
X955626Y152703D01*
X955615Y152779D01*
X955589Y152838D01*
X955572Y152900D01*
X955531Y152966D01*
X955499Y153036D01*
X955457Y153085D01*
X955424Y153140D01*
X955366Y153192D01*
X955316Y153250D01*
X955262Y153286D01*
X955214Y153329D01*
X955145Y153362D01*
X955080Y153405D01*
X955018Y153424D01*
X954961Y153452D01*
X954891Y153463D01*
X954810Y153487D01*
X954725Y153488D01*
X954656Y153499D01*
X949544Y153499D01*
X949480Y153490D01*
X949416Y153491D01*
X949341Y153470D01*
X949265Y153459D01*
X949206Y153433D01*
X949144Y153416D01*
X949078Y153375D01*
X949008Y153343D01*
X948959Y153301D01*
X948904Y153268D01*
X948852Y153210D01*
X948794Y153160D01*
X948758Y153106D01*
X948715Y153058D01*
X948682Y152989D01*
X948639Y152924D01*
X948620Y152862D01*
X948592Y152805D01*
X948581Y152735D01*
X948557Y152654D01*
X948556Y152569D01*
X948545Y152500D01*
X948545Y150481D01*
X947153Y147120D01*
X944580Y144547D01*
X941219Y143155D01*
X937581Y143155D01*
X934220Y144547D01*
X931647Y147120D01*
X930255Y150481D01*
X930255Y152500D01*
X930246Y152564D01*
X930247Y152628D01*
X930226Y152703D01*
X930215Y152779D01*
X930189Y152838D01*
X930172Y152900D01*
X930131Y152966D01*
X930099Y153036D01*
X930057Y153085D01*
X930024Y153140D01*
X929966Y153192D01*
X929916Y153250D01*
X929862Y153286D01*
X929814Y153329D01*
X929745Y153362D01*
X929680Y153405D01*
X929618Y153424D01*
X929561Y153452D01*
X929491Y153463D01*
X929410Y153487D01*
X929325Y153488D01*
X929256Y153499D01*
X924144Y153499D01*
X924080Y153490D01*
X924016Y153491D01*
X923941Y153470D01*
X923865Y153459D01*
X923806Y153433D01*
X923744Y153416D01*
X923678Y153375D01*
X923608Y153343D01*
X923559Y153301D01*
X923504Y153268D01*
X923452Y153210D01*
X923394Y153160D01*
X923358Y153106D01*
X923315Y153058D01*
X923282Y152989D01*
X923239Y152924D01*
X923220Y152862D01*
X923192Y152805D01*
X923181Y152735D01*
X923157Y152654D01*
X923156Y152569D01*
X923145Y152500D01*
X923145Y150481D01*
X921753Y147120D01*
X919180Y144547D01*
X915819Y143155D01*
X912181Y143155D01*
X908820Y144547D01*
X906247Y147120D01*
X904855Y150481D01*
X904855Y152500D01*
X904846Y152564D01*
X904847Y152628D01*
X904826Y152703D01*
X904815Y152779D01*
X904789Y152838D01*
X904772Y152900D01*
X904731Y152966D01*
X904699Y153036D01*
X904657Y153085D01*
X904624Y153140D01*
X904566Y153192D01*
X904516Y153250D01*
X904462Y153286D01*
X904414Y153329D01*
X904345Y153362D01*
X904280Y153405D01*
X904218Y153424D01*
X904161Y153452D01*
X904091Y153463D01*
X904010Y153487D01*
X903925Y153488D01*
X903856Y153499D01*
X725790Y153499D01*
X725673Y153483D01*
X725555Y153471D01*
X725533Y153463D01*
X725511Y153459D01*
X725403Y153411D01*
X725293Y153367D01*
X725275Y153353D01*
X725254Y153343D01*
X725164Y153266D01*
X725070Y153193D01*
X725057Y153175D01*
X725040Y153160D01*
X724974Y153060D01*
X724905Y152964D01*
X724898Y152943D01*
X724885Y152924D01*
X724850Y152810D01*
X724811Y152699D01*
X724809Y152676D01*
X724803Y152654D01*
X724801Y152536D01*
X724794Y152417D01*
X724799Y152396D01*
X724799Y152372D01*
X724849Y152193D01*
X724867Y152118D01*
X725307Y151056D01*
X725307Y148944D01*
X724499Y146994D01*
X723006Y145501D01*
X721056Y144693D01*
X718944Y144693D01*
X716994Y145501D01*
X715501Y146994D01*
X714693Y148944D01*
X714693Y151056D01*
X715133Y152118D01*
X715163Y152232D01*
X715197Y152346D01*
X715198Y152369D01*
X715203Y152391D01*
X715199Y152509D01*
X715201Y152628D01*
X715195Y152650D01*
X715194Y152673D01*
X715157Y152785D01*
X715126Y152900D01*
X715114Y152919D01*
X715107Y152941D01*
X715040Y153039D01*
X714978Y153140D01*
X714961Y153155D01*
X714948Y153174D01*
X714856Y153249D01*
X714768Y153329D01*
X714748Y153339D01*
X714730Y153353D01*
X714621Y153400D01*
X714515Y153452D01*
X714493Y153455D01*
X714471Y153465D01*
X714286Y153487D01*
X714210Y153499D01*
X688831Y153499D01*
X688756Y153489D01*
X688681Y153488D01*
X688617Y153469D01*
X688552Y153459D01*
X688483Y153428D01*
X688411Y153407D01*
X688355Y153371D01*
X688295Y153343D01*
X688237Y153294D01*
X688174Y153253D01*
X688131Y153203D01*
X688080Y153160D01*
X688039Y153097D01*
X687990Y153039D01*
X687962Y152979D01*
X687926Y152924D01*
X687904Y152852D01*
X687873Y152783D01*
X687863Y152717D01*
X687844Y152654D01*
X687843Y152579D01*
X687832Y152504D01*
X687841Y152438D01*
X687840Y152372D01*
X687860Y152299D01*
X687870Y152225D01*
X687896Y152169D01*
X687915Y152100D01*
X687967Y152016D01*
X688000Y151945D01*
X688878Y150630D01*
X689472Y149197D01*
X689651Y148296D01*
X682297Y148296D01*
X682234Y148287D01*
X682169Y148288D01*
X682095Y148267D01*
X682018Y148256D01*
X681960Y148230D01*
X681898Y148213D01*
X681895Y148211D01*
X681865Y148221D01*
X681807Y148249D01*
X681738Y148260D01*
X681657Y148284D01*
X681572Y148285D01*
X681503Y148296D01*
X674149Y148296D01*
X674328Y149197D01*
X674922Y150630D01*
X675800Y151945D01*
X675833Y152013D01*
X675874Y152076D01*
X675893Y152140D01*
X675922Y152199D01*
X675934Y152274D01*
X675956Y152346D01*
X675957Y152412D01*
X675968Y152477D01*
X675959Y152552D01*
X675960Y152628D01*
X675943Y152692D01*
X675935Y152757D01*
X675905Y152827D01*
X675885Y152900D01*
X675850Y152956D01*
X675824Y153017D01*
X675777Y153075D01*
X675737Y153140D01*
X675688Y153184D01*
X675646Y153235D01*
X675584Y153278D01*
X675528Y153329D01*
X675468Y153358D01*
X675413Y153395D01*
X675342Y153419D01*
X675274Y153452D01*
X675214Y153461D01*
X675146Y153484D01*
X675047Y153487D01*
X674969Y153499D01*
X655000Y153499D01*
X654936Y153490D01*
X654872Y153491D01*
X654797Y153470D01*
X654721Y153459D01*
X654662Y153433D01*
X654600Y153416D01*
X654534Y153375D01*
X654464Y153343D01*
X654415Y153301D01*
X654360Y153268D01*
X654308Y153210D01*
X654250Y153160D01*
X654214Y153106D01*
X654171Y153058D01*
X654138Y152989D01*
X654095Y152924D01*
X654076Y152862D01*
X654048Y152805D01*
X654037Y152735D01*
X654013Y152654D01*
X654012Y152569D01*
X654001Y152500D01*
X654001Y135000D01*
X654010Y134936D01*
X654009Y134872D01*
X654030Y134797D01*
X654041Y134721D01*
X654067Y134662D01*
X654084Y134600D01*
X654125Y134534D01*
X654157Y134464D01*
X654199Y134415D01*
X654232Y134360D01*
X654290Y134308D01*
X654340Y134250D01*
X654394Y134214D01*
X654442Y134171D01*
X654511Y134138D01*
X654576Y134095D01*
X654638Y134076D01*
X654695Y134048D01*
X654765Y134037D01*
X654846Y134013D01*
X654931Y134012D01*
X655000Y134001D01*
X992500Y134001D01*
X992564Y134010D01*
X992628Y134009D01*
X992703Y134030D01*
X992779Y134041D01*
X992838Y134067D01*
X992900Y134084D01*
X992966Y134125D01*
X993036Y134157D01*
X993085Y134199D01*
X993140Y134232D01*
X993192Y134290D01*
X993250Y134340D01*
X993286Y134394D01*
X993329Y134442D01*
X993362Y134511D01*
X993405Y134576D01*
X993424Y134638D01*
X993452Y134695D01*
X993463Y134765D01*
X993487Y134846D01*
X993488Y134931D01*
X993499Y135000D01*
X993499Y139001D01*
X1019001Y139001D01*
X1019001Y65000D01*
X1019010Y64936D01*
X1019009Y64872D01*
X1019030Y64797D01*
X1019041Y64721D01*
X1019067Y64662D01*
X1019084Y64600D01*
X1019125Y64534D01*
X1019157Y64464D01*
X1019199Y64415D01*
X1019232Y64360D01*
X1019290Y64308D01*
X1019340Y64250D01*
X1019394Y64214D01*
X1019442Y64171D01*
X1019511Y64138D01*
X1019576Y64095D01*
X1019638Y64076D01*
X1019695Y64048D01*
X1019765Y64037D01*
X1019846Y64013D01*
X1019931Y64012D01*
X1020000Y64001D01*
X1242500Y64001D01*
X1242564Y64010D01*
G37*
%LPC*%
G36*
X678487Y47019D02*
X678487Y47019D01*
X670735Y49096D01*
X663784Y53109D01*
X658109Y58784D01*
X654096Y65735D01*
X652019Y73487D01*
X652019Y81513D01*
X654096Y89265D01*
X658109Y96216D01*
X663784Y101891D01*
X670735Y105904D01*
X678487Y107981D01*
X686513Y107981D01*
X694265Y105904D01*
X701216Y101891D01*
X706891Y96216D01*
X710904Y89265D01*
X712981Y81513D01*
X712981Y73487D01*
X710904Y65735D01*
X706891Y58784D01*
X701216Y53109D01*
X694265Y49096D01*
X686513Y47019D01*
X678487Y47019D01*
G37*
%LPD*%
%LPC*%
G36*
X680536Y460241D02*
X680536Y460241D01*
X678015Y461285D01*
X676085Y463215D01*
X675041Y465736D01*
X675041Y468464D01*
X676085Y470985D01*
X677844Y472743D01*
X677882Y472795D01*
X677928Y472840D01*
X677967Y472907D01*
X678013Y472969D01*
X678036Y473029D01*
X678067Y473085D01*
X678085Y473160D01*
X678113Y473233D01*
X678117Y473297D01*
X678132Y473359D01*
X678128Y473437D01*
X678134Y473514D01*
X678121Y473577D01*
X678118Y473641D01*
X678092Y473714D01*
X678077Y473790D01*
X678047Y473847D01*
X678025Y473908D01*
X677984Y473964D01*
X677944Y474039D01*
X677885Y474100D01*
X677844Y474157D01*
X676085Y475915D01*
X675041Y478436D01*
X675041Y481164D01*
X676085Y483685D01*
X677844Y485443D01*
X677882Y485495D01*
X677928Y485540D01*
X677967Y485607D01*
X678013Y485669D01*
X678036Y485729D01*
X678067Y485785D01*
X678085Y485860D01*
X678113Y485933D01*
X678117Y485997D01*
X678132Y486059D01*
X678128Y486137D01*
X678134Y486214D01*
X678121Y486277D01*
X678118Y486341D01*
X678092Y486414D01*
X678077Y486490D01*
X678047Y486547D01*
X678025Y486608D01*
X677984Y486664D01*
X677944Y486739D01*
X677885Y486800D01*
X677844Y486857D01*
X676085Y488615D01*
X675041Y491136D01*
X675041Y493864D01*
X676085Y496385D01*
X677844Y498143D01*
X677882Y498195D01*
X677928Y498240D01*
X677967Y498307D01*
X678013Y498369D01*
X678036Y498429D01*
X678067Y498485D01*
X678085Y498560D01*
X678113Y498633D01*
X678117Y498697D01*
X678132Y498759D01*
X678128Y498837D01*
X678134Y498914D01*
X678121Y498977D01*
X678118Y499041D01*
X678092Y499114D01*
X678077Y499190D01*
X678047Y499247D01*
X678025Y499308D01*
X677984Y499364D01*
X677944Y499439D01*
X677885Y499500D01*
X677844Y499557D01*
X676085Y501315D01*
X675041Y503836D01*
X675041Y506564D01*
X676085Y509085D01*
X677844Y510843D01*
X677882Y510895D01*
X677928Y510940D01*
X677967Y511007D01*
X678013Y511069D01*
X678036Y511129D01*
X678067Y511185D01*
X678085Y511260D01*
X678113Y511333D01*
X678117Y511397D01*
X678132Y511459D01*
X678128Y511537D01*
X678134Y511614D01*
X678121Y511677D01*
X678118Y511741D01*
X678092Y511814D01*
X678077Y511890D01*
X678047Y511947D01*
X678025Y512008D01*
X677984Y512064D01*
X677944Y512139D01*
X677885Y512200D01*
X677844Y512257D01*
X676085Y514015D01*
X675041Y516536D01*
X675041Y519264D01*
X676085Y521785D01*
X677844Y523543D01*
X677882Y523595D01*
X677928Y523640D01*
X677967Y523707D01*
X678013Y523769D01*
X678036Y523829D01*
X678067Y523885D01*
X678085Y523960D01*
X678113Y524033D01*
X678117Y524097D01*
X678132Y524159D01*
X678128Y524237D01*
X678134Y524314D01*
X678121Y524377D01*
X678118Y524441D01*
X678092Y524514D01*
X678077Y524590D01*
X678047Y524647D01*
X678025Y524708D01*
X677984Y524764D01*
X677944Y524839D01*
X677885Y524900D01*
X677844Y524957D01*
X676085Y526715D01*
X675041Y529236D01*
X675041Y531964D01*
X676085Y534485D01*
X677844Y536243D01*
X677882Y536295D01*
X677928Y536340D01*
X677967Y536407D01*
X678013Y536469D01*
X678036Y536529D01*
X678067Y536585D01*
X678085Y536660D01*
X678113Y536733D01*
X678117Y536797D01*
X678132Y536859D01*
X678128Y536937D01*
X678134Y537014D01*
X678121Y537077D01*
X678118Y537141D01*
X678092Y537214D01*
X678077Y537290D01*
X678047Y537347D01*
X678025Y537408D01*
X677984Y537464D01*
X677944Y537539D01*
X677885Y537600D01*
X677844Y537657D01*
X676085Y539415D01*
X675041Y541936D01*
X675041Y544664D01*
X676085Y547185D01*
X677844Y548943D01*
X677882Y548995D01*
X677928Y549040D01*
X677967Y549107D01*
X678013Y549169D01*
X678036Y549229D01*
X678067Y549285D01*
X678085Y549360D01*
X678113Y549433D01*
X678117Y549497D01*
X678132Y549559D01*
X678128Y549637D01*
X678134Y549714D01*
X678121Y549777D01*
X678118Y549841D01*
X678092Y549914D01*
X678077Y549990D01*
X678047Y550047D01*
X678025Y550108D01*
X677984Y550164D01*
X677944Y550239D01*
X677885Y550300D01*
X677844Y550357D01*
X676085Y552115D01*
X675041Y554636D01*
X675041Y557364D01*
X676085Y559885D01*
X677844Y561643D01*
X677882Y561695D01*
X677928Y561740D01*
X677967Y561807D01*
X678013Y561869D01*
X678036Y561929D01*
X678067Y561985D01*
X678085Y562060D01*
X678113Y562133D01*
X678117Y562197D01*
X678132Y562259D01*
X678128Y562337D01*
X678134Y562414D01*
X678121Y562477D01*
X678118Y562541D01*
X678092Y562614D01*
X678077Y562690D01*
X678047Y562747D01*
X678025Y562808D01*
X677984Y562864D01*
X677944Y562939D01*
X677885Y563000D01*
X677844Y563057D01*
X676085Y564815D01*
X675041Y567336D01*
X675041Y570064D01*
X676085Y572585D01*
X677844Y574343D01*
X677882Y574395D01*
X677928Y574440D01*
X677967Y574507D01*
X678013Y574569D01*
X678036Y574629D01*
X678067Y574685D01*
X678085Y574760D01*
X678113Y574833D01*
X678117Y574897D01*
X678132Y574959D01*
X678128Y575037D01*
X678134Y575114D01*
X678121Y575177D01*
X678118Y575241D01*
X678092Y575314D01*
X678077Y575390D01*
X678047Y575447D01*
X678025Y575508D01*
X677984Y575564D01*
X677944Y575639D01*
X677885Y575700D01*
X677844Y575757D01*
X676085Y577515D01*
X675041Y580036D01*
X675041Y582764D01*
X676085Y585285D01*
X677844Y587043D01*
X677882Y587095D01*
X677928Y587140D01*
X677967Y587207D01*
X678013Y587269D01*
X678036Y587329D01*
X678067Y587385D01*
X678085Y587460D01*
X678113Y587533D01*
X678117Y587597D01*
X678132Y587659D01*
X678128Y587737D01*
X678134Y587814D01*
X678121Y587877D01*
X678118Y587941D01*
X678092Y588014D01*
X678077Y588090D01*
X678047Y588147D01*
X678025Y588208D01*
X677984Y588264D01*
X677944Y588339D01*
X677885Y588400D01*
X677844Y588457D01*
X676085Y590215D01*
X675041Y592736D01*
X675041Y595464D01*
X676085Y597985D01*
X677844Y599743D01*
X677882Y599795D01*
X677928Y599840D01*
X677967Y599907D01*
X678013Y599969D01*
X678036Y600029D01*
X678067Y600085D01*
X678085Y600160D01*
X678113Y600233D01*
X678117Y600297D01*
X678132Y600359D01*
X678128Y600437D01*
X678134Y600514D01*
X678121Y600577D01*
X678118Y600641D01*
X678092Y600714D01*
X678077Y600790D01*
X678047Y600847D01*
X678025Y600908D01*
X677984Y600964D01*
X677944Y601039D01*
X677885Y601100D01*
X677844Y601157D01*
X676085Y602915D01*
X675041Y605436D01*
X675041Y608164D01*
X676085Y610685D01*
X677844Y612443D01*
X677882Y612495D01*
X677928Y612540D01*
X677967Y612607D01*
X678013Y612669D01*
X678036Y612729D01*
X678067Y612785D01*
X678085Y612860D01*
X678113Y612933D01*
X678117Y612997D01*
X678132Y613059D01*
X678128Y613137D01*
X678134Y613214D01*
X678121Y613277D01*
X678118Y613341D01*
X678092Y613414D01*
X678077Y613490D01*
X678047Y613547D01*
X678025Y613608D01*
X677984Y613664D01*
X677944Y613739D01*
X677885Y613800D01*
X677844Y613857D01*
X676085Y615615D01*
X675041Y618136D01*
X675041Y620864D01*
X676085Y623385D01*
X677844Y625143D01*
X677882Y625195D01*
X677928Y625240D01*
X677967Y625307D01*
X678013Y625369D01*
X678036Y625429D01*
X678067Y625485D01*
X678085Y625560D01*
X678113Y625633D01*
X678117Y625697D01*
X678132Y625759D01*
X678128Y625837D01*
X678134Y625914D01*
X678121Y625977D01*
X678118Y626041D01*
X678092Y626114D01*
X678077Y626190D01*
X678047Y626247D01*
X678025Y626308D01*
X677984Y626364D01*
X677944Y626439D01*
X677885Y626500D01*
X677844Y626557D01*
X676085Y628315D01*
X675041Y630836D01*
X675041Y633564D01*
X676085Y636085D01*
X677844Y637843D01*
X677882Y637895D01*
X677928Y637940D01*
X677967Y638007D01*
X678013Y638069D01*
X678036Y638129D01*
X678067Y638185D01*
X678085Y638260D01*
X678113Y638333D01*
X678117Y638397D01*
X678132Y638459D01*
X678128Y638537D01*
X678134Y638614D01*
X678121Y638677D01*
X678118Y638741D01*
X678092Y638814D01*
X678077Y638890D01*
X678047Y638947D01*
X678025Y639008D01*
X677984Y639064D01*
X677944Y639139D01*
X677885Y639200D01*
X677844Y639257D01*
X676085Y641015D01*
X675041Y643536D01*
X675041Y646264D01*
X676085Y648785D01*
X677844Y650543D01*
X677882Y650595D01*
X677928Y650640D01*
X677967Y650707D01*
X678013Y650769D01*
X678036Y650829D01*
X678067Y650885D01*
X678085Y650960D01*
X678113Y651033D01*
X678117Y651097D01*
X678132Y651159D01*
X678128Y651237D01*
X678134Y651314D01*
X678121Y651377D01*
X678118Y651441D01*
X678092Y651514D01*
X678077Y651590D01*
X678047Y651647D01*
X678025Y651708D01*
X677984Y651764D01*
X677944Y651839D01*
X677885Y651900D01*
X677844Y651957D01*
X676085Y653715D01*
X675041Y656236D01*
X675041Y658964D01*
X676085Y661485D01*
X677844Y663243D01*
X677882Y663295D01*
X677928Y663340D01*
X677967Y663407D01*
X678013Y663469D01*
X678036Y663529D01*
X678067Y663585D01*
X678085Y663660D01*
X678113Y663733D01*
X678117Y663797D01*
X678132Y663859D01*
X678128Y663937D01*
X678134Y664014D01*
X678121Y664077D01*
X678118Y664141D01*
X678092Y664214D01*
X678077Y664290D01*
X678047Y664347D01*
X678025Y664408D01*
X677984Y664464D01*
X677944Y664539D01*
X677885Y664600D01*
X677844Y664657D01*
X676085Y666415D01*
X675041Y668936D01*
X675041Y671664D01*
X676085Y674185D01*
X677844Y675943D01*
X677882Y675995D01*
X677928Y676040D01*
X677967Y676107D01*
X678013Y676169D01*
X678036Y676229D01*
X678067Y676285D01*
X678085Y676360D01*
X678113Y676433D01*
X678117Y676497D01*
X678132Y676559D01*
X678128Y676637D01*
X678134Y676714D01*
X678121Y676777D01*
X678118Y676841D01*
X678092Y676914D01*
X678077Y676990D01*
X678047Y677047D01*
X678025Y677108D01*
X677984Y677164D01*
X677944Y677239D01*
X677885Y677300D01*
X677844Y677357D01*
X676085Y679115D01*
X675041Y681636D01*
X675041Y684364D01*
X676085Y686885D01*
X677844Y688643D01*
X677882Y688695D01*
X677928Y688740D01*
X677967Y688807D01*
X678013Y688869D01*
X678036Y688929D01*
X678067Y688985D01*
X678085Y689060D01*
X678113Y689133D01*
X678117Y689197D01*
X678132Y689259D01*
X678128Y689337D01*
X678134Y689414D01*
X678121Y689477D01*
X678118Y689541D01*
X678092Y689614D01*
X678077Y689690D01*
X678047Y689747D01*
X678025Y689808D01*
X677984Y689864D01*
X677944Y689939D01*
X677885Y690000D01*
X677844Y690057D01*
X676085Y691815D01*
X675041Y694336D01*
X675041Y697064D01*
X676085Y699585D01*
X677160Y700660D01*
X677173Y700677D01*
X677189Y700690D01*
X677257Y700789D01*
X677329Y700885D01*
X677337Y700905D01*
X677349Y700922D01*
X677386Y701037D01*
X677429Y701149D01*
X677431Y701170D01*
X677437Y701190D01*
X677442Y701310D01*
X677451Y701431D01*
X677447Y701451D01*
X677447Y701472D01*
X677418Y701589D01*
X677393Y701707D01*
X677383Y701725D01*
X677378Y701745D01*
X677317Y701849D01*
X677261Y701956D01*
X677246Y701971D01*
X677236Y701989D01*
X677169Y702050D01*
X677064Y702158D01*
X677032Y702176D01*
X677009Y702197D01*
X676880Y702283D01*
X675783Y703380D01*
X674922Y704670D01*
X674328Y706103D01*
X674149Y707004D01*
X681503Y707004D01*
X681566Y707013D01*
X681631Y707012D01*
X681705Y707033D01*
X681782Y707044D01*
X681840Y707070D01*
X681902Y707087D01*
X681905Y707088D01*
X681935Y707079D01*
X681993Y707051D01*
X682062Y707040D01*
X682143Y707016D01*
X682228Y707015D01*
X682297Y707004D01*
X689651Y707004D01*
X689472Y706103D01*
X688878Y704670D01*
X688017Y703380D01*
X686920Y702283D01*
X686791Y702197D01*
X686776Y702183D01*
X686757Y702174D01*
X686671Y702090D01*
X686581Y702009D01*
X686570Y701991D01*
X686555Y701977D01*
X686496Y701872D01*
X686432Y701770D01*
X686426Y701750D01*
X686416Y701731D01*
X686388Y701614D01*
X686356Y701498D01*
X686356Y701477D01*
X686351Y701457D01*
X686357Y701337D01*
X686358Y701216D01*
X686365Y701196D01*
X686366Y701175D01*
X686405Y701062D01*
X686440Y700946D01*
X686451Y700929D01*
X686458Y700909D01*
X686512Y700835D01*
X686593Y700710D01*
X686621Y700686D01*
X686640Y700660D01*
X687715Y699585D01*
X688759Y697064D01*
X688759Y694336D01*
X687715Y691815D01*
X685956Y690057D01*
X685918Y690005D01*
X685872Y689960D01*
X685833Y689893D01*
X685787Y689831D01*
X685764Y689771D01*
X685733Y689715D01*
X685715Y689640D01*
X685687Y689567D01*
X685683Y689503D01*
X685668Y689440D01*
X685672Y689363D01*
X685666Y689286D01*
X685679Y689223D01*
X685682Y689159D01*
X685707Y689086D01*
X685723Y689010D01*
X685753Y688953D01*
X685775Y688892D01*
X685816Y688836D01*
X685856Y688761D01*
X685915Y688700D01*
X685956Y688643D01*
X687715Y686885D01*
X688759Y684364D01*
X688759Y681636D01*
X687715Y679115D01*
X685956Y677357D01*
X685918Y677305D01*
X685872Y677260D01*
X685833Y677193D01*
X685787Y677131D01*
X685764Y677071D01*
X685733Y677015D01*
X685715Y676940D01*
X685687Y676867D01*
X685683Y676803D01*
X685668Y676740D01*
X685672Y676663D01*
X685666Y676586D01*
X685679Y676523D01*
X685682Y676459D01*
X685707Y676386D01*
X685723Y676310D01*
X685753Y676253D01*
X685775Y676192D01*
X685816Y676136D01*
X685856Y676061D01*
X685915Y676000D01*
X685956Y675943D01*
X687715Y674185D01*
X688759Y671664D01*
X688759Y668936D01*
X687715Y666415D01*
X685956Y664657D01*
X685918Y664605D01*
X685872Y664560D01*
X685833Y664493D01*
X685787Y664431D01*
X685764Y664371D01*
X685733Y664315D01*
X685715Y664240D01*
X685687Y664167D01*
X685683Y664103D01*
X685668Y664040D01*
X685672Y663963D01*
X685666Y663886D01*
X685679Y663823D01*
X685682Y663759D01*
X685707Y663686D01*
X685723Y663610D01*
X685753Y663553D01*
X685775Y663492D01*
X685816Y663436D01*
X685856Y663361D01*
X685915Y663300D01*
X685956Y663243D01*
X687715Y661485D01*
X688759Y658964D01*
X688759Y656236D01*
X687715Y653715D01*
X685956Y651957D01*
X685918Y651905D01*
X685872Y651860D01*
X685833Y651793D01*
X685787Y651731D01*
X685764Y651671D01*
X685733Y651615D01*
X685715Y651540D01*
X685687Y651467D01*
X685683Y651403D01*
X685668Y651340D01*
X685672Y651263D01*
X685666Y651186D01*
X685679Y651123D01*
X685682Y651059D01*
X685707Y650986D01*
X685723Y650910D01*
X685753Y650853D01*
X685775Y650792D01*
X685816Y650736D01*
X685856Y650661D01*
X685915Y650600D01*
X685956Y650543D01*
X687715Y648785D01*
X688759Y646264D01*
X688759Y643536D01*
X687715Y641015D01*
X685956Y639257D01*
X685918Y639205D01*
X685872Y639160D01*
X685833Y639093D01*
X685787Y639031D01*
X685764Y638971D01*
X685733Y638915D01*
X685715Y638840D01*
X685687Y638767D01*
X685683Y638703D01*
X685668Y638640D01*
X685672Y638563D01*
X685666Y638486D01*
X685679Y638423D01*
X685682Y638359D01*
X685707Y638286D01*
X685723Y638210D01*
X685753Y638153D01*
X685775Y638092D01*
X685816Y638036D01*
X685856Y637961D01*
X685915Y637900D01*
X685956Y637843D01*
X687715Y636085D01*
X688759Y633564D01*
X688759Y630836D01*
X687715Y628315D01*
X685956Y626557D01*
X685918Y626505D01*
X685872Y626460D01*
X685833Y626393D01*
X685787Y626331D01*
X685764Y626271D01*
X685733Y626215D01*
X685715Y626140D01*
X685687Y626067D01*
X685683Y626003D01*
X685668Y625940D01*
X685672Y625863D01*
X685666Y625786D01*
X685679Y625723D01*
X685682Y625659D01*
X685707Y625586D01*
X685723Y625510D01*
X685753Y625453D01*
X685775Y625392D01*
X685816Y625336D01*
X685856Y625261D01*
X685915Y625200D01*
X685956Y625143D01*
X687715Y623385D01*
X688759Y620864D01*
X688759Y618136D01*
X687715Y615615D01*
X685956Y613857D01*
X685918Y613805D01*
X685872Y613760D01*
X685833Y613693D01*
X685787Y613631D01*
X685764Y613571D01*
X685733Y613515D01*
X685715Y613440D01*
X685687Y613367D01*
X685683Y613303D01*
X685668Y613240D01*
X685672Y613163D01*
X685666Y613086D01*
X685679Y613023D01*
X685682Y612959D01*
X685707Y612886D01*
X685723Y612810D01*
X685753Y612753D01*
X685775Y612692D01*
X685816Y612636D01*
X685856Y612561D01*
X685915Y612500D01*
X685956Y612443D01*
X687715Y610685D01*
X688759Y608164D01*
X688759Y605436D01*
X687715Y602915D01*
X685956Y601157D01*
X685918Y601105D01*
X685872Y601060D01*
X685833Y600993D01*
X685787Y600931D01*
X685764Y600871D01*
X685733Y600815D01*
X685715Y600740D01*
X685687Y600667D01*
X685683Y600603D01*
X685668Y600540D01*
X685672Y600463D01*
X685666Y600386D01*
X685679Y600323D01*
X685682Y600259D01*
X685707Y600186D01*
X685723Y600110D01*
X685753Y600053D01*
X685775Y599992D01*
X685816Y599936D01*
X685856Y599861D01*
X685915Y599800D01*
X685956Y599743D01*
X687715Y597985D01*
X688759Y595464D01*
X688759Y592736D01*
X687715Y590215D01*
X685956Y588457D01*
X685918Y588405D01*
X685872Y588360D01*
X685833Y588293D01*
X685787Y588231D01*
X685764Y588171D01*
X685733Y588115D01*
X685715Y588040D01*
X685687Y587967D01*
X685683Y587903D01*
X685668Y587840D01*
X685672Y587763D01*
X685666Y587686D01*
X685679Y587623D01*
X685682Y587559D01*
X685707Y587486D01*
X685723Y587410D01*
X685753Y587353D01*
X685775Y587292D01*
X685816Y587236D01*
X685856Y587161D01*
X685915Y587100D01*
X685956Y587043D01*
X687715Y585285D01*
X688759Y582764D01*
X688759Y580036D01*
X687715Y577515D01*
X685956Y575757D01*
X685918Y575705D01*
X685872Y575660D01*
X685833Y575593D01*
X685787Y575531D01*
X685764Y575471D01*
X685733Y575415D01*
X685715Y575340D01*
X685687Y575267D01*
X685683Y575203D01*
X685668Y575140D01*
X685672Y575063D01*
X685666Y574986D01*
X685679Y574923D01*
X685682Y574859D01*
X685707Y574786D01*
X685723Y574710D01*
X685753Y574653D01*
X685775Y574592D01*
X685816Y574536D01*
X685856Y574461D01*
X685915Y574400D01*
X685956Y574343D01*
X687715Y572585D01*
X688759Y570064D01*
X688759Y567336D01*
X687715Y564815D01*
X685956Y563057D01*
X685918Y563005D01*
X685872Y562960D01*
X685833Y562893D01*
X685787Y562831D01*
X685764Y562771D01*
X685733Y562715D01*
X685715Y562640D01*
X685687Y562567D01*
X685683Y562503D01*
X685668Y562440D01*
X685672Y562363D01*
X685666Y562286D01*
X685679Y562223D01*
X685682Y562159D01*
X685707Y562086D01*
X685723Y562010D01*
X685753Y561953D01*
X685775Y561892D01*
X685816Y561836D01*
X685856Y561761D01*
X685915Y561700D01*
X685956Y561643D01*
X687715Y559885D01*
X688759Y557364D01*
X688759Y554636D01*
X687715Y552115D01*
X685956Y550357D01*
X685918Y550305D01*
X685872Y550260D01*
X685833Y550193D01*
X685787Y550131D01*
X685764Y550071D01*
X685733Y550015D01*
X685715Y549940D01*
X685687Y549867D01*
X685683Y549803D01*
X685668Y549740D01*
X685672Y549663D01*
X685666Y549586D01*
X685679Y549523D01*
X685682Y549459D01*
X685707Y549386D01*
X685723Y549310D01*
X685753Y549253D01*
X685775Y549192D01*
X685816Y549136D01*
X685856Y549061D01*
X685915Y549000D01*
X685956Y548943D01*
X687715Y547185D01*
X688759Y544664D01*
X688759Y541936D01*
X687715Y539415D01*
X685956Y537657D01*
X685918Y537605D01*
X685872Y537560D01*
X685833Y537493D01*
X685787Y537431D01*
X685764Y537371D01*
X685733Y537315D01*
X685715Y537239D01*
X685687Y537167D01*
X685683Y537103D01*
X685668Y537040D01*
X685672Y536963D01*
X685666Y536886D01*
X685679Y536823D01*
X685682Y536759D01*
X685707Y536686D01*
X685723Y536610D01*
X685753Y536553D01*
X685775Y536492D01*
X685816Y536436D01*
X685856Y536361D01*
X685915Y536300D01*
X685956Y536243D01*
X687715Y534485D01*
X688759Y531964D01*
X688759Y529236D01*
X687715Y526715D01*
X685956Y524957D01*
X685918Y524905D01*
X685872Y524860D01*
X685833Y524793D01*
X685787Y524731D01*
X685764Y524671D01*
X685733Y524615D01*
X685715Y524540D01*
X685687Y524467D01*
X685683Y524403D01*
X685668Y524340D01*
X685672Y524263D01*
X685666Y524186D01*
X685679Y524123D01*
X685682Y524059D01*
X685707Y523986D01*
X685723Y523910D01*
X685753Y523853D01*
X685775Y523792D01*
X685816Y523736D01*
X685856Y523661D01*
X685915Y523600D01*
X685956Y523543D01*
X687715Y521785D01*
X688759Y519264D01*
X688759Y516536D01*
X687715Y514015D01*
X685956Y512257D01*
X685918Y512205D01*
X685872Y512160D01*
X685833Y512093D01*
X685787Y512031D01*
X685764Y511971D01*
X685733Y511915D01*
X685715Y511840D01*
X685687Y511767D01*
X685683Y511703D01*
X685668Y511640D01*
X685672Y511563D01*
X685666Y511486D01*
X685679Y511423D01*
X685682Y511359D01*
X685707Y511286D01*
X685723Y511210D01*
X685753Y511153D01*
X685775Y511092D01*
X685816Y511036D01*
X685856Y510961D01*
X685915Y510900D01*
X685956Y510843D01*
X687715Y509085D01*
X688759Y506564D01*
X688759Y503836D01*
X687715Y501315D01*
X685956Y499557D01*
X685918Y499505D01*
X685872Y499460D01*
X685833Y499393D01*
X685787Y499331D01*
X685764Y499271D01*
X685733Y499215D01*
X685715Y499140D01*
X685687Y499067D01*
X685683Y499003D01*
X685668Y498940D01*
X685672Y498863D01*
X685666Y498786D01*
X685679Y498723D01*
X685682Y498659D01*
X685707Y498586D01*
X685723Y498510D01*
X685753Y498453D01*
X685775Y498392D01*
X685816Y498336D01*
X685856Y498261D01*
X685915Y498200D01*
X685956Y498143D01*
X687715Y496385D01*
X688759Y493864D01*
X688759Y491136D01*
X687715Y488615D01*
X685956Y486857D01*
X685918Y486805D01*
X685872Y486760D01*
X685833Y486693D01*
X685787Y486631D01*
X685764Y486571D01*
X685733Y486515D01*
X685715Y486440D01*
X685687Y486367D01*
X685683Y486303D01*
X685668Y486240D01*
X685672Y486163D01*
X685666Y486086D01*
X685679Y486023D01*
X685682Y485959D01*
X685707Y485886D01*
X685723Y485810D01*
X685753Y485753D01*
X685775Y485692D01*
X685816Y485636D01*
X685856Y485561D01*
X685915Y485500D01*
X685956Y485443D01*
X687715Y483685D01*
X688759Y481164D01*
X688759Y478436D01*
X687715Y475915D01*
X685956Y474157D01*
X685918Y474105D01*
X685872Y474060D01*
X685833Y473993D01*
X685787Y473931D01*
X685764Y473871D01*
X685733Y473815D01*
X685715Y473740D01*
X685687Y473667D01*
X685683Y473603D01*
X685668Y473540D01*
X685672Y473463D01*
X685666Y473386D01*
X685679Y473323D01*
X685682Y473259D01*
X685707Y473186D01*
X685723Y473110D01*
X685753Y473053D01*
X685775Y472992D01*
X685816Y472936D01*
X685856Y472861D01*
X685915Y472800D01*
X685956Y472743D01*
X687715Y470985D01*
X688759Y468464D01*
X688759Y465736D01*
X687715Y463215D01*
X685785Y461285D01*
X683264Y460241D01*
X680536Y460241D01*
G37*
%LPD*%
%LPC*%
G36*
X1088944Y664693D02*
X1088944Y664693D01*
X1086994Y665501D01*
X1085501Y666994D01*
X1084693Y668944D01*
X1084693Y671056D01*
X1085501Y673006D01*
X1085502Y673007D01*
X1085573Y673101D01*
X1085648Y673193D01*
X1085657Y673214D01*
X1085671Y673232D01*
X1085713Y673343D01*
X1085760Y673452D01*
X1085763Y673475D01*
X1085771Y673496D01*
X1085780Y673614D01*
X1085794Y673732D01*
X1085791Y673754D01*
X1085792Y673777D01*
X1085768Y673893D01*
X1085749Y674010D01*
X1085739Y674031D01*
X1085735Y674053D01*
X1085679Y674158D01*
X1085628Y674265D01*
X1085613Y674282D01*
X1085602Y674302D01*
X1085520Y674387D01*
X1085441Y674476D01*
X1085422Y674487D01*
X1085406Y674504D01*
X1085243Y674597D01*
X1085178Y674636D01*
X1081438Y676185D01*
X1080557Y677067D01*
X1080505Y677105D01*
X1080460Y677151D01*
X1080393Y677189D01*
X1080331Y677236D01*
X1080271Y677258D01*
X1080215Y677290D01*
X1080140Y677308D01*
X1080067Y677335D01*
X1080003Y677340D01*
X1079941Y677355D01*
X1079863Y677351D01*
X1079786Y677357D01*
X1079723Y677344D01*
X1079659Y677341D01*
X1079586Y677315D01*
X1079510Y677300D01*
X1079453Y677269D01*
X1079392Y677248D01*
X1079336Y677207D01*
X1079261Y677167D01*
X1079200Y677108D01*
X1079143Y677067D01*
X1078262Y676186D01*
X1072707Y673884D01*
X1066693Y673884D01*
X1061138Y676186D01*
X1056886Y680438D01*
X1054584Y685993D01*
X1054584Y692007D01*
X1056886Y697562D01*
X1061138Y701814D01*
X1066693Y704116D01*
X1072707Y704116D01*
X1078262Y701814D01*
X1079143Y700933D01*
X1079195Y700895D01*
X1079240Y700849D01*
X1079307Y700811D01*
X1079369Y700764D01*
X1079429Y700741D01*
X1079485Y700710D01*
X1079560Y700692D01*
X1079633Y700665D01*
X1079697Y700660D01*
X1079760Y700645D01*
X1079837Y700649D01*
X1079914Y700643D01*
X1079977Y700656D01*
X1080041Y700659D01*
X1080114Y700685D01*
X1080190Y700700D01*
X1080247Y700731D01*
X1080308Y700752D01*
X1080364Y700793D01*
X1080439Y700833D01*
X1080500Y700892D01*
X1080557Y700933D01*
X1081438Y701815D01*
X1086993Y704116D01*
X1093007Y704116D01*
X1098562Y701814D01*
X1102814Y697562D01*
X1105116Y692007D01*
X1105116Y685993D01*
X1102814Y680438D01*
X1098562Y676185D01*
X1094822Y674636D01*
X1094720Y674576D01*
X1094616Y674520D01*
X1094599Y674504D01*
X1094580Y674493D01*
X1094498Y674406D01*
X1094414Y674323D01*
X1094402Y674304D01*
X1094387Y674287D01*
X1094333Y674181D01*
X1094275Y674078D01*
X1094269Y674056D01*
X1094259Y674036D01*
X1094237Y673919D01*
X1094210Y673804D01*
X1094211Y673781D01*
X1094207Y673758D01*
X1094218Y673641D01*
X1094224Y673522D01*
X1094231Y673500D01*
X1094234Y673478D01*
X1094278Y673368D01*
X1094317Y673255D01*
X1094329Y673238D01*
X1094338Y673216D01*
X1094453Y673069D01*
X1094498Y673007D01*
X1094499Y673006D01*
X1095307Y671056D01*
X1095307Y668944D01*
X1094499Y666994D01*
X1093006Y665501D01*
X1091056Y664693D01*
X1088944Y664693D01*
G37*
%LPD*%
%LPC*%
G36*
X1153193Y673884D02*
X1153193Y673884D01*
X1147638Y676186D01*
X1143386Y680438D01*
X1141084Y685993D01*
X1141084Y692007D01*
X1143386Y697562D01*
X1147638Y701814D01*
X1153193Y704116D01*
X1159207Y704116D01*
X1164762Y701814D01*
X1165643Y700933D01*
X1165695Y700895D01*
X1165740Y700849D01*
X1165807Y700811D01*
X1165869Y700764D01*
X1165929Y700741D01*
X1165985Y700710D01*
X1166060Y700692D01*
X1166133Y700665D01*
X1166197Y700660D01*
X1166260Y700645D01*
X1166337Y700649D01*
X1166414Y700643D01*
X1166477Y700656D01*
X1166541Y700659D01*
X1166614Y700685D01*
X1166690Y700700D01*
X1166747Y700731D01*
X1166808Y700752D01*
X1166864Y700793D01*
X1166939Y700833D01*
X1167000Y700892D01*
X1167057Y700933D01*
X1167938Y701815D01*
X1173493Y704116D01*
X1179507Y704116D01*
X1185062Y701814D01*
X1189314Y697562D01*
X1191616Y692007D01*
X1191616Y685993D01*
X1189314Y680438D01*
X1185062Y676186D01*
X1179507Y673884D01*
X1173493Y673884D01*
X1167938Y676185D01*
X1167057Y677067D01*
X1167005Y677105D01*
X1166960Y677151D01*
X1166893Y677189D01*
X1166831Y677236D01*
X1166771Y677258D01*
X1166715Y677290D01*
X1166640Y677308D01*
X1166567Y677335D01*
X1166503Y677340D01*
X1166441Y677355D01*
X1166363Y677351D01*
X1166286Y677357D01*
X1166223Y677344D01*
X1166159Y677341D01*
X1166086Y677315D01*
X1166010Y677300D01*
X1165953Y677269D01*
X1165892Y677248D01*
X1165836Y677207D01*
X1165761Y677167D01*
X1165700Y677108D01*
X1165643Y677067D01*
X1164762Y676186D01*
X1159207Y673884D01*
X1153193Y673884D01*
G37*
%LPD*%
%LPC*%
G36*
X1076843Y750084D02*
X1076843Y750084D01*
X1071288Y752386D01*
X1067036Y756638D01*
X1064734Y762193D01*
X1064734Y768207D01*
X1067036Y773762D01*
X1071288Y778014D01*
X1076843Y780316D01*
X1082857Y780316D01*
X1088412Y778014D01*
X1092664Y773762D01*
X1094966Y768207D01*
X1094966Y762193D01*
X1092664Y756638D01*
X1088412Y752386D01*
X1082857Y750084D01*
X1076843Y750084D01*
G37*
%LPD*%
%LPC*%
G36*
X1163343Y750084D02*
X1163343Y750084D01*
X1157788Y752386D01*
X1153536Y756638D01*
X1151234Y762193D01*
X1151234Y768207D01*
X1153536Y773762D01*
X1157788Y778014D01*
X1163343Y780316D01*
X1169357Y780316D01*
X1174912Y778014D01*
X1179164Y773762D01*
X1181466Y768207D01*
X1181466Y762193D01*
X1179164Y756638D01*
X1174912Y752386D01*
X1169357Y750084D01*
X1163343Y750084D01*
G37*
%LPD*%
%LPC*%
G36*
X998096Y408535D02*
X998096Y408535D01*
X994948Y409839D01*
X992539Y412248D01*
X991235Y415396D01*
X991235Y418804D01*
X992539Y421952D01*
X994948Y424361D01*
X998137Y425681D01*
X998164Y425698D01*
X998195Y425708D01*
X998286Y425769D01*
X998379Y425825D01*
X998402Y425849D01*
X998428Y425867D01*
X998498Y425951D01*
X998572Y426031D01*
X998587Y426059D01*
X998608Y426084D01*
X998651Y426185D01*
X998700Y426282D01*
X998706Y426314D01*
X998719Y426344D01*
X998732Y426452D01*
X998753Y426559D01*
X998749Y426591D01*
X998753Y426623D01*
X998736Y426731D01*
X998725Y426840D01*
X998714Y426870D01*
X998708Y426902D01*
X998661Y427001D01*
X998621Y427102D01*
X998601Y427127D01*
X998587Y427157D01*
X998515Y427238D01*
X998448Y427324D01*
X998421Y427343D01*
X998400Y427367D01*
X998323Y427414D01*
X998219Y427489D01*
X998173Y427506D01*
X998137Y427528D01*
X996994Y428001D01*
X995501Y429494D01*
X994693Y431444D01*
X994693Y433556D01*
X995501Y435506D01*
X996994Y436999D01*
X998944Y437807D01*
X1001056Y437807D01*
X1003006Y436999D01*
X1004499Y435506D01*
X1005307Y433556D01*
X1005307Y431444D01*
X1004499Y429494D01*
X1003006Y428001D01*
X1001663Y427445D01*
X1001636Y427429D01*
X1001605Y427419D01*
X1001514Y427357D01*
X1001421Y427301D01*
X1001398Y427278D01*
X1001372Y427260D01*
X1001302Y427175D01*
X1001228Y427096D01*
X1001213Y427067D01*
X1001192Y427042D01*
X1001149Y426942D01*
X1001100Y426844D01*
X1001094Y426813D01*
X1001081Y426783D01*
X1001068Y426675D01*
X1001047Y426567D01*
X1001051Y426535D01*
X1001047Y426503D01*
X1001064Y426395D01*
X1001075Y426286D01*
X1001086Y426256D01*
X1001092Y426225D01*
X1001139Y426126D01*
X1001179Y426024D01*
X1001199Y425999D01*
X1001213Y425970D01*
X1001285Y425888D01*
X1001352Y425802D01*
X1001379Y425783D01*
X1001400Y425759D01*
X1001477Y425712D01*
X1001581Y425637D01*
X1001627Y425621D01*
X1001663Y425599D01*
X1004652Y424361D01*
X1007061Y421952D01*
X1008365Y418804D01*
X1008365Y415396D01*
X1007061Y412248D01*
X1004652Y409839D01*
X1001504Y408535D01*
X998096Y408535D01*
G37*
%LPD*%
%LPC*%
G36*
X639517Y471036D02*
X639517Y471036D01*
X636296Y472370D01*
X633830Y474836D01*
X632496Y478057D01*
X632496Y481543D01*
X633830Y484764D01*
X636296Y487230D01*
X639517Y488564D01*
X643003Y488564D01*
X646224Y487230D01*
X648690Y484764D01*
X650024Y481543D01*
X650024Y478057D01*
X648690Y474836D01*
X646224Y472370D01*
X643003Y471036D01*
X639517Y471036D01*
G37*
%LPD*%
%LPC*%
G36*
X639517Y686936D02*
X639517Y686936D01*
X636296Y688270D01*
X633830Y690736D01*
X632496Y693957D01*
X632496Y697443D01*
X633830Y700664D01*
X636296Y703130D01*
X639517Y704464D01*
X643003Y704464D01*
X646224Y703130D01*
X648690Y700664D01*
X650024Y697443D01*
X650024Y693957D01*
X648690Y690736D01*
X646224Y688270D01*
X643003Y686936D01*
X639517Y686936D01*
G37*
%LPD*%
%LPC*%
G36*
X639517Y578986D02*
X639517Y578986D01*
X636296Y580320D01*
X633830Y582786D01*
X632496Y586007D01*
X632496Y589493D01*
X633830Y592714D01*
X636296Y595180D01*
X639517Y596514D01*
X643003Y596514D01*
X646224Y595180D01*
X648690Y592714D01*
X650024Y589493D01*
X650024Y586007D01*
X648690Y582786D01*
X646224Y580320D01*
X643003Y578986D01*
X639517Y578986D01*
G37*
%LPD*%
%LPC*%
G36*
X639517Y366736D02*
X639517Y366736D01*
X636296Y368070D01*
X633830Y370536D01*
X632496Y373757D01*
X632496Y377243D01*
X633830Y380464D01*
X636296Y382930D01*
X639517Y384264D01*
X643003Y384264D01*
X646224Y382930D01*
X648690Y380464D01*
X650024Y377243D01*
X650024Y373757D01*
X648690Y370536D01*
X646224Y368070D01*
X643003Y366736D01*
X639517Y366736D01*
G37*
%LPD*%
%LPC*%
G36*
X639517Y258786D02*
X639517Y258786D01*
X636296Y260120D01*
X633830Y262586D01*
X632496Y265807D01*
X632496Y269293D01*
X633830Y272514D01*
X636296Y274980D01*
X639517Y276314D01*
X643003Y276314D01*
X646224Y274980D01*
X648690Y272514D01*
X650024Y269293D01*
X650024Y265807D01*
X648690Y262586D01*
X646224Y260120D01*
X643003Y258786D01*
X639517Y258786D01*
G37*
%LPD*%
%LPC*%
G36*
X871096Y484735D02*
X871096Y484735D01*
X867948Y486039D01*
X865539Y488448D01*
X864235Y491596D01*
X864235Y495004D01*
X865539Y498152D01*
X867948Y500561D01*
X871096Y501865D01*
X874504Y501865D01*
X877652Y500561D01*
X880061Y498152D01*
X881365Y495004D01*
X881365Y491596D01*
X880061Y488448D01*
X877652Y486039D01*
X874504Y484735D01*
X871096Y484735D01*
G37*
%LPD*%
%LPC*%
G36*
X1175896Y408535D02*
X1175896Y408535D01*
X1172748Y409839D01*
X1170339Y412248D01*
X1169035Y415396D01*
X1169035Y418804D01*
X1170339Y421952D01*
X1172748Y424361D01*
X1175896Y425665D01*
X1179304Y425665D01*
X1182452Y424361D01*
X1184861Y421952D01*
X1186165Y418804D01*
X1186165Y415396D01*
X1184861Y412248D01*
X1182452Y409839D01*
X1179304Y408535D01*
X1175896Y408535D01*
G37*
%LPD*%
%LPC*%
G36*
X845696Y484735D02*
X845696Y484735D01*
X842548Y486039D01*
X840139Y488448D01*
X838835Y491596D01*
X838835Y495004D01*
X840139Y498152D01*
X842548Y500561D01*
X845696Y501865D01*
X849104Y501865D01*
X852252Y500561D01*
X854661Y498152D01*
X855965Y495004D01*
X855965Y491596D01*
X854661Y488448D01*
X852252Y486039D01*
X849104Y484735D01*
X845696Y484735D01*
G37*
%LPD*%
%LPC*%
G36*
X871096Y433935D02*
X871096Y433935D01*
X867948Y435239D01*
X865539Y437648D01*
X864235Y440796D01*
X864235Y444204D01*
X865539Y447352D01*
X867948Y449761D01*
X871096Y451065D01*
X874504Y451065D01*
X877652Y449761D01*
X880061Y447352D01*
X881365Y444204D01*
X881365Y440796D01*
X880061Y437648D01*
X877652Y435239D01*
X874504Y433935D01*
X871096Y433935D01*
G37*
%LPD*%
%LPC*%
G36*
X1201296Y408535D02*
X1201296Y408535D01*
X1198148Y409839D01*
X1195739Y412248D01*
X1194435Y415396D01*
X1194435Y418804D01*
X1195739Y421952D01*
X1198148Y424361D01*
X1201296Y425665D01*
X1204704Y425665D01*
X1207852Y424361D01*
X1210261Y421952D01*
X1211565Y418804D01*
X1211565Y415396D01*
X1210261Y412248D01*
X1207852Y409839D01*
X1204704Y408535D01*
X1201296Y408535D01*
G37*
%LPD*%
%LPC*%
G36*
X845696Y560935D02*
X845696Y560935D01*
X842548Y562239D01*
X840139Y564648D01*
X838835Y567796D01*
X838835Y571204D01*
X840139Y574352D01*
X842548Y576761D01*
X845696Y578065D01*
X849104Y578065D01*
X852252Y576761D01*
X854661Y574352D01*
X855965Y571204D01*
X855965Y567796D01*
X854661Y564648D01*
X852252Y562239D01*
X849104Y560935D01*
X845696Y560935D01*
G37*
%LPD*%
%LPC*%
G36*
X871096Y560935D02*
X871096Y560935D01*
X867948Y562239D01*
X865539Y564648D01*
X864235Y567796D01*
X864235Y571204D01*
X865539Y574352D01*
X867948Y576761D01*
X871096Y578065D01*
X874504Y578065D01*
X877652Y576761D01*
X880061Y574352D01*
X881365Y571204D01*
X881365Y567796D01*
X880061Y564648D01*
X877652Y562239D01*
X874504Y560935D01*
X871096Y560935D01*
G37*
%LPD*%
%LPC*%
G36*
X1226696Y611735D02*
X1226696Y611735D01*
X1223548Y613039D01*
X1221139Y615448D01*
X1219835Y618596D01*
X1219835Y622004D01*
X1221139Y625152D01*
X1223548Y627561D01*
X1226696Y628865D01*
X1230104Y628865D01*
X1233252Y627561D01*
X1235661Y625152D01*
X1236965Y622004D01*
X1236965Y618596D01*
X1235661Y615448D01*
X1233252Y613039D01*
X1230104Y611735D01*
X1226696Y611735D01*
G37*
%LPD*%
%LPC*%
G36*
X871096Y459335D02*
X871096Y459335D01*
X867948Y460639D01*
X865539Y463048D01*
X864235Y466196D01*
X864235Y469604D01*
X865539Y472752D01*
X867948Y475161D01*
X871096Y476465D01*
X874504Y476465D01*
X877652Y475161D01*
X880061Y472752D01*
X881365Y469604D01*
X881365Y466196D01*
X880061Y463048D01*
X877652Y460639D01*
X874504Y459335D01*
X871096Y459335D01*
G37*
%LPD*%
%LPC*%
G36*
X845696Y459335D02*
X845696Y459335D01*
X842548Y460639D01*
X840139Y463048D01*
X838835Y466196D01*
X838835Y469604D01*
X840139Y472752D01*
X842548Y475161D01*
X845696Y476465D01*
X849104Y476465D01*
X852252Y475161D01*
X854661Y472752D01*
X855965Y469604D01*
X855965Y466196D01*
X854661Y463048D01*
X852252Y460639D01*
X849104Y459335D01*
X845696Y459335D01*
G37*
%LPD*%
%LPC*%
G36*
X845696Y535535D02*
X845696Y535535D01*
X842548Y536839D01*
X840139Y539248D01*
X838835Y542396D01*
X838835Y545804D01*
X840139Y548952D01*
X842548Y551361D01*
X845696Y552665D01*
X849104Y552665D01*
X852252Y551361D01*
X854661Y548952D01*
X855965Y545804D01*
X855965Y542396D01*
X854661Y539248D01*
X852252Y536839D01*
X849104Y535535D01*
X845696Y535535D01*
G37*
%LPD*%
%LPC*%
G36*
X871096Y535535D02*
X871096Y535535D01*
X867948Y536839D01*
X865539Y539248D01*
X864235Y542396D01*
X864235Y545804D01*
X865539Y548952D01*
X867948Y551361D01*
X871096Y552665D01*
X874504Y552665D01*
X877652Y551361D01*
X880061Y548952D01*
X881365Y545804D01*
X881365Y542396D01*
X880061Y539248D01*
X877652Y536839D01*
X874504Y535535D01*
X871096Y535535D01*
G37*
%LPD*%
%LPC*%
G36*
X845696Y408535D02*
X845696Y408535D01*
X842548Y409839D01*
X840139Y412248D01*
X838835Y415396D01*
X838835Y418804D01*
X840139Y421952D01*
X842548Y424361D01*
X845696Y425665D01*
X849104Y425665D01*
X852252Y424361D01*
X854661Y421952D01*
X855965Y418804D01*
X855965Y415396D01*
X854661Y412248D01*
X852252Y409839D01*
X849104Y408535D01*
X845696Y408535D01*
G37*
%LPD*%
%LPC*%
G36*
X972696Y611735D02*
X972696Y611735D01*
X969548Y613039D01*
X967139Y615448D01*
X965835Y618596D01*
X965835Y622004D01*
X967139Y625152D01*
X969548Y627561D01*
X972696Y628865D01*
X976104Y628865D01*
X979252Y627561D01*
X981661Y625152D01*
X982965Y622004D01*
X982965Y618596D01*
X981661Y615448D01*
X979252Y613039D01*
X976104Y611735D01*
X972696Y611735D01*
G37*
%LPD*%
%LPC*%
G36*
X1023496Y611735D02*
X1023496Y611735D01*
X1020348Y613039D01*
X1017939Y615448D01*
X1016635Y618596D01*
X1016635Y622004D01*
X1017939Y625152D01*
X1020348Y627561D01*
X1023496Y628865D01*
X1026904Y628865D01*
X1030052Y627561D01*
X1032461Y625152D01*
X1033765Y622004D01*
X1033765Y618596D01*
X1032461Y615448D01*
X1030052Y613039D01*
X1026904Y611735D01*
X1023496Y611735D01*
G37*
%LPD*%
%LPC*%
G36*
X947296Y611735D02*
X947296Y611735D01*
X944148Y613039D01*
X941739Y615448D01*
X940435Y618596D01*
X940435Y622004D01*
X941739Y625152D01*
X944148Y627561D01*
X947296Y628865D01*
X950704Y628865D01*
X953852Y627561D01*
X956261Y625152D01*
X957565Y622004D01*
X957565Y618596D01*
X956261Y615448D01*
X953852Y613039D01*
X950704Y611735D01*
X947296Y611735D01*
G37*
%LPD*%
%LPC*%
G36*
X1125096Y611735D02*
X1125096Y611735D01*
X1121948Y613039D01*
X1119539Y615448D01*
X1118235Y618596D01*
X1118235Y622004D01*
X1119539Y625152D01*
X1121948Y627561D01*
X1125096Y628865D01*
X1128504Y628865D01*
X1131652Y627561D01*
X1134061Y625152D01*
X1135365Y622004D01*
X1135365Y618596D01*
X1134061Y615448D01*
X1131652Y613039D01*
X1128504Y611735D01*
X1125096Y611735D01*
G37*
%LPD*%
%LPC*%
G36*
X998096Y611735D02*
X998096Y611735D01*
X994948Y613039D01*
X992539Y615448D01*
X991235Y618596D01*
X991235Y622004D01*
X992539Y625152D01*
X994948Y627561D01*
X998096Y628865D01*
X1001504Y628865D01*
X1004652Y627561D01*
X1007061Y625152D01*
X1008365Y622004D01*
X1008365Y618596D01*
X1007061Y615448D01*
X1004652Y613039D01*
X1001504Y611735D01*
X998096Y611735D01*
G37*
%LPD*%
%LPC*%
G36*
X1048896Y611735D02*
X1048896Y611735D01*
X1045748Y613039D01*
X1043339Y615448D01*
X1042035Y618596D01*
X1042035Y622004D01*
X1043339Y625152D01*
X1045748Y627561D01*
X1048896Y628865D01*
X1052304Y628865D01*
X1055452Y627561D01*
X1057861Y625152D01*
X1059165Y622004D01*
X1059165Y618596D01*
X1057861Y615448D01*
X1055452Y613039D01*
X1052304Y611735D01*
X1048896Y611735D01*
G37*
%LPD*%
%LPC*%
G36*
X1074296Y611735D02*
X1074296Y611735D01*
X1071148Y613039D01*
X1068739Y615448D01*
X1067435Y618596D01*
X1067435Y622004D01*
X1068739Y625152D01*
X1071148Y627561D01*
X1074296Y628865D01*
X1077704Y628865D01*
X1080852Y627561D01*
X1083261Y625152D01*
X1084565Y622004D01*
X1084565Y618596D01*
X1083261Y615448D01*
X1080852Y613039D01*
X1077704Y611735D01*
X1074296Y611735D01*
G37*
%LPD*%
%LPC*%
G36*
X1099696Y611735D02*
X1099696Y611735D01*
X1096548Y613039D01*
X1094139Y615448D01*
X1092835Y618596D01*
X1092835Y622004D01*
X1094139Y625152D01*
X1096548Y627561D01*
X1099696Y628865D01*
X1103104Y628865D01*
X1106252Y627561D01*
X1108661Y625152D01*
X1109965Y622004D01*
X1109965Y618596D01*
X1108661Y615448D01*
X1106252Y613039D01*
X1103104Y611735D01*
X1099696Y611735D01*
G37*
%LPD*%
%LPC*%
G36*
X1150496Y611735D02*
X1150496Y611735D01*
X1147348Y613039D01*
X1144939Y615448D01*
X1143635Y618596D01*
X1143635Y622004D01*
X1144939Y625152D01*
X1147348Y627561D01*
X1150496Y628865D01*
X1153904Y628865D01*
X1157052Y627561D01*
X1159461Y625152D01*
X1160765Y622004D01*
X1160765Y618596D01*
X1159461Y615448D01*
X1157052Y613039D01*
X1153904Y611735D01*
X1150496Y611735D01*
G37*
%LPD*%
%LPC*%
G36*
X1175896Y611735D02*
X1175896Y611735D01*
X1172748Y613039D01*
X1170339Y615448D01*
X1169035Y618596D01*
X1169035Y622004D01*
X1170339Y625152D01*
X1172748Y627561D01*
X1175896Y628865D01*
X1179304Y628865D01*
X1182452Y627561D01*
X1184861Y625152D01*
X1186165Y622004D01*
X1186165Y618596D01*
X1184861Y615448D01*
X1182452Y613039D01*
X1179304Y611735D01*
X1175896Y611735D01*
G37*
%LPD*%
%LPC*%
G36*
X1201296Y611735D02*
X1201296Y611735D01*
X1198148Y613039D01*
X1195739Y615448D01*
X1194435Y618596D01*
X1194435Y622004D01*
X1195739Y625152D01*
X1198148Y627561D01*
X1201296Y628865D01*
X1204704Y628865D01*
X1207852Y627561D01*
X1210261Y625152D01*
X1211565Y622004D01*
X1211565Y618596D01*
X1210261Y615448D01*
X1207852Y613039D01*
X1204704Y611735D01*
X1201296Y611735D01*
G37*
%LPD*%
%LPC*%
G36*
X845696Y510135D02*
X845696Y510135D01*
X842548Y511439D01*
X840139Y513848D01*
X838835Y516996D01*
X838835Y520404D01*
X840139Y523552D01*
X842548Y525961D01*
X845696Y527265D01*
X849104Y527265D01*
X852252Y525961D01*
X854661Y523552D01*
X855965Y520404D01*
X855965Y516996D01*
X854661Y513848D01*
X852252Y511439D01*
X849104Y510135D01*
X845696Y510135D01*
G37*
%LPD*%
%LPC*%
G36*
X1252096Y611735D02*
X1252096Y611735D01*
X1248948Y613039D01*
X1246539Y615448D01*
X1245235Y618596D01*
X1245235Y622004D01*
X1246539Y625152D01*
X1248948Y627561D01*
X1252096Y628865D01*
X1255504Y628865D01*
X1258652Y627561D01*
X1261061Y625152D01*
X1262365Y622004D01*
X1262365Y618596D01*
X1261061Y615448D01*
X1258652Y613039D01*
X1255504Y611735D01*
X1252096Y611735D01*
G37*
%LPD*%
%LPC*%
G36*
X871096Y510135D02*
X871096Y510135D01*
X867948Y511439D01*
X865539Y513848D01*
X864235Y516996D01*
X864235Y520404D01*
X865539Y523552D01*
X867948Y525961D01*
X871096Y527265D01*
X874504Y527265D01*
X877652Y525961D01*
X880061Y523552D01*
X881365Y520404D01*
X881365Y516996D01*
X880061Y513848D01*
X877652Y511439D01*
X874504Y510135D01*
X871096Y510135D01*
G37*
%LPD*%
%LPC*%
G36*
X1150496Y408535D02*
X1150496Y408535D01*
X1147348Y409839D01*
X1144939Y412248D01*
X1143635Y415396D01*
X1143635Y418804D01*
X1144939Y421952D01*
X1147348Y424361D01*
X1150496Y425665D01*
X1153904Y425665D01*
X1157052Y424361D01*
X1159461Y421952D01*
X1160765Y418804D01*
X1160765Y415396D01*
X1159461Y412248D01*
X1157052Y409839D01*
X1153904Y408535D01*
X1150496Y408535D01*
G37*
%LPD*%
%LPC*%
G36*
X1125096Y408535D02*
X1125096Y408535D01*
X1121948Y409839D01*
X1119539Y412248D01*
X1118235Y415396D01*
X1118235Y418804D01*
X1119539Y421952D01*
X1121948Y424361D01*
X1125096Y425665D01*
X1128504Y425665D01*
X1131652Y424361D01*
X1134061Y421952D01*
X1135365Y418804D01*
X1135365Y415396D01*
X1134061Y412248D01*
X1131652Y409839D01*
X1128504Y408535D01*
X1125096Y408535D01*
G37*
%LPD*%
%LPC*%
G36*
X871096Y408535D02*
X871096Y408535D01*
X867948Y409839D01*
X865539Y412248D01*
X864235Y415396D01*
X864235Y418804D01*
X865539Y421952D01*
X867948Y424361D01*
X871096Y425665D01*
X874504Y425665D01*
X877652Y424361D01*
X880061Y421952D01*
X881365Y418804D01*
X881365Y415396D01*
X880061Y412248D01*
X877652Y409839D01*
X874504Y408535D01*
X871096Y408535D01*
G37*
%LPD*%
%LPC*%
G36*
X947296Y408535D02*
X947296Y408535D01*
X944148Y409839D01*
X941739Y412248D01*
X940435Y415396D01*
X940435Y418804D01*
X941739Y421952D01*
X944148Y424361D01*
X947296Y425665D01*
X950704Y425665D01*
X953852Y424361D01*
X956261Y421952D01*
X957565Y418804D01*
X957565Y415396D01*
X956261Y412248D01*
X953852Y409839D01*
X950704Y408535D01*
X947296Y408535D01*
G37*
%LPD*%
%LPC*%
G36*
X972696Y408535D02*
X972696Y408535D01*
X969548Y409839D01*
X967139Y412248D01*
X965835Y415396D01*
X965835Y418804D01*
X967139Y421952D01*
X969548Y424361D01*
X972696Y425665D01*
X976104Y425665D01*
X979252Y424361D01*
X981661Y421952D01*
X982965Y418804D01*
X982965Y415396D01*
X981661Y412248D01*
X979252Y409839D01*
X976104Y408535D01*
X972696Y408535D01*
G37*
%LPD*%
%LPC*%
G36*
X1048896Y408535D02*
X1048896Y408535D01*
X1045748Y409839D01*
X1043339Y412248D01*
X1042035Y415396D01*
X1042035Y418804D01*
X1043339Y421952D01*
X1045748Y424361D01*
X1048896Y425665D01*
X1052304Y425665D01*
X1055452Y424361D01*
X1057861Y421952D01*
X1059165Y418804D01*
X1059165Y415396D01*
X1057861Y412248D01*
X1055452Y409839D01*
X1052304Y408535D01*
X1048896Y408535D01*
G37*
%LPD*%
%LPC*%
G36*
X1074296Y408535D02*
X1074296Y408535D01*
X1071148Y409839D01*
X1068739Y412248D01*
X1067435Y415396D01*
X1067435Y418804D01*
X1068739Y421952D01*
X1071148Y424361D01*
X1074296Y425665D01*
X1077704Y425665D01*
X1080852Y424361D01*
X1083261Y421952D01*
X1084565Y418804D01*
X1084565Y415396D01*
X1083261Y412248D01*
X1080852Y409839D01*
X1077704Y408535D01*
X1074296Y408535D01*
G37*
%LPD*%
%LPC*%
G36*
X1023496Y408535D02*
X1023496Y408535D01*
X1020348Y409839D01*
X1017939Y412248D01*
X1016635Y415396D01*
X1016635Y418804D01*
X1017939Y421952D01*
X1020348Y424361D01*
X1023496Y425665D01*
X1026904Y425665D01*
X1030052Y424361D01*
X1032461Y421952D01*
X1033765Y418804D01*
X1033765Y415396D01*
X1032461Y412248D01*
X1030052Y409839D01*
X1026904Y408535D01*
X1023496Y408535D01*
G37*
%LPD*%
%LPC*%
G36*
X845696Y433935D02*
X845696Y433935D01*
X842548Y435239D01*
X840139Y437648D01*
X838835Y440796D01*
X838835Y444204D01*
X840139Y447352D01*
X842548Y449761D01*
X845696Y451065D01*
X849104Y451065D01*
X852252Y449761D01*
X854661Y447352D01*
X855965Y444204D01*
X855965Y440796D01*
X854661Y437648D01*
X852252Y435239D01*
X849104Y433935D01*
X845696Y433935D01*
G37*
%LPD*%
%LPC*%
G36*
X845696Y586335D02*
X845696Y586335D01*
X842548Y587639D01*
X840139Y590048D01*
X838835Y593196D01*
X838835Y596604D01*
X840139Y599752D01*
X842548Y602161D01*
X845696Y603465D01*
X849104Y603465D01*
X852252Y602161D01*
X854661Y599752D01*
X855965Y596604D01*
X855965Y593196D01*
X854661Y590048D01*
X852252Y587639D01*
X849104Y586335D01*
X845696Y586335D01*
G37*
%LPD*%
%LPC*%
G36*
X871096Y586335D02*
X871096Y586335D01*
X867948Y587639D01*
X865539Y590048D01*
X864235Y593196D01*
X864235Y596604D01*
X865539Y599752D01*
X867948Y602161D01*
X871096Y603465D01*
X874504Y603465D01*
X877652Y602161D01*
X880061Y599752D01*
X881365Y596604D01*
X881365Y593196D01*
X880061Y590048D01*
X877652Y587639D01*
X874504Y586335D01*
X871096Y586335D01*
G37*
%LPD*%
%LPC*%
G36*
X1171444Y309693D02*
X1171444Y309693D01*
X1169494Y310501D01*
X1168001Y311994D01*
X1167193Y313944D01*
X1167193Y316056D01*
X1168001Y318006D01*
X1169494Y319499D01*
X1171444Y320307D01*
X1172276Y320307D01*
X1172308Y320311D01*
X1172340Y320309D01*
X1172447Y320331D01*
X1172555Y320347D01*
X1172585Y320360D01*
X1172616Y320366D01*
X1172713Y320418D01*
X1172812Y320463D01*
X1172837Y320484D01*
X1172865Y320499D01*
X1172943Y320575D01*
X1173026Y320646D01*
X1173044Y320673D01*
X1173067Y320696D01*
X1173121Y320790D01*
X1173181Y320882D01*
X1173190Y320913D01*
X1173206Y320941D01*
X1173231Y321047D01*
X1173263Y321152D01*
X1173264Y321184D01*
X1173271Y321216D01*
X1173266Y321325D01*
X1173267Y321434D01*
X1173258Y321465D01*
X1173257Y321497D01*
X1173221Y321601D01*
X1173192Y321706D01*
X1173175Y321733D01*
X1173164Y321764D01*
X1173111Y321837D01*
X1173044Y321946D01*
X1173008Y321978D01*
X1172193Y323944D01*
X1172193Y326056D01*
X1173001Y328006D01*
X1174494Y329499D01*
X1176444Y330307D01*
X1178556Y330307D01*
X1180506Y329499D01*
X1181999Y328006D01*
X1182807Y326056D01*
X1182807Y323944D01*
X1181999Y321994D01*
X1180506Y320501D01*
X1178556Y319693D01*
X1177724Y319693D01*
X1177692Y319689D01*
X1177660Y319691D01*
X1177553Y319669D01*
X1177445Y319653D01*
X1177415Y319640D01*
X1177384Y319634D01*
X1177287Y319582D01*
X1177188Y319537D01*
X1177163Y319516D01*
X1177135Y319501D01*
X1177057Y319425D01*
X1176974Y319354D01*
X1176956Y319327D01*
X1176933Y319304D01*
X1176879Y319210D01*
X1176819Y319118D01*
X1176810Y319087D01*
X1176794Y319059D01*
X1176769Y318953D01*
X1176737Y318848D01*
X1176736Y318816D01*
X1176729Y318784D01*
X1176734Y318675D01*
X1176733Y318566D01*
X1176742Y318535D01*
X1176743Y318503D01*
X1176779Y318399D01*
X1176808Y318294D01*
X1176825Y318267D01*
X1176836Y318236D01*
X1176889Y318163D01*
X1176956Y318054D01*
X1176992Y318022D01*
X1177807Y316056D01*
X1177807Y313944D01*
X1176999Y311994D01*
X1175506Y310501D01*
X1173556Y309693D01*
X1171444Y309693D01*
G37*
%LPD*%
%LPC*%
G36*
X956444Y282193D02*
X956444Y282193D01*
X954494Y283001D01*
X953001Y284494D01*
X952193Y286444D01*
X952193Y288556D01*
X953001Y290506D01*
X954494Y291999D01*
X956444Y292807D01*
X958694Y292807D01*
X958758Y292816D01*
X958822Y292815D01*
X958897Y292836D01*
X958973Y292847D01*
X959032Y292873D01*
X959094Y292890D01*
X959160Y292931D01*
X959230Y292963D01*
X959279Y293005D01*
X959334Y293038D01*
X959386Y293096D01*
X959444Y293146D01*
X959480Y293200D01*
X959523Y293248D01*
X959556Y293317D01*
X959599Y293382D01*
X959618Y293444D01*
X959646Y293501D01*
X959657Y293571D01*
X959681Y293652D01*
X959682Y293737D01*
X959693Y293806D01*
X959693Y296056D01*
X960501Y298006D01*
X961994Y299499D01*
X963944Y300307D01*
X966056Y300307D01*
X968006Y299499D01*
X969499Y298006D01*
X970307Y296056D01*
X970307Y293944D01*
X969499Y291994D01*
X968006Y290501D01*
X966056Y289693D01*
X963806Y289693D01*
X963742Y289684D01*
X963678Y289685D01*
X963603Y289664D01*
X963527Y289653D01*
X963468Y289627D01*
X963406Y289610D01*
X963340Y289569D01*
X963270Y289537D01*
X963221Y289495D01*
X963166Y289462D01*
X963114Y289404D01*
X963056Y289354D01*
X963020Y289300D01*
X962977Y289252D01*
X962944Y289183D01*
X962901Y289118D01*
X962882Y289056D01*
X962854Y288999D01*
X962843Y288929D01*
X962819Y288848D01*
X962818Y288763D01*
X962807Y288694D01*
X962807Y286444D01*
X961999Y284494D01*
X960506Y283001D01*
X958556Y282193D01*
X956444Y282193D01*
G37*
%LPD*%
%LPC*%
G36*
X778944Y387193D02*
X778944Y387193D01*
X776994Y388001D01*
X775501Y389494D01*
X774693Y391444D01*
X774693Y393556D01*
X775501Y395506D01*
X776994Y396999D01*
X778944Y397807D01*
X781056Y397807D01*
X783006Y396999D01*
X784499Y395506D01*
X785327Y393507D01*
X785343Y393479D01*
X785353Y393449D01*
X785415Y393358D01*
X785470Y393264D01*
X785494Y393242D01*
X785512Y393216D01*
X785596Y393146D01*
X785676Y393071D01*
X785705Y393057D01*
X785730Y393036D01*
X785830Y392993D01*
X785928Y392944D01*
X785959Y392938D01*
X785989Y392925D01*
X786097Y392912D01*
X786205Y392891D01*
X786237Y392894D01*
X786269Y392890D01*
X786377Y392908D01*
X786485Y392918D01*
X786515Y392930D01*
X786547Y392935D01*
X786646Y392982D01*
X786747Y393023D01*
X786773Y393043D01*
X786802Y393056D01*
X786884Y393129D01*
X786970Y393196D01*
X786989Y393222D01*
X787013Y393244D01*
X787060Y393321D01*
X787135Y393425D01*
X787151Y393471D01*
X787173Y393507D01*
X788001Y395506D01*
X789494Y396999D01*
X791444Y397807D01*
X793556Y397807D01*
X795506Y396999D01*
X796999Y395506D01*
X797807Y393556D01*
X797807Y391444D01*
X796999Y389494D01*
X795506Y388001D01*
X793556Y387193D01*
X791444Y387193D01*
X789494Y388001D01*
X788001Y389494D01*
X787173Y391493D01*
X787157Y391521D01*
X787147Y391551D01*
X787085Y391642D01*
X787030Y391736D01*
X787006Y391758D01*
X786988Y391784D01*
X786904Y391854D01*
X786824Y391929D01*
X786795Y391943D01*
X786770Y391964D01*
X786670Y392007D01*
X786572Y392056D01*
X786541Y392062D01*
X786511Y392075D01*
X786403Y392088D01*
X786295Y392109D01*
X786263Y392106D01*
X786231Y392110D01*
X786123Y392092D01*
X786015Y392082D01*
X785985Y392070D01*
X785953Y392065D01*
X785854Y392018D01*
X785753Y391977D01*
X785727Y391957D01*
X785698Y391944D01*
X785616Y391871D01*
X785530Y391804D01*
X785511Y391778D01*
X785487Y391756D01*
X785440Y391679D01*
X785365Y391575D01*
X785349Y391529D01*
X785327Y391493D01*
X784499Y389494D01*
X783006Y388001D01*
X781056Y387193D01*
X778944Y387193D01*
G37*
%LPD*%
%LPC*%
G36*
X973944Y304693D02*
X973944Y304693D01*
X971994Y305501D01*
X970501Y306994D01*
X969693Y308944D01*
X969693Y311056D01*
X970501Y313006D01*
X971994Y314499D01*
X973993Y315327D01*
X974021Y315343D01*
X974051Y315353D01*
X974142Y315415D01*
X974236Y315470D01*
X974258Y315494D01*
X974284Y315512D01*
X974354Y315596D01*
X974429Y315676D01*
X974443Y315705D01*
X974464Y315730D01*
X974507Y315830D01*
X974556Y315928D01*
X974562Y315959D01*
X974575Y315989D01*
X974588Y316097D01*
X974609Y316205D01*
X974606Y316237D01*
X974610Y316269D01*
X974592Y316377D01*
X974582Y316485D01*
X974570Y316515D01*
X974565Y316547D01*
X974518Y316646D01*
X974477Y316747D01*
X974457Y316773D01*
X974444Y316802D01*
X974371Y316884D01*
X974304Y316970D01*
X974278Y316989D01*
X974256Y317013D01*
X974179Y317060D01*
X974075Y317135D01*
X974029Y317151D01*
X973993Y317173D01*
X971994Y318001D01*
X970501Y319494D01*
X969693Y321444D01*
X969693Y323556D01*
X970501Y325506D01*
X971994Y326999D01*
X973944Y327807D01*
X976056Y327807D01*
X978006Y326999D01*
X979499Y325506D01*
X980307Y323556D01*
X980307Y321444D01*
X979499Y319494D01*
X978006Y318001D01*
X976007Y317173D01*
X975979Y317157D01*
X975949Y317147D01*
X975858Y317085D01*
X975764Y317030D01*
X975742Y317006D01*
X975716Y316988D01*
X975646Y316904D01*
X975571Y316824D01*
X975557Y316795D01*
X975536Y316770D01*
X975493Y316670D01*
X975444Y316572D01*
X975438Y316541D01*
X975425Y316511D01*
X975412Y316403D01*
X975391Y316295D01*
X975394Y316263D01*
X975390Y316231D01*
X975408Y316123D01*
X975418Y316015D01*
X975430Y315985D01*
X975435Y315953D01*
X975482Y315854D01*
X975523Y315753D01*
X975543Y315727D01*
X975556Y315698D01*
X975629Y315616D01*
X975696Y315530D01*
X975722Y315511D01*
X975744Y315487D01*
X975821Y315440D01*
X975925Y315365D01*
X975971Y315349D01*
X976007Y315327D01*
X978006Y314499D01*
X979499Y313006D01*
X980307Y311056D01*
X980307Y308944D01*
X979499Y306994D01*
X978006Y305501D01*
X976056Y304693D01*
X973944Y304693D01*
G37*
%LPD*%
%LPC*%
G36*
X978944Y259693D02*
X978944Y259693D01*
X976994Y260501D01*
X975501Y261994D01*
X974729Y263858D01*
X974685Y263933D01*
X974680Y263942D01*
X974693Y264025D01*
X974693Y266056D01*
X975501Y268006D01*
X976994Y269499D01*
X978089Y269952D01*
X978191Y270013D01*
X978296Y270068D01*
X978312Y270084D01*
X978332Y270096D01*
X978413Y270183D01*
X978498Y270265D01*
X978509Y270285D01*
X978525Y270302D01*
X978578Y270408D01*
X978637Y270511D01*
X978642Y270533D01*
X978652Y270553D01*
X978674Y270670D01*
X978702Y270785D01*
X978700Y270808D01*
X978705Y270830D01*
X978693Y270948D01*
X978687Y271067D01*
X978680Y271088D01*
X978678Y271111D01*
X978634Y271221D01*
X978595Y271333D01*
X978582Y271351D01*
X978573Y271373D01*
X978459Y271520D01*
X978413Y271582D01*
X978001Y271994D01*
X977193Y273944D01*
X977193Y276056D01*
X978001Y278006D01*
X979494Y279499D01*
X981444Y280307D01*
X983556Y280307D01*
X985506Y279499D01*
X986999Y278006D01*
X987807Y276056D01*
X987807Y273944D01*
X986999Y271994D01*
X985506Y270501D01*
X984411Y270048D01*
X984309Y269987D01*
X984204Y269932D01*
X984188Y269916D01*
X984168Y269904D01*
X984087Y269817D01*
X984002Y269735D01*
X983991Y269715D01*
X983975Y269698D01*
X983922Y269592D01*
X983863Y269489D01*
X983858Y269467D01*
X983848Y269447D01*
X983826Y269330D01*
X983798Y269215D01*
X983800Y269192D01*
X983795Y269170D01*
X983807Y269052D01*
X983813Y268933D01*
X983820Y268912D01*
X983822Y268889D01*
X983866Y268779D01*
X983905Y268667D01*
X983918Y268649D01*
X983927Y268627D01*
X984041Y268480D01*
X984087Y268418D01*
X984499Y268006D01*
X985307Y266056D01*
X985307Y263944D01*
X984499Y261994D01*
X983006Y260501D01*
X981056Y259693D01*
X978944Y259693D01*
G37*
%LPD*%
%LPC*%
G36*
X723944Y354693D02*
X723944Y354693D01*
X722384Y355340D01*
X722300Y355361D01*
X722219Y355392D01*
X722164Y355396D01*
X722111Y355410D01*
X722024Y355407D01*
X721937Y355414D01*
X721884Y355402D01*
X721829Y355401D01*
X721746Y355374D01*
X721661Y355356D01*
X721613Y355330D01*
X721561Y355313D01*
X721489Y355264D01*
X721432Y355234D01*
X721441Y355272D01*
X721463Y355322D01*
X721474Y355408D01*
X721494Y355493D01*
X721491Y355548D01*
X721498Y355602D01*
X721484Y355688D01*
X721479Y355775D01*
X721461Y355827D01*
X721453Y355881D01*
X721415Y355959D01*
X721387Y356041D01*
X721357Y356082D01*
X721332Y356135D01*
X721256Y356221D01*
X721205Y356290D01*
X720501Y356994D01*
X719693Y358944D01*
X719693Y361056D01*
X720501Y363006D01*
X721994Y364499D01*
X723944Y365307D01*
X726056Y365307D01*
X727616Y364660D01*
X727700Y364639D01*
X727781Y364608D01*
X727836Y364604D01*
X727889Y364590D01*
X727976Y364593D01*
X728063Y364586D01*
X728116Y364598D01*
X728171Y364599D01*
X728254Y364626D01*
X728339Y364644D01*
X728387Y364670D01*
X728439Y364687D01*
X728511Y364736D01*
X728567Y364766D01*
X728559Y364728D01*
X728537Y364678D01*
X728526Y364592D01*
X728506Y364507D01*
X728509Y364452D01*
X728502Y364398D01*
X728516Y364312D01*
X728521Y364225D01*
X728539Y364174D01*
X728547Y364119D01*
X728585Y364041D01*
X728613Y363959D01*
X728643Y363918D01*
X728668Y363865D01*
X728744Y363780D01*
X728795Y363710D01*
X729499Y363006D01*
X730307Y361056D01*
X730307Y358944D01*
X729499Y356994D01*
X728006Y355501D01*
X726056Y354693D01*
X723944Y354693D01*
G37*
%LPD*%
%LPC*%
G36*
X731444Y364693D02*
X731444Y364693D01*
X729884Y365340D01*
X729800Y365361D01*
X729719Y365392D01*
X729664Y365396D01*
X729611Y365410D01*
X729524Y365407D01*
X729437Y365414D01*
X729384Y365402D01*
X729329Y365401D01*
X729246Y365374D01*
X729161Y365356D01*
X729113Y365330D01*
X729061Y365313D01*
X728989Y365264D01*
X728933Y365234D01*
X728941Y365272D01*
X728963Y365322D01*
X728974Y365408D01*
X728994Y365493D01*
X728991Y365548D01*
X728998Y365602D01*
X728984Y365688D01*
X728979Y365775D01*
X728961Y365826D01*
X728953Y365881D01*
X728915Y365959D01*
X728887Y366041D01*
X728857Y366082D01*
X728832Y366135D01*
X728756Y366220D01*
X728705Y366290D01*
X728001Y366994D01*
X727193Y368944D01*
X727193Y371056D01*
X728001Y373006D01*
X729494Y374499D01*
X731444Y375307D01*
X733556Y375307D01*
X735116Y374660D01*
X735200Y374639D01*
X735281Y374608D01*
X735336Y374604D01*
X735389Y374590D01*
X735476Y374593D01*
X735563Y374586D01*
X735616Y374598D01*
X735671Y374599D01*
X735754Y374626D01*
X735839Y374644D01*
X735887Y374670D01*
X735939Y374687D01*
X736011Y374736D01*
X736068Y374766D01*
X736059Y374728D01*
X736037Y374678D01*
X736026Y374592D01*
X736006Y374507D01*
X736009Y374452D01*
X736002Y374398D01*
X736016Y374312D01*
X736018Y374283D01*
X736018Y374281D01*
X736021Y374225D01*
X736039Y374174D01*
X736047Y374119D01*
X736084Y374043D01*
X736093Y374010D01*
X736099Y374000D01*
X736113Y373959D01*
X736143Y373918D01*
X736168Y373865D01*
X736214Y373813D01*
X736241Y373770D01*
X736271Y373742D01*
X736295Y373710D01*
X736999Y373006D01*
X737807Y371056D01*
X737807Y368944D01*
X736999Y366994D01*
X735506Y365501D01*
X733556Y364693D01*
X731444Y364693D01*
G37*
%LPD*%
%LPC*%
G36*
X716444Y344693D02*
X716444Y344693D01*
X714494Y345501D01*
X713001Y346994D01*
X712193Y348944D01*
X712193Y351056D01*
X713001Y353006D01*
X714494Y354499D01*
X716444Y355307D01*
X718556Y355307D01*
X720116Y354660D01*
X720200Y354639D01*
X720281Y354608D01*
X720336Y354604D01*
X720389Y354590D01*
X720476Y354593D01*
X720563Y354586D01*
X720616Y354598D01*
X720671Y354599D01*
X720754Y354626D01*
X720839Y354644D01*
X720887Y354670D01*
X720939Y354687D01*
X721011Y354736D01*
X721068Y354766D01*
X721059Y354728D01*
X721037Y354678D01*
X721026Y354592D01*
X721006Y354507D01*
X721009Y354452D01*
X721002Y354398D01*
X721016Y354312D01*
X721021Y354225D01*
X721039Y354173D01*
X721047Y354119D01*
X721085Y354041D01*
X721113Y353959D01*
X721143Y353918D01*
X721168Y353865D01*
X721244Y353779D01*
X721295Y353710D01*
X721999Y353006D01*
X722807Y351056D01*
X722807Y348944D01*
X721999Y346994D01*
X720506Y345501D01*
X718556Y344693D01*
X716444Y344693D01*
G37*
%LPD*%
%LPC*%
G36*
X838944Y332193D02*
X838944Y332193D01*
X836994Y333001D01*
X835501Y334494D01*
X834693Y336444D01*
X834693Y338556D01*
X835501Y340506D01*
X836994Y341999D01*
X838944Y342807D01*
X841056Y342807D01*
X843006Y341999D01*
X843710Y341295D01*
X843779Y341243D01*
X843843Y341183D01*
X843892Y341159D01*
X843936Y341126D01*
X844017Y341095D01*
X844094Y341056D01*
X844148Y341045D01*
X844199Y341026D01*
X844286Y341019D01*
X844371Y341003D01*
X844426Y341009D01*
X844481Y341004D01*
X844565Y341022D01*
X844652Y341030D01*
X844703Y341051D01*
X844757Y341062D01*
X844770Y341069D01*
X844749Y341033D01*
X844699Y340963D01*
X844680Y340911D01*
X844653Y340863D01*
X844633Y340779D01*
X844604Y340697D01*
X844601Y340643D01*
X844588Y340589D01*
X844593Y340502D01*
X844588Y340416D01*
X844600Y340366D01*
X844603Y340307D01*
X844640Y340200D01*
X844660Y340116D01*
X845307Y338556D01*
X845307Y336444D01*
X844499Y334494D01*
X843006Y333001D01*
X841056Y332193D01*
X838944Y332193D01*
G37*
%LPD*%
%LPC*%
G36*
X848944Y339693D02*
X848944Y339693D01*
X846994Y340501D01*
X846290Y341205D01*
X846221Y341257D01*
X846157Y341317D01*
X846108Y341341D01*
X846064Y341374D01*
X845983Y341405D01*
X845906Y341444D01*
X845852Y341455D01*
X845801Y341474D01*
X845714Y341481D01*
X845629Y341497D01*
X845574Y341491D01*
X845519Y341496D01*
X845435Y341478D01*
X845348Y341470D01*
X845297Y341449D01*
X845243Y341438D01*
X845230Y341431D01*
X845251Y341467D01*
X845301Y341537D01*
X845320Y341589D01*
X845347Y341637D01*
X845367Y341721D01*
X845396Y341803D01*
X845399Y341857D01*
X845412Y341911D01*
X845407Y341998D01*
X845412Y342084D01*
X845400Y342134D01*
X845397Y342193D01*
X845360Y342300D01*
X845340Y342384D01*
X844693Y343944D01*
X844693Y346056D01*
X845501Y348006D01*
X846994Y349499D01*
X848944Y350307D01*
X851056Y350307D01*
X853006Y349499D01*
X854499Y348006D01*
X855307Y346056D01*
X855307Y343944D01*
X854499Y341994D01*
X853006Y340501D01*
X851056Y339693D01*
X848944Y339693D01*
G37*
%LPD*%
%LPC*%
G36*
X738944Y374693D02*
X738944Y374693D01*
X737384Y375340D01*
X737349Y375349D01*
X737324Y375361D01*
X737284Y375367D01*
X737219Y375392D01*
X737164Y375396D01*
X737111Y375410D01*
X737028Y375407D01*
X737019Y375408D01*
X737009Y375408D01*
X737007Y375408D01*
X736937Y375414D01*
X736884Y375402D01*
X736829Y375401D01*
X736746Y375374D01*
X736661Y375356D01*
X736613Y375330D01*
X736561Y375313D01*
X736489Y375264D01*
X736432Y375234D01*
X736441Y375272D01*
X736463Y375322D01*
X736474Y375408D01*
X736494Y375493D01*
X736491Y375548D01*
X736498Y375602D01*
X736484Y375688D01*
X736479Y375775D01*
X736461Y375826D01*
X736453Y375881D01*
X736415Y375959D01*
X736387Y376041D01*
X736357Y376082D01*
X736332Y376135D01*
X736256Y376221D01*
X736205Y376290D01*
X735501Y376994D01*
X734693Y378944D01*
X734693Y381056D01*
X735501Y383006D01*
X736994Y384499D01*
X738944Y385307D01*
X741056Y385307D01*
X743006Y384499D01*
X744499Y383006D01*
X745307Y381056D01*
X745307Y378944D01*
X744499Y376994D01*
X743006Y375501D01*
X741056Y374693D01*
X738944Y374693D01*
G37*
%LPD*%
%LPC*%
G36*
X966444Y257193D02*
X966444Y257193D01*
X964494Y258001D01*
X963001Y259494D01*
X962193Y261444D01*
X962193Y263556D01*
X963001Y265506D01*
X964494Y266999D01*
X966444Y267807D01*
X968556Y267807D01*
X970506Y266999D01*
X971999Y265506D01*
X972771Y263642D01*
X972815Y263567D01*
X972820Y263558D01*
X972807Y263475D01*
X972807Y261444D01*
X971999Y259494D01*
X970506Y258001D01*
X968556Y257193D01*
X966444Y257193D01*
G37*
%LPD*%
%LPC*%
G36*
X763944Y387193D02*
X763944Y387193D01*
X761994Y388001D01*
X760501Y389494D01*
X759693Y391444D01*
X759693Y393556D01*
X760501Y395506D01*
X761994Y396999D01*
X763944Y397807D01*
X766056Y397807D01*
X768006Y396999D01*
X769499Y395506D01*
X770307Y393556D01*
X770307Y391444D01*
X769499Y389494D01*
X768006Y388001D01*
X766056Y387193D01*
X763944Y387193D01*
G37*
%LPD*%
%LPC*%
G36*
X1011444Y559693D02*
X1011444Y559693D01*
X1009494Y560501D01*
X1008001Y561994D01*
X1007193Y563944D01*
X1007193Y566056D01*
X1008001Y568006D01*
X1009494Y569499D01*
X1011444Y570307D01*
X1013556Y570307D01*
X1015506Y569499D01*
X1016999Y568006D01*
X1017807Y566056D01*
X1017807Y563944D01*
X1016999Y561994D01*
X1015506Y560501D01*
X1013556Y559693D01*
X1011444Y559693D01*
G37*
%LPD*%
%LPC*%
G36*
X1198944Y559693D02*
X1198944Y559693D01*
X1196994Y560501D01*
X1195501Y561994D01*
X1194693Y563944D01*
X1194693Y566056D01*
X1195501Y568006D01*
X1196994Y569499D01*
X1198944Y570307D01*
X1201056Y570307D01*
X1203006Y569499D01*
X1204499Y568006D01*
X1205307Y566056D01*
X1205307Y563944D01*
X1204499Y561994D01*
X1203006Y560501D01*
X1201056Y559693D01*
X1198944Y559693D01*
G37*
%LPD*%
%LPC*%
G36*
X961444Y527193D02*
X961444Y527193D01*
X959494Y528001D01*
X958001Y529494D01*
X957193Y531444D01*
X957193Y533556D01*
X958001Y535506D01*
X959494Y536999D01*
X961444Y537807D01*
X963556Y537807D01*
X965506Y536999D01*
X966999Y535506D01*
X967807Y533556D01*
X967807Y531444D01*
X966999Y529494D01*
X965506Y528001D01*
X963556Y527193D01*
X961444Y527193D01*
G37*
%LPD*%
%LPC*%
G36*
X743944Y524693D02*
X743944Y524693D01*
X741994Y525501D01*
X740501Y526994D01*
X739693Y528944D01*
X739693Y531056D01*
X740501Y533006D01*
X741994Y534499D01*
X743944Y535307D01*
X746056Y535307D01*
X748006Y534499D01*
X749499Y533006D01*
X750307Y531056D01*
X750307Y528944D01*
X749499Y526994D01*
X748006Y525501D01*
X746056Y524693D01*
X743944Y524693D01*
G37*
%LPD*%
%LPC*%
G36*
X1023944Y519693D02*
X1023944Y519693D01*
X1021994Y520501D01*
X1020501Y521994D01*
X1019693Y523944D01*
X1019693Y526056D01*
X1020501Y528006D01*
X1021994Y529499D01*
X1023944Y530307D01*
X1026056Y530307D01*
X1028006Y529499D01*
X1029499Y528006D01*
X1030307Y526056D01*
X1030307Y523944D01*
X1029499Y521994D01*
X1028006Y520501D01*
X1026056Y519693D01*
X1023944Y519693D01*
G37*
%LPD*%
%LPC*%
G36*
X976444Y499693D02*
X976444Y499693D01*
X974494Y500501D01*
X973001Y501994D01*
X972193Y503944D01*
X972193Y506056D01*
X973001Y508006D01*
X974494Y509499D01*
X976444Y510307D01*
X978556Y510307D01*
X980506Y509499D01*
X981999Y508006D01*
X982807Y506056D01*
X982807Y503944D01*
X981999Y501994D01*
X980506Y500501D01*
X978556Y499693D01*
X976444Y499693D01*
G37*
%LPD*%
%LPC*%
G36*
X1001444Y489693D02*
X1001444Y489693D01*
X999494Y490501D01*
X998001Y491994D01*
X997193Y493944D01*
X997193Y496056D01*
X998001Y498006D01*
X999494Y499499D01*
X1001444Y500307D01*
X1003556Y500307D01*
X1005506Y499499D01*
X1006999Y498006D01*
X1007807Y496056D01*
X1007807Y493944D01*
X1006999Y491994D01*
X1005506Y490501D01*
X1003556Y489693D01*
X1001444Y489693D01*
G37*
%LPD*%
%LPC*%
G36*
X948944Y452193D02*
X948944Y452193D01*
X946994Y453001D01*
X945501Y454494D01*
X944693Y456444D01*
X944693Y458556D01*
X945501Y460506D01*
X946994Y461999D01*
X948944Y462807D01*
X951056Y462807D01*
X953006Y461999D01*
X954499Y460506D01*
X955307Y458556D01*
X955307Y456444D01*
X954499Y454494D01*
X953006Y453001D01*
X951056Y452193D01*
X948944Y452193D01*
G37*
%LPD*%
%LPC*%
G36*
X1018944Y444693D02*
X1018944Y444693D01*
X1016994Y445501D01*
X1015501Y446994D01*
X1014693Y448944D01*
X1014693Y451056D01*
X1015501Y453006D01*
X1016994Y454499D01*
X1018944Y455307D01*
X1021056Y455307D01*
X1023006Y454499D01*
X1024499Y453006D01*
X1025307Y451056D01*
X1025307Y448944D01*
X1024499Y446994D01*
X1023006Y445501D01*
X1021056Y444693D01*
X1018944Y444693D01*
G37*
%LPD*%
%LPC*%
G36*
X906444Y432193D02*
X906444Y432193D01*
X904494Y433001D01*
X903001Y434494D01*
X902193Y436444D01*
X902193Y438556D01*
X903001Y440506D01*
X904494Y441999D01*
X906444Y442807D01*
X908556Y442807D01*
X910506Y441999D01*
X911999Y440506D01*
X912807Y438556D01*
X912807Y436444D01*
X911999Y434494D01*
X910506Y433001D01*
X908556Y432193D01*
X906444Y432193D01*
G37*
%LPD*%
%LPC*%
G36*
X976444Y428499D02*
X976444Y428499D01*
X974494Y429307D01*
X973001Y430800D01*
X972193Y432750D01*
X972193Y434862D01*
X973001Y436812D01*
X974494Y438305D01*
X976444Y439113D01*
X978556Y439113D01*
X980506Y438305D01*
X981999Y436812D01*
X982807Y434862D01*
X982807Y432750D01*
X981999Y430800D01*
X980506Y429307D01*
X978556Y428499D01*
X976444Y428499D01*
G37*
%LPD*%
%LPC*%
G36*
X751444Y422193D02*
X751444Y422193D01*
X749494Y423001D01*
X748001Y424494D01*
X747193Y426444D01*
X747193Y428556D01*
X748001Y430506D01*
X749494Y431999D01*
X751444Y432807D01*
X753556Y432807D01*
X755506Y431999D01*
X756999Y430506D01*
X757807Y428556D01*
X757807Y426444D01*
X756999Y424494D01*
X755506Y423001D01*
X753556Y422193D01*
X751444Y422193D01*
G37*
%LPD*%
%LPC*%
G36*
X1028944Y389693D02*
X1028944Y389693D01*
X1026994Y390501D01*
X1025501Y391994D01*
X1024693Y393944D01*
X1024693Y396056D01*
X1025501Y398006D01*
X1026994Y399499D01*
X1028944Y400307D01*
X1031056Y400307D01*
X1033006Y399499D01*
X1034499Y398006D01*
X1035307Y396056D01*
X1035307Y393944D01*
X1034499Y391994D01*
X1033006Y390501D01*
X1031056Y389693D01*
X1028944Y389693D01*
G37*
%LPD*%
%LPC*%
G36*
X899917Y415158D02*
X899917Y415158D01*
X897966Y415966D01*
X896473Y417458D01*
X895665Y419409D01*
X895665Y421520D01*
X896473Y423470D01*
X897966Y424963D01*
X899917Y425771D01*
X902028Y425771D01*
X903978Y424963D01*
X905471Y423470D01*
X906279Y421520D01*
X906279Y419409D01*
X905471Y417458D01*
X903978Y415966D01*
X902028Y415158D01*
X899917Y415158D01*
G37*
%LPD*%
%LPC*%
G36*
X1006444Y749693D02*
X1006444Y749693D01*
X1004494Y750501D01*
X1003001Y751994D01*
X1002193Y753944D01*
X1002193Y756056D01*
X1003001Y758006D01*
X1004494Y759499D01*
X1006444Y760307D01*
X1008556Y760307D01*
X1010506Y759499D01*
X1011999Y758006D01*
X1012807Y756056D01*
X1012807Y753944D01*
X1011999Y751994D01*
X1010506Y750501D01*
X1008556Y749693D01*
X1006444Y749693D01*
G37*
%LPD*%
%LPC*%
G36*
X903944Y749693D02*
X903944Y749693D01*
X901994Y750501D01*
X900501Y751994D01*
X899693Y753944D01*
X899693Y756056D01*
X900501Y758006D01*
X901994Y759499D01*
X903944Y760307D01*
X906056Y760307D01*
X908006Y759499D01*
X909499Y758006D01*
X910307Y756056D01*
X910307Y753944D01*
X909499Y751994D01*
X908006Y750501D01*
X906056Y749693D01*
X903944Y749693D01*
G37*
%LPD*%
%LPC*%
G36*
X978944Y724693D02*
X978944Y724693D01*
X976994Y725501D01*
X975501Y726994D01*
X974693Y728944D01*
X974693Y731056D01*
X975501Y733006D01*
X976994Y734499D01*
X978944Y735307D01*
X981056Y735307D01*
X983006Y734499D01*
X984499Y733006D01*
X985307Y731056D01*
X985307Y728944D01*
X984499Y726994D01*
X983006Y725501D01*
X981056Y724693D01*
X978944Y724693D01*
G37*
%LPD*%
%LPC*%
G36*
X1143944Y719693D02*
X1143944Y719693D01*
X1141994Y720501D01*
X1140501Y721994D01*
X1139693Y723944D01*
X1139693Y726056D01*
X1140501Y728006D01*
X1141994Y729499D01*
X1143944Y730307D01*
X1146056Y730307D01*
X1148006Y729499D01*
X1149499Y728006D01*
X1150307Y726056D01*
X1150307Y723944D01*
X1149499Y721994D01*
X1148006Y720501D01*
X1146056Y719693D01*
X1143944Y719693D01*
G37*
%LPD*%
%LPC*%
G36*
X1201444Y704693D02*
X1201444Y704693D01*
X1199494Y705501D01*
X1198001Y706994D01*
X1197193Y708944D01*
X1197193Y711056D01*
X1198001Y713006D01*
X1199494Y714499D01*
X1201444Y715307D01*
X1203556Y715307D01*
X1205506Y714499D01*
X1206999Y713006D01*
X1207807Y711056D01*
X1207807Y708944D01*
X1206999Y706994D01*
X1205506Y705501D01*
X1203556Y704693D01*
X1201444Y704693D01*
G37*
%LPD*%
%LPC*%
G36*
X1048944Y704693D02*
X1048944Y704693D01*
X1046994Y705501D01*
X1045501Y706994D01*
X1044693Y708944D01*
X1044693Y711056D01*
X1045501Y713006D01*
X1046994Y714499D01*
X1048944Y715307D01*
X1051056Y715307D01*
X1053006Y714499D01*
X1054499Y713006D01*
X1055307Y711056D01*
X1055307Y708944D01*
X1054499Y706994D01*
X1053006Y705501D01*
X1051056Y704693D01*
X1048944Y704693D01*
G37*
%LPD*%
%LPC*%
G36*
X975194Y700943D02*
X975194Y700943D01*
X973244Y701751D01*
X971751Y703244D01*
X970943Y705194D01*
X970943Y707306D01*
X971751Y709256D01*
X973244Y710749D01*
X975194Y711557D01*
X977306Y711557D01*
X979256Y710749D01*
X980749Y709256D01*
X981557Y707306D01*
X981557Y705194D01*
X980749Y703244D01*
X979256Y701751D01*
X977306Y700943D01*
X975194Y700943D01*
G37*
%LPD*%
%LPC*%
G36*
X901444Y699693D02*
X901444Y699693D01*
X899494Y700501D01*
X898001Y701994D01*
X897193Y703944D01*
X897193Y706056D01*
X898001Y708006D01*
X899494Y709499D01*
X901444Y710307D01*
X903556Y710307D01*
X905506Y709499D01*
X906999Y708006D01*
X907807Y706056D01*
X907807Y703944D01*
X906999Y701994D01*
X905506Y700501D01*
X903556Y699693D01*
X901444Y699693D01*
G37*
%LPD*%
%LPC*%
G36*
X1141220Y393387D02*
X1141220Y393387D01*
X1139270Y394195D01*
X1137777Y395688D01*
X1136969Y397638D01*
X1136969Y399750D01*
X1137777Y401700D01*
X1139270Y403193D01*
X1141220Y404001D01*
X1143332Y404001D01*
X1145282Y403193D01*
X1146775Y401700D01*
X1147583Y399750D01*
X1147583Y397638D01*
X1146775Y395688D01*
X1145282Y394195D01*
X1143332Y393387D01*
X1141220Y393387D01*
G37*
%LPD*%
%LPC*%
G36*
X1156444Y389693D02*
X1156444Y389693D01*
X1154494Y390501D01*
X1153001Y391994D01*
X1152193Y393944D01*
X1152193Y396056D01*
X1153001Y398006D01*
X1154494Y399499D01*
X1156444Y400307D01*
X1158556Y400307D01*
X1160506Y399499D01*
X1161999Y398006D01*
X1162807Y396056D01*
X1162807Y393944D01*
X1161999Y391994D01*
X1160506Y390501D01*
X1158556Y389693D01*
X1156444Y389693D01*
G37*
%LPD*%
%LPC*%
G36*
X1013944Y389693D02*
X1013944Y389693D01*
X1011994Y390501D01*
X1010501Y391994D01*
X1009693Y393944D01*
X1009693Y396056D01*
X1010501Y398006D01*
X1011994Y399499D01*
X1013944Y400307D01*
X1016056Y400307D01*
X1018006Y399499D01*
X1019499Y398006D01*
X1020307Y396056D01*
X1020307Y393944D01*
X1019499Y391994D01*
X1018006Y390501D01*
X1016056Y389693D01*
X1013944Y389693D01*
G37*
%LPD*%
%LPC*%
G36*
X998944Y692193D02*
X998944Y692193D01*
X996994Y693001D01*
X995501Y694494D01*
X994693Y696444D01*
X994693Y698556D01*
X995501Y700506D01*
X996994Y701999D01*
X998944Y702807D01*
X1001056Y702807D01*
X1003006Y701999D01*
X1004499Y700506D01*
X1005307Y698556D01*
X1005307Y696444D01*
X1004499Y694494D01*
X1003006Y693001D01*
X1001056Y692193D01*
X998944Y692193D01*
G37*
%LPD*%
%LPC*%
G36*
X1036444Y679693D02*
X1036444Y679693D01*
X1034494Y680501D01*
X1033001Y681994D01*
X1032193Y683944D01*
X1032193Y686056D01*
X1033001Y688006D01*
X1034494Y689499D01*
X1036444Y690307D01*
X1038556Y690307D01*
X1040506Y689499D01*
X1041999Y688006D01*
X1042807Y686056D01*
X1042807Y683944D01*
X1041999Y681994D01*
X1040506Y680501D01*
X1038556Y679693D01*
X1036444Y679693D01*
G37*
%LPD*%
%LPC*%
G36*
X991444Y384693D02*
X991444Y384693D01*
X989494Y385501D01*
X988001Y386994D01*
X987193Y388944D01*
X987193Y391056D01*
X988001Y393006D01*
X989494Y394499D01*
X991444Y395307D01*
X993556Y395307D01*
X995506Y394499D01*
X996999Y393006D01*
X997807Y391056D01*
X997807Y388944D01*
X996999Y386994D01*
X995506Y385501D01*
X993556Y384693D01*
X991444Y384693D01*
G37*
%LPD*%
%LPC*%
G36*
X971444Y384693D02*
X971444Y384693D01*
X969494Y385501D01*
X968001Y386994D01*
X967193Y388944D01*
X967193Y391056D01*
X968001Y393006D01*
X969494Y394499D01*
X971444Y395307D01*
X973556Y395307D01*
X975506Y394499D01*
X976999Y393006D01*
X977807Y391056D01*
X977807Y388944D01*
X976999Y386994D01*
X975506Y385501D01*
X973556Y384693D01*
X971444Y384693D01*
G37*
%LPD*%
%LPC*%
G36*
X1036444Y662193D02*
X1036444Y662193D01*
X1034494Y663001D01*
X1033001Y664494D01*
X1032193Y666444D01*
X1032193Y668556D01*
X1033001Y670506D01*
X1034494Y671999D01*
X1036444Y672807D01*
X1038556Y672807D01*
X1040506Y671999D01*
X1041999Y670506D01*
X1042807Y668556D01*
X1042807Y666444D01*
X1041999Y664494D01*
X1040506Y663001D01*
X1038556Y662193D01*
X1036444Y662193D01*
G37*
%LPD*%
%LPC*%
G36*
X806444Y647249D02*
X806444Y647249D01*
X804494Y648057D01*
X803001Y649550D01*
X802193Y651500D01*
X802193Y653612D01*
X803001Y655562D01*
X804494Y657055D01*
X806444Y657863D01*
X808556Y657863D01*
X810506Y657055D01*
X811999Y655562D01*
X812807Y653612D01*
X812807Y651500D01*
X811999Y649550D01*
X810506Y648057D01*
X808556Y647249D01*
X806444Y647249D01*
G37*
%LPD*%
%LPC*%
G36*
X906444Y369693D02*
X906444Y369693D01*
X904494Y370501D01*
X903001Y371994D01*
X902193Y373944D01*
X902193Y376056D01*
X903001Y378006D01*
X904494Y379499D01*
X906444Y380307D01*
X908556Y380307D01*
X910506Y379499D01*
X911999Y378006D01*
X912807Y376056D01*
X912807Y373944D01*
X911999Y371994D01*
X910506Y370501D01*
X908556Y369693D01*
X906444Y369693D01*
G37*
%LPD*%
%LPC*%
G36*
X1133944Y647193D02*
X1133944Y647193D01*
X1131994Y648001D01*
X1130501Y649494D01*
X1129693Y651444D01*
X1129693Y653556D01*
X1130501Y655506D01*
X1131994Y656999D01*
X1133944Y657807D01*
X1136056Y657807D01*
X1138006Y656999D01*
X1139499Y655506D01*
X1140307Y653556D01*
X1140307Y651444D01*
X1139499Y649494D01*
X1138006Y648001D01*
X1136056Y647193D01*
X1133944Y647193D01*
G37*
%LPD*%
%LPC*%
G36*
X761444Y357193D02*
X761444Y357193D01*
X759494Y358001D01*
X758001Y359494D01*
X757193Y361444D01*
X757193Y363556D01*
X758001Y365506D01*
X759494Y366999D01*
X761444Y367807D01*
X763556Y367807D01*
X765506Y366999D01*
X766999Y365506D01*
X767807Y363556D01*
X767807Y361444D01*
X766999Y359494D01*
X765506Y358001D01*
X763556Y357193D01*
X761444Y357193D01*
G37*
%LPD*%
%LPC*%
G36*
X791444Y642193D02*
X791444Y642193D01*
X789494Y643001D01*
X788001Y644494D01*
X787193Y646444D01*
X787193Y648556D01*
X788001Y650506D01*
X789494Y651999D01*
X791444Y652807D01*
X793556Y652807D01*
X795506Y651999D01*
X796999Y650506D01*
X797807Y648556D01*
X797807Y646444D01*
X796999Y644494D01*
X795506Y643001D01*
X793556Y642193D01*
X791444Y642193D01*
G37*
%LPD*%
%LPC*%
G36*
X938944Y349693D02*
X938944Y349693D01*
X936994Y350501D01*
X935501Y351994D01*
X934693Y353944D01*
X934693Y356056D01*
X935501Y358006D01*
X936994Y359499D01*
X938944Y360307D01*
X941056Y360307D01*
X943006Y359499D01*
X944499Y358006D01*
X945307Y356056D01*
X945307Y353944D01*
X944499Y351994D01*
X943006Y350501D01*
X941056Y349693D01*
X938944Y349693D01*
G37*
%LPD*%
%LPC*%
G36*
X1112694Y640943D02*
X1112694Y640943D01*
X1110744Y641751D01*
X1109251Y643244D01*
X1108443Y645194D01*
X1108443Y647306D01*
X1109251Y649256D01*
X1110744Y650749D01*
X1112694Y651557D01*
X1114806Y651557D01*
X1116756Y650749D01*
X1118249Y649256D01*
X1119057Y647306D01*
X1119057Y645194D01*
X1118249Y643244D01*
X1116756Y641751D01*
X1114806Y640943D01*
X1112694Y640943D01*
G37*
%LPD*%
%LPC*%
G36*
X910138Y344693D02*
X910138Y344693D01*
X908188Y345501D01*
X906695Y346994D01*
X905887Y348944D01*
X905887Y351056D01*
X906695Y353006D01*
X908188Y354499D01*
X910138Y355307D01*
X912250Y355307D01*
X914200Y354499D01*
X915693Y353006D01*
X916501Y351056D01*
X916501Y348944D01*
X915693Y346994D01*
X914200Y345501D01*
X912250Y344693D01*
X910138Y344693D01*
G37*
%LPD*%
%LPC*%
G36*
X1053944Y342193D02*
X1053944Y342193D01*
X1051994Y343001D01*
X1050501Y344494D01*
X1049693Y346444D01*
X1049693Y348556D01*
X1050501Y350506D01*
X1051994Y351999D01*
X1053944Y352807D01*
X1056056Y352807D01*
X1058006Y351999D01*
X1059499Y350506D01*
X1060307Y348556D01*
X1060307Y346444D01*
X1059499Y344494D01*
X1058006Y343001D01*
X1056056Y342193D01*
X1053944Y342193D01*
G37*
%LPD*%
%LPC*%
G36*
X796444Y342193D02*
X796444Y342193D01*
X794494Y343001D01*
X793001Y344494D01*
X792193Y346444D01*
X792193Y348556D01*
X793001Y350506D01*
X794494Y351999D01*
X796444Y352807D01*
X798556Y352807D01*
X800506Y351999D01*
X801999Y350506D01*
X802807Y348556D01*
X802807Y346444D01*
X801999Y344494D01*
X800506Y343001D01*
X798556Y342193D01*
X796444Y342193D01*
G37*
%LPD*%
%LPC*%
G36*
X1203944Y639693D02*
X1203944Y639693D01*
X1201994Y640501D01*
X1200501Y641994D01*
X1199693Y643944D01*
X1199693Y646056D01*
X1200501Y648006D01*
X1201994Y649499D01*
X1203944Y650307D01*
X1206056Y650307D01*
X1208006Y649499D01*
X1209499Y648006D01*
X1210307Y646056D01*
X1210307Y643944D01*
X1209499Y641994D01*
X1208006Y640501D01*
X1206056Y639693D01*
X1203944Y639693D01*
G37*
%LPD*%
%LPC*%
G36*
X1011444Y337193D02*
X1011444Y337193D01*
X1009494Y338001D01*
X1008001Y339494D01*
X1007193Y341444D01*
X1007193Y343556D01*
X1008001Y345506D01*
X1009494Y346999D01*
X1011444Y347807D01*
X1013556Y347807D01*
X1015506Y346999D01*
X1016999Y345506D01*
X1017807Y343556D01*
X1017807Y341444D01*
X1016999Y339494D01*
X1015506Y338001D01*
X1013556Y337193D01*
X1011444Y337193D01*
G37*
%LPD*%
%LPC*%
G36*
X821444Y632193D02*
X821444Y632193D01*
X819494Y633001D01*
X818001Y634494D01*
X817193Y636444D01*
X817193Y638556D01*
X818001Y640506D01*
X819494Y641999D01*
X821444Y642807D01*
X823556Y642807D01*
X825506Y641999D01*
X826999Y640506D01*
X827807Y638556D01*
X827807Y636444D01*
X826999Y634494D01*
X825506Y633001D01*
X823556Y632193D01*
X821444Y632193D01*
G37*
%LPD*%
%LPC*%
G36*
X1131444Y672193D02*
X1131444Y672193D01*
X1129494Y673001D01*
X1128001Y674494D01*
X1127193Y676444D01*
X1127193Y678556D01*
X1128001Y680506D01*
X1129494Y681999D01*
X1131444Y682807D01*
X1133556Y682807D01*
X1135506Y681999D01*
X1136999Y680506D01*
X1137807Y678556D01*
X1137807Y676444D01*
X1136999Y674494D01*
X1135506Y673001D01*
X1133556Y672193D01*
X1131444Y672193D01*
G37*
%LPD*%
%LPC*%
G36*
X1023944Y329693D02*
X1023944Y329693D01*
X1021994Y330501D01*
X1020501Y331994D01*
X1019693Y333944D01*
X1019693Y336056D01*
X1020501Y338006D01*
X1021994Y339499D01*
X1023944Y340307D01*
X1026056Y340307D01*
X1028006Y339499D01*
X1029499Y338006D01*
X1030307Y336056D01*
X1030307Y333944D01*
X1029499Y331994D01*
X1028006Y330501D01*
X1026056Y329693D01*
X1023944Y329693D01*
G37*
%LPD*%
%LPC*%
G36*
X793944Y324693D02*
X793944Y324693D01*
X791994Y325501D01*
X790501Y326994D01*
X789693Y328944D01*
X789693Y331056D01*
X790501Y333006D01*
X791994Y334499D01*
X793944Y335307D01*
X796056Y335307D01*
X798006Y334499D01*
X799499Y333006D01*
X800307Y331056D01*
X800307Y328944D01*
X799499Y326994D01*
X798006Y325501D01*
X796056Y324693D01*
X793944Y324693D01*
G37*
%LPD*%
%LPC*%
G36*
X741444Y324693D02*
X741444Y324693D01*
X739494Y325501D01*
X738001Y326994D01*
X737193Y328944D01*
X737193Y331056D01*
X738001Y333006D01*
X739494Y334499D01*
X741444Y335307D01*
X743556Y335307D01*
X745506Y334499D01*
X746999Y333006D01*
X747807Y331056D01*
X747807Y328944D01*
X746999Y326994D01*
X745506Y325501D01*
X743556Y324693D01*
X741444Y324693D01*
G37*
%LPD*%
%LPC*%
G36*
X1008944Y322193D02*
X1008944Y322193D01*
X1006994Y323001D01*
X1005501Y324494D01*
X1004693Y326444D01*
X1004693Y328556D01*
X1005501Y330506D01*
X1006994Y331999D01*
X1008944Y332807D01*
X1011056Y332807D01*
X1013006Y331999D01*
X1014499Y330506D01*
X1015307Y328556D01*
X1015307Y326444D01*
X1014499Y324494D01*
X1013006Y323001D01*
X1011056Y322193D01*
X1008944Y322193D01*
G37*
%LPD*%
%LPC*%
G36*
X828944Y612193D02*
X828944Y612193D01*
X826994Y613001D01*
X825501Y614494D01*
X824693Y616444D01*
X824693Y618556D01*
X825501Y620506D01*
X826994Y621999D01*
X828944Y622807D01*
X831056Y622807D01*
X833006Y621999D01*
X834499Y620506D01*
X835307Y618556D01*
X835307Y616444D01*
X834499Y614494D01*
X833006Y613001D01*
X831056Y612193D01*
X828944Y612193D01*
G37*
%LPD*%
%LPC*%
G36*
X878944Y609693D02*
X878944Y609693D01*
X876994Y610501D01*
X875501Y611994D01*
X874693Y613944D01*
X874693Y616056D01*
X875501Y618006D01*
X876994Y619499D01*
X878944Y620307D01*
X881056Y620307D01*
X883006Y619499D01*
X884499Y618006D01*
X885307Y616056D01*
X885307Y613944D01*
X884499Y611994D01*
X883006Y610501D01*
X881056Y609693D01*
X878944Y609693D01*
G37*
%LPD*%
%LPC*%
G36*
X953944Y307193D02*
X953944Y307193D01*
X951994Y308001D01*
X950501Y309494D01*
X949693Y311444D01*
X949693Y313556D01*
X950501Y315506D01*
X951994Y316999D01*
X953944Y317807D01*
X956056Y317807D01*
X958006Y316999D01*
X959499Y315506D01*
X960307Y313556D01*
X960307Y311444D01*
X959499Y309494D01*
X958006Y308001D01*
X956056Y307193D01*
X953944Y307193D01*
G37*
%LPD*%
%LPC*%
G36*
X853944Y307193D02*
X853944Y307193D01*
X851994Y308001D01*
X850501Y309494D01*
X849693Y311444D01*
X849693Y313556D01*
X850501Y315506D01*
X851994Y316999D01*
X853944Y317807D01*
X856056Y317807D01*
X858006Y316999D01*
X859499Y315506D01*
X860307Y313556D01*
X860307Y311444D01*
X859499Y309494D01*
X858006Y308001D01*
X856056Y307193D01*
X853944Y307193D01*
G37*
%LPD*%
%LPC*%
G36*
X1006444Y304693D02*
X1006444Y304693D01*
X1004494Y305501D01*
X1003001Y306994D01*
X1002193Y308944D01*
X1002193Y311056D01*
X1003001Y313006D01*
X1004494Y314499D01*
X1006444Y315307D01*
X1008556Y315307D01*
X1010506Y314499D01*
X1011999Y313006D01*
X1012807Y311056D01*
X1012807Y308944D01*
X1011999Y306994D01*
X1010506Y305501D01*
X1008556Y304693D01*
X1006444Y304693D01*
G37*
%LPD*%
%LPC*%
G36*
X1161444Y299693D02*
X1161444Y299693D01*
X1159494Y300501D01*
X1158001Y301994D01*
X1157193Y303944D01*
X1157193Y306056D01*
X1158001Y308006D01*
X1159494Y309499D01*
X1161444Y310307D01*
X1163556Y310307D01*
X1165506Y309499D01*
X1166999Y308006D01*
X1167807Y306056D01*
X1167807Y303944D01*
X1166999Y301994D01*
X1165506Y300501D01*
X1163556Y299693D01*
X1161444Y299693D01*
G37*
%LPD*%
%LPC*%
G36*
X1018944Y294693D02*
X1018944Y294693D01*
X1016994Y295501D01*
X1015501Y296994D01*
X1014693Y298944D01*
X1014693Y301056D01*
X1015501Y303006D01*
X1016994Y304499D01*
X1018944Y305307D01*
X1021056Y305307D01*
X1023006Y304499D01*
X1024499Y303006D01*
X1025307Y301056D01*
X1025307Y298944D01*
X1024499Y296994D01*
X1023006Y295501D01*
X1021056Y294693D01*
X1018944Y294693D01*
G37*
%LPD*%
%LPC*%
G36*
X1263944Y592193D02*
X1263944Y592193D01*
X1261994Y593001D01*
X1260501Y594494D01*
X1259693Y596444D01*
X1259693Y598556D01*
X1260501Y600506D01*
X1261994Y601999D01*
X1263944Y602807D01*
X1266056Y602807D01*
X1268006Y601999D01*
X1269499Y600506D01*
X1270307Y598556D01*
X1270307Y596444D01*
X1269499Y594494D01*
X1268006Y593001D01*
X1266056Y592193D01*
X1263944Y592193D01*
G37*
%LPD*%
%LPC*%
G36*
X816444Y289693D02*
X816444Y289693D01*
X814494Y290501D01*
X813001Y291994D01*
X812193Y293944D01*
X812193Y296056D01*
X813001Y298006D01*
X814494Y299499D01*
X816444Y300307D01*
X818556Y300307D01*
X820506Y299499D01*
X821999Y298006D01*
X822807Y296056D01*
X822807Y293944D01*
X821999Y291994D01*
X820506Y290501D01*
X818556Y289693D01*
X816444Y289693D01*
G37*
%LPD*%
%LPC*%
G36*
X921444Y281563D02*
X921444Y281563D01*
X919494Y282371D01*
X918001Y283864D01*
X917193Y285814D01*
X917193Y287926D01*
X918001Y289876D01*
X919494Y291369D01*
X921444Y292177D01*
X923556Y292177D01*
X925506Y291369D01*
X926999Y289876D01*
X927807Y287926D01*
X927807Y285814D01*
X926999Y283864D01*
X925506Y282371D01*
X923556Y281563D01*
X921444Y281563D01*
G37*
%LPD*%
%LPC*%
G36*
X788944Y277193D02*
X788944Y277193D01*
X786994Y278001D01*
X785501Y279494D01*
X784693Y281444D01*
X784693Y283556D01*
X785501Y285506D01*
X786994Y286999D01*
X788944Y287807D01*
X791056Y287807D01*
X793006Y286999D01*
X794499Y285506D01*
X795307Y283556D01*
X795307Y281444D01*
X794499Y279494D01*
X793006Y278001D01*
X791056Y277193D01*
X788944Y277193D01*
G37*
%LPD*%
%LPC*%
G36*
X816444Y274693D02*
X816444Y274693D01*
X814494Y275501D01*
X813001Y276994D01*
X812193Y278944D01*
X812193Y281056D01*
X813001Y283006D01*
X814494Y284499D01*
X816444Y285307D01*
X818556Y285307D01*
X820506Y284499D01*
X821999Y283006D01*
X822807Y281056D01*
X822807Y278944D01*
X821999Y276994D01*
X820506Y275501D01*
X818556Y274693D01*
X816444Y274693D01*
G37*
%LPD*%
%LPC*%
G36*
X1028944Y272193D02*
X1028944Y272193D01*
X1026994Y273001D01*
X1025501Y274494D01*
X1024693Y276444D01*
X1024693Y278556D01*
X1025501Y280506D01*
X1026994Y281999D01*
X1028944Y282807D01*
X1031056Y282807D01*
X1033006Y281999D01*
X1034499Y280506D01*
X1035307Y278556D01*
X1035307Y276444D01*
X1034499Y274494D01*
X1033006Y273001D01*
X1031056Y272193D01*
X1028944Y272193D01*
G37*
%LPD*%
%LPC*%
G36*
X1091444Y589693D02*
X1091444Y589693D01*
X1089494Y590501D01*
X1088001Y591994D01*
X1087193Y593944D01*
X1087193Y596056D01*
X1088001Y598006D01*
X1089494Y599499D01*
X1091444Y600307D01*
X1093556Y600307D01*
X1095506Y599499D01*
X1096999Y598006D01*
X1097807Y596056D01*
X1097807Y593944D01*
X1096999Y591994D01*
X1095506Y590501D01*
X1093556Y589693D01*
X1091444Y589693D01*
G37*
%LPD*%
%LPC*%
G36*
X1037750Y330943D02*
X1037750Y330943D01*
X1035800Y331751D01*
X1034307Y333244D01*
X1033499Y335194D01*
X1033499Y337306D01*
X1034307Y339256D01*
X1035800Y340749D01*
X1037750Y341557D01*
X1039862Y341557D01*
X1041812Y340749D01*
X1043305Y339256D01*
X1044113Y337306D01*
X1044113Y335194D01*
X1043305Y333244D01*
X1041812Y331751D01*
X1039862Y330943D01*
X1037750Y330943D01*
G37*
%LPD*%
%LPC*%
G36*
X1006444Y267193D02*
X1006444Y267193D01*
X1004494Y268001D01*
X1003001Y269494D01*
X1002193Y271444D01*
X1002193Y273556D01*
X1003001Y275506D01*
X1004494Y276999D01*
X1006444Y277807D01*
X1008556Y277807D01*
X1010506Y276999D01*
X1011999Y275506D01*
X1012807Y273556D01*
X1012807Y271444D01*
X1011999Y269494D01*
X1010506Y268001D01*
X1008556Y267193D01*
X1006444Y267193D01*
G37*
%LPD*%
%LPC*%
G36*
X1155194Y573443D02*
X1155194Y573443D01*
X1153244Y574251D01*
X1151751Y575744D01*
X1150943Y577694D01*
X1150943Y579806D01*
X1151751Y581756D01*
X1153244Y583249D01*
X1155194Y584057D01*
X1157306Y584057D01*
X1159256Y583249D01*
X1160749Y581756D01*
X1161557Y579806D01*
X1161557Y577694D01*
X1160749Y575744D01*
X1159256Y574251D01*
X1157306Y573443D01*
X1155194Y573443D01*
G37*
%LPD*%
%LPC*%
G36*
X816444Y259693D02*
X816444Y259693D01*
X814494Y260501D01*
X813001Y261994D01*
X812193Y263944D01*
X812193Y266056D01*
X813001Y268006D01*
X814494Y269499D01*
X816444Y270307D01*
X818556Y270307D01*
X820506Y269499D01*
X821999Y268006D01*
X822807Y266056D01*
X822807Y263944D01*
X821999Y261994D01*
X820506Y260501D01*
X818556Y259693D01*
X816444Y259693D01*
G37*
%LPD*%
%LPC*%
G36*
X1018944Y259693D02*
X1018944Y259693D01*
X1016994Y260501D01*
X1015501Y261994D01*
X1014693Y263944D01*
X1014693Y266056D01*
X1015501Y268006D01*
X1016994Y269499D01*
X1018944Y270307D01*
X1021056Y270307D01*
X1023006Y269499D01*
X1024499Y268006D01*
X1025307Y266056D01*
X1025307Y263944D01*
X1024499Y261994D01*
X1023006Y260501D01*
X1021056Y259693D01*
X1018944Y259693D01*
G37*
%LPD*%
%LPC*%
G36*
X1063944Y572193D02*
X1063944Y572193D01*
X1061994Y573001D01*
X1060501Y574494D01*
X1059693Y576444D01*
X1059693Y578556D01*
X1060501Y580506D01*
X1061994Y581999D01*
X1063944Y582807D01*
X1066056Y582807D01*
X1068006Y581999D01*
X1069499Y580506D01*
X1070307Y578556D01*
X1070307Y576444D01*
X1069499Y574494D01*
X1068006Y573001D01*
X1066056Y572193D01*
X1063944Y572193D01*
G37*
%LPD*%
%LPC*%
G36*
X993944Y257193D02*
X993944Y257193D01*
X991994Y258001D01*
X990501Y259494D01*
X989693Y261444D01*
X989693Y263556D01*
X990501Y265506D01*
X991994Y266999D01*
X993944Y267807D01*
X996056Y267807D01*
X998006Y266999D01*
X999499Y265506D01*
X1000307Y263556D01*
X1000307Y261444D01*
X999499Y259494D01*
X998006Y258001D01*
X996056Y257193D01*
X993944Y257193D01*
G37*
%LPD*%
%LPC*%
G36*
X1033944Y257193D02*
X1033944Y257193D01*
X1031994Y258001D01*
X1030501Y259494D01*
X1029693Y261444D01*
X1029693Y263556D01*
X1030501Y265506D01*
X1031994Y266999D01*
X1033944Y267807D01*
X1036056Y267807D01*
X1038006Y266999D01*
X1039499Y265506D01*
X1040307Y263556D01*
X1040307Y261444D01*
X1039499Y259494D01*
X1038006Y258001D01*
X1036056Y257193D01*
X1033944Y257193D01*
G37*
%LPD*%
%LPC*%
G36*
X728944Y244693D02*
X728944Y244693D01*
X726994Y245501D01*
X725501Y246994D01*
X724693Y248944D01*
X724693Y251056D01*
X725501Y253006D01*
X726994Y254499D01*
X728944Y255307D01*
X731056Y255307D01*
X733006Y254499D01*
X734499Y253006D01*
X735307Y251056D01*
X735307Y248944D01*
X734499Y246994D01*
X733006Y245501D01*
X731056Y244693D01*
X728944Y244693D01*
G37*
%LPD*%
%LPC*%
G36*
X816444Y242193D02*
X816444Y242193D01*
X814494Y243001D01*
X813001Y244494D01*
X812193Y246444D01*
X812193Y248556D01*
X813001Y250506D01*
X814494Y251999D01*
X816444Y252807D01*
X818556Y252807D01*
X820506Y251999D01*
X821999Y250506D01*
X822807Y248556D01*
X822807Y246444D01*
X821999Y244494D01*
X820506Y243001D01*
X818556Y242193D01*
X816444Y242193D01*
G37*
%LPD*%
%LPC*%
G36*
X1016343Y222295D02*
X1016343Y222295D01*
X1014392Y223103D01*
X1012899Y224596D01*
X1012091Y226546D01*
X1012091Y228657D01*
X1012899Y230608D01*
X1014392Y232101D01*
X1016343Y232909D01*
X1018454Y232909D01*
X1020404Y232101D01*
X1021897Y230608D01*
X1022705Y228657D01*
X1022705Y226546D01*
X1021897Y224596D01*
X1020404Y223103D01*
X1018454Y222295D01*
X1016343Y222295D01*
G37*
%LPD*%
%LPC*%
G36*
X801444Y222193D02*
X801444Y222193D01*
X799494Y223001D01*
X798001Y224494D01*
X797193Y226444D01*
X797193Y228556D01*
X798001Y230506D01*
X799494Y231999D01*
X801444Y232807D01*
X803556Y232807D01*
X805506Y231999D01*
X806999Y230506D01*
X807807Y228556D01*
X807807Y226444D01*
X806999Y224494D01*
X805506Y223001D01*
X803556Y222193D01*
X801444Y222193D01*
G37*
%LPD*%
%LPC*%
G36*
X816444Y222193D02*
X816444Y222193D01*
X814494Y223001D01*
X813001Y224494D01*
X812193Y226444D01*
X812193Y228556D01*
X813001Y230506D01*
X814494Y231999D01*
X816444Y232807D01*
X818556Y232807D01*
X820506Y231999D01*
X821999Y230506D01*
X822807Y228556D01*
X822807Y226444D01*
X821999Y224494D01*
X820506Y223001D01*
X818556Y222193D01*
X816444Y222193D01*
G37*
%LPD*%
%LPC*%
G36*
X831444Y222193D02*
X831444Y222193D01*
X829494Y223001D01*
X828001Y224494D01*
X827193Y226444D01*
X827193Y228556D01*
X828001Y230506D01*
X829494Y231999D01*
X831444Y232807D01*
X833556Y232807D01*
X835506Y231999D01*
X836999Y230506D01*
X837807Y228556D01*
X837807Y226444D01*
X836999Y224494D01*
X835506Y223001D01*
X833556Y222193D01*
X831444Y222193D01*
G37*
%LPD*%
%LPC*%
G36*
X996444Y222193D02*
X996444Y222193D01*
X994494Y223001D01*
X993001Y224494D01*
X992193Y226444D01*
X992193Y228556D01*
X993001Y230506D01*
X994494Y231999D01*
X996444Y232807D01*
X998556Y232807D01*
X1000506Y231999D01*
X1001999Y230506D01*
X1002807Y228556D01*
X1002807Y226444D01*
X1001999Y224494D01*
X1000506Y223001D01*
X998556Y222193D01*
X996444Y222193D01*
G37*
%LPD*%
%LPC*%
G36*
X915138Y209693D02*
X915138Y209693D01*
X913188Y210501D01*
X911695Y211994D01*
X910887Y213944D01*
X910887Y216056D01*
X911695Y218006D01*
X913188Y219499D01*
X915138Y220307D01*
X917250Y220307D01*
X919200Y219499D01*
X920693Y218006D01*
X921501Y216056D01*
X921501Y213944D01*
X920693Y211994D01*
X919200Y210501D01*
X917250Y209693D01*
X915138Y209693D01*
G37*
%LPD*%
%LPC*%
G36*
X1131444Y209693D02*
X1131444Y209693D01*
X1129494Y210501D01*
X1128001Y211994D01*
X1127193Y213944D01*
X1127193Y216056D01*
X1128001Y218006D01*
X1129494Y219499D01*
X1131444Y220307D01*
X1133556Y220307D01*
X1135506Y219499D01*
X1136999Y218006D01*
X1137807Y216056D01*
X1137807Y213944D01*
X1136999Y211994D01*
X1135506Y210501D01*
X1133556Y209693D01*
X1131444Y209693D01*
G37*
%LPD*%
%LPC*%
G36*
X858944Y267193D02*
X858944Y267193D01*
X856994Y268001D01*
X855501Y269494D01*
X854693Y271444D01*
X854693Y273556D01*
X855501Y275506D01*
X856994Y276999D01*
X858944Y277807D01*
X861056Y277807D01*
X863006Y276999D01*
X864499Y275506D01*
X865307Y273556D01*
X865307Y271444D01*
X864499Y269494D01*
X863006Y268001D01*
X861056Y267193D01*
X858944Y267193D01*
G37*
%LPD*%
%LPC*%
G36*
X1230399Y419099D02*
X1230399Y419099D01*
X1230399Y426484D01*
X1230643Y426445D01*
X1232078Y425979D01*
X1233421Y425294D01*
X1234642Y424408D01*
X1235708Y423342D01*
X1236594Y422121D01*
X1237279Y420778D01*
X1237745Y419343D01*
X1237784Y419099D01*
X1230399Y419099D01*
G37*
%LPD*%
%LPC*%
G36*
X1219016Y419099D02*
X1219016Y419099D01*
X1219055Y419343D01*
X1219521Y420778D01*
X1220206Y422121D01*
X1221092Y423342D01*
X1222158Y424408D01*
X1223379Y425294D01*
X1224722Y425979D01*
X1226157Y426445D01*
X1226401Y426484D01*
X1226401Y419099D01*
X1219016Y419099D01*
G37*
%LPD*%
%LPC*%
G36*
X1230399Y415101D02*
X1230399Y415101D01*
X1237784Y415101D01*
X1237750Y414892D01*
X1237750Y414891D01*
X1237745Y414857D01*
X1237279Y413422D01*
X1236594Y412079D01*
X1235708Y410858D01*
X1234642Y409792D01*
X1233421Y408906D01*
X1232078Y408221D01*
X1230643Y407755D01*
X1230399Y407716D01*
X1230399Y415101D01*
G37*
%LPD*%
%LPC*%
G36*
X1226157Y407755D02*
X1226157Y407755D01*
X1224722Y408221D01*
X1223379Y408906D01*
X1222158Y409792D01*
X1221092Y410858D01*
X1220206Y412079D01*
X1219521Y413422D01*
X1219055Y414857D01*
X1219016Y415101D01*
X1226401Y415101D01*
X1226401Y407716D01*
X1226157Y407755D01*
G37*
%LPD*%
%LPC*%
G36*
X683296Y709796D02*
X683296Y709796D01*
X683296Y716151D01*
X684197Y715972D01*
X685630Y715378D01*
X686920Y714517D01*
X688017Y713420D01*
X688878Y712130D01*
X689472Y710697D01*
X689651Y709796D01*
X683296Y709796D01*
G37*
%LPD*%
%LPC*%
G36*
X683296Y145504D02*
X683296Y145504D01*
X689651Y145504D01*
X689472Y144603D01*
X688878Y143170D01*
X688017Y141880D01*
X686920Y140783D01*
X685630Y139922D01*
X684197Y139328D01*
X683296Y139149D01*
X683296Y145504D01*
G37*
%LPD*%
%LPC*%
G36*
X674149Y709796D02*
X674149Y709796D01*
X674328Y710697D01*
X674922Y712130D01*
X675783Y713420D01*
X676880Y714517D01*
X678170Y715378D01*
X679603Y715972D01*
X680504Y716151D01*
X680504Y709796D01*
X674149Y709796D01*
G37*
%LPD*%
%LPC*%
G36*
X679603Y139328D02*
X679603Y139328D01*
X678170Y139922D01*
X676880Y140783D01*
X675783Y141880D01*
X674922Y143170D01*
X674328Y144603D01*
X674149Y145504D01*
X680504Y145504D01*
X680504Y139149D01*
X679603Y139328D01*
G37*
%LPD*%
%LPC*%
G36*
X1228399Y417099D02*
X1228399Y417099D01*
X1228399Y417101D01*
X1228401Y417101D01*
X1228401Y417099D01*
X1228399Y417099D01*
G37*
%LPD*%
D10*
X1252800Y342800D03*
X1313800Y342800D03*
X1283800Y390800D03*
D11*
X1041000Y152300D03*
X1015600Y152300D03*
X990200Y152300D03*
X964800Y152300D03*
X939400Y152300D03*
X914000Y152300D03*
D12*
X1330000Y620300D03*
X1304600Y620300D03*
X1279200Y620300D03*
X1253800Y620300D03*
X1228400Y620300D03*
X1203000Y620300D03*
X1177600Y620300D03*
X1152200Y620300D03*
X1126800Y620300D03*
X1101400Y620300D03*
X1076000Y620300D03*
X1050600Y620300D03*
X1025200Y620300D03*
X999800Y620300D03*
X974400Y620300D03*
X949000Y620300D03*
X949000Y417100D03*
X974400Y417100D03*
X999800Y417100D03*
X1025200Y417100D03*
X1050600Y417100D03*
X1076000Y417100D03*
X1101400Y417100D03*
X1126800Y417100D03*
X1152200Y417100D03*
X1177600Y417100D03*
X1203000Y417100D03*
X872800Y594900D03*
X872800Y569500D03*
X872800Y544100D03*
X872800Y518700D03*
X872800Y493300D03*
X872800Y467900D03*
X872800Y442500D03*
X872800Y417100D03*
X847400Y594900D03*
X847400Y569500D03*
X847400Y544100D03*
X847400Y518700D03*
X847400Y493300D03*
X847400Y467900D03*
X847400Y442500D03*
X847400Y417100D03*
X1228400Y417100D03*
D13*
X681900Y467100D03*
X681900Y479800D03*
X681900Y492500D03*
X681900Y505200D03*
X681900Y517900D03*
X681900Y530600D03*
X681900Y543300D03*
X681900Y556000D03*
X681900Y568700D03*
X681900Y581400D03*
X681900Y594100D03*
X681900Y606800D03*
X681900Y619500D03*
X681900Y632200D03*
X681900Y644900D03*
X681900Y657600D03*
X681900Y670300D03*
X681900Y683000D03*
X681900Y695700D03*
X681900Y708400D03*
D14*
X641260Y479800D03*
X641260Y695700D03*
X641260Y587750D03*
D13*
X681900Y146900D03*
X681900Y159600D03*
X681900Y172300D03*
X681900Y185000D03*
X681900Y197700D03*
X681900Y210400D03*
X681900Y223100D03*
X681900Y235800D03*
X681900Y248500D03*
X681900Y261200D03*
X681900Y273900D03*
X681900Y286600D03*
X681900Y299300D03*
X681900Y312000D03*
X681900Y324700D03*
X681900Y337400D03*
X681900Y350100D03*
X681900Y362800D03*
X681900Y375500D03*
X681900Y388200D03*
D14*
X641260Y159600D03*
X641260Y375500D03*
X641260Y267550D03*
D15*
X1326458Y200402D03*
X1326458Y244598D03*
D16*
X777500Y807500D03*
X855000Y312500D03*
X1097500Y375170D03*
X911194Y350000D03*
X900972Y420464D03*
X1145000Y725000D03*
X1132500Y215000D03*
X1038806Y336250D03*
X902500Y705000D03*
X1035000Y262500D03*
X980000Y805000D03*
X860000Y272500D03*
X1260000Y235000D03*
X1262500Y222500D03*
X1172500Y315000D03*
X1177500Y325000D03*
X1162500Y305000D03*
X1032500Y112500D03*
X1057492Y80142D03*
X1082500Y147500D03*
X1082500Y235000D03*
X1205000Y452500D03*
X1222500Y435000D03*
X1050000Y800000D03*
X1130000Y797500D03*
X1287500Y802500D03*
X1275000Y797500D03*
X1105000Y175000D03*
X1105000Y195000D03*
X957500Y180000D03*
X927500Y415000D03*
X922500Y490000D03*
X975000Y482500D03*
X1222500Y575000D03*
X850000Y272500D03*
X785000Y218806D03*
D17*
X681900Y159600D02*
X657500Y160000D01*
X652500Y167500D01*
D16*
X987500Y47500D03*
X925000Y117500D03*
X915000Y95000D03*
X995000Y292500D03*
X967500Y222500D03*
X1072500Y500000D03*
X1055000Y237500D03*
X917500Y270000D03*
X938006Y345912D03*
X1000000Y723694D03*
X1077500Y330000D03*
X1077500Y385000D03*
D17*
X652500Y217500D02*
X652500Y167500D01*
D16*
X940000Y175000D03*
X950000Y457500D03*
X905000Y755000D03*
X1007500Y755000D03*
X977500Y505000D03*
X1000000Y697500D03*
X1090000Y670000D03*
X1132500Y677500D03*
X1065000Y577500D03*
X1156250Y578750D03*
X1037500Y667500D03*
X1202500Y710000D03*
X1012500Y565000D03*
X1200000Y565000D03*
X955000Y312500D03*
X730000Y250000D03*
X730000Y170000D03*
X982500Y172500D03*
X817500Y247500D03*
X967500Y262500D03*
X817500Y265000D03*
X965000Y295000D03*
X922500Y286870D03*
X817500Y280000D03*
X817500Y295000D03*
X957500Y287500D03*
X817500Y227500D03*
X995000Y262500D03*
X832500Y227500D03*
X997500Y227500D03*
X742500Y330000D03*
X850000Y345000D03*
X940000Y355000D03*
X717500Y350000D03*
X907500Y375000D03*
X1007500Y310000D03*
X790000Y282500D03*
X1010000Y327500D03*
X795000Y330000D03*
X1020000Y300000D03*
X980000Y265000D03*
X752500Y427500D03*
X1000000Y432500D03*
X992500Y390000D03*
X1020000Y450000D03*
X907500Y437500D03*
X977500Y433806D03*
X762500Y362500D03*
X1020000Y265000D03*
X1142276Y398694D03*
X792500Y392500D03*
X797500Y347500D03*
X1030000Y277500D03*
X1135000Y652500D03*
X807500Y652556D03*
X1113750Y646250D03*
X792500Y647500D03*
X1100000Y392500D03*
X725000Y360000D03*
X1055000Y347500D03*
X732500Y370000D03*
X1030000Y395000D03*
X780000Y392500D03*
X1015000Y395000D03*
X1002500Y495000D03*
X866250Y213750D03*
X916194Y215000D03*
X1205000Y645000D03*
X976250Y706250D03*
X1037500Y685000D03*
X980000Y730000D03*
X1050000Y710000D03*
X982500Y275000D03*
X922500Y180000D03*
X1092500Y595000D03*
X1265000Y597500D03*
X720000Y150000D03*
X1010000Y190000D03*
X755000Y190000D03*
X1017398Y227602D03*
X740000Y380000D03*
X972500Y390000D03*
X962500Y532500D03*
X745000Y530000D03*
X1012500Y342500D03*
X1025000Y335000D03*
X722500Y127500D03*
X1007500Y272500D03*
X975000Y322500D03*
X880000Y615000D03*
X822500Y637500D03*
X830000Y617500D03*
X1157500Y395000D03*
X765000Y392500D03*
X802500Y227500D03*
X840000Y337500D03*
X975000Y310000D03*
X1025000Y525000D03*
M02*
