G04 EAGLE Gerber RS-274X export*
G75*
%MOMM*%
%FSLAX34Y34*%
%LPD*%
%IN*%
%IPPOS*%
%AMOC8*
5,1,8,0,0,1.08239X$1,22.5*%
G01*
%ADD10C,0.254000*%


D10*
X610000Y22500D02*
X1260000Y22500D01*
X1269758Y21507D01*
X1279565Y21368D01*
X1289347Y22085D01*
X1299030Y23651D01*
X1308539Y26056D01*
X1317802Y29280D01*
X1326749Y33299D01*
X1335312Y38082D01*
X1343425Y43594D01*
X1351027Y49792D01*
X1358060Y56628D01*
X1364470Y64052D01*
X1370209Y72006D01*
X1375233Y80430D01*
X1379503Y89260D01*
X1382988Y98429D01*
X1385660Y107866D01*
X1387500Y117500D01*
X1387500Y717500D01*
X1386077Y727589D01*
X1383780Y737516D01*
X1380627Y747204D01*
X1376642Y756581D01*
X1371854Y765575D01*
X1366300Y774118D01*
X1360024Y782144D01*
X1353071Y789592D01*
X1345496Y796406D01*
X1337356Y802534D01*
X1328713Y807929D01*
X1319632Y812550D01*
X1310183Y816363D01*
X1300438Y819337D01*
X1290471Y821451D01*
X1280358Y822687D01*
X1270175Y823038D01*
X1260000Y822500D01*
X610000Y822500D01*
X610000Y22500D01*
X1308800Y328800D02*
X1318800Y328800D01*
X1318800Y356800D01*
X1308800Y356800D01*
X1308800Y328800D01*
X1247800Y326300D02*
X1257800Y326300D01*
X1257800Y359300D01*
X1247800Y359300D01*
X1247800Y326300D01*
X1269800Y385800D02*
X1297800Y385800D01*
X1297800Y395800D01*
X1269800Y395800D01*
X1269800Y385800D01*
X1352820Y709386D02*
X1352746Y708160D01*
X1352598Y706941D01*
X1352376Y705733D01*
X1352083Y704541D01*
X1351717Y703369D01*
X1351282Y702220D01*
X1350778Y701101D01*
X1350207Y700013D01*
X1349572Y698962D01*
X1348874Y697952D01*
X1348117Y696985D01*
X1347303Y696066D01*
X1346434Y695197D01*
X1345515Y694383D01*
X1344548Y693626D01*
X1343538Y692928D01*
X1342487Y692293D01*
X1341400Y691722D01*
X1340280Y691218D01*
X1339131Y690783D01*
X1337959Y690417D01*
X1336767Y690124D01*
X1335559Y689902D01*
X1334340Y689754D01*
X1333114Y689680D01*
X1331886Y689680D01*
X1330660Y689754D01*
X1329441Y689902D01*
X1328233Y690124D01*
X1327041Y690417D01*
X1325869Y690783D01*
X1324720Y691218D01*
X1323601Y691722D01*
X1322513Y692293D01*
X1321462Y692928D01*
X1320452Y693626D01*
X1319485Y694383D01*
X1318566Y695197D01*
X1317697Y696066D01*
X1316883Y696985D01*
X1316126Y697952D01*
X1315428Y698962D01*
X1314793Y700013D01*
X1314222Y701101D01*
X1313718Y702220D01*
X1313283Y703369D01*
X1312917Y704541D01*
X1312624Y705733D01*
X1312402Y706941D01*
X1312254Y708160D01*
X1312180Y709386D01*
X1312180Y710614D01*
X1312254Y711840D01*
X1312402Y713059D01*
X1312624Y714267D01*
X1312917Y715459D01*
X1313283Y716631D01*
X1313718Y717780D01*
X1314222Y718900D01*
X1314793Y719987D01*
X1315428Y721038D01*
X1316126Y722048D01*
X1316883Y723015D01*
X1317697Y723934D01*
X1318566Y724803D01*
X1319485Y725617D01*
X1320452Y726374D01*
X1321462Y727072D01*
X1322513Y727707D01*
X1323601Y728278D01*
X1324720Y728782D01*
X1325869Y729217D01*
X1327041Y729583D01*
X1328233Y729876D01*
X1329441Y730098D01*
X1330660Y730246D01*
X1331886Y730320D01*
X1333114Y730320D01*
X1334340Y730246D01*
X1335559Y730098D01*
X1336767Y729876D01*
X1337959Y729583D01*
X1339131Y729217D01*
X1340280Y728782D01*
X1341400Y728278D01*
X1342487Y727707D01*
X1343538Y727072D01*
X1344548Y726374D01*
X1345515Y725617D01*
X1346434Y724803D01*
X1347303Y723934D01*
X1348117Y723015D01*
X1348874Y722048D01*
X1349572Y721038D01*
X1350207Y719987D01*
X1350778Y718900D01*
X1351282Y717780D01*
X1351717Y716631D01*
X1352083Y715459D01*
X1352376Y714267D01*
X1352598Y713059D01*
X1352746Y711840D01*
X1352820Y710614D01*
X1352820Y709386D01*
X1347820Y101886D02*
X1347746Y100660D01*
X1347598Y99441D01*
X1347376Y98233D01*
X1347083Y97041D01*
X1346717Y95869D01*
X1346282Y94720D01*
X1345778Y93601D01*
X1345207Y92513D01*
X1344572Y91462D01*
X1343874Y90452D01*
X1343117Y89485D01*
X1342303Y88566D01*
X1341434Y87697D01*
X1340515Y86883D01*
X1339548Y86126D01*
X1338538Y85428D01*
X1337487Y84793D01*
X1336400Y84222D01*
X1335280Y83718D01*
X1334131Y83283D01*
X1332959Y82917D01*
X1331767Y82624D01*
X1330559Y82402D01*
X1329340Y82254D01*
X1328114Y82180D01*
X1326886Y82180D01*
X1325660Y82254D01*
X1324441Y82402D01*
X1323233Y82624D01*
X1322041Y82917D01*
X1320869Y83283D01*
X1319720Y83718D01*
X1318601Y84222D01*
X1317513Y84793D01*
X1316462Y85428D01*
X1315452Y86126D01*
X1314485Y86883D01*
X1313566Y87697D01*
X1312697Y88566D01*
X1311883Y89485D01*
X1311126Y90452D01*
X1310428Y91462D01*
X1309793Y92513D01*
X1309222Y93601D01*
X1308718Y94720D01*
X1308283Y95869D01*
X1307917Y97041D01*
X1307624Y98233D01*
X1307402Y99441D01*
X1307254Y100660D01*
X1307180Y101886D01*
X1307180Y103114D01*
X1307254Y104340D01*
X1307402Y105559D01*
X1307624Y106767D01*
X1307917Y107959D01*
X1308283Y109131D01*
X1308718Y110280D01*
X1309222Y111400D01*
X1309793Y112487D01*
X1310428Y113538D01*
X1311126Y114548D01*
X1311883Y115515D01*
X1312697Y116434D01*
X1313566Y117303D01*
X1314485Y118117D01*
X1315452Y118874D01*
X1316462Y119572D01*
X1317513Y120207D01*
X1318601Y120778D01*
X1319720Y121282D01*
X1320869Y121717D01*
X1322041Y122083D01*
X1323233Y122376D01*
X1324441Y122598D01*
X1325660Y122746D01*
X1326886Y122820D01*
X1328114Y122820D01*
X1329340Y122746D01*
X1330559Y122598D01*
X1331767Y122376D01*
X1332959Y122083D01*
X1334131Y121717D01*
X1335280Y121282D01*
X1336400Y120778D01*
X1337487Y120207D01*
X1338538Y119572D01*
X1339548Y118874D01*
X1340515Y118117D01*
X1341434Y117303D01*
X1342303Y116434D01*
X1343117Y115515D01*
X1343874Y114548D01*
X1344572Y113538D01*
X1345207Y112487D01*
X1345778Y111400D01*
X1346282Y110280D01*
X1346717Y109131D01*
X1347083Y107959D01*
X1347376Y106767D01*
X1347598Y105559D01*
X1347746Y104340D01*
X1347820Y103114D01*
X1347820Y101886D01*
X702820Y76886D02*
X702746Y75660D01*
X702598Y74441D01*
X702376Y73233D01*
X702083Y72041D01*
X701717Y70869D01*
X701282Y69720D01*
X700778Y68601D01*
X700207Y67513D01*
X699572Y66462D01*
X698874Y65452D01*
X698117Y64485D01*
X697303Y63566D01*
X696434Y62697D01*
X695515Y61883D01*
X694548Y61126D01*
X693538Y60428D01*
X692487Y59793D01*
X691400Y59222D01*
X690280Y58718D01*
X689131Y58283D01*
X687959Y57917D01*
X686767Y57624D01*
X685559Y57402D01*
X684340Y57254D01*
X683114Y57180D01*
X681886Y57180D01*
X680660Y57254D01*
X679441Y57402D01*
X678233Y57624D01*
X677041Y57917D01*
X675869Y58283D01*
X674720Y58718D01*
X673601Y59222D01*
X672513Y59793D01*
X671462Y60428D01*
X670452Y61126D01*
X669485Y61883D01*
X668566Y62697D01*
X667697Y63566D01*
X666883Y64485D01*
X666126Y65452D01*
X665428Y66462D01*
X664793Y67513D01*
X664222Y68601D01*
X663718Y69720D01*
X663283Y70869D01*
X662917Y72041D01*
X662624Y73233D01*
X662402Y74441D01*
X662254Y75660D01*
X662180Y76886D01*
X662180Y78114D01*
X662254Y79340D01*
X662402Y80559D01*
X662624Y81767D01*
X662917Y82959D01*
X663283Y84131D01*
X663718Y85280D01*
X664222Y86400D01*
X664793Y87487D01*
X665428Y88538D01*
X666126Y89548D01*
X666883Y90515D01*
X667697Y91434D01*
X668566Y92303D01*
X669485Y93117D01*
X670452Y93874D01*
X671462Y94572D01*
X672513Y95207D01*
X673601Y95778D01*
X674720Y96282D01*
X675869Y96717D01*
X677041Y97083D01*
X678233Y97376D01*
X679441Y97598D01*
X680660Y97746D01*
X681886Y97820D01*
X683114Y97820D01*
X684340Y97746D01*
X685559Y97598D01*
X686767Y97376D01*
X687959Y97083D01*
X689131Y96717D01*
X690280Y96282D01*
X691400Y95778D01*
X692487Y95207D01*
X693538Y94572D01*
X694548Y93874D01*
X695515Y93117D01*
X696434Y92303D01*
X697303Y91434D01*
X698117Y90515D01*
X698874Y89548D01*
X699572Y88538D01*
X700207Y87487D01*
X700778Y86400D01*
X701282Y85280D01*
X701717Y84131D01*
X702083Y82959D01*
X702376Y81767D01*
X702598Y80559D01*
X702746Y79340D01*
X702820Y78114D01*
X702820Y76886D01*
X1181455Y688722D02*
X1181393Y688169D01*
X1181269Y687626D01*
X1181085Y687101D01*
X1180844Y686599D01*
X1180547Y686128D01*
X1180200Y685693D01*
X1179807Y685300D01*
X1179372Y684953D01*
X1178901Y684656D01*
X1178399Y684415D01*
X1177874Y684231D01*
X1177331Y684107D01*
X1176778Y684045D01*
X1176222Y684045D01*
X1175669Y684107D01*
X1175126Y684231D01*
X1174601Y684415D01*
X1174099Y684656D01*
X1173628Y684953D01*
X1173193Y685300D01*
X1172800Y685693D01*
X1172453Y686128D01*
X1172156Y686599D01*
X1171915Y687101D01*
X1171731Y687626D01*
X1171607Y688169D01*
X1171545Y688722D01*
X1171545Y689278D01*
X1171607Y689831D01*
X1171731Y690374D01*
X1171915Y690899D01*
X1172156Y691401D01*
X1172453Y691872D01*
X1172800Y692307D01*
X1173193Y692700D01*
X1173628Y693047D01*
X1174099Y693344D01*
X1174601Y693585D01*
X1175126Y693769D01*
X1175669Y693893D01*
X1176222Y693955D01*
X1176778Y693955D01*
X1177331Y693893D01*
X1177874Y693769D01*
X1178399Y693585D01*
X1178901Y693344D01*
X1179372Y693047D01*
X1179807Y692700D01*
X1180200Y692307D01*
X1180547Y691872D01*
X1180844Y691401D01*
X1181085Y690899D01*
X1181269Y690374D01*
X1181393Y689831D01*
X1181455Y689278D01*
X1181455Y688722D01*
X1161155Y688722D02*
X1161093Y688169D01*
X1160969Y687626D01*
X1160785Y687101D01*
X1160544Y686599D01*
X1160247Y686128D01*
X1159900Y685693D01*
X1159507Y685300D01*
X1159072Y684953D01*
X1158601Y684656D01*
X1158099Y684415D01*
X1157574Y684231D01*
X1157031Y684107D01*
X1156478Y684045D01*
X1155922Y684045D01*
X1155369Y684107D01*
X1154826Y684231D01*
X1154301Y684415D01*
X1153799Y684656D01*
X1153328Y684953D01*
X1152893Y685300D01*
X1152500Y685693D01*
X1152153Y686128D01*
X1151856Y686599D01*
X1151615Y687101D01*
X1151431Y687626D01*
X1151307Y688169D01*
X1151245Y688722D01*
X1151245Y689278D01*
X1151307Y689831D01*
X1151431Y690374D01*
X1151615Y690899D01*
X1151856Y691401D01*
X1152153Y691872D01*
X1152500Y692307D01*
X1152893Y692700D01*
X1153328Y693047D01*
X1153799Y693344D01*
X1154301Y693585D01*
X1154826Y693769D01*
X1155369Y693893D01*
X1155922Y693955D01*
X1156478Y693955D01*
X1157031Y693893D01*
X1157574Y693769D01*
X1158099Y693585D01*
X1158601Y693344D01*
X1159072Y693047D01*
X1159507Y692700D01*
X1159900Y692307D01*
X1160247Y691872D01*
X1160544Y691401D01*
X1160785Y690899D01*
X1160969Y690374D01*
X1161093Y689831D01*
X1161155Y689278D01*
X1161155Y688722D01*
X1171305Y764922D02*
X1171243Y764369D01*
X1171119Y763826D01*
X1170935Y763301D01*
X1170694Y762799D01*
X1170397Y762328D01*
X1170050Y761893D01*
X1169657Y761500D01*
X1169222Y761153D01*
X1168751Y760856D01*
X1168249Y760615D01*
X1167724Y760431D01*
X1167181Y760307D01*
X1166628Y760245D01*
X1166072Y760245D01*
X1165519Y760307D01*
X1164976Y760431D01*
X1164451Y760615D01*
X1163949Y760856D01*
X1163478Y761153D01*
X1163043Y761500D01*
X1162650Y761893D01*
X1162303Y762328D01*
X1162006Y762799D01*
X1161765Y763301D01*
X1161581Y763826D01*
X1161457Y764369D01*
X1161395Y764922D01*
X1161395Y765478D01*
X1161457Y766031D01*
X1161581Y766574D01*
X1161765Y767099D01*
X1162006Y767601D01*
X1162303Y768072D01*
X1162650Y768507D01*
X1163043Y768900D01*
X1163478Y769247D01*
X1163949Y769544D01*
X1164451Y769785D01*
X1164976Y769969D01*
X1165519Y770093D01*
X1166072Y770155D01*
X1166628Y770155D01*
X1167181Y770093D01*
X1167724Y769969D01*
X1168249Y769785D01*
X1168751Y769544D01*
X1169222Y769247D01*
X1169657Y768900D01*
X1170050Y768507D01*
X1170397Y768072D01*
X1170694Y767601D01*
X1170935Y767099D01*
X1171119Y766574D01*
X1171243Y766031D01*
X1171305Y765478D01*
X1171305Y764922D01*
X1094955Y688722D02*
X1094893Y688169D01*
X1094769Y687626D01*
X1094585Y687101D01*
X1094344Y686599D01*
X1094047Y686128D01*
X1093700Y685693D01*
X1093307Y685300D01*
X1092872Y684953D01*
X1092401Y684656D01*
X1091899Y684415D01*
X1091374Y684231D01*
X1090831Y684107D01*
X1090278Y684045D01*
X1089722Y684045D01*
X1089169Y684107D01*
X1088626Y684231D01*
X1088101Y684415D01*
X1087599Y684656D01*
X1087128Y684953D01*
X1086693Y685300D01*
X1086300Y685693D01*
X1085953Y686128D01*
X1085656Y686599D01*
X1085415Y687101D01*
X1085231Y687626D01*
X1085107Y688169D01*
X1085045Y688722D01*
X1085045Y689278D01*
X1085107Y689831D01*
X1085231Y690374D01*
X1085415Y690899D01*
X1085656Y691401D01*
X1085953Y691872D01*
X1086300Y692307D01*
X1086693Y692700D01*
X1087128Y693047D01*
X1087599Y693344D01*
X1088101Y693585D01*
X1088626Y693769D01*
X1089169Y693893D01*
X1089722Y693955D01*
X1090278Y693955D01*
X1090831Y693893D01*
X1091374Y693769D01*
X1091899Y693585D01*
X1092401Y693344D01*
X1092872Y693047D01*
X1093307Y692700D01*
X1093700Y692307D01*
X1094047Y691872D01*
X1094344Y691401D01*
X1094585Y690899D01*
X1094769Y690374D01*
X1094893Y689831D01*
X1094955Y689278D01*
X1094955Y688722D01*
X1074655Y688722D02*
X1074593Y688169D01*
X1074469Y687626D01*
X1074285Y687101D01*
X1074044Y686599D01*
X1073747Y686128D01*
X1073400Y685693D01*
X1073007Y685300D01*
X1072572Y684953D01*
X1072101Y684656D01*
X1071599Y684415D01*
X1071074Y684231D01*
X1070531Y684107D01*
X1069978Y684045D01*
X1069422Y684045D01*
X1068869Y684107D01*
X1068326Y684231D01*
X1067801Y684415D01*
X1067299Y684656D01*
X1066828Y684953D01*
X1066393Y685300D01*
X1066000Y685693D01*
X1065653Y686128D01*
X1065356Y686599D01*
X1065115Y687101D01*
X1064931Y687626D01*
X1064807Y688169D01*
X1064745Y688722D01*
X1064745Y689278D01*
X1064807Y689831D01*
X1064931Y690374D01*
X1065115Y690899D01*
X1065356Y691401D01*
X1065653Y691872D01*
X1066000Y692307D01*
X1066393Y692700D01*
X1066828Y693047D01*
X1067299Y693344D01*
X1067801Y693585D01*
X1068326Y693769D01*
X1068869Y693893D01*
X1069422Y693955D01*
X1069978Y693955D01*
X1070531Y693893D01*
X1071074Y693769D01*
X1071599Y693585D01*
X1072101Y693344D01*
X1072572Y693047D01*
X1073007Y692700D01*
X1073400Y692307D01*
X1073747Y691872D01*
X1074044Y691401D01*
X1074285Y690899D01*
X1074469Y690374D01*
X1074593Y689831D01*
X1074655Y689278D01*
X1074655Y688722D01*
X1084805Y764922D02*
X1084743Y764369D01*
X1084619Y763826D01*
X1084435Y763301D01*
X1084194Y762799D01*
X1083897Y762328D01*
X1083550Y761893D01*
X1083157Y761500D01*
X1082722Y761153D01*
X1082251Y760856D01*
X1081749Y760615D01*
X1081224Y760431D01*
X1080681Y760307D01*
X1080128Y760245D01*
X1079572Y760245D01*
X1079019Y760307D01*
X1078476Y760431D01*
X1077951Y760615D01*
X1077449Y760856D01*
X1076978Y761153D01*
X1076543Y761500D01*
X1076150Y761893D01*
X1075803Y762328D01*
X1075506Y762799D01*
X1075265Y763301D01*
X1075081Y763826D01*
X1074957Y764369D01*
X1074895Y764922D01*
X1074895Y765478D01*
X1074957Y766031D01*
X1075081Y766574D01*
X1075265Y767099D01*
X1075506Y767601D01*
X1075803Y768072D01*
X1076150Y768507D01*
X1076543Y768900D01*
X1076978Y769247D01*
X1077449Y769544D01*
X1077951Y769785D01*
X1078476Y769969D01*
X1079019Y770093D01*
X1079572Y770155D01*
X1080128Y770155D01*
X1080681Y770093D01*
X1081224Y769969D01*
X1081749Y769785D01*
X1082251Y769544D01*
X1082722Y769247D01*
X1083157Y768900D01*
X1083550Y768507D01*
X1083897Y768072D01*
X1084194Y767601D01*
X1084435Y767099D01*
X1084619Y766574D01*
X1084743Y766031D01*
X1084805Y765478D01*
X1084805Y764922D01*
M02*
