G04 EAGLE Gerber RS-274X export*
G75*
%MOMM*%
%FSLAX34Y34*%
%LPD*%
%INSilkscreen Bottom*%
%IPPOS*%
%AMOC8*
5,1,8,0,0,1.08239X$1,22.5*%
G01*
%ADD10C,0.254000*%
%ADD11C,0.127000*%
%ADD12C,0.152400*%
%ADD13C,0.076200*%
%ADD14C,0.025400*%
%ADD15C,0.508000*%


D10*
X1201298Y280450D02*
X1203556Y280450D01*
X1203649Y280452D01*
X1203742Y280458D01*
X1203835Y280467D01*
X1203928Y280481D01*
X1204019Y280498D01*
X1204110Y280519D01*
X1204200Y280544D01*
X1204289Y280572D01*
X1204377Y280604D01*
X1204463Y280640D01*
X1204548Y280679D01*
X1204631Y280722D01*
X1204712Y280768D01*
X1204791Y280818D01*
X1204868Y280870D01*
X1204943Y280926D01*
X1205015Y280985D01*
X1205085Y281047D01*
X1205153Y281111D01*
X1205217Y281179D01*
X1205279Y281249D01*
X1205338Y281321D01*
X1205394Y281396D01*
X1205446Y281473D01*
X1205496Y281552D01*
X1205542Y281633D01*
X1205585Y281716D01*
X1205624Y281801D01*
X1205660Y281887D01*
X1205692Y281975D01*
X1205720Y282064D01*
X1205745Y282154D01*
X1205766Y282245D01*
X1205783Y282336D01*
X1205797Y282429D01*
X1205806Y282522D01*
X1205812Y282615D01*
X1205814Y282708D01*
X1205814Y288352D01*
X1205812Y288445D01*
X1205806Y288538D01*
X1205797Y288631D01*
X1205783Y288724D01*
X1205766Y288815D01*
X1205745Y288906D01*
X1205720Y288996D01*
X1205692Y289085D01*
X1205660Y289173D01*
X1205624Y289259D01*
X1205585Y289344D01*
X1205542Y289427D01*
X1205496Y289508D01*
X1205446Y289587D01*
X1205394Y289664D01*
X1205338Y289739D01*
X1205279Y289811D01*
X1205217Y289881D01*
X1205153Y289949D01*
X1205085Y290013D01*
X1205015Y290075D01*
X1204943Y290134D01*
X1204868Y290190D01*
X1204791Y290242D01*
X1204712Y290292D01*
X1204631Y290338D01*
X1204548Y290381D01*
X1204463Y290420D01*
X1204377Y290456D01*
X1204289Y290488D01*
X1204200Y290516D01*
X1204110Y290541D01*
X1204019Y290562D01*
X1203928Y290579D01*
X1203835Y290593D01*
X1203742Y290602D01*
X1203649Y290608D01*
X1203556Y290610D01*
X1201298Y290610D01*
X1193973Y290610D02*
X1196231Y282708D01*
X1190586Y282708D01*
X1192280Y284966D02*
X1192280Y280450D01*
D11*
X1181055Y345432D02*
X1181055Y346504D01*
X1181055Y345432D02*
X1181057Y345367D01*
X1181063Y345303D01*
X1181073Y345239D01*
X1181086Y345175D01*
X1181104Y345113D01*
X1181125Y345052D01*
X1181149Y344992D01*
X1181178Y344934D01*
X1181210Y344877D01*
X1181245Y344823D01*
X1181283Y344771D01*
X1181325Y344721D01*
X1181369Y344674D01*
X1181416Y344630D01*
X1181466Y344588D01*
X1181518Y344550D01*
X1181572Y344515D01*
X1181629Y344483D01*
X1181687Y344454D01*
X1181747Y344430D01*
X1181808Y344409D01*
X1181870Y344391D01*
X1181934Y344378D01*
X1181998Y344368D01*
X1182062Y344362D01*
X1182127Y344360D01*
X1182127Y344359D02*
X1184809Y344359D01*
X1184809Y344360D02*
X1184874Y344362D01*
X1184938Y344368D01*
X1185002Y344378D01*
X1185066Y344391D01*
X1185128Y344409D01*
X1185189Y344430D01*
X1185249Y344454D01*
X1185307Y344483D01*
X1185364Y344515D01*
X1185418Y344550D01*
X1185470Y344588D01*
X1185520Y344630D01*
X1185567Y344674D01*
X1185611Y344721D01*
X1185653Y344771D01*
X1185691Y344823D01*
X1185726Y344877D01*
X1185758Y344934D01*
X1185787Y344992D01*
X1185811Y345052D01*
X1185832Y345113D01*
X1185850Y345175D01*
X1185863Y345239D01*
X1185873Y345303D01*
X1185879Y345367D01*
X1185881Y345432D01*
X1185881Y346504D01*
X1181055Y348960D02*
X1181055Y350568D01*
X1181057Y350633D01*
X1181063Y350697D01*
X1181073Y350761D01*
X1181086Y350825D01*
X1181104Y350887D01*
X1181125Y350948D01*
X1181149Y351008D01*
X1181178Y351066D01*
X1181210Y351123D01*
X1181245Y351177D01*
X1181283Y351229D01*
X1181325Y351279D01*
X1181369Y351326D01*
X1181416Y351370D01*
X1181466Y351412D01*
X1181518Y351450D01*
X1181572Y351485D01*
X1181629Y351517D01*
X1181687Y351546D01*
X1181747Y351570D01*
X1181808Y351591D01*
X1181870Y351609D01*
X1181934Y351622D01*
X1181998Y351632D01*
X1182062Y351638D01*
X1182127Y351640D01*
X1182127Y351641D02*
X1182664Y351641D01*
X1182664Y351640D02*
X1182729Y351638D01*
X1182793Y351632D01*
X1182857Y351622D01*
X1182921Y351609D01*
X1182983Y351591D01*
X1183044Y351570D01*
X1183104Y351546D01*
X1183162Y351517D01*
X1183219Y351485D01*
X1183273Y351450D01*
X1183325Y351412D01*
X1183375Y351370D01*
X1183422Y351326D01*
X1183466Y351279D01*
X1183508Y351229D01*
X1183546Y351177D01*
X1183581Y351123D01*
X1183613Y351066D01*
X1183642Y351008D01*
X1183666Y350948D01*
X1183687Y350887D01*
X1183705Y350825D01*
X1183718Y350761D01*
X1183728Y350697D01*
X1183734Y350633D01*
X1183736Y350568D01*
X1183736Y348960D01*
X1185881Y348960D01*
X1185881Y351641D01*
D12*
X1127400Y321918D02*
X1127400Y311758D01*
X1127400Y309218D01*
X1127400Y311758D02*
X1133750Y311758D01*
X1127400Y311758D02*
X1121050Y311758D01*
X1127400Y311758D02*
X1133750Y319378D01*
X1132480Y319378D02*
X1127400Y311758D01*
X1131210Y319378D01*
X1129940Y319378D02*
X1127400Y311758D01*
X1128670Y319378D01*
X1121050Y319378D02*
X1127400Y311758D01*
X1122320Y319378D01*
X1123590Y319378D02*
X1127400Y311758D01*
X1124860Y319378D01*
X1126130Y319378D02*
X1127400Y311758D01*
X1133750Y319378D02*
X1121050Y319378D01*
X1111652Y325728D02*
X1111652Y385672D01*
X1116478Y385672D01*
X1143148Y385672D02*
X1143148Y325728D01*
X1138322Y325728D01*
X1116478Y325728D02*
X1111652Y325728D01*
X1138322Y385672D02*
X1143148Y385672D01*
D13*
X1144432Y387831D02*
X1141779Y387831D01*
X1144432Y387831D02*
X1144534Y387833D01*
X1144635Y387839D01*
X1144736Y387849D01*
X1144837Y387862D01*
X1144937Y387880D01*
X1145036Y387901D01*
X1145135Y387926D01*
X1145232Y387955D01*
X1145329Y387987D01*
X1145424Y388023D01*
X1145517Y388063D01*
X1145609Y388106D01*
X1145699Y388153D01*
X1145788Y388204D01*
X1145874Y388257D01*
X1145958Y388314D01*
X1146040Y388374D01*
X1146120Y388437D01*
X1146197Y388503D01*
X1146272Y388572D01*
X1146344Y388644D01*
X1146413Y388719D01*
X1146479Y388796D01*
X1146542Y388876D01*
X1146602Y388958D01*
X1146659Y389042D01*
X1146712Y389128D01*
X1146763Y389217D01*
X1146810Y389307D01*
X1146853Y389399D01*
X1146893Y389492D01*
X1146929Y389587D01*
X1146961Y389684D01*
X1146990Y389781D01*
X1147015Y389880D01*
X1147036Y389979D01*
X1147054Y390079D01*
X1147067Y390180D01*
X1147077Y390281D01*
X1147083Y390382D01*
X1147085Y390484D01*
X1147085Y397116D01*
X1147083Y397218D01*
X1147077Y397319D01*
X1147067Y397420D01*
X1147054Y397521D01*
X1147036Y397621D01*
X1147015Y397720D01*
X1146990Y397819D01*
X1146961Y397916D01*
X1146929Y398013D01*
X1146893Y398108D01*
X1146853Y398201D01*
X1146810Y398293D01*
X1146763Y398383D01*
X1146712Y398472D01*
X1146659Y398558D01*
X1146602Y398642D01*
X1146542Y398724D01*
X1146479Y398804D01*
X1146413Y398881D01*
X1146344Y398956D01*
X1146272Y399028D01*
X1146197Y399097D01*
X1146120Y399163D01*
X1146040Y399226D01*
X1145958Y399286D01*
X1145874Y399343D01*
X1145788Y399396D01*
X1145699Y399447D01*
X1145609Y399494D01*
X1145517Y399537D01*
X1145424Y399577D01*
X1145329Y399613D01*
X1145232Y399645D01*
X1145135Y399674D01*
X1145036Y399699D01*
X1144937Y399720D01*
X1144837Y399738D01*
X1144736Y399751D01*
X1144635Y399761D01*
X1144534Y399767D01*
X1144432Y399769D01*
X1141779Y399769D01*
X1137086Y399769D02*
X1137086Y387831D01*
X1137086Y399769D02*
X1133770Y399769D01*
X1133656Y399767D01*
X1133541Y399761D01*
X1133427Y399751D01*
X1133314Y399737D01*
X1133200Y399720D01*
X1133088Y399698D01*
X1132976Y399673D01*
X1132866Y399643D01*
X1132756Y399610D01*
X1132648Y399573D01*
X1132541Y399533D01*
X1132435Y399488D01*
X1132331Y399441D01*
X1132229Y399389D01*
X1132129Y399334D01*
X1132030Y399276D01*
X1131934Y399214D01*
X1131839Y399149D01*
X1131748Y399081D01*
X1131658Y399009D01*
X1131571Y398935D01*
X1131487Y398858D01*
X1131405Y398777D01*
X1131326Y398694D01*
X1131250Y398609D01*
X1131177Y398520D01*
X1131108Y398430D01*
X1131041Y398337D01*
X1130978Y398241D01*
X1130918Y398144D01*
X1130861Y398044D01*
X1130808Y397943D01*
X1130758Y397840D01*
X1130712Y397735D01*
X1130669Y397629D01*
X1130631Y397521D01*
X1130596Y397412D01*
X1130565Y397302D01*
X1130537Y397191D01*
X1130514Y397079D01*
X1130494Y396966D01*
X1130478Y396853D01*
X1130466Y396739D01*
X1130458Y396625D01*
X1130454Y396510D01*
X1130454Y396396D01*
X1130458Y396281D01*
X1130466Y396167D01*
X1130478Y396053D01*
X1130494Y395940D01*
X1130514Y395827D01*
X1130537Y395715D01*
X1130565Y395604D01*
X1130596Y395494D01*
X1130631Y395385D01*
X1130669Y395277D01*
X1130712Y395171D01*
X1130758Y395066D01*
X1130808Y394963D01*
X1130861Y394862D01*
X1130918Y394762D01*
X1130978Y394665D01*
X1131041Y394569D01*
X1131108Y394476D01*
X1131177Y394386D01*
X1131250Y394297D01*
X1131326Y394212D01*
X1131405Y394129D01*
X1131487Y394048D01*
X1131571Y393971D01*
X1131658Y393897D01*
X1131748Y393825D01*
X1131839Y393757D01*
X1131934Y393692D01*
X1132030Y393630D01*
X1132129Y393572D01*
X1132229Y393517D01*
X1132331Y393465D01*
X1132435Y393418D01*
X1132541Y393373D01*
X1132648Y393333D01*
X1132756Y393296D01*
X1132866Y393263D01*
X1132976Y393233D01*
X1133088Y393208D01*
X1133200Y393186D01*
X1133314Y393169D01*
X1133427Y393155D01*
X1133541Y393145D01*
X1133656Y393139D01*
X1133770Y393137D01*
X1137086Y393137D01*
X1133106Y393137D02*
X1130453Y387831D01*
X1125720Y397116D02*
X1122404Y399769D01*
X1122404Y387831D01*
X1125720Y387831D02*
X1119088Y387831D01*
D12*
X1127400Y300542D02*
X1127400Y290382D01*
X1127400Y300542D02*
X1127400Y303082D01*
X1127400Y300542D02*
X1121050Y300542D01*
X1127400Y300542D02*
X1133750Y300542D01*
X1127400Y300542D02*
X1121050Y292922D01*
X1122320Y292922D02*
X1127400Y300542D01*
X1123590Y292922D01*
X1124860Y292922D02*
X1127400Y300542D01*
X1126130Y292922D01*
X1133750Y292922D02*
X1127400Y300542D01*
X1132480Y292922D01*
X1131210Y292922D02*
X1127400Y300542D01*
X1129940Y292922D01*
X1128670Y292922D02*
X1127400Y300542D01*
X1121050Y292922D02*
X1133750Y292922D01*
X1143148Y286572D02*
X1143148Y226628D01*
X1138322Y226628D01*
X1111652Y226628D02*
X1111652Y286572D01*
X1116478Y286572D01*
X1138322Y286572D02*
X1143148Y286572D01*
X1116478Y226628D02*
X1111652Y226628D01*
D14*
X1139743Y219777D02*
X1141041Y219777D01*
X1141111Y219779D01*
X1141181Y219785D01*
X1141251Y219794D01*
X1141320Y219807D01*
X1141388Y219824D01*
X1141455Y219845D01*
X1141521Y219869D01*
X1141586Y219897D01*
X1141649Y219928D01*
X1141710Y219963D01*
X1141769Y220001D01*
X1141827Y220042D01*
X1141881Y220086D01*
X1141934Y220133D01*
X1141983Y220182D01*
X1142030Y220235D01*
X1142074Y220289D01*
X1142115Y220347D01*
X1142153Y220406D01*
X1142188Y220467D01*
X1142219Y220530D01*
X1142247Y220595D01*
X1142271Y220661D01*
X1142292Y220728D01*
X1142309Y220796D01*
X1142322Y220865D01*
X1142331Y220935D01*
X1142337Y221005D01*
X1142339Y221075D01*
X1142339Y224321D01*
X1142337Y224391D01*
X1142331Y224461D01*
X1142322Y224531D01*
X1142309Y224600D01*
X1142292Y224668D01*
X1142271Y224735D01*
X1142247Y224801D01*
X1142219Y224866D01*
X1142188Y224929D01*
X1142153Y224990D01*
X1142115Y225049D01*
X1142074Y225106D01*
X1142030Y225161D01*
X1141983Y225214D01*
X1141934Y225263D01*
X1141881Y225310D01*
X1141827Y225354D01*
X1141769Y225395D01*
X1141710Y225433D01*
X1141649Y225468D01*
X1141586Y225499D01*
X1141521Y225527D01*
X1141456Y225551D01*
X1141388Y225572D01*
X1141320Y225589D01*
X1141251Y225602D01*
X1141181Y225611D01*
X1141111Y225617D01*
X1141041Y225619D01*
X1139743Y225619D01*
X1137545Y225619D02*
X1137545Y219777D01*
X1137545Y225619D02*
X1135922Y225619D01*
X1135842Y225617D01*
X1135763Y225611D01*
X1135684Y225601D01*
X1135605Y225588D01*
X1135528Y225570D01*
X1135451Y225549D01*
X1135375Y225524D01*
X1135301Y225495D01*
X1135228Y225463D01*
X1135157Y225427D01*
X1135088Y225388D01*
X1135020Y225345D01*
X1134955Y225300D01*
X1134892Y225251D01*
X1134832Y225199D01*
X1134774Y225144D01*
X1134719Y225086D01*
X1134667Y225026D01*
X1134618Y224963D01*
X1134573Y224898D01*
X1134530Y224830D01*
X1134491Y224761D01*
X1134455Y224690D01*
X1134423Y224617D01*
X1134394Y224543D01*
X1134369Y224467D01*
X1134348Y224390D01*
X1134330Y224313D01*
X1134317Y224234D01*
X1134307Y224155D01*
X1134301Y224076D01*
X1134299Y223996D01*
X1134301Y223916D01*
X1134307Y223837D01*
X1134317Y223758D01*
X1134330Y223679D01*
X1134348Y223602D01*
X1134369Y223525D01*
X1134394Y223449D01*
X1134423Y223375D01*
X1134455Y223302D01*
X1134491Y223231D01*
X1134530Y223162D01*
X1134573Y223094D01*
X1134618Y223029D01*
X1134667Y222966D01*
X1134719Y222906D01*
X1134774Y222848D01*
X1134832Y222793D01*
X1134892Y222741D01*
X1134955Y222692D01*
X1135020Y222647D01*
X1135088Y222604D01*
X1135157Y222565D01*
X1135228Y222529D01*
X1135301Y222497D01*
X1135375Y222468D01*
X1135451Y222443D01*
X1135528Y222422D01*
X1135605Y222404D01*
X1135684Y222391D01*
X1135763Y222381D01*
X1135842Y222375D01*
X1135922Y222373D01*
X1137545Y222373D01*
X1135598Y222373D02*
X1134300Y219777D01*
X1128840Y224159D02*
X1128842Y224233D01*
X1128847Y224307D01*
X1128857Y224380D01*
X1128870Y224453D01*
X1128887Y224525D01*
X1128907Y224596D01*
X1128931Y224666D01*
X1128958Y224735D01*
X1128989Y224802D01*
X1129024Y224868D01*
X1129061Y224932D01*
X1129102Y224994D01*
X1129146Y225053D01*
X1129192Y225111D01*
X1129242Y225166D01*
X1129294Y225218D01*
X1129349Y225268D01*
X1129407Y225314D01*
X1129466Y225358D01*
X1129528Y225399D01*
X1129592Y225436D01*
X1129658Y225471D01*
X1129725Y225502D01*
X1129794Y225529D01*
X1129864Y225553D01*
X1129935Y225573D01*
X1130007Y225590D01*
X1130080Y225603D01*
X1130153Y225613D01*
X1130227Y225618D01*
X1130301Y225620D01*
X1130301Y225619D02*
X1130385Y225617D01*
X1130469Y225611D01*
X1130553Y225602D01*
X1130636Y225589D01*
X1130719Y225572D01*
X1130800Y225551D01*
X1130881Y225527D01*
X1130961Y225499D01*
X1131039Y225468D01*
X1131116Y225433D01*
X1131191Y225395D01*
X1131264Y225353D01*
X1131335Y225308D01*
X1131404Y225260D01*
X1131471Y225209D01*
X1131536Y225155D01*
X1131598Y225098D01*
X1131658Y225039D01*
X1131715Y224976D01*
X1131769Y224912D01*
X1131820Y224845D01*
X1131867Y224775D01*
X1131912Y224704D01*
X1131954Y224631D01*
X1131992Y224555D01*
X1132027Y224479D01*
X1132058Y224400D01*
X1132086Y224321D01*
X1129327Y223023D02*
X1129274Y223076D01*
X1129224Y223131D01*
X1129176Y223189D01*
X1129131Y223248D01*
X1129089Y223310D01*
X1129050Y223374D01*
X1129015Y223440D01*
X1128982Y223507D01*
X1128953Y223575D01*
X1128926Y223646D01*
X1128904Y223717D01*
X1128884Y223789D01*
X1128868Y223862D01*
X1128856Y223936D01*
X1128847Y224010D01*
X1128842Y224084D01*
X1128840Y224159D01*
X1129327Y223023D02*
X1132086Y219777D01*
X1128840Y219777D01*
D11*
X1181055Y244648D02*
X1185881Y244648D01*
X1185881Y245989D01*
X1185879Y246060D01*
X1185873Y246132D01*
X1185864Y246202D01*
X1185851Y246272D01*
X1185834Y246342D01*
X1185813Y246410D01*
X1185789Y246477D01*
X1185761Y246543D01*
X1185730Y246607D01*
X1185695Y246670D01*
X1185657Y246730D01*
X1185616Y246789D01*
X1185572Y246845D01*
X1185525Y246899D01*
X1185476Y246950D01*
X1185423Y246998D01*
X1185368Y247044D01*
X1185311Y247086D01*
X1185251Y247126D01*
X1185190Y247162D01*
X1185126Y247195D01*
X1185061Y247224D01*
X1184995Y247250D01*
X1184927Y247273D01*
X1184858Y247292D01*
X1184788Y247307D01*
X1184718Y247318D01*
X1184647Y247326D01*
X1184576Y247330D01*
X1184504Y247330D01*
X1184433Y247326D01*
X1184362Y247318D01*
X1184292Y247307D01*
X1184222Y247292D01*
X1184153Y247273D01*
X1184085Y247250D01*
X1184019Y247224D01*
X1183954Y247195D01*
X1183890Y247162D01*
X1183829Y247126D01*
X1183769Y247086D01*
X1183712Y247044D01*
X1183657Y246998D01*
X1183604Y246950D01*
X1183555Y246899D01*
X1183508Y246845D01*
X1183464Y246789D01*
X1183423Y246730D01*
X1183385Y246670D01*
X1183350Y246607D01*
X1183319Y246543D01*
X1183291Y246477D01*
X1183267Y246410D01*
X1183246Y246342D01*
X1183229Y246272D01*
X1183216Y246202D01*
X1183207Y246132D01*
X1183201Y246060D01*
X1183199Y245989D01*
X1183200Y245989D02*
X1183200Y244648D01*
X1183200Y246257D02*
X1181055Y247329D01*
X1184809Y250071D02*
X1185881Y251411D01*
X1181055Y251411D01*
X1181055Y250071D02*
X1181055Y252752D01*
X1164545Y379548D02*
X1159719Y379548D01*
X1164545Y379548D02*
X1164545Y380889D01*
X1164543Y380960D01*
X1164537Y381032D01*
X1164528Y381102D01*
X1164515Y381172D01*
X1164498Y381242D01*
X1164477Y381310D01*
X1164453Y381377D01*
X1164425Y381443D01*
X1164394Y381507D01*
X1164359Y381570D01*
X1164321Y381630D01*
X1164280Y381689D01*
X1164236Y381745D01*
X1164189Y381799D01*
X1164140Y381850D01*
X1164087Y381898D01*
X1164032Y381944D01*
X1163975Y381986D01*
X1163915Y382026D01*
X1163854Y382062D01*
X1163790Y382095D01*
X1163725Y382124D01*
X1163659Y382150D01*
X1163591Y382173D01*
X1163522Y382192D01*
X1163452Y382207D01*
X1163382Y382218D01*
X1163311Y382226D01*
X1163240Y382230D01*
X1163168Y382230D01*
X1163097Y382226D01*
X1163026Y382218D01*
X1162956Y382207D01*
X1162886Y382192D01*
X1162817Y382173D01*
X1162749Y382150D01*
X1162683Y382124D01*
X1162618Y382095D01*
X1162554Y382062D01*
X1162493Y382026D01*
X1162433Y381986D01*
X1162376Y381944D01*
X1162321Y381898D01*
X1162268Y381850D01*
X1162219Y381799D01*
X1162172Y381745D01*
X1162128Y381689D01*
X1162087Y381630D01*
X1162049Y381570D01*
X1162014Y381507D01*
X1161983Y381443D01*
X1161955Y381377D01*
X1161931Y381310D01*
X1161910Y381242D01*
X1161893Y381172D01*
X1161880Y381102D01*
X1161871Y381032D01*
X1161865Y380960D01*
X1161863Y380889D01*
X1161864Y380889D02*
X1161864Y379548D01*
X1161864Y381157D02*
X1159719Y382229D01*
X1159719Y384971D02*
X1159719Y386311D01*
X1159721Y386382D01*
X1159727Y386454D01*
X1159736Y386524D01*
X1159749Y386594D01*
X1159766Y386664D01*
X1159787Y386732D01*
X1159811Y386799D01*
X1159839Y386865D01*
X1159870Y386929D01*
X1159905Y386992D01*
X1159943Y387052D01*
X1159984Y387111D01*
X1160028Y387167D01*
X1160075Y387221D01*
X1160124Y387272D01*
X1160177Y387320D01*
X1160232Y387366D01*
X1160289Y387408D01*
X1160349Y387448D01*
X1160410Y387484D01*
X1160474Y387517D01*
X1160539Y387546D01*
X1160605Y387572D01*
X1160673Y387595D01*
X1160742Y387614D01*
X1160812Y387629D01*
X1160882Y387640D01*
X1160953Y387648D01*
X1161024Y387652D01*
X1161096Y387652D01*
X1161167Y387648D01*
X1161238Y387640D01*
X1161308Y387629D01*
X1161378Y387614D01*
X1161447Y387595D01*
X1161515Y387572D01*
X1161581Y387546D01*
X1161646Y387517D01*
X1161710Y387484D01*
X1161771Y387448D01*
X1161831Y387408D01*
X1161888Y387366D01*
X1161943Y387320D01*
X1161996Y387272D01*
X1162045Y387221D01*
X1162092Y387167D01*
X1162136Y387111D01*
X1162177Y387052D01*
X1162215Y386992D01*
X1162250Y386929D01*
X1162281Y386865D01*
X1162309Y386799D01*
X1162333Y386732D01*
X1162354Y386664D01*
X1162371Y386594D01*
X1162384Y386524D01*
X1162393Y386454D01*
X1162399Y386382D01*
X1162401Y386311D01*
X1164545Y386579D02*
X1164545Y384971D01*
X1164545Y386579D02*
X1164543Y386644D01*
X1164537Y386708D01*
X1164527Y386772D01*
X1164514Y386836D01*
X1164496Y386898D01*
X1164475Y386959D01*
X1164451Y387019D01*
X1164422Y387077D01*
X1164390Y387134D01*
X1164355Y387188D01*
X1164317Y387240D01*
X1164275Y387290D01*
X1164231Y387337D01*
X1164184Y387381D01*
X1164134Y387423D01*
X1164082Y387461D01*
X1164028Y387496D01*
X1163971Y387528D01*
X1163913Y387557D01*
X1163853Y387581D01*
X1163792Y387602D01*
X1163730Y387620D01*
X1163666Y387633D01*
X1163602Y387643D01*
X1163538Y387649D01*
X1163473Y387651D01*
X1163408Y387649D01*
X1163344Y387643D01*
X1163280Y387633D01*
X1163216Y387620D01*
X1163154Y387602D01*
X1163093Y387581D01*
X1163033Y387557D01*
X1162975Y387528D01*
X1162918Y387496D01*
X1162864Y387461D01*
X1162812Y387423D01*
X1162762Y387381D01*
X1162715Y387337D01*
X1162671Y387290D01*
X1162629Y387240D01*
X1162591Y387188D01*
X1162556Y387134D01*
X1162524Y387077D01*
X1162495Y387019D01*
X1162471Y386959D01*
X1162450Y386898D01*
X1162432Y386836D01*
X1162419Y386772D01*
X1162409Y386708D01*
X1162403Y386644D01*
X1162401Y386579D01*
X1162400Y386579D02*
X1162400Y385507D01*
D12*
X1198174Y257524D02*
X1207826Y257524D01*
X1207826Y279876D02*
X1198174Y279876D01*
D13*
X1217767Y282614D02*
X1217767Y286593D01*
X1217767Y282614D02*
X1215446Y279629D01*
X1217767Y282614D02*
X1220089Y279629D01*
X1217767Y282614D02*
X1214120Y283940D01*
X1217767Y282614D02*
X1221415Y283940D01*
D14*
X1185761Y294481D02*
X1185761Y298700D01*
X1185763Y298780D01*
X1185769Y298859D01*
X1185779Y298938D01*
X1185792Y299017D01*
X1185810Y299094D01*
X1185831Y299171D01*
X1185856Y299247D01*
X1185885Y299321D01*
X1185917Y299394D01*
X1185953Y299465D01*
X1185992Y299534D01*
X1186035Y299602D01*
X1186080Y299667D01*
X1186129Y299730D01*
X1186181Y299790D01*
X1186236Y299848D01*
X1186294Y299903D01*
X1186354Y299955D01*
X1186417Y300004D01*
X1186482Y300049D01*
X1186550Y300092D01*
X1186619Y300131D01*
X1186690Y300167D01*
X1186763Y300199D01*
X1186837Y300228D01*
X1186913Y300253D01*
X1186990Y300274D01*
X1187067Y300292D01*
X1187146Y300305D01*
X1187225Y300315D01*
X1187304Y300321D01*
X1187384Y300323D01*
X1187464Y300321D01*
X1187543Y300315D01*
X1187622Y300305D01*
X1187701Y300292D01*
X1187778Y300274D01*
X1187855Y300253D01*
X1187931Y300228D01*
X1188005Y300199D01*
X1188078Y300167D01*
X1188149Y300131D01*
X1188218Y300092D01*
X1188286Y300049D01*
X1188351Y300004D01*
X1188414Y299955D01*
X1188474Y299903D01*
X1188532Y299848D01*
X1188587Y299790D01*
X1188639Y299730D01*
X1188688Y299667D01*
X1188733Y299602D01*
X1188776Y299534D01*
X1188815Y299465D01*
X1188851Y299394D01*
X1188883Y299321D01*
X1188912Y299247D01*
X1188937Y299171D01*
X1188958Y299094D01*
X1188976Y299017D01*
X1188989Y298938D01*
X1188999Y298859D01*
X1189005Y298780D01*
X1189007Y298700D01*
X1189007Y294481D01*
X1191430Y295779D02*
X1193053Y294481D01*
X1193053Y300323D01*
X1191430Y300323D02*
X1194676Y300323D01*
D15*
X1116296Y77800D02*
X1116294Y77678D01*
X1116288Y77556D01*
X1116278Y77434D01*
X1116265Y77313D01*
X1116247Y77192D01*
X1116226Y77072D01*
X1116200Y76952D01*
X1116171Y76834D01*
X1116139Y76716D01*
X1116102Y76599D01*
X1116062Y76484D01*
X1116018Y76370D01*
X1115970Y76258D01*
X1115919Y76147D01*
X1115864Y76038D01*
X1115806Y75930D01*
X1115744Y75825D01*
X1115679Y75722D01*
X1115611Y75620D01*
X1115539Y75521D01*
X1115465Y75425D01*
X1115387Y75330D01*
X1115306Y75239D01*
X1115223Y75149D01*
X1115137Y75063D01*
X1115047Y74980D01*
X1114956Y74899D01*
X1114861Y74821D01*
X1114765Y74747D01*
X1114666Y74675D01*
X1114564Y74607D01*
X1114461Y74542D01*
X1114356Y74480D01*
X1114248Y74422D01*
X1114139Y74367D01*
X1114028Y74316D01*
X1113916Y74268D01*
X1113802Y74224D01*
X1113687Y74184D01*
X1113570Y74147D01*
X1113452Y74115D01*
X1113334Y74086D01*
X1113214Y74060D01*
X1113094Y74039D01*
X1112973Y74021D01*
X1112852Y74008D01*
X1112730Y73998D01*
X1112608Y73992D01*
X1112486Y73990D01*
X1112364Y73992D01*
X1112242Y73998D01*
X1112120Y74008D01*
X1111999Y74021D01*
X1111878Y74039D01*
X1111758Y74060D01*
X1111638Y74086D01*
X1111520Y74115D01*
X1111402Y74147D01*
X1111285Y74184D01*
X1111170Y74224D01*
X1111056Y74268D01*
X1110944Y74316D01*
X1110833Y74367D01*
X1110724Y74422D01*
X1110616Y74480D01*
X1110511Y74542D01*
X1110408Y74607D01*
X1110306Y74675D01*
X1110207Y74747D01*
X1110111Y74821D01*
X1110016Y74899D01*
X1109925Y74980D01*
X1109835Y75063D01*
X1109749Y75149D01*
X1109666Y75239D01*
X1109585Y75330D01*
X1109507Y75425D01*
X1109433Y75521D01*
X1109361Y75620D01*
X1109293Y75722D01*
X1109228Y75825D01*
X1109166Y75930D01*
X1109108Y76038D01*
X1109053Y76147D01*
X1109002Y76258D01*
X1108954Y76370D01*
X1108910Y76484D01*
X1108870Y76599D01*
X1108833Y76716D01*
X1108801Y76834D01*
X1108772Y76952D01*
X1108746Y77072D01*
X1108725Y77192D01*
X1108707Y77313D01*
X1108694Y77434D01*
X1108684Y77556D01*
X1108678Y77678D01*
X1108676Y77800D01*
X1108678Y77922D01*
X1108684Y78044D01*
X1108694Y78166D01*
X1108707Y78287D01*
X1108725Y78408D01*
X1108746Y78528D01*
X1108772Y78648D01*
X1108801Y78766D01*
X1108833Y78884D01*
X1108870Y79001D01*
X1108910Y79116D01*
X1108954Y79230D01*
X1109002Y79342D01*
X1109053Y79453D01*
X1109108Y79562D01*
X1109166Y79670D01*
X1109228Y79775D01*
X1109293Y79878D01*
X1109361Y79980D01*
X1109433Y80079D01*
X1109507Y80175D01*
X1109585Y80270D01*
X1109666Y80361D01*
X1109749Y80451D01*
X1109835Y80537D01*
X1109925Y80620D01*
X1110016Y80701D01*
X1110111Y80779D01*
X1110207Y80853D01*
X1110306Y80925D01*
X1110408Y80993D01*
X1110511Y81058D01*
X1110616Y81120D01*
X1110724Y81178D01*
X1110833Y81233D01*
X1110944Y81284D01*
X1111056Y81332D01*
X1111170Y81376D01*
X1111285Y81416D01*
X1111402Y81453D01*
X1111520Y81485D01*
X1111638Y81514D01*
X1111758Y81540D01*
X1111878Y81561D01*
X1111999Y81579D01*
X1112120Y81592D01*
X1112242Y81602D01*
X1112364Y81608D01*
X1112486Y81610D01*
X1112608Y81608D01*
X1112730Y81602D01*
X1112852Y81592D01*
X1112973Y81579D01*
X1113094Y81561D01*
X1113214Y81540D01*
X1113334Y81514D01*
X1113452Y81485D01*
X1113570Y81453D01*
X1113687Y81416D01*
X1113802Y81376D01*
X1113916Y81332D01*
X1114028Y81284D01*
X1114139Y81233D01*
X1114248Y81178D01*
X1114356Y81120D01*
X1114461Y81058D01*
X1114564Y80993D01*
X1114666Y80925D01*
X1114765Y80853D01*
X1114861Y80779D01*
X1114956Y80701D01*
X1115047Y80620D01*
X1115137Y80537D01*
X1115223Y80451D01*
X1115306Y80361D01*
X1115387Y80270D01*
X1115465Y80175D01*
X1115539Y80079D01*
X1115611Y79980D01*
X1115679Y79878D01*
X1115744Y79775D01*
X1115806Y79670D01*
X1115864Y79562D01*
X1115919Y79453D01*
X1115970Y79342D01*
X1116018Y79230D01*
X1116062Y79116D01*
X1116102Y79001D01*
X1116139Y78884D01*
X1116171Y78766D01*
X1116200Y78648D01*
X1116226Y78528D01*
X1116247Y78408D01*
X1116265Y78287D01*
X1116278Y78166D01*
X1116288Y78044D01*
X1116294Y77922D01*
X1116296Y77800D01*
D11*
X897568Y279525D02*
X896496Y279525D01*
X897568Y279525D02*
X897633Y279527D01*
X897697Y279533D01*
X897761Y279543D01*
X897825Y279556D01*
X897887Y279574D01*
X897948Y279595D01*
X898008Y279619D01*
X898066Y279648D01*
X898123Y279680D01*
X898177Y279715D01*
X898229Y279753D01*
X898279Y279795D01*
X898326Y279839D01*
X898370Y279886D01*
X898412Y279936D01*
X898450Y279988D01*
X898485Y280042D01*
X898517Y280099D01*
X898546Y280157D01*
X898570Y280217D01*
X898591Y280278D01*
X898609Y280340D01*
X898622Y280404D01*
X898632Y280468D01*
X898638Y280532D01*
X898640Y280597D01*
X898641Y280597D02*
X898641Y283279D01*
X898640Y283279D02*
X898638Y283344D01*
X898632Y283408D01*
X898622Y283472D01*
X898609Y283536D01*
X898591Y283598D01*
X898570Y283659D01*
X898546Y283719D01*
X898517Y283777D01*
X898485Y283834D01*
X898450Y283888D01*
X898412Y283940D01*
X898370Y283990D01*
X898326Y284037D01*
X898279Y284081D01*
X898229Y284123D01*
X898177Y284161D01*
X898123Y284196D01*
X898066Y284228D01*
X898008Y284257D01*
X897948Y284281D01*
X897887Y284302D01*
X897825Y284320D01*
X897761Y284333D01*
X897697Y284343D01*
X897633Y284349D01*
X897568Y284351D01*
X896496Y284351D01*
X894041Y280866D02*
X894039Y280937D01*
X894033Y281009D01*
X894024Y281079D01*
X894011Y281149D01*
X893994Y281219D01*
X893973Y281287D01*
X893949Y281354D01*
X893921Y281420D01*
X893890Y281484D01*
X893855Y281547D01*
X893817Y281607D01*
X893776Y281666D01*
X893732Y281722D01*
X893685Y281776D01*
X893636Y281827D01*
X893583Y281875D01*
X893528Y281921D01*
X893471Y281963D01*
X893411Y282003D01*
X893350Y282039D01*
X893286Y282072D01*
X893221Y282101D01*
X893155Y282127D01*
X893087Y282150D01*
X893018Y282169D01*
X892948Y282184D01*
X892878Y282195D01*
X892807Y282203D01*
X892736Y282207D01*
X892664Y282207D01*
X892593Y282203D01*
X892522Y282195D01*
X892452Y282184D01*
X892382Y282169D01*
X892313Y282150D01*
X892245Y282127D01*
X892179Y282101D01*
X892114Y282072D01*
X892050Y282039D01*
X891989Y282003D01*
X891929Y281963D01*
X891872Y281921D01*
X891817Y281875D01*
X891764Y281827D01*
X891715Y281776D01*
X891668Y281722D01*
X891624Y281666D01*
X891583Y281607D01*
X891545Y281547D01*
X891510Y281484D01*
X891479Y281420D01*
X891451Y281354D01*
X891427Y281287D01*
X891406Y281219D01*
X891389Y281149D01*
X891376Y281079D01*
X891367Y281009D01*
X891361Y280937D01*
X891359Y280866D01*
X891361Y280795D01*
X891367Y280723D01*
X891376Y280653D01*
X891389Y280583D01*
X891406Y280513D01*
X891427Y280445D01*
X891451Y280378D01*
X891479Y280312D01*
X891510Y280248D01*
X891545Y280185D01*
X891583Y280125D01*
X891624Y280066D01*
X891668Y280010D01*
X891715Y279956D01*
X891764Y279905D01*
X891817Y279857D01*
X891872Y279811D01*
X891929Y279769D01*
X891989Y279729D01*
X892050Y279693D01*
X892114Y279660D01*
X892179Y279631D01*
X892245Y279605D01*
X892313Y279582D01*
X892382Y279563D01*
X892452Y279548D01*
X892522Y279537D01*
X892593Y279529D01*
X892664Y279525D01*
X892736Y279525D01*
X892807Y279529D01*
X892878Y279537D01*
X892948Y279548D01*
X893018Y279563D01*
X893087Y279582D01*
X893155Y279605D01*
X893221Y279631D01*
X893286Y279660D01*
X893350Y279693D01*
X893411Y279729D01*
X893471Y279769D01*
X893528Y279811D01*
X893583Y279857D01*
X893636Y279905D01*
X893685Y279956D01*
X893732Y280010D01*
X893776Y280066D01*
X893817Y280125D01*
X893855Y280185D01*
X893890Y280248D01*
X893921Y280312D01*
X893949Y280378D01*
X893973Y280445D01*
X893994Y280513D01*
X894011Y280583D01*
X894024Y280653D01*
X894033Y280723D01*
X894039Y280795D01*
X894041Y280866D01*
X893772Y283279D02*
X893770Y283344D01*
X893764Y283408D01*
X893754Y283472D01*
X893741Y283536D01*
X893723Y283598D01*
X893702Y283659D01*
X893678Y283719D01*
X893649Y283777D01*
X893617Y283834D01*
X893582Y283888D01*
X893544Y283940D01*
X893502Y283990D01*
X893458Y284037D01*
X893411Y284081D01*
X893361Y284123D01*
X893309Y284161D01*
X893255Y284196D01*
X893198Y284228D01*
X893140Y284257D01*
X893080Y284281D01*
X893019Y284302D01*
X892957Y284320D01*
X892893Y284333D01*
X892829Y284343D01*
X892765Y284349D01*
X892700Y284351D01*
X892635Y284349D01*
X892571Y284343D01*
X892507Y284333D01*
X892443Y284320D01*
X892381Y284302D01*
X892320Y284281D01*
X892260Y284257D01*
X892202Y284228D01*
X892145Y284196D01*
X892091Y284161D01*
X892039Y284123D01*
X891989Y284081D01*
X891942Y284037D01*
X891898Y283990D01*
X891856Y283940D01*
X891818Y283888D01*
X891783Y283834D01*
X891751Y283777D01*
X891722Y283719D01*
X891698Y283659D01*
X891677Y283598D01*
X891659Y283536D01*
X891646Y283472D01*
X891636Y283408D01*
X891630Y283344D01*
X891628Y283279D01*
X891630Y283214D01*
X891636Y283150D01*
X891646Y283086D01*
X891659Y283022D01*
X891677Y282960D01*
X891698Y282899D01*
X891722Y282839D01*
X891751Y282781D01*
X891783Y282724D01*
X891818Y282670D01*
X891856Y282618D01*
X891898Y282568D01*
X891942Y282521D01*
X891989Y282477D01*
X892039Y282435D01*
X892091Y282397D01*
X892145Y282362D01*
X892202Y282330D01*
X892260Y282301D01*
X892320Y282277D01*
X892381Y282256D01*
X892443Y282238D01*
X892507Y282225D01*
X892571Y282215D01*
X892635Y282209D01*
X892700Y282207D01*
X892765Y282209D01*
X892829Y282215D01*
X892893Y282225D01*
X892957Y282238D01*
X893019Y282256D01*
X893080Y282277D01*
X893140Y282301D01*
X893198Y282330D01*
X893255Y282362D01*
X893309Y282397D01*
X893361Y282435D01*
X893411Y282477D01*
X893458Y282521D01*
X893502Y282568D01*
X893544Y282618D01*
X893582Y282670D01*
X893617Y282724D01*
X893649Y282781D01*
X893678Y282839D01*
X893702Y282899D01*
X893723Y282960D01*
X893741Y283022D01*
X893754Y283086D01*
X893764Y283150D01*
X893770Y283214D01*
X893772Y283279D01*
X909496Y343955D02*
X910568Y343955D01*
X910633Y343957D01*
X910697Y343963D01*
X910761Y343973D01*
X910825Y343986D01*
X910887Y344004D01*
X910948Y344025D01*
X911008Y344049D01*
X911066Y344078D01*
X911123Y344110D01*
X911177Y344145D01*
X911229Y344183D01*
X911279Y344225D01*
X911326Y344269D01*
X911370Y344316D01*
X911412Y344366D01*
X911450Y344418D01*
X911485Y344472D01*
X911517Y344529D01*
X911546Y344587D01*
X911570Y344647D01*
X911591Y344708D01*
X911609Y344770D01*
X911622Y344834D01*
X911632Y344898D01*
X911638Y344962D01*
X911640Y345027D01*
X911641Y345027D02*
X911641Y347709D01*
X911640Y347709D02*
X911638Y347774D01*
X911632Y347838D01*
X911622Y347902D01*
X911609Y347966D01*
X911591Y348028D01*
X911570Y348089D01*
X911546Y348149D01*
X911517Y348207D01*
X911485Y348264D01*
X911450Y348318D01*
X911412Y348370D01*
X911370Y348420D01*
X911326Y348467D01*
X911279Y348511D01*
X911229Y348553D01*
X911177Y348591D01*
X911123Y348626D01*
X911066Y348658D01*
X911008Y348687D01*
X910948Y348711D01*
X910887Y348732D01*
X910825Y348750D01*
X910761Y348763D01*
X910697Y348773D01*
X910633Y348779D01*
X910568Y348781D01*
X909496Y348781D01*
X905968Y346100D02*
X904359Y346100D01*
X905968Y346100D02*
X906033Y346102D01*
X906097Y346108D01*
X906161Y346118D01*
X906225Y346131D01*
X906287Y346149D01*
X906348Y346170D01*
X906408Y346194D01*
X906466Y346223D01*
X906523Y346255D01*
X906577Y346290D01*
X906629Y346328D01*
X906679Y346370D01*
X906726Y346414D01*
X906770Y346461D01*
X906812Y346511D01*
X906850Y346563D01*
X906885Y346617D01*
X906917Y346674D01*
X906946Y346732D01*
X906970Y346792D01*
X906991Y346853D01*
X907009Y346915D01*
X907022Y346979D01*
X907032Y347043D01*
X907038Y347107D01*
X907040Y347172D01*
X907040Y347440D01*
X907041Y347440D02*
X907039Y347511D01*
X907033Y347583D01*
X907024Y347653D01*
X907011Y347723D01*
X906994Y347793D01*
X906973Y347861D01*
X906949Y347928D01*
X906921Y347994D01*
X906890Y348058D01*
X906855Y348121D01*
X906817Y348181D01*
X906776Y348240D01*
X906732Y348296D01*
X906685Y348350D01*
X906636Y348401D01*
X906583Y348449D01*
X906528Y348495D01*
X906471Y348537D01*
X906411Y348577D01*
X906350Y348613D01*
X906286Y348646D01*
X906221Y348675D01*
X906155Y348701D01*
X906087Y348724D01*
X906018Y348743D01*
X905948Y348758D01*
X905878Y348769D01*
X905807Y348777D01*
X905736Y348781D01*
X905664Y348781D01*
X905593Y348777D01*
X905522Y348769D01*
X905452Y348758D01*
X905382Y348743D01*
X905313Y348724D01*
X905245Y348701D01*
X905179Y348675D01*
X905114Y348646D01*
X905050Y348613D01*
X904989Y348577D01*
X904929Y348537D01*
X904872Y348495D01*
X904817Y348449D01*
X904764Y348401D01*
X904715Y348350D01*
X904668Y348296D01*
X904624Y348240D01*
X904583Y348181D01*
X904545Y348121D01*
X904510Y348058D01*
X904479Y347994D01*
X904451Y347928D01*
X904427Y347861D01*
X904406Y347793D01*
X904389Y347723D01*
X904376Y347653D01*
X904367Y347583D01*
X904361Y347511D01*
X904359Y347440D01*
X904359Y346100D01*
X904361Y346009D01*
X904367Y345918D01*
X904376Y345828D01*
X904390Y345737D01*
X904407Y345648D01*
X904428Y345560D01*
X904453Y345472D01*
X904482Y345385D01*
X904514Y345300D01*
X904549Y345216D01*
X904589Y345134D01*
X904631Y345054D01*
X904677Y344975D01*
X904727Y344899D01*
X904779Y344825D01*
X904835Y344752D01*
X904894Y344683D01*
X904955Y344616D01*
X905020Y344551D01*
X905087Y344490D01*
X905156Y344431D01*
X905229Y344375D01*
X905303Y344323D01*
X905379Y344273D01*
X905458Y344227D01*
X905538Y344185D01*
X905620Y344145D01*
X905704Y344110D01*
X905789Y344078D01*
X905876Y344049D01*
X905964Y344024D01*
X906052Y344003D01*
X906141Y343986D01*
X906232Y343972D01*
X906322Y343963D01*
X906413Y343957D01*
X906504Y343955D01*
X955119Y194061D02*
X955119Y192988D01*
X955121Y192923D01*
X955127Y192859D01*
X955137Y192795D01*
X955150Y192731D01*
X955168Y192669D01*
X955189Y192608D01*
X955213Y192548D01*
X955242Y192490D01*
X955274Y192433D01*
X955309Y192379D01*
X955347Y192327D01*
X955389Y192277D01*
X955433Y192230D01*
X955480Y192186D01*
X955530Y192144D01*
X955582Y192106D01*
X955636Y192071D01*
X955693Y192039D01*
X955751Y192010D01*
X955811Y191986D01*
X955872Y191965D01*
X955934Y191947D01*
X955998Y191934D01*
X956062Y191924D01*
X956126Y191918D01*
X956191Y191916D01*
X958873Y191916D01*
X958938Y191918D01*
X959002Y191924D01*
X959066Y191934D01*
X959130Y191947D01*
X959192Y191965D01*
X959253Y191986D01*
X959313Y192010D01*
X959371Y192039D01*
X959428Y192071D01*
X959482Y192106D01*
X959534Y192144D01*
X959584Y192186D01*
X959631Y192230D01*
X959675Y192277D01*
X959717Y192327D01*
X959755Y192379D01*
X959790Y192433D01*
X959822Y192490D01*
X959851Y192548D01*
X959875Y192608D01*
X959896Y192669D01*
X959914Y192731D01*
X959927Y192795D01*
X959937Y192859D01*
X959943Y192923D01*
X959945Y192988D01*
X959945Y194061D01*
X958873Y196517D02*
X959945Y197857D01*
X955119Y197857D01*
X955119Y196517D02*
X955119Y199198D01*
X958873Y202003D02*
X959945Y203344D01*
X955119Y203344D01*
X955119Y204684D02*
X955119Y202003D01*
X906481Y305648D02*
X901655Y305648D01*
X906481Y305648D02*
X906481Y306989D01*
X906479Y307060D01*
X906473Y307132D01*
X906464Y307202D01*
X906451Y307272D01*
X906434Y307342D01*
X906413Y307410D01*
X906389Y307477D01*
X906361Y307543D01*
X906330Y307607D01*
X906295Y307670D01*
X906257Y307730D01*
X906216Y307789D01*
X906172Y307845D01*
X906125Y307899D01*
X906076Y307950D01*
X906023Y307998D01*
X905968Y308044D01*
X905911Y308086D01*
X905851Y308126D01*
X905790Y308162D01*
X905726Y308195D01*
X905661Y308224D01*
X905595Y308250D01*
X905527Y308273D01*
X905458Y308292D01*
X905388Y308307D01*
X905318Y308318D01*
X905247Y308326D01*
X905176Y308330D01*
X905104Y308330D01*
X905033Y308326D01*
X904962Y308318D01*
X904892Y308307D01*
X904822Y308292D01*
X904753Y308273D01*
X904685Y308250D01*
X904619Y308224D01*
X904554Y308195D01*
X904490Y308162D01*
X904429Y308126D01*
X904369Y308086D01*
X904312Y308044D01*
X904257Y307998D01*
X904204Y307950D01*
X904155Y307899D01*
X904108Y307845D01*
X904064Y307789D01*
X904023Y307730D01*
X903985Y307670D01*
X903950Y307607D01*
X903919Y307543D01*
X903891Y307477D01*
X903867Y307410D01*
X903846Y307342D01*
X903829Y307272D01*
X903816Y307202D01*
X903807Y307132D01*
X903801Y307060D01*
X903799Y306989D01*
X903800Y306989D02*
X903800Y305648D01*
X903800Y307257D02*
X901655Y308329D01*
X905945Y311071D02*
X906481Y311071D01*
X906481Y313752D01*
X901655Y312411D01*
X872445Y308148D02*
X867619Y308148D01*
X872445Y308148D02*
X872445Y309489D01*
X872443Y309560D01*
X872437Y309632D01*
X872428Y309702D01*
X872415Y309772D01*
X872398Y309842D01*
X872377Y309910D01*
X872353Y309977D01*
X872325Y310043D01*
X872294Y310107D01*
X872259Y310170D01*
X872221Y310230D01*
X872180Y310289D01*
X872136Y310345D01*
X872089Y310399D01*
X872040Y310450D01*
X871987Y310498D01*
X871932Y310544D01*
X871875Y310586D01*
X871815Y310626D01*
X871754Y310662D01*
X871690Y310695D01*
X871625Y310724D01*
X871559Y310750D01*
X871491Y310773D01*
X871422Y310792D01*
X871352Y310807D01*
X871282Y310818D01*
X871211Y310826D01*
X871140Y310830D01*
X871068Y310830D01*
X870997Y310826D01*
X870926Y310818D01*
X870856Y310807D01*
X870786Y310792D01*
X870717Y310773D01*
X870649Y310750D01*
X870583Y310724D01*
X870518Y310695D01*
X870454Y310662D01*
X870393Y310626D01*
X870333Y310586D01*
X870276Y310544D01*
X870221Y310498D01*
X870168Y310450D01*
X870119Y310399D01*
X870072Y310345D01*
X870028Y310289D01*
X869987Y310230D01*
X869949Y310170D01*
X869914Y310107D01*
X869883Y310043D01*
X869855Y309977D01*
X869831Y309910D01*
X869810Y309842D01*
X869793Y309772D01*
X869780Y309702D01*
X869771Y309632D01*
X869765Y309560D01*
X869763Y309489D01*
X869764Y309489D02*
X869764Y308148D01*
X869764Y309757D02*
X867619Y310829D01*
X868960Y313570D02*
X869031Y313572D01*
X869103Y313578D01*
X869173Y313587D01*
X869243Y313600D01*
X869313Y313617D01*
X869381Y313638D01*
X869448Y313662D01*
X869514Y313690D01*
X869578Y313721D01*
X869641Y313756D01*
X869701Y313794D01*
X869760Y313835D01*
X869816Y313879D01*
X869870Y313926D01*
X869921Y313975D01*
X869969Y314028D01*
X870015Y314083D01*
X870057Y314140D01*
X870097Y314200D01*
X870133Y314261D01*
X870166Y314325D01*
X870195Y314390D01*
X870221Y314456D01*
X870244Y314524D01*
X870263Y314593D01*
X870278Y314663D01*
X870289Y314733D01*
X870297Y314804D01*
X870301Y314875D01*
X870301Y314947D01*
X870297Y315018D01*
X870289Y315089D01*
X870278Y315159D01*
X870263Y315229D01*
X870244Y315298D01*
X870221Y315366D01*
X870195Y315432D01*
X870166Y315497D01*
X870133Y315561D01*
X870097Y315622D01*
X870057Y315682D01*
X870015Y315739D01*
X869969Y315794D01*
X869921Y315847D01*
X869870Y315896D01*
X869816Y315943D01*
X869760Y315987D01*
X869701Y316028D01*
X869641Y316066D01*
X869578Y316101D01*
X869514Y316132D01*
X869448Y316160D01*
X869381Y316184D01*
X869313Y316205D01*
X869243Y316222D01*
X869173Y316235D01*
X869103Y316244D01*
X869031Y316250D01*
X868960Y316252D01*
X868889Y316250D01*
X868817Y316244D01*
X868747Y316235D01*
X868677Y316222D01*
X868607Y316205D01*
X868539Y316184D01*
X868472Y316160D01*
X868406Y316132D01*
X868342Y316101D01*
X868279Y316066D01*
X868219Y316028D01*
X868160Y315987D01*
X868104Y315943D01*
X868050Y315896D01*
X867999Y315847D01*
X867951Y315794D01*
X867905Y315739D01*
X867863Y315682D01*
X867823Y315622D01*
X867787Y315561D01*
X867754Y315497D01*
X867725Y315432D01*
X867699Y315366D01*
X867676Y315298D01*
X867657Y315229D01*
X867642Y315159D01*
X867631Y315089D01*
X867623Y315018D01*
X867619Y314947D01*
X867619Y314875D01*
X867623Y314804D01*
X867631Y314733D01*
X867642Y314663D01*
X867657Y314593D01*
X867676Y314524D01*
X867699Y314456D01*
X867725Y314390D01*
X867754Y314325D01*
X867787Y314261D01*
X867823Y314200D01*
X867863Y314140D01*
X867905Y314083D01*
X867951Y314028D01*
X867999Y313975D01*
X868050Y313926D01*
X868104Y313879D01*
X868160Y313835D01*
X868219Y313794D01*
X868279Y313756D01*
X868342Y313721D01*
X868406Y313690D01*
X868472Y313662D01*
X868539Y313638D01*
X868607Y313617D01*
X868677Y313600D01*
X868747Y313587D01*
X868817Y313578D01*
X868889Y313572D01*
X868960Y313570D01*
X871373Y313839D02*
X871438Y313841D01*
X871502Y313847D01*
X871566Y313857D01*
X871630Y313870D01*
X871692Y313888D01*
X871753Y313909D01*
X871813Y313933D01*
X871871Y313962D01*
X871928Y313994D01*
X871982Y314029D01*
X872034Y314067D01*
X872084Y314109D01*
X872131Y314153D01*
X872175Y314200D01*
X872217Y314250D01*
X872255Y314302D01*
X872290Y314356D01*
X872322Y314413D01*
X872351Y314471D01*
X872375Y314531D01*
X872396Y314592D01*
X872414Y314654D01*
X872427Y314718D01*
X872437Y314782D01*
X872443Y314846D01*
X872445Y314911D01*
X872443Y314976D01*
X872437Y315040D01*
X872427Y315104D01*
X872414Y315168D01*
X872396Y315230D01*
X872375Y315291D01*
X872351Y315351D01*
X872322Y315409D01*
X872290Y315466D01*
X872255Y315520D01*
X872217Y315572D01*
X872175Y315622D01*
X872131Y315669D01*
X872084Y315713D01*
X872034Y315755D01*
X871982Y315793D01*
X871928Y315828D01*
X871871Y315860D01*
X871813Y315889D01*
X871753Y315913D01*
X871692Y315934D01*
X871630Y315952D01*
X871566Y315965D01*
X871502Y315975D01*
X871438Y315981D01*
X871373Y315983D01*
X871308Y315981D01*
X871244Y315975D01*
X871180Y315965D01*
X871116Y315952D01*
X871054Y315934D01*
X870993Y315913D01*
X870933Y315889D01*
X870875Y315860D01*
X870818Y315828D01*
X870764Y315793D01*
X870712Y315755D01*
X870662Y315713D01*
X870615Y315669D01*
X870571Y315622D01*
X870529Y315572D01*
X870491Y315520D01*
X870456Y315466D01*
X870424Y315409D01*
X870395Y315351D01*
X870371Y315291D01*
X870350Y315230D01*
X870332Y315168D01*
X870319Y315104D01*
X870309Y315040D01*
X870303Y314976D01*
X870301Y314911D01*
X870303Y314846D01*
X870309Y314782D01*
X870319Y314718D01*
X870332Y314654D01*
X870350Y314592D01*
X870371Y314531D01*
X870395Y314471D01*
X870424Y314413D01*
X870456Y314356D01*
X870491Y314302D01*
X870529Y314250D01*
X870571Y314200D01*
X870615Y314153D01*
X870662Y314109D01*
X870712Y314067D01*
X870764Y314029D01*
X870818Y313994D01*
X870875Y313962D01*
X870933Y313933D01*
X870993Y313909D01*
X871054Y313888D01*
X871116Y313870D01*
X871180Y313857D01*
X871244Y313847D01*
X871308Y313841D01*
X871373Y313839D01*
X831919Y307961D02*
X831919Y306888D01*
X831921Y306823D01*
X831927Y306759D01*
X831937Y306695D01*
X831950Y306631D01*
X831968Y306569D01*
X831989Y306508D01*
X832013Y306448D01*
X832042Y306390D01*
X832074Y306333D01*
X832109Y306279D01*
X832147Y306227D01*
X832189Y306177D01*
X832233Y306130D01*
X832280Y306086D01*
X832330Y306044D01*
X832382Y306006D01*
X832436Y305971D01*
X832493Y305939D01*
X832551Y305910D01*
X832611Y305886D01*
X832672Y305865D01*
X832734Y305847D01*
X832798Y305834D01*
X832862Y305824D01*
X832926Y305818D01*
X832991Y305816D01*
X835673Y305816D01*
X835738Y305818D01*
X835802Y305824D01*
X835866Y305834D01*
X835930Y305847D01*
X835992Y305865D01*
X836053Y305886D01*
X836113Y305910D01*
X836171Y305939D01*
X836228Y305971D01*
X836282Y306006D01*
X836334Y306044D01*
X836384Y306086D01*
X836431Y306130D01*
X836475Y306177D01*
X836517Y306227D01*
X836555Y306279D01*
X836590Y306333D01*
X836622Y306390D01*
X836651Y306448D01*
X836675Y306508D01*
X836696Y306569D01*
X836714Y306631D01*
X836727Y306695D01*
X836737Y306759D01*
X836743Y306823D01*
X836745Y306888D01*
X836745Y307961D01*
X835673Y310417D02*
X836745Y311757D01*
X831919Y311757D01*
X831919Y310417D02*
X831919Y313098D01*
X833260Y315903D02*
X833331Y315905D01*
X833403Y315911D01*
X833473Y315920D01*
X833543Y315933D01*
X833613Y315950D01*
X833681Y315971D01*
X833748Y315995D01*
X833814Y316023D01*
X833878Y316054D01*
X833941Y316089D01*
X834001Y316127D01*
X834060Y316168D01*
X834116Y316212D01*
X834170Y316259D01*
X834221Y316308D01*
X834269Y316361D01*
X834315Y316416D01*
X834357Y316473D01*
X834397Y316533D01*
X834433Y316594D01*
X834466Y316658D01*
X834495Y316723D01*
X834521Y316789D01*
X834544Y316857D01*
X834563Y316926D01*
X834578Y316996D01*
X834589Y317066D01*
X834597Y317137D01*
X834601Y317208D01*
X834601Y317280D01*
X834597Y317351D01*
X834589Y317422D01*
X834578Y317492D01*
X834563Y317562D01*
X834544Y317631D01*
X834521Y317699D01*
X834495Y317765D01*
X834466Y317830D01*
X834433Y317894D01*
X834397Y317955D01*
X834357Y318015D01*
X834315Y318072D01*
X834269Y318127D01*
X834221Y318180D01*
X834170Y318229D01*
X834116Y318276D01*
X834060Y318320D01*
X834001Y318361D01*
X833941Y318399D01*
X833878Y318434D01*
X833814Y318465D01*
X833748Y318493D01*
X833681Y318517D01*
X833613Y318538D01*
X833543Y318555D01*
X833473Y318568D01*
X833403Y318577D01*
X833331Y318583D01*
X833260Y318585D01*
X833189Y318583D01*
X833117Y318577D01*
X833047Y318568D01*
X832977Y318555D01*
X832907Y318538D01*
X832839Y318517D01*
X832772Y318493D01*
X832706Y318465D01*
X832642Y318434D01*
X832579Y318399D01*
X832519Y318361D01*
X832460Y318320D01*
X832404Y318276D01*
X832350Y318229D01*
X832299Y318180D01*
X832251Y318127D01*
X832205Y318072D01*
X832163Y318015D01*
X832123Y317955D01*
X832087Y317894D01*
X832054Y317830D01*
X832025Y317765D01*
X831999Y317699D01*
X831976Y317631D01*
X831957Y317562D01*
X831942Y317492D01*
X831931Y317422D01*
X831923Y317351D01*
X831919Y317280D01*
X831919Y317208D01*
X831923Y317137D01*
X831931Y317066D01*
X831942Y316996D01*
X831957Y316926D01*
X831976Y316857D01*
X831999Y316789D01*
X832025Y316723D01*
X832054Y316658D01*
X832087Y316594D01*
X832123Y316533D01*
X832163Y316473D01*
X832205Y316416D01*
X832251Y316361D01*
X832299Y316308D01*
X832350Y316259D01*
X832404Y316212D01*
X832460Y316168D01*
X832519Y316127D01*
X832579Y316089D01*
X832642Y316054D01*
X832706Y316023D01*
X832772Y315995D01*
X832839Y315971D01*
X832907Y315950D01*
X832977Y315933D01*
X833047Y315920D01*
X833117Y315911D01*
X833189Y315905D01*
X833260Y315903D01*
X835673Y316172D02*
X835738Y316174D01*
X835802Y316180D01*
X835866Y316190D01*
X835930Y316203D01*
X835992Y316221D01*
X836053Y316242D01*
X836113Y316266D01*
X836171Y316295D01*
X836228Y316327D01*
X836282Y316362D01*
X836334Y316400D01*
X836384Y316442D01*
X836431Y316486D01*
X836475Y316533D01*
X836517Y316583D01*
X836555Y316635D01*
X836590Y316689D01*
X836622Y316746D01*
X836651Y316804D01*
X836675Y316864D01*
X836696Y316925D01*
X836714Y316987D01*
X836727Y317051D01*
X836737Y317115D01*
X836743Y317179D01*
X836745Y317244D01*
X836743Y317309D01*
X836737Y317373D01*
X836727Y317437D01*
X836714Y317501D01*
X836696Y317563D01*
X836675Y317624D01*
X836651Y317684D01*
X836622Y317742D01*
X836590Y317799D01*
X836555Y317853D01*
X836517Y317905D01*
X836475Y317955D01*
X836431Y318002D01*
X836384Y318046D01*
X836334Y318088D01*
X836282Y318126D01*
X836228Y318161D01*
X836171Y318193D01*
X836113Y318222D01*
X836053Y318246D01*
X835992Y318267D01*
X835930Y318285D01*
X835866Y318298D01*
X835802Y318308D01*
X835738Y318314D01*
X835673Y318316D01*
X835608Y318314D01*
X835544Y318308D01*
X835480Y318298D01*
X835416Y318285D01*
X835354Y318267D01*
X835293Y318246D01*
X835233Y318222D01*
X835175Y318193D01*
X835118Y318161D01*
X835064Y318126D01*
X835012Y318088D01*
X834962Y318046D01*
X834915Y318002D01*
X834871Y317955D01*
X834829Y317905D01*
X834791Y317853D01*
X834756Y317799D01*
X834724Y317742D01*
X834695Y317684D01*
X834671Y317624D01*
X834650Y317563D01*
X834632Y317501D01*
X834619Y317437D01*
X834609Y317373D01*
X834603Y317309D01*
X834601Y317244D01*
X834603Y317179D01*
X834609Y317115D01*
X834619Y317051D01*
X834632Y316987D01*
X834650Y316925D01*
X834671Y316864D01*
X834695Y316804D01*
X834724Y316746D01*
X834756Y316689D01*
X834791Y316635D01*
X834829Y316583D01*
X834871Y316533D01*
X834915Y316486D01*
X834962Y316442D01*
X835012Y316400D01*
X835064Y316362D01*
X835118Y316327D01*
X835175Y316295D01*
X835233Y316266D01*
X835293Y316242D01*
X835354Y316221D01*
X835416Y316203D01*
X835480Y316190D01*
X835544Y316180D01*
X835608Y316174D01*
X835673Y316172D01*
X799695Y281865D02*
X799695Y277039D01*
X799695Y281865D02*
X798355Y281865D01*
X798284Y281863D01*
X798212Y281857D01*
X798142Y281848D01*
X798072Y281835D01*
X798002Y281818D01*
X797934Y281797D01*
X797867Y281773D01*
X797801Y281745D01*
X797737Y281714D01*
X797674Y281679D01*
X797614Y281641D01*
X797555Y281600D01*
X797499Y281556D01*
X797445Y281509D01*
X797394Y281460D01*
X797346Y281407D01*
X797300Y281352D01*
X797258Y281295D01*
X797218Y281235D01*
X797182Y281174D01*
X797149Y281110D01*
X797120Y281045D01*
X797094Y280979D01*
X797071Y280911D01*
X797052Y280842D01*
X797037Y280772D01*
X797026Y280702D01*
X797018Y280631D01*
X797014Y280560D01*
X797014Y280488D01*
X797018Y280417D01*
X797026Y280346D01*
X797037Y280276D01*
X797052Y280206D01*
X797071Y280137D01*
X797094Y280069D01*
X797120Y280003D01*
X797149Y279938D01*
X797182Y279874D01*
X797218Y279813D01*
X797258Y279753D01*
X797300Y279696D01*
X797346Y279641D01*
X797394Y279588D01*
X797445Y279539D01*
X797499Y279492D01*
X797555Y279448D01*
X797614Y279407D01*
X797674Y279369D01*
X797737Y279334D01*
X797801Y279303D01*
X797867Y279275D01*
X797934Y279251D01*
X798002Y279230D01*
X798072Y279213D01*
X798142Y279200D01*
X798212Y279191D01*
X798284Y279185D01*
X798355Y279183D01*
X798355Y279184D02*
X799695Y279184D01*
X798086Y279184D02*
X797014Y277039D01*
X794272Y280793D02*
X792932Y281865D01*
X792932Y277039D01*
X794272Y277039D02*
X791591Y277039D01*
X788786Y278111D02*
X787714Y281865D01*
X788786Y278111D02*
X786105Y278111D01*
X786909Y279184D02*
X786909Y277039D01*
X799695Y292039D02*
X799695Y296865D01*
X798355Y296865D01*
X798284Y296863D01*
X798212Y296857D01*
X798142Y296848D01*
X798072Y296835D01*
X798002Y296818D01*
X797934Y296797D01*
X797867Y296773D01*
X797801Y296745D01*
X797737Y296714D01*
X797674Y296679D01*
X797614Y296641D01*
X797555Y296600D01*
X797499Y296556D01*
X797445Y296509D01*
X797394Y296460D01*
X797346Y296407D01*
X797300Y296352D01*
X797258Y296295D01*
X797218Y296235D01*
X797182Y296174D01*
X797149Y296110D01*
X797120Y296045D01*
X797094Y295979D01*
X797071Y295911D01*
X797052Y295842D01*
X797037Y295772D01*
X797026Y295702D01*
X797018Y295631D01*
X797014Y295560D01*
X797014Y295488D01*
X797018Y295417D01*
X797026Y295346D01*
X797037Y295276D01*
X797052Y295206D01*
X797071Y295137D01*
X797094Y295069D01*
X797120Y295003D01*
X797149Y294938D01*
X797182Y294874D01*
X797218Y294813D01*
X797258Y294753D01*
X797300Y294696D01*
X797346Y294641D01*
X797394Y294588D01*
X797445Y294539D01*
X797499Y294492D01*
X797555Y294448D01*
X797614Y294407D01*
X797674Y294369D01*
X797737Y294334D01*
X797801Y294303D01*
X797867Y294275D01*
X797934Y294251D01*
X798002Y294230D01*
X798072Y294213D01*
X798142Y294200D01*
X798212Y294191D01*
X798284Y294185D01*
X798355Y294183D01*
X798355Y294184D02*
X799695Y294184D01*
X798086Y294184D02*
X797014Y292039D01*
X794272Y295793D02*
X792932Y296865D01*
X792932Y292039D01*
X794272Y292039D02*
X791591Y292039D01*
X788786Y292039D02*
X787177Y292039D01*
X787112Y292041D01*
X787048Y292047D01*
X786984Y292057D01*
X786920Y292070D01*
X786858Y292088D01*
X786797Y292109D01*
X786737Y292133D01*
X786679Y292162D01*
X786622Y292194D01*
X786568Y292229D01*
X786516Y292267D01*
X786466Y292309D01*
X786419Y292353D01*
X786375Y292400D01*
X786333Y292450D01*
X786295Y292502D01*
X786260Y292556D01*
X786228Y292613D01*
X786199Y292671D01*
X786175Y292731D01*
X786154Y292792D01*
X786136Y292854D01*
X786123Y292918D01*
X786113Y292982D01*
X786107Y293046D01*
X786105Y293111D01*
X786105Y293648D01*
X786107Y293713D01*
X786113Y293777D01*
X786123Y293841D01*
X786136Y293905D01*
X786154Y293967D01*
X786175Y294028D01*
X786199Y294088D01*
X786228Y294146D01*
X786260Y294203D01*
X786295Y294257D01*
X786333Y294309D01*
X786375Y294359D01*
X786419Y294406D01*
X786466Y294450D01*
X786516Y294492D01*
X786568Y294530D01*
X786622Y294565D01*
X786679Y294597D01*
X786737Y294626D01*
X786797Y294650D01*
X786858Y294671D01*
X786920Y294689D01*
X786984Y294702D01*
X787048Y294712D01*
X787112Y294718D01*
X787177Y294720D01*
X788786Y294720D01*
X788786Y296865D01*
X786105Y296865D01*
X748895Y272961D02*
X748895Y268135D01*
X748895Y272961D02*
X747555Y272961D01*
X747484Y272959D01*
X747412Y272953D01*
X747342Y272944D01*
X747272Y272931D01*
X747202Y272914D01*
X747134Y272893D01*
X747067Y272869D01*
X747001Y272841D01*
X746937Y272810D01*
X746874Y272775D01*
X746814Y272737D01*
X746755Y272696D01*
X746699Y272652D01*
X746645Y272605D01*
X746594Y272556D01*
X746546Y272503D01*
X746500Y272448D01*
X746458Y272391D01*
X746418Y272331D01*
X746382Y272270D01*
X746349Y272206D01*
X746320Y272141D01*
X746294Y272075D01*
X746271Y272007D01*
X746252Y271938D01*
X746237Y271868D01*
X746226Y271798D01*
X746218Y271727D01*
X746214Y271656D01*
X746214Y271584D01*
X746218Y271513D01*
X746226Y271442D01*
X746237Y271372D01*
X746252Y271302D01*
X746271Y271233D01*
X746294Y271165D01*
X746320Y271099D01*
X746349Y271034D01*
X746382Y270970D01*
X746418Y270909D01*
X746458Y270849D01*
X746500Y270792D01*
X746546Y270737D01*
X746594Y270684D01*
X746645Y270635D01*
X746699Y270588D01*
X746755Y270544D01*
X746814Y270503D01*
X746874Y270465D01*
X746937Y270430D01*
X747001Y270399D01*
X747067Y270371D01*
X747134Y270347D01*
X747202Y270326D01*
X747272Y270309D01*
X747342Y270296D01*
X747412Y270287D01*
X747484Y270281D01*
X747555Y270279D01*
X747555Y270280D02*
X748895Y270280D01*
X747286Y270280D02*
X746214Y268135D01*
X743472Y271889D02*
X742132Y272961D01*
X742132Y268135D01*
X743472Y268135D02*
X740791Y268135D01*
X737986Y270816D02*
X736377Y270816D01*
X736312Y270814D01*
X736248Y270808D01*
X736184Y270798D01*
X736120Y270785D01*
X736058Y270767D01*
X735997Y270746D01*
X735937Y270722D01*
X735879Y270693D01*
X735822Y270661D01*
X735768Y270626D01*
X735716Y270588D01*
X735666Y270546D01*
X735619Y270502D01*
X735575Y270455D01*
X735533Y270405D01*
X735495Y270353D01*
X735460Y270299D01*
X735428Y270242D01*
X735399Y270184D01*
X735375Y270124D01*
X735354Y270063D01*
X735336Y270001D01*
X735323Y269937D01*
X735313Y269873D01*
X735307Y269809D01*
X735305Y269744D01*
X735305Y269476D01*
X735304Y269476D02*
X735306Y269405D01*
X735312Y269333D01*
X735321Y269263D01*
X735334Y269193D01*
X735351Y269123D01*
X735372Y269055D01*
X735396Y268988D01*
X735424Y268922D01*
X735455Y268858D01*
X735490Y268795D01*
X735528Y268735D01*
X735569Y268676D01*
X735613Y268620D01*
X735660Y268566D01*
X735709Y268515D01*
X735762Y268467D01*
X735817Y268421D01*
X735874Y268379D01*
X735934Y268339D01*
X735995Y268303D01*
X736059Y268270D01*
X736124Y268241D01*
X736190Y268215D01*
X736258Y268192D01*
X736327Y268173D01*
X736397Y268158D01*
X736467Y268147D01*
X736538Y268139D01*
X736609Y268135D01*
X736681Y268135D01*
X736752Y268139D01*
X736823Y268147D01*
X736893Y268158D01*
X736963Y268173D01*
X737032Y268192D01*
X737100Y268215D01*
X737166Y268241D01*
X737231Y268270D01*
X737295Y268303D01*
X737356Y268339D01*
X737416Y268379D01*
X737473Y268421D01*
X737528Y268467D01*
X737581Y268515D01*
X737630Y268566D01*
X737677Y268620D01*
X737721Y268676D01*
X737762Y268735D01*
X737800Y268795D01*
X737835Y268858D01*
X737866Y268922D01*
X737894Y268988D01*
X737918Y269055D01*
X737939Y269123D01*
X737956Y269193D01*
X737969Y269263D01*
X737978Y269333D01*
X737984Y269405D01*
X737986Y269476D01*
X737986Y270816D01*
X737984Y270907D01*
X737978Y270998D01*
X737969Y271088D01*
X737955Y271179D01*
X737938Y271268D01*
X737917Y271356D01*
X737892Y271444D01*
X737863Y271531D01*
X737831Y271616D01*
X737796Y271700D01*
X737756Y271782D01*
X737714Y271862D01*
X737668Y271941D01*
X737618Y272017D01*
X737566Y272091D01*
X737510Y272164D01*
X737451Y272233D01*
X737390Y272300D01*
X737325Y272365D01*
X737258Y272426D01*
X737189Y272485D01*
X737116Y272541D01*
X737042Y272593D01*
X736966Y272643D01*
X736887Y272689D01*
X736807Y272731D01*
X736725Y272771D01*
X736641Y272806D01*
X736556Y272838D01*
X736469Y272867D01*
X736381Y272892D01*
X736293Y272913D01*
X736204Y272930D01*
X736113Y272944D01*
X736023Y272953D01*
X735932Y272959D01*
X735841Y272961D01*
X774295Y234245D02*
X774295Y229419D01*
X774295Y234245D02*
X772955Y234245D01*
X772884Y234243D01*
X772812Y234237D01*
X772742Y234228D01*
X772672Y234215D01*
X772602Y234198D01*
X772534Y234177D01*
X772467Y234153D01*
X772401Y234125D01*
X772337Y234094D01*
X772274Y234059D01*
X772214Y234021D01*
X772155Y233980D01*
X772099Y233936D01*
X772045Y233889D01*
X771994Y233840D01*
X771946Y233787D01*
X771900Y233732D01*
X771858Y233675D01*
X771818Y233615D01*
X771782Y233554D01*
X771749Y233490D01*
X771720Y233425D01*
X771694Y233359D01*
X771671Y233291D01*
X771652Y233222D01*
X771637Y233152D01*
X771626Y233082D01*
X771618Y233011D01*
X771614Y232940D01*
X771614Y232868D01*
X771618Y232797D01*
X771626Y232726D01*
X771637Y232656D01*
X771652Y232586D01*
X771671Y232517D01*
X771694Y232449D01*
X771720Y232383D01*
X771749Y232318D01*
X771782Y232254D01*
X771818Y232193D01*
X771858Y232133D01*
X771900Y232076D01*
X771946Y232021D01*
X771994Y231968D01*
X772045Y231919D01*
X772099Y231872D01*
X772155Y231828D01*
X772214Y231787D01*
X772274Y231749D01*
X772337Y231714D01*
X772401Y231683D01*
X772467Y231655D01*
X772534Y231631D01*
X772602Y231610D01*
X772672Y231593D01*
X772742Y231580D01*
X772812Y231571D01*
X772884Y231565D01*
X772955Y231563D01*
X772955Y231564D02*
X774295Y231564D01*
X772686Y231564D02*
X771614Y229419D01*
X768872Y233173D02*
X767532Y234245D01*
X767532Y229419D01*
X768872Y229419D02*
X766191Y229419D01*
X763386Y233709D02*
X763386Y234245D01*
X760705Y234245D01*
X762046Y229419D01*
X1006795Y431919D02*
X1006795Y436745D01*
X1005455Y436745D01*
X1005384Y436743D01*
X1005312Y436737D01*
X1005242Y436728D01*
X1005172Y436715D01*
X1005102Y436698D01*
X1005034Y436677D01*
X1004967Y436653D01*
X1004901Y436625D01*
X1004837Y436594D01*
X1004774Y436559D01*
X1004714Y436521D01*
X1004655Y436480D01*
X1004599Y436436D01*
X1004545Y436389D01*
X1004494Y436340D01*
X1004446Y436287D01*
X1004400Y436232D01*
X1004358Y436175D01*
X1004318Y436115D01*
X1004282Y436054D01*
X1004249Y435990D01*
X1004220Y435925D01*
X1004194Y435859D01*
X1004171Y435791D01*
X1004152Y435722D01*
X1004137Y435652D01*
X1004126Y435582D01*
X1004118Y435511D01*
X1004114Y435440D01*
X1004114Y435368D01*
X1004118Y435297D01*
X1004126Y435226D01*
X1004137Y435156D01*
X1004152Y435086D01*
X1004171Y435017D01*
X1004194Y434949D01*
X1004220Y434883D01*
X1004249Y434818D01*
X1004282Y434754D01*
X1004318Y434693D01*
X1004358Y434633D01*
X1004400Y434576D01*
X1004446Y434521D01*
X1004494Y434468D01*
X1004545Y434419D01*
X1004599Y434372D01*
X1004655Y434328D01*
X1004714Y434287D01*
X1004774Y434249D01*
X1004837Y434214D01*
X1004901Y434183D01*
X1004967Y434155D01*
X1005034Y434131D01*
X1005102Y434110D01*
X1005172Y434093D01*
X1005242Y434080D01*
X1005312Y434071D01*
X1005384Y434065D01*
X1005455Y434063D01*
X1005455Y434064D02*
X1006795Y434064D01*
X1005186Y434064D02*
X1004114Y431919D01*
X999898Y436745D02*
X999830Y436743D01*
X999763Y436737D01*
X999696Y436728D01*
X999629Y436715D01*
X999564Y436698D01*
X999499Y436677D01*
X999436Y436653D01*
X999374Y436625D01*
X999314Y436594D01*
X999256Y436560D01*
X999200Y436522D01*
X999145Y436482D01*
X999094Y436438D01*
X999045Y436391D01*
X998998Y436342D01*
X998954Y436291D01*
X998914Y436236D01*
X998876Y436180D01*
X998842Y436122D01*
X998811Y436062D01*
X998783Y436000D01*
X998759Y435937D01*
X998738Y435872D01*
X998721Y435807D01*
X998708Y435740D01*
X998699Y435673D01*
X998693Y435606D01*
X998691Y435538D01*
X999898Y436745D02*
X999976Y436743D01*
X1000054Y436737D01*
X1000131Y436727D01*
X1000208Y436714D01*
X1000284Y436696D01*
X1000359Y436675D01*
X1000433Y436650D01*
X1000505Y436621D01*
X1000576Y436589D01*
X1000645Y436553D01*
X1000713Y436514D01*
X1000778Y436471D01*
X1000841Y436425D01*
X1000902Y436376D01*
X1000960Y436324D01*
X1001015Y436269D01*
X1001068Y436212D01*
X1001117Y436152D01*
X1001164Y436089D01*
X1001207Y436024D01*
X1001247Y435958D01*
X1001284Y435889D01*
X1001317Y435818D01*
X1001347Y435746D01*
X1001373Y435672D01*
X999093Y434600D02*
X999044Y434649D01*
X998997Y434701D01*
X998954Y434756D01*
X998913Y434813D01*
X998875Y434872D01*
X998841Y434933D01*
X998810Y434996D01*
X998782Y435060D01*
X998758Y435126D01*
X998738Y435192D01*
X998721Y435260D01*
X998708Y435329D01*
X998699Y435398D01*
X998693Y435468D01*
X998691Y435538D01*
X999093Y434600D02*
X1001372Y431919D01*
X998691Y431919D01*
X995886Y435673D02*
X994546Y436745D01*
X994546Y431919D01*
X995886Y431919D02*
X993205Y431919D01*
X774295Y343081D02*
X774295Y338255D01*
X774295Y343081D02*
X772955Y343081D01*
X772884Y343079D01*
X772812Y343073D01*
X772742Y343064D01*
X772672Y343051D01*
X772602Y343034D01*
X772534Y343013D01*
X772467Y342989D01*
X772401Y342961D01*
X772337Y342930D01*
X772274Y342895D01*
X772214Y342857D01*
X772155Y342816D01*
X772099Y342772D01*
X772045Y342725D01*
X771994Y342676D01*
X771946Y342623D01*
X771900Y342568D01*
X771858Y342511D01*
X771818Y342451D01*
X771782Y342390D01*
X771749Y342326D01*
X771720Y342261D01*
X771694Y342195D01*
X771671Y342127D01*
X771652Y342058D01*
X771637Y341988D01*
X771626Y341918D01*
X771618Y341847D01*
X771614Y341776D01*
X771614Y341704D01*
X771618Y341633D01*
X771626Y341562D01*
X771637Y341492D01*
X771652Y341422D01*
X771671Y341353D01*
X771694Y341285D01*
X771720Y341219D01*
X771749Y341154D01*
X771782Y341090D01*
X771818Y341029D01*
X771858Y340969D01*
X771900Y340912D01*
X771946Y340857D01*
X771994Y340804D01*
X772045Y340755D01*
X772099Y340708D01*
X772155Y340664D01*
X772214Y340623D01*
X772274Y340585D01*
X772337Y340550D01*
X772401Y340519D01*
X772467Y340491D01*
X772534Y340467D01*
X772602Y340446D01*
X772672Y340429D01*
X772742Y340416D01*
X772812Y340407D01*
X772884Y340401D01*
X772955Y340399D01*
X772955Y340400D02*
X774295Y340400D01*
X772686Y340400D02*
X771614Y338255D01*
X767398Y343081D02*
X767330Y343079D01*
X767263Y343073D01*
X767196Y343064D01*
X767129Y343051D01*
X767064Y343034D01*
X766999Y343013D01*
X766936Y342989D01*
X766874Y342961D01*
X766814Y342930D01*
X766756Y342896D01*
X766700Y342858D01*
X766645Y342818D01*
X766594Y342774D01*
X766545Y342727D01*
X766498Y342678D01*
X766454Y342627D01*
X766414Y342572D01*
X766376Y342516D01*
X766342Y342458D01*
X766311Y342398D01*
X766283Y342336D01*
X766259Y342273D01*
X766238Y342208D01*
X766221Y342143D01*
X766208Y342076D01*
X766199Y342009D01*
X766193Y341942D01*
X766191Y341874D01*
X767398Y343081D02*
X767476Y343079D01*
X767554Y343073D01*
X767631Y343063D01*
X767708Y343050D01*
X767784Y343032D01*
X767859Y343011D01*
X767933Y342986D01*
X768005Y342957D01*
X768076Y342925D01*
X768145Y342889D01*
X768213Y342850D01*
X768278Y342807D01*
X768341Y342761D01*
X768402Y342712D01*
X768460Y342660D01*
X768515Y342605D01*
X768568Y342548D01*
X768617Y342488D01*
X768664Y342425D01*
X768707Y342360D01*
X768747Y342294D01*
X768784Y342225D01*
X768817Y342154D01*
X768847Y342082D01*
X768873Y342008D01*
X766593Y340936D02*
X766544Y340985D01*
X766497Y341037D01*
X766454Y341092D01*
X766413Y341149D01*
X766375Y341208D01*
X766341Y341269D01*
X766310Y341332D01*
X766282Y341396D01*
X766258Y341462D01*
X766238Y341528D01*
X766221Y341596D01*
X766208Y341665D01*
X766199Y341734D01*
X766193Y341804D01*
X766191Y341874D01*
X766593Y340936D02*
X768872Y338255D01*
X766191Y338255D01*
X762314Y340400D02*
X760705Y340400D01*
X762314Y340400D02*
X762379Y340402D01*
X762443Y340408D01*
X762507Y340418D01*
X762571Y340431D01*
X762633Y340449D01*
X762694Y340470D01*
X762754Y340494D01*
X762812Y340523D01*
X762869Y340555D01*
X762923Y340590D01*
X762975Y340628D01*
X763025Y340670D01*
X763072Y340714D01*
X763116Y340761D01*
X763158Y340811D01*
X763196Y340863D01*
X763231Y340917D01*
X763263Y340974D01*
X763292Y341032D01*
X763316Y341092D01*
X763337Y341153D01*
X763355Y341215D01*
X763368Y341279D01*
X763378Y341343D01*
X763384Y341407D01*
X763386Y341472D01*
X763386Y341740D01*
X763384Y341811D01*
X763378Y341883D01*
X763369Y341953D01*
X763356Y342023D01*
X763339Y342093D01*
X763318Y342161D01*
X763294Y342228D01*
X763266Y342294D01*
X763235Y342358D01*
X763200Y342421D01*
X763162Y342481D01*
X763121Y342540D01*
X763077Y342596D01*
X763030Y342650D01*
X762981Y342701D01*
X762928Y342749D01*
X762873Y342795D01*
X762816Y342837D01*
X762756Y342877D01*
X762695Y342913D01*
X762631Y342946D01*
X762566Y342975D01*
X762500Y343001D01*
X762432Y343024D01*
X762363Y343043D01*
X762293Y343058D01*
X762223Y343069D01*
X762152Y343077D01*
X762081Y343081D01*
X762009Y343081D01*
X761938Y343077D01*
X761867Y343069D01*
X761797Y343058D01*
X761727Y343043D01*
X761658Y343024D01*
X761590Y343001D01*
X761524Y342975D01*
X761459Y342946D01*
X761395Y342913D01*
X761334Y342877D01*
X761274Y342837D01*
X761217Y342795D01*
X761162Y342749D01*
X761109Y342701D01*
X761060Y342650D01*
X761013Y342596D01*
X760969Y342540D01*
X760928Y342481D01*
X760890Y342421D01*
X760855Y342358D01*
X760824Y342294D01*
X760796Y342228D01*
X760772Y342161D01*
X760751Y342093D01*
X760734Y342023D01*
X760721Y341953D01*
X760712Y341883D01*
X760706Y341811D01*
X760704Y341740D01*
X760705Y341740D02*
X760705Y340400D01*
X760707Y340309D01*
X760713Y340218D01*
X760722Y340128D01*
X760736Y340037D01*
X760753Y339948D01*
X760774Y339860D01*
X760799Y339772D01*
X760828Y339685D01*
X760860Y339600D01*
X760895Y339516D01*
X760935Y339434D01*
X760977Y339354D01*
X761023Y339275D01*
X761073Y339199D01*
X761125Y339125D01*
X761181Y339052D01*
X761240Y338983D01*
X761301Y338916D01*
X761366Y338851D01*
X761433Y338790D01*
X761502Y338731D01*
X761575Y338675D01*
X761649Y338623D01*
X761725Y338573D01*
X761804Y338527D01*
X761884Y338485D01*
X761966Y338445D01*
X762050Y338410D01*
X762135Y338378D01*
X762222Y338349D01*
X762310Y338324D01*
X762398Y338303D01*
X762487Y338286D01*
X762578Y338272D01*
X762668Y338263D01*
X762759Y338257D01*
X762850Y338255D01*
X1243739Y438719D02*
X1244812Y438719D01*
X1244877Y438721D01*
X1244941Y438727D01*
X1245005Y438737D01*
X1245069Y438750D01*
X1245131Y438768D01*
X1245192Y438789D01*
X1245252Y438813D01*
X1245310Y438842D01*
X1245367Y438874D01*
X1245421Y438909D01*
X1245473Y438947D01*
X1245523Y438989D01*
X1245570Y439033D01*
X1245614Y439080D01*
X1245656Y439130D01*
X1245694Y439182D01*
X1245729Y439236D01*
X1245761Y439293D01*
X1245790Y439351D01*
X1245814Y439411D01*
X1245835Y439472D01*
X1245853Y439534D01*
X1245866Y439598D01*
X1245876Y439662D01*
X1245882Y439726D01*
X1245884Y439791D01*
X1245884Y442473D01*
X1245882Y442538D01*
X1245876Y442602D01*
X1245866Y442666D01*
X1245853Y442730D01*
X1245835Y442792D01*
X1245814Y442853D01*
X1245790Y442913D01*
X1245761Y442971D01*
X1245729Y443028D01*
X1245694Y443082D01*
X1245656Y443134D01*
X1245614Y443184D01*
X1245570Y443231D01*
X1245523Y443275D01*
X1245473Y443317D01*
X1245421Y443355D01*
X1245367Y443390D01*
X1245310Y443422D01*
X1245252Y443451D01*
X1245192Y443475D01*
X1245131Y443496D01*
X1245069Y443514D01*
X1245005Y443527D01*
X1244941Y443537D01*
X1244877Y443543D01*
X1244812Y443545D01*
X1243739Y443545D01*
X1239809Y443545D02*
X1239741Y443543D01*
X1239674Y443537D01*
X1239607Y443528D01*
X1239540Y443515D01*
X1239475Y443498D01*
X1239410Y443477D01*
X1239347Y443453D01*
X1239285Y443425D01*
X1239225Y443394D01*
X1239167Y443360D01*
X1239111Y443322D01*
X1239056Y443282D01*
X1239005Y443238D01*
X1238956Y443191D01*
X1238909Y443142D01*
X1238865Y443091D01*
X1238825Y443036D01*
X1238787Y442980D01*
X1238753Y442922D01*
X1238722Y442862D01*
X1238694Y442800D01*
X1238670Y442737D01*
X1238649Y442672D01*
X1238632Y442607D01*
X1238619Y442540D01*
X1238610Y442473D01*
X1238604Y442406D01*
X1238602Y442338D01*
X1239809Y443545D02*
X1239887Y443543D01*
X1239965Y443537D01*
X1240042Y443527D01*
X1240119Y443514D01*
X1240195Y443496D01*
X1240270Y443475D01*
X1240344Y443450D01*
X1240416Y443421D01*
X1240487Y443389D01*
X1240556Y443353D01*
X1240624Y443314D01*
X1240689Y443271D01*
X1240752Y443225D01*
X1240813Y443176D01*
X1240871Y443124D01*
X1240926Y443069D01*
X1240979Y443012D01*
X1241028Y442952D01*
X1241075Y442889D01*
X1241118Y442824D01*
X1241158Y442758D01*
X1241195Y442689D01*
X1241228Y442618D01*
X1241258Y442546D01*
X1241284Y442472D01*
X1239004Y441400D02*
X1238955Y441449D01*
X1238908Y441501D01*
X1238865Y441556D01*
X1238824Y441613D01*
X1238786Y441672D01*
X1238752Y441733D01*
X1238721Y441796D01*
X1238693Y441860D01*
X1238669Y441926D01*
X1238649Y441992D01*
X1238632Y442060D01*
X1238619Y442129D01*
X1238610Y442198D01*
X1238604Y442268D01*
X1238602Y442338D01*
X1239004Y441400D02*
X1241283Y438719D01*
X1238602Y438719D01*
X1235797Y441400D02*
X1234188Y441400D01*
X1234123Y441398D01*
X1234059Y441392D01*
X1233995Y441382D01*
X1233931Y441369D01*
X1233869Y441351D01*
X1233808Y441330D01*
X1233748Y441306D01*
X1233690Y441277D01*
X1233633Y441245D01*
X1233579Y441210D01*
X1233527Y441172D01*
X1233477Y441130D01*
X1233430Y441086D01*
X1233386Y441039D01*
X1233344Y440989D01*
X1233306Y440937D01*
X1233271Y440883D01*
X1233239Y440826D01*
X1233210Y440768D01*
X1233186Y440708D01*
X1233165Y440647D01*
X1233147Y440585D01*
X1233134Y440521D01*
X1233124Y440457D01*
X1233118Y440393D01*
X1233116Y440328D01*
X1233116Y440060D01*
X1233115Y440060D02*
X1233117Y439989D01*
X1233123Y439917D01*
X1233132Y439847D01*
X1233145Y439777D01*
X1233162Y439707D01*
X1233183Y439639D01*
X1233207Y439572D01*
X1233235Y439506D01*
X1233266Y439442D01*
X1233301Y439379D01*
X1233339Y439319D01*
X1233380Y439260D01*
X1233424Y439204D01*
X1233471Y439150D01*
X1233520Y439099D01*
X1233573Y439051D01*
X1233628Y439005D01*
X1233685Y438963D01*
X1233745Y438923D01*
X1233806Y438887D01*
X1233870Y438854D01*
X1233935Y438825D01*
X1234001Y438799D01*
X1234069Y438776D01*
X1234138Y438757D01*
X1234208Y438742D01*
X1234278Y438731D01*
X1234349Y438723D01*
X1234420Y438719D01*
X1234492Y438719D01*
X1234563Y438723D01*
X1234634Y438731D01*
X1234704Y438742D01*
X1234774Y438757D01*
X1234843Y438776D01*
X1234911Y438799D01*
X1234977Y438825D01*
X1235042Y438854D01*
X1235106Y438887D01*
X1235167Y438923D01*
X1235227Y438963D01*
X1235284Y439005D01*
X1235339Y439051D01*
X1235392Y439099D01*
X1235441Y439150D01*
X1235488Y439204D01*
X1235532Y439260D01*
X1235573Y439319D01*
X1235611Y439379D01*
X1235646Y439442D01*
X1235677Y439506D01*
X1235705Y439572D01*
X1235729Y439639D01*
X1235750Y439707D01*
X1235767Y439777D01*
X1235780Y439847D01*
X1235789Y439917D01*
X1235795Y439989D01*
X1235797Y440060D01*
X1235797Y441400D01*
X1235795Y441491D01*
X1235789Y441582D01*
X1235780Y441672D01*
X1235766Y441763D01*
X1235749Y441852D01*
X1235728Y441940D01*
X1235703Y442028D01*
X1235674Y442115D01*
X1235642Y442200D01*
X1235607Y442284D01*
X1235567Y442366D01*
X1235525Y442446D01*
X1235479Y442525D01*
X1235429Y442601D01*
X1235377Y442675D01*
X1235321Y442748D01*
X1235262Y442817D01*
X1235201Y442884D01*
X1235136Y442949D01*
X1235069Y443010D01*
X1235000Y443069D01*
X1234927Y443125D01*
X1234853Y443177D01*
X1234777Y443227D01*
X1234698Y443273D01*
X1234618Y443315D01*
X1234536Y443355D01*
X1234452Y443390D01*
X1234367Y443422D01*
X1234280Y443451D01*
X1234192Y443476D01*
X1234104Y443497D01*
X1234015Y443514D01*
X1233924Y443528D01*
X1233834Y443537D01*
X1233743Y443543D01*
X1233652Y443545D01*
X987781Y451705D02*
X982955Y451705D01*
X987781Y451705D02*
X987781Y453046D01*
X987779Y453117D01*
X987773Y453189D01*
X987764Y453259D01*
X987751Y453329D01*
X987734Y453399D01*
X987713Y453467D01*
X987689Y453534D01*
X987661Y453600D01*
X987630Y453664D01*
X987595Y453727D01*
X987557Y453787D01*
X987516Y453846D01*
X987472Y453902D01*
X987425Y453956D01*
X987376Y454007D01*
X987323Y454055D01*
X987268Y454101D01*
X987211Y454143D01*
X987151Y454183D01*
X987090Y454219D01*
X987026Y454252D01*
X986961Y454281D01*
X986895Y454307D01*
X986827Y454330D01*
X986758Y454349D01*
X986688Y454364D01*
X986618Y454375D01*
X986547Y454383D01*
X986476Y454387D01*
X986404Y454387D01*
X986333Y454383D01*
X986262Y454375D01*
X986192Y454364D01*
X986122Y454349D01*
X986053Y454330D01*
X985985Y454307D01*
X985919Y454281D01*
X985854Y454252D01*
X985790Y454219D01*
X985729Y454183D01*
X985669Y454143D01*
X985612Y454101D01*
X985557Y454055D01*
X985504Y454007D01*
X985455Y453956D01*
X985408Y453902D01*
X985364Y453846D01*
X985323Y453787D01*
X985285Y453727D01*
X985250Y453664D01*
X985219Y453600D01*
X985191Y453534D01*
X985167Y453467D01*
X985146Y453399D01*
X985129Y453329D01*
X985116Y453259D01*
X985107Y453189D01*
X985101Y453117D01*
X985099Y453046D01*
X985100Y453046D02*
X985100Y451705D01*
X985100Y453314D02*
X982955Y454386D01*
X982955Y457128D02*
X982955Y458468D01*
X982957Y458539D01*
X982963Y458611D01*
X982972Y458681D01*
X982985Y458751D01*
X983002Y458821D01*
X983023Y458889D01*
X983047Y458956D01*
X983075Y459022D01*
X983106Y459086D01*
X983141Y459149D01*
X983179Y459209D01*
X983220Y459268D01*
X983264Y459324D01*
X983311Y459378D01*
X983360Y459429D01*
X983413Y459477D01*
X983468Y459523D01*
X983525Y459565D01*
X983585Y459605D01*
X983646Y459641D01*
X983710Y459674D01*
X983775Y459703D01*
X983841Y459729D01*
X983909Y459752D01*
X983978Y459771D01*
X984048Y459786D01*
X984118Y459797D01*
X984189Y459805D01*
X984260Y459809D01*
X984332Y459809D01*
X984403Y459805D01*
X984474Y459797D01*
X984544Y459786D01*
X984614Y459771D01*
X984683Y459752D01*
X984751Y459729D01*
X984817Y459703D01*
X984882Y459674D01*
X984946Y459641D01*
X985007Y459605D01*
X985067Y459565D01*
X985124Y459523D01*
X985179Y459477D01*
X985232Y459429D01*
X985281Y459378D01*
X985328Y459324D01*
X985372Y459268D01*
X985413Y459209D01*
X985451Y459149D01*
X985486Y459086D01*
X985517Y459022D01*
X985545Y458956D01*
X985569Y458889D01*
X985590Y458821D01*
X985607Y458751D01*
X985620Y458681D01*
X985629Y458611D01*
X985635Y458539D01*
X985637Y458468D01*
X987781Y458736D02*
X987781Y457128D01*
X987781Y458736D02*
X987779Y458801D01*
X987773Y458865D01*
X987763Y458929D01*
X987750Y458993D01*
X987732Y459055D01*
X987711Y459116D01*
X987687Y459176D01*
X987658Y459234D01*
X987626Y459291D01*
X987591Y459345D01*
X987553Y459397D01*
X987511Y459447D01*
X987467Y459494D01*
X987420Y459538D01*
X987370Y459580D01*
X987318Y459618D01*
X987264Y459653D01*
X987207Y459685D01*
X987149Y459714D01*
X987089Y459738D01*
X987028Y459759D01*
X986966Y459777D01*
X986902Y459790D01*
X986838Y459800D01*
X986774Y459806D01*
X986709Y459808D01*
X986644Y459806D01*
X986580Y459800D01*
X986516Y459790D01*
X986452Y459777D01*
X986390Y459759D01*
X986329Y459738D01*
X986269Y459714D01*
X986211Y459685D01*
X986154Y459653D01*
X986100Y459618D01*
X986048Y459580D01*
X985998Y459538D01*
X985951Y459494D01*
X985907Y459447D01*
X985865Y459397D01*
X985827Y459345D01*
X985792Y459291D01*
X985760Y459234D01*
X985731Y459176D01*
X985707Y459116D01*
X985686Y459055D01*
X985668Y458993D01*
X985655Y458929D01*
X985645Y458865D01*
X985639Y458801D01*
X985637Y458736D01*
X985636Y458736D02*
X985636Y457664D01*
X985636Y462614D02*
X985636Y464223D01*
X985634Y464288D01*
X985628Y464352D01*
X985618Y464416D01*
X985605Y464480D01*
X985587Y464542D01*
X985566Y464603D01*
X985542Y464663D01*
X985513Y464721D01*
X985481Y464778D01*
X985446Y464832D01*
X985408Y464884D01*
X985366Y464934D01*
X985322Y464981D01*
X985275Y465025D01*
X985225Y465067D01*
X985173Y465105D01*
X985119Y465140D01*
X985062Y465172D01*
X985004Y465201D01*
X984944Y465225D01*
X984883Y465246D01*
X984821Y465264D01*
X984757Y465277D01*
X984693Y465287D01*
X984629Y465293D01*
X984564Y465295D01*
X984296Y465295D01*
X984296Y465296D02*
X984225Y465294D01*
X984153Y465288D01*
X984083Y465279D01*
X984013Y465266D01*
X983943Y465249D01*
X983875Y465228D01*
X983808Y465204D01*
X983742Y465176D01*
X983678Y465145D01*
X983615Y465110D01*
X983555Y465072D01*
X983496Y465031D01*
X983440Y464987D01*
X983386Y464940D01*
X983335Y464891D01*
X983287Y464838D01*
X983241Y464783D01*
X983199Y464726D01*
X983159Y464666D01*
X983123Y464605D01*
X983090Y464541D01*
X983061Y464476D01*
X983035Y464410D01*
X983012Y464342D01*
X982993Y464273D01*
X982978Y464203D01*
X982967Y464133D01*
X982959Y464062D01*
X982955Y463991D01*
X982955Y463919D01*
X982959Y463848D01*
X982967Y463777D01*
X982978Y463707D01*
X982993Y463637D01*
X983012Y463568D01*
X983035Y463500D01*
X983061Y463434D01*
X983090Y463369D01*
X983123Y463305D01*
X983159Y463244D01*
X983199Y463184D01*
X983241Y463127D01*
X983287Y463072D01*
X983335Y463019D01*
X983386Y462970D01*
X983440Y462923D01*
X983496Y462879D01*
X983555Y462838D01*
X983615Y462800D01*
X983678Y462765D01*
X983742Y462734D01*
X983808Y462706D01*
X983875Y462682D01*
X983943Y462661D01*
X984013Y462644D01*
X984083Y462631D01*
X984153Y462622D01*
X984225Y462616D01*
X984296Y462614D01*
X985636Y462614D01*
X985727Y462616D01*
X985818Y462622D01*
X985908Y462631D01*
X985999Y462645D01*
X986088Y462662D01*
X986176Y462683D01*
X986264Y462708D01*
X986351Y462737D01*
X986436Y462769D01*
X986520Y462804D01*
X986602Y462844D01*
X986682Y462886D01*
X986761Y462932D01*
X986837Y462982D01*
X986911Y463034D01*
X986984Y463090D01*
X987053Y463149D01*
X987120Y463210D01*
X987185Y463275D01*
X987246Y463342D01*
X987305Y463411D01*
X987361Y463483D01*
X987413Y463558D01*
X987463Y463634D01*
X987509Y463713D01*
X987551Y463793D01*
X987591Y463875D01*
X987626Y463959D01*
X987658Y464044D01*
X987687Y464131D01*
X987712Y464218D01*
X987733Y464307D01*
X987750Y464396D01*
X987764Y464487D01*
X987773Y464577D01*
X987779Y464668D01*
X987781Y464759D01*
X924295Y601919D02*
X924295Y606745D01*
X922955Y606745D01*
X922884Y606743D01*
X922812Y606737D01*
X922742Y606728D01*
X922672Y606715D01*
X922602Y606698D01*
X922534Y606677D01*
X922467Y606653D01*
X922401Y606625D01*
X922337Y606594D01*
X922274Y606559D01*
X922214Y606521D01*
X922155Y606480D01*
X922099Y606436D01*
X922045Y606389D01*
X921994Y606340D01*
X921946Y606287D01*
X921900Y606232D01*
X921858Y606175D01*
X921818Y606115D01*
X921782Y606054D01*
X921749Y605990D01*
X921720Y605925D01*
X921694Y605859D01*
X921671Y605791D01*
X921652Y605722D01*
X921637Y605652D01*
X921626Y605582D01*
X921618Y605511D01*
X921614Y605440D01*
X921614Y605368D01*
X921618Y605297D01*
X921626Y605226D01*
X921637Y605156D01*
X921652Y605086D01*
X921671Y605017D01*
X921694Y604949D01*
X921720Y604883D01*
X921749Y604818D01*
X921782Y604754D01*
X921818Y604693D01*
X921858Y604633D01*
X921900Y604576D01*
X921946Y604521D01*
X921994Y604468D01*
X922045Y604419D01*
X922099Y604372D01*
X922155Y604328D01*
X922214Y604287D01*
X922274Y604249D01*
X922337Y604214D01*
X922401Y604183D01*
X922467Y604155D01*
X922534Y604131D01*
X922602Y604110D01*
X922672Y604093D01*
X922742Y604080D01*
X922812Y604071D01*
X922884Y604065D01*
X922955Y604063D01*
X922955Y604064D02*
X924295Y604064D01*
X922686Y604064D02*
X921614Y601919D01*
X918872Y601919D02*
X917532Y601919D01*
X917461Y601921D01*
X917389Y601927D01*
X917319Y601936D01*
X917249Y601949D01*
X917179Y601966D01*
X917111Y601987D01*
X917044Y602011D01*
X916978Y602039D01*
X916914Y602070D01*
X916851Y602105D01*
X916791Y602143D01*
X916732Y602184D01*
X916676Y602228D01*
X916622Y602275D01*
X916571Y602324D01*
X916523Y602377D01*
X916477Y602432D01*
X916435Y602489D01*
X916395Y602549D01*
X916359Y602610D01*
X916326Y602674D01*
X916297Y602739D01*
X916271Y602805D01*
X916248Y602873D01*
X916229Y602942D01*
X916214Y603012D01*
X916203Y603082D01*
X916195Y603153D01*
X916191Y603224D01*
X916191Y603296D01*
X916195Y603367D01*
X916203Y603438D01*
X916214Y603508D01*
X916229Y603578D01*
X916248Y603647D01*
X916271Y603715D01*
X916297Y603781D01*
X916326Y603846D01*
X916359Y603910D01*
X916395Y603971D01*
X916435Y604031D01*
X916477Y604088D01*
X916523Y604143D01*
X916571Y604196D01*
X916622Y604245D01*
X916676Y604292D01*
X916732Y604336D01*
X916791Y604377D01*
X916851Y604415D01*
X916914Y604450D01*
X916978Y604481D01*
X917044Y604509D01*
X917111Y604533D01*
X917179Y604554D01*
X917249Y604571D01*
X917319Y604584D01*
X917389Y604593D01*
X917461Y604599D01*
X917532Y604601D01*
X917264Y606745D02*
X918872Y606745D01*
X917264Y606745D02*
X917199Y606743D01*
X917135Y606737D01*
X917071Y606727D01*
X917007Y606714D01*
X916945Y606696D01*
X916884Y606675D01*
X916824Y606651D01*
X916766Y606622D01*
X916709Y606590D01*
X916655Y606555D01*
X916603Y606517D01*
X916553Y606475D01*
X916506Y606431D01*
X916462Y606384D01*
X916420Y606334D01*
X916382Y606282D01*
X916347Y606228D01*
X916315Y606171D01*
X916286Y606113D01*
X916262Y606053D01*
X916241Y605992D01*
X916223Y605930D01*
X916210Y605866D01*
X916200Y605802D01*
X916194Y605738D01*
X916192Y605673D01*
X916194Y605608D01*
X916200Y605544D01*
X916210Y605480D01*
X916223Y605416D01*
X916241Y605354D01*
X916262Y605293D01*
X916286Y605233D01*
X916315Y605175D01*
X916347Y605118D01*
X916382Y605064D01*
X916420Y605012D01*
X916462Y604962D01*
X916506Y604915D01*
X916553Y604871D01*
X916603Y604829D01*
X916655Y604791D01*
X916709Y604756D01*
X916766Y604724D01*
X916824Y604695D01*
X916884Y604671D01*
X916945Y604650D01*
X917007Y604632D01*
X917071Y604619D01*
X917135Y604609D01*
X917199Y604603D01*
X917264Y604601D01*
X917264Y604600D02*
X918336Y604600D01*
X913386Y606209D02*
X913386Y606745D01*
X910705Y606745D01*
X912046Y601919D01*
X1009295Y474245D02*
X1009295Y469419D01*
X1009295Y474245D02*
X1007955Y474245D01*
X1007884Y474243D01*
X1007812Y474237D01*
X1007742Y474228D01*
X1007672Y474215D01*
X1007602Y474198D01*
X1007534Y474177D01*
X1007467Y474153D01*
X1007401Y474125D01*
X1007337Y474094D01*
X1007274Y474059D01*
X1007214Y474021D01*
X1007155Y473980D01*
X1007099Y473936D01*
X1007045Y473889D01*
X1006994Y473840D01*
X1006946Y473787D01*
X1006900Y473732D01*
X1006858Y473675D01*
X1006818Y473615D01*
X1006782Y473554D01*
X1006749Y473490D01*
X1006720Y473425D01*
X1006694Y473359D01*
X1006671Y473291D01*
X1006652Y473222D01*
X1006637Y473152D01*
X1006626Y473082D01*
X1006618Y473011D01*
X1006614Y472940D01*
X1006614Y472868D01*
X1006618Y472797D01*
X1006626Y472726D01*
X1006637Y472656D01*
X1006652Y472586D01*
X1006671Y472517D01*
X1006694Y472449D01*
X1006720Y472383D01*
X1006749Y472318D01*
X1006782Y472254D01*
X1006818Y472193D01*
X1006858Y472133D01*
X1006900Y472076D01*
X1006946Y472021D01*
X1006994Y471968D01*
X1007045Y471919D01*
X1007099Y471872D01*
X1007155Y471828D01*
X1007214Y471787D01*
X1007274Y471749D01*
X1007337Y471714D01*
X1007401Y471683D01*
X1007467Y471655D01*
X1007534Y471631D01*
X1007602Y471610D01*
X1007672Y471593D01*
X1007742Y471580D01*
X1007812Y471571D01*
X1007884Y471565D01*
X1007955Y471563D01*
X1007955Y471564D02*
X1009295Y471564D01*
X1007686Y471564D02*
X1006614Y469419D01*
X1003872Y469419D02*
X1002532Y469419D01*
X1002461Y469421D01*
X1002389Y469427D01*
X1002319Y469436D01*
X1002249Y469449D01*
X1002179Y469466D01*
X1002111Y469487D01*
X1002044Y469511D01*
X1001978Y469539D01*
X1001914Y469570D01*
X1001851Y469605D01*
X1001791Y469643D01*
X1001732Y469684D01*
X1001676Y469728D01*
X1001622Y469775D01*
X1001571Y469824D01*
X1001523Y469877D01*
X1001477Y469932D01*
X1001435Y469989D01*
X1001395Y470049D01*
X1001359Y470110D01*
X1001326Y470174D01*
X1001297Y470239D01*
X1001271Y470305D01*
X1001248Y470373D01*
X1001229Y470442D01*
X1001214Y470512D01*
X1001203Y470582D01*
X1001195Y470653D01*
X1001191Y470724D01*
X1001191Y470796D01*
X1001195Y470867D01*
X1001203Y470938D01*
X1001214Y471008D01*
X1001229Y471078D01*
X1001248Y471147D01*
X1001271Y471215D01*
X1001297Y471281D01*
X1001326Y471346D01*
X1001359Y471410D01*
X1001395Y471471D01*
X1001435Y471531D01*
X1001477Y471588D01*
X1001523Y471643D01*
X1001571Y471696D01*
X1001622Y471745D01*
X1001676Y471792D01*
X1001732Y471836D01*
X1001791Y471877D01*
X1001851Y471915D01*
X1001914Y471950D01*
X1001978Y471981D01*
X1002044Y472009D01*
X1002111Y472033D01*
X1002179Y472054D01*
X1002249Y472071D01*
X1002319Y472084D01*
X1002389Y472093D01*
X1002461Y472099D01*
X1002532Y472101D01*
X1002264Y474245D02*
X1003872Y474245D01*
X1002264Y474245D02*
X1002199Y474243D01*
X1002135Y474237D01*
X1002071Y474227D01*
X1002007Y474214D01*
X1001945Y474196D01*
X1001884Y474175D01*
X1001824Y474151D01*
X1001766Y474122D01*
X1001709Y474090D01*
X1001655Y474055D01*
X1001603Y474017D01*
X1001553Y473975D01*
X1001506Y473931D01*
X1001462Y473884D01*
X1001420Y473834D01*
X1001382Y473782D01*
X1001347Y473728D01*
X1001315Y473671D01*
X1001286Y473613D01*
X1001262Y473553D01*
X1001241Y473492D01*
X1001223Y473430D01*
X1001210Y473366D01*
X1001200Y473302D01*
X1001194Y473238D01*
X1001192Y473173D01*
X1001194Y473108D01*
X1001200Y473044D01*
X1001210Y472980D01*
X1001223Y472916D01*
X1001241Y472854D01*
X1001262Y472793D01*
X1001286Y472733D01*
X1001315Y472675D01*
X1001347Y472618D01*
X1001382Y472564D01*
X1001420Y472512D01*
X1001462Y472462D01*
X1001506Y472415D01*
X1001553Y472371D01*
X1001603Y472329D01*
X1001655Y472291D01*
X1001709Y472256D01*
X1001766Y472224D01*
X1001824Y472195D01*
X1001884Y472171D01*
X1001945Y472150D01*
X1002007Y472132D01*
X1002071Y472119D01*
X1002135Y472109D01*
X1002199Y472103D01*
X1002264Y472101D01*
X1002264Y472100D02*
X1003336Y472100D01*
X996912Y474245D02*
X996844Y474243D01*
X996777Y474237D01*
X996710Y474228D01*
X996643Y474215D01*
X996578Y474198D01*
X996513Y474177D01*
X996450Y474153D01*
X996388Y474125D01*
X996328Y474094D01*
X996270Y474060D01*
X996214Y474022D01*
X996159Y473982D01*
X996108Y473938D01*
X996059Y473891D01*
X996012Y473842D01*
X995968Y473791D01*
X995928Y473736D01*
X995890Y473680D01*
X995856Y473622D01*
X995825Y473562D01*
X995797Y473500D01*
X995773Y473437D01*
X995752Y473372D01*
X995735Y473307D01*
X995722Y473240D01*
X995713Y473173D01*
X995707Y473106D01*
X995705Y473038D01*
X996912Y474245D02*
X996990Y474243D01*
X997068Y474237D01*
X997145Y474227D01*
X997222Y474214D01*
X997298Y474196D01*
X997373Y474175D01*
X997447Y474150D01*
X997519Y474121D01*
X997590Y474089D01*
X997659Y474053D01*
X997727Y474014D01*
X997792Y473971D01*
X997855Y473925D01*
X997916Y473876D01*
X997974Y473824D01*
X998029Y473769D01*
X998082Y473712D01*
X998131Y473652D01*
X998178Y473589D01*
X998221Y473524D01*
X998261Y473458D01*
X998298Y473389D01*
X998331Y473318D01*
X998361Y473246D01*
X998387Y473172D01*
X996107Y472100D02*
X996058Y472149D01*
X996011Y472201D01*
X995968Y472256D01*
X995927Y472313D01*
X995889Y472372D01*
X995855Y472433D01*
X995824Y472496D01*
X995796Y472560D01*
X995772Y472626D01*
X995752Y472692D01*
X995735Y472760D01*
X995722Y472829D01*
X995713Y472898D01*
X995707Y472968D01*
X995705Y473038D01*
X996107Y472100D02*
X998386Y469419D01*
X995705Y469419D01*
X1009766Y470755D02*
X1009766Y475581D01*
X1008425Y475581D01*
X1008355Y475579D01*
X1008285Y475574D01*
X1008215Y475564D01*
X1008146Y475552D01*
X1008078Y475535D01*
X1008011Y475515D01*
X1007944Y475492D01*
X1007880Y475465D01*
X1007816Y475435D01*
X1007755Y475401D01*
X1007695Y475365D01*
X1007637Y475325D01*
X1007581Y475282D01*
X1007528Y475237D01*
X1007477Y475188D01*
X1007428Y475137D01*
X1007383Y475084D01*
X1007340Y475028D01*
X1007300Y474970D01*
X1007264Y474911D01*
X1007230Y474849D01*
X1007200Y474785D01*
X1007173Y474721D01*
X1007150Y474654D01*
X1007130Y474587D01*
X1007113Y474519D01*
X1007101Y474450D01*
X1007091Y474380D01*
X1007086Y474310D01*
X1007084Y474240D01*
X1007085Y474240D02*
X1007085Y472096D01*
X1007084Y472096D02*
X1007086Y472026D01*
X1007091Y471956D01*
X1007101Y471886D01*
X1007113Y471817D01*
X1007130Y471749D01*
X1007150Y471682D01*
X1007173Y471615D01*
X1007200Y471551D01*
X1007230Y471487D01*
X1007264Y471426D01*
X1007300Y471366D01*
X1007340Y471308D01*
X1007383Y471252D01*
X1007428Y471199D01*
X1007477Y471148D01*
X1007528Y471099D01*
X1007581Y471054D01*
X1007637Y471011D01*
X1007695Y470971D01*
X1007755Y470935D01*
X1007816Y470901D01*
X1007880Y470871D01*
X1007944Y470844D01*
X1008011Y470821D01*
X1008078Y470801D01*
X1008146Y470784D01*
X1008215Y470772D01*
X1008285Y470762D01*
X1008355Y470757D01*
X1008425Y470755D01*
X1009766Y470755D01*
X1003914Y470755D02*
X1003914Y475581D01*
X1001233Y470755D01*
X1001233Y475581D01*
X997915Y475581D02*
X997915Y470755D01*
X997915Y475581D02*
X996575Y475581D01*
X996504Y475579D01*
X996432Y475573D01*
X996362Y475564D01*
X996292Y475551D01*
X996222Y475534D01*
X996154Y475513D01*
X996087Y475489D01*
X996021Y475461D01*
X995957Y475430D01*
X995894Y475395D01*
X995834Y475357D01*
X995775Y475316D01*
X995719Y475272D01*
X995665Y475225D01*
X995614Y475176D01*
X995566Y475123D01*
X995520Y475068D01*
X995478Y475011D01*
X995438Y474951D01*
X995402Y474890D01*
X995369Y474826D01*
X995340Y474761D01*
X995314Y474695D01*
X995291Y474627D01*
X995272Y474558D01*
X995257Y474488D01*
X995246Y474418D01*
X995238Y474347D01*
X995234Y474276D01*
X995234Y474204D01*
X995238Y474133D01*
X995246Y474062D01*
X995257Y473992D01*
X995272Y473922D01*
X995291Y473853D01*
X995314Y473785D01*
X995340Y473719D01*
X995369Y473654D01*
X995402Y473590D01*
X995438Y473529D01*
X995478Y473469D01*
X995520Y473412D01*
X995566Y473357D01*
X995614Y473304D01*
X995665Y473255D01*
X995719Y473208D01*
X995775Y473164D01*
X995834Y473123D01*
X995894Y473085D01*
X995957Y473050D01*
X996021Y473019D01*
X996087Y472991D01*
X996154Y472967D01*
X996222Y472946D01*
X996292Y472929D01*
X996362Y472916D01*
X996432Y472907D01*
X996504Y472901D01*
X996575Y472899D01*
X996575Y472900D02*
X997915Y472900D01*
D12*
X584110Y442970D02*
X584110Y732530D01*
X698410Y732530D01*
X698410Y442970D01*
X584110Y442970D01*
D15*
X681900Y440430D02*
X681778Y440428D01*
X681656Y440422D01*
X681534Y440412D01*
X681413Y440399D01*
X681292Y440381D01*
X681172Y440360D01*
X681052Y440334D01*
X680934Y440305D01*
X680816Y440273D01*
X680699Y440236D01*
X680584Y440196D01*
X680470Y440152D01*
X680358Y440104D01*
X680247Y440053D01*
X680138Y439998D01*
X680030Y439940D01*
X679925Y439878D01*
X679822Y439813D01*
X679720Y439745D01*
X679621Y439673D01*
X679525Y439599D01*
X679430Y439521D01*
X679339Y439440D01*
X679249Y439357D01*
X679163Y439271D01*
X679080Y439181D01*
X678999Y439090D01*
X678921Y438995D01*
X678847Y438899D01*
X678775Y438800D01*
X678707Y438698D01*
X678642Y438595D01*
X678580Y438490D01*
X678522Y438382D01*
X678467Y438273D01*
X678416Y438162D01*
X678368Y438050D01*
X678324Y437936D01*
X678284Y437821D01*
X678247Y437704D01*
X678215Y437586D01*
X678186Y437468D01*
X678160Y437348D01*
X678139Y437228D01*
X678121Y437107D01*
X678108Y436986D01*
X678098Y436864D01*
X678092Y436742D01*
X678090Y436620D01*
X678092Y436498D01*
X678098Y436376D01*
X678108Y436254D01*
X678121Y436133D01*
X678139Y436012D01*
X678160Y435892D01*
X678186Y435772D01*
X678215Y435654D01*
X678247Y435536D01*
X678284Y435419D01*
X678324Y435304D01*
X678368Y435190D01*
X678416Y435078D01*
X678467Y434967D01*
X678522Y434858D01*
X678580Y434750D01*
X678642Y434645D01*
X678707Y434542D01*
X678775Y434440D01*
X678847Y434341D01*
X678921Y434245D01*
X678999Y434150D01*
X679080Y434059D01*
X679163Y433969D01*
X679249Y433883D01*
X679339Y433800D01*
X679430Y433719D01*
X679525Y433641D01*
X679621Y433567D01*
X679720Y433495D01*
X679822Y433427D01*
X679925Y433362D01*
X680030Y433300D01*
X680138Y433242D01*
X680247Y433187D01*
X680358Y433136D01*
X680470Y433088D01*
X680584Y433044D01*
X680699Y433004D01*
X680816Y432967D01*
X680934Y432935D01*
X681052Y432906D01*
X681172Y432880D01*
X681292Y432859D01*
X681413Y432841D01*
X681534Y432828D01*
X681656Y432818D01*
X681778Y432812D01*
X681900Y432810D01*
X682022Y432812D01*
X682144Y432818D01*
X682266Y432828D01*
X682387Y432841D01*
X682508Y432859D01*
X682628Y432880D01*
X682748Y432906D01*
X682866Y432935D01*
X682984Y432967D01*
X683101Y433004D01*
X683216Y433044D01*
X683330Y433088D01*
X683442Y433136D01*
X683553Y433187D01*
X683662Y433242D01*
X683770Y433300D01*
X683875Y433362D01*
X683978Y433427D01*
X684080Y433495D01*
X684179Y433567D01*
X684275Y433641D01*
X684370Y433719D01*
X684461Y433800D01*
X684551Y433883D01*
X684637Y433969D01*
X684720Y434059D01*
X684801Y434150D01*
X684879Y434245D01*
X684953Y434341D01*
X685025Y434440D01*
X685093Y434542D01*
X685158Y434645D01*
X685220Y434750D01*
X685278Y434858D01*
X685333Y434967D01*
X685384Y435078D01*
X685432Y435190D01*
X685476Y435304D01*
X685516Y435419D01*
X685553Y435536D01*
X685585Y435654D01*
X685614Y435772D01*
X685640Y435892D01*
X685661Y436012D01*
X685679Y436133D01*
X685692Y436254D01*
X685702Y436376D01*
X685708Y436498D01*
X685710Y436620D01*
X685708Y436742D01*
X685702Y436864D01*
X685692Y436986D01*
X685679Y437107D01*
X685661Y437228D01*
X685640Y437348D01*
X685614Y437468D01*
X685585Y437586D01*
X685553Y437704D01*
X685516Y437821D01*
X685476Y437936D01*
X685432Y438050D01*
X685384Y438162D01*
X685333Y438273D01*
X685278Y438382D01*
X685220Y438490D01*
X685158Y438595D01*
X685093Y438698D01*
X685025Y438800D01*
X684953Y438899D01*
X684879Y438995D01*
X684801Y439090D01*
X684720Y439181D01*
X684637Y439271D01*
X684551Y439357D01*
X684461Y439440D01*
X684370Y439521D01*
X684275Y439599D01*
X684179Y439673D01*
X684080Y439745D01*
X683978Y439813D01*
X683875Y439878D01*
X683770Y439940D01*
X683662Y439998D01*
X683553Y440053D01*
X683442Y440104D01*
X683330Y440152D01*
X683216Y440196D01*
X683101Y440236D01*
X682984Y440273D01*
X682866Y440305D01*
X682748Y440334D01*
X682628Y440360D01*
X682508Y440381D01*
X682387Y440399D01*
X682266Y440412D01*
X682144Y440422D01*
X682022Y440428D01*
X681900Y440430D01*
D13*
X678584Y559344D02*
X687869Y559344D01*
X678584Y559344D02*
X678482Y559342D01*
X678381Y559336D01*
X678280Y559326D01*
X678179Y559313D01*
X678079Y559295D01*
X677980Y559274D01*
X677881Y559249D01*
X677784Y559220D01*
X677687Y559188D01*
X677592Y559152D01*
X677499Y559112D01*
X677407Y559069D01*
X677317Y559022D01*
X677228Y558971D01*
X677142Y558918D01*
X677058Y558861D01*
X676976Y558801D01*
X676896Y558738D01*
X676819Y558672D01*
X676744Y558603D01*
X676672Y558531D01*
X676603Y558456D01*
X676537Y558379D01*
X676474Y558299D01*
X676414Y558217D01*
X676357Y558133D01*
X676304Y558047D01*
X676253Y557958D01*
X676206Y557868D01*
X676163Y557776D01*
X676123Y557683D01*
X676087Y557588D01*
X676055Y557491D01*
X676026Y557394D01*
X676001Y557295D01*
X675980Y557196D01*
X675962Y557096D01*
X675949Y556995D01*
X675939Y556894D01*
X675933Y556793D01*
X675931Y556691D01*
X675931Y555365D01*
X682563Y564482D02*
X682563Y568462D01*
X682561Y568564D01*
X682555Y568665D01*
X682545Y568766D01*
X682532Y568867D01*
X682514Y568967D01*
X682493Y569066D01*
X682468Y569165D01*
X682439Y569262D01*
X682407Y569359D01*
X682371Y569454D01*
X682331Y569547D01*
X682288Y569639D01*
X682241Y569729D01*
X682190Y569818D01*
X682137Y569904D01*
X682080Y569988D01*
X682020Y570070D01*
X681957Y570150D01*
X681891Y570227D01*
X681822Y570302D01*
X681750Y570374D01*
X681675Y570443D01*
X681598Y570509D01*
X681518Y570572D01*
X681436Y570632D01*
X681352Y570689D01*
X681266Y570742D01*
X681177Y570793D01*
X681087Y570840D01*
X680995Y570883D01*
X680902Y570923D01*
X680807Y570959D01*
X680710Y570991D01*
X680613Y571020D01*
X680514Y571045D01*
X680415Y571066D01*
X680315Y571084D01*
X680214Y571097D01*
X680113Y571107D01*
X680012Y571113D01*
X679910Y571115D01*
X679247Y571115D01*
X679133Y571113D01*
X679018Y571107D01*
X678904Y571097D01*
X678791Y571083D01*
X678677Y571066D01*
X678565Y571044D01*
X678453Y571019D01*
X678343Y570989D01*
X678233Y570956D01*
X678125Y570919D01*
X678018Y570879D01*
X677912Y570834D01*
X677808Y570787D01*
X677706Y570735D01*
X677606Y570680D01*
X677507Y570622D01*
X677411Y570560D01*
X677316Y570495D01*
X677225Y570427D01*
X677135Y570355D01*
X677048Y570281D01*
X676964Y570204D01*
X676882Y570123D01*
X676803Y570040D01*
X676727Y569955D01*
X676654Y569866D01*
X676585Y569776D01*
X676518Y569683D01*
X676455Y569587D01*
X676395Y569490D01*
X676338Y569390D01*
X676285Y569289D01*
X676235Y569186D01*
X676189Y569081D01*
X676146Y568975D01*
X676108Y568867D01*
X676073Y568758D01*
X676042Y568648D01*
X676014Y568537D01*
X675991Y568425D01*
X675971Y568312D01*
X675955Y568199D01*
X675943Y568085D01*
X675935Y567971D01*
X675931Y567856D01*
X675931Y567742D01*
X675935Y567627D01*
X675943Y567513D01*
X675955Y567399D01*
X675971Y567286D01*
X675991Y567173D01*
X676014Y567061D01*
X676042Y566950D01*
X676073Y566840D01*
X676108Y566731D01*
X676146Y566623D01*
X676189Y566517D01*
X676235Y566412D01*
X676285Y566309D01*
X676338Y566208D01*
X676395Y566108D01*
X676455Y566011D01*
X676518Y565915D01*
X676585Y565822D01*
X676654Y565732D01*
X676727Y565643D01*
X676803Y565558D01*
X676882Y565475D01*
X676964Y565394D01*
X677048Y565317D01*
X677135Y565243D01*
X677225Y565171D01*
X677316Y565103D01*
X677411Y565038D01*
X677507Y564976D01*
X677606Y564918D01*
X677706Y564863D01*
X677808Y564811D01*
X677912Y564764D01*
X678018Y564719D01*
X678125Y564679D01*
X678233Y564642D01*
X678343Y564609D01*
X678453Y564579D01*
X678565Y564554D01*
X678677Y564532D01*
X678791Y564515D01*
X678904Y564501D01*
X679018Y564491D01*
X679133Y564485D01*
X679247Y564483D01*
X679247Y564482D02*
X682563Y564482D01*
X682707Y564484D01*
X682850Y564490D01*
X682994Y564500D01*
X683137Y564513D01*
X683279Y564531D01*
X683421Y564552D01*
X683563Y564577D01*
X683704Y564606D01*
X683844Y564639D01*
X683983Y564675D01*
X684120Y564716D01*
X684257Y564760D01*
X684393Y564807D01*
X684527Y564859D01*
X684660Y564914D01*
X684791Y564972D01*
X684921Y565034D01*
X685048Y565100D01*
X685174Y565169D01*
X685299Y565242D01*
X685421Y565317D01*
X685541Y565396D01*
X685658Y565479D01*
X685774Y565564D01*
X685887Y565652D01*
X685998Y565744D01*
X686106Y565838D01*
X686212Y565936D01*
X686315Y566036D01*
X686415Y566139D01*
X686513Y566245D01*
X686607Y566353D01*
X686699Y566464D01*
X686787Y566577D01*
X686872Y566692D01*
X686955Y566810D01*
X687034Y566930D01*
X687109Y567052D01*
X687182Y567177D01*
X687251Y567303D01*
X687316Y567430D01*
X687379Y567560D01*
X687437Y567691D01*
X687492Y567824D01*
X687544Y567958D01*
X687591Y568094D01*
X687635Y568231D01*
X687676Y568368D01*
X687712Y568507D01*
X687745Y568647D01*
X687774Y568788D01*
X687799Y568930D01*
X687820Y569072D01*
X687838Y569214D01*
X687851Y569357D01*
X687861Y569501D01*
X687867Y569644D01*
X687869Y569788D01*
X685216Y570859D02*
X687869Y574175D01*
X675931Y574175D01*
X675931Y570859D02*
X675931Y577491D01*
X681900Y582289D02*
X682135Y582292D01*
X682370Y582300D01*
X682604Y582314D01*
X682838Y582334D01*
X683072Y582359D01*
X683304Y582390D01*
X683536Y582426D01*
X683768Y582468D01*
X683998Y582515D01*
X684226Y582568D01*
X684454Y582626D01*
X684680Y582690D01*
X684904Y582759D01*
X685127Y582833D01*
X685348Y582913D01*
X685567Y582998D01*
X685784Y583088D01*
X685999Y583183D01*
X686211Y583284D01*
X686303Y583317D01*
X686394Y583355D01*
X686483Y583396D01*
X686571Y583440D01*
X686656Y583488D01*
X686740Y583539D01*
X686822Y583594D01*
X686901Y583652D01*
X686978Y583713D01*
X687052Y583777D01*
X687124Y583844D01*
X687193Y583914D01*
X687259Y583986D01*
X687323Y584061D01*
X687383Y584139D01*
X687440Y584219D01*
X687494Y584301D01*
X687544Y584385D01*
X687591Y584471D01*
X687635Y584559D01*
X687675Y584649D01*
X687712Y584740D01*
X687744Y584833D01*
X687773Y584927D01*
X687799Y585021D01*
X687820Y585117D01*
X687838Y585214D01*
X687851Y585311D01*
X687861Y585409D01*
X687867Y585507D01*
X687869Y585605D01*
X687867Y585703D01*
X687861Y585801D01*
X687851Y585899D01*
X687838Y585996D01*
X687820Y586093D01*
X687799Y586189D01*
X687773Y586283D01*
X687744Y586377D01*
X687712Y586470D01*
X687675Y586561D01*
X687635Y586651D01*
X687591Y586739D01*
X687544Y586825D01*
X687494Y586909D01*
X687440Y586991D01*
X687383Y587071D01*
X687323Y587149D01*
X687259Y587224D01*
X687193Y587296D01*
X687124Y587366D01*
X687052Y587433D01*
X686978Y587497D01*
X686901Y587558D01*
X686822Y587616D01*
X686740Y587671D01*
X686656Y587722D01*
X686571Y587770D01*
X686483Y587814D01*
X686394Y587855D01*
X686303Y587893D01*
X686211Y587926D01*
X686211Y587927D02*
X685999Y588028D01*
X685784Y588123D01*
X685567Y588213D01*
X685348Y588298D01*
X685127Y588378D01*
X684905Y588452D01*
X684680Y588521D01*
X684454Y588585D01*
X684226Y588643D01*
X683998Y588696D01*
X683768Y588743D01*
X683536Y588785D01*
X683304Y588821D01*
X683072Y588852D01*
X682838Y588877D01*
X682604Y588897D01*
X682370Y588911D01*
X682135Y588919D01*
X681900Y588922D01*
X681900Y582289D02*
X681665Y582292D01*
X681430Y582300D01*
X681196Y582314D01*
X680962Y582334D01*
X680728Y582359D01*
X680496Y582390D01*
X680264Y582426D01*
X680033Y582468D01*
X679802Y582515D01*
X679574Y582568D01*
X679346Y582626D01*
X679120Y582690D01*
X678896Y582759D01*
X678673Y582833D01*
X678452Y582913D01*
X678233Y582998D01*
X678016Y583088D01*
X677801Y583183D01*
X677589Y583284D01*
X677497Y583317D01*
X677406Y583355D01*
X677317Y583396D01*
X677229Y583440D01*
X677144Y583488D01*
X677060Y583540D01*
X676978Y583594D01*
X676899Y583652D01*
X676822Y583713D01*
X676748Y583777D01*
X676676Y583844D01*
X676607Y583914D01*
X676541Y583986D01*
X676477Y584061D01*
X676417Y584139D01*
X676360Y584219D01*
X676306Y584301D01*
X676256Y584385D01*
X676209Y584471D01*
X676165Y584559D01*
X676125Y584649D01*
X676088Y584740D01*
X676056Y584833D01*
X676027Y584927D01*
X676001Y585021D01*
X675980Y585117D01*
X675962Y585214D01*
X675949Y585311D01*
X675939Y585409D01*
X675933Y585507D01*
X675931Y585605D01*
X677589Y587926D02*
X677801Y588027D01*
X678016Y588122D01*
X678233Y588212D01*
X678452Y588297D01*
X678673Y588377D01*
X678896Y588451D01*
X679120Y588520D01*
X679346Y588584D01*
X679574Y588642D01*
X679802Y588695D01*
X680032Y588742D01*
X680264Y588784D01*
X680496Y588820D01*
X680728Y588851D01*
X680962Y588876D01*
X681196Y588896D01*
X681430Y588910D01*
X681665Y588918D01*
X681900Y588921D01*
X677589Y587926D02*
X677497Y587893D01*
X677406Y587855D01*
X677317Y587814D01*
X677229Y587770D01*
X677144Y587722D01*
X677060Y587671D01*
X676978Y587616D01*
X676899Y587558D01*
X676822Y587497D01*
X676748Y587433D01*
X676676Y587366D01*
X676607Y587296D01*
X676541Y587224D01*
X676477Y587149D01*
X676417Y587071D01*
X676360Y586991D01*
X676306Y586909D01*
X676256Y586825D01*
X676209Y586739D01*
X676165Y586651D01*
X676125Y586561D01*
X676088Y586470D01*
X676056Y586377D01*
X676027Y586283D01*
X676001Y586189D01*
X675980Y586093D01*
X675962Y585996D01*
X675949Y585899D01*
X675939Y585801D01*
X675933Y585703D01*
X675931Y585605D01*
X678584Y582952D02*
X685216Y588258D01*
X687869Y596372D02*
X678584Y593719D01*
X678584Y600351D01*
X681237Y598361D02*
X675931Y598361D01*
X681900Y605149D02*
X682135Y605152D01*
X682370Y605160D01*
X682604Y605174D01*
X682838Y605194D01*
X683072Y605219D01*
X683304Y605250D01*
X683536Y605286D01*
X683768Y605328D01*
X683998Y605375D01*
X684226Y605428D01*
X684454Y605486D01*
X684680Y605550D01*
X684904Y605619D01*
X685127Y605693D01*
X685348Y605773D01*
X685567Y605858D01*
X685784Y605948D01*
X685999Y606043D01*
X686211Y606144D01*
X686303Y606177D01*
X686394Y606215D01*
X686483Y606256D01*
X686571Y606300D01*
X686656Y606348D01*
X686740Y606399D01*
X686822Y606454D01*
X686901Y606512D01*
X686978Y606573D01*
X687052Y606637D01*
X687124Y606704D01*
X687193Y606774D01*
X687259Y606846D01*
X687323Y606921D01*
X687383Y606999D01*
X687440Y607079D01*
X687494Y607161D01*
X687544Y607245D01*
X687591Y607331D01*
X687635Y607419D01*
X687675Y607509D01*
X687712Y607600D01*
X687744Y607693D01*
X687773Y607787D01*
X687799Y607881D01*
X687820Y607977D01*
X687838Y608074D01*
X687851Y608171D01*
X687861Y608269D01*
X687867Y608367D01*
X687869Y608465D01*
X687867Y608563D01*
X687861Y608661D01*
X687851Y608759D01*
X687838Y608856D01*
X687820Y608953D01*
X687799Y609049D01*
X687773Y609143D01*
X687744Y609237D01*
X687712Y609330D01*
X687675Y609421D01*
X687635Y609511D01*
X687591Y609599D01*
X687544Y609685D01*
X687494Y609769D01*
X687440Y609851D01*
X687383Y609931D01*
X687323Y610009D01*
X687259Y610084D01*
X687193Y610156D01*
X687124Y610226D01*
X687052Y610293D01*
X686978Y610357D01*
X686901Y610418D01*
X686822Y610476D01*
X686740Y610531D01*
X686656Y610582D01*
X686571Y610630D01*
X686483Y610674D01*
X686394Y610715D01*
X686303Y610753D01*
X686211Y610786D01*
X685999Y610887D01*
X685784Y610982D01*
X685567Y611072D01*
X685348Y611157D01*
X685127Y611237D01*
X684905Y611311D01*
X684680Y611380D01*
X684454Y611444D01*
X684226Y611502D01*
X683998Y611555D01*
X683768Y611602D01*
X683536Y611644D01*
X683304Y611680D01*
X683072Y611711D01*
X682838Y611736D01*
X682604Y611756D01*
X682370Y611770D01*
X682135Y611778D01*
X681900Y611781D01*
X681900Y605149D02*
X681665Y605152D01*
X681430Y605160D01*
X681196Y605174D01*
X680962Y605194D01*
X680728Y605219D01*
X680496Y605250D01*
X680264Y605286D01*
X680033Y605328D01*
X679802Y605375D01*
X679574Y605428D01*
X679346Y605486D01*
X679120Y605550D01*
X678896Y605619D01*
X678673Y605693D01*
X678452Y605773D01*
X678233Y605858D01*
X678016Y605948D01*
X677801Y606043D01*
X677589Y606144D01*
X677497Y606177D01*
X677406Y606215D01*
X677317Y606256D01*
X677229Y606300D01*
X677144Y606348D01*
X677060Y606400D01*
X676978Y606454D01*
X676899Y606512D01*
X676822Y606573D01*
X676748Y606637D01*
X676676Y606704D01*
X676607Y606774D01*
X676541Y606846D01*
X676477Y606921D01*
X676417Y606999D01*
X676360Y607079D01*
X676306Y607161D01*
X676256Y607245D01*
X676209Y607331D01*
X676165Y607419D01*
X676125Y607509D01*
X676088Y607600D01*
X676056Y607693D01*
X676027Y607787D01*
X676001Y607881D01*
X675980Y607977D01*
X675962Y608074D01*
X675949Y608171D01*
X675939Y608269D01*
X675933Y608367D01*
X675931Y608465D01*
X677589Y610786D02*
X677801Y610887D01*
X678016Y610982D01*
X678233Y611072D01*
X678452Y611157D01*
X678673Y611237D01*
X678896Y611311D01*
X679120Y611380D01*
X679346Y611444D01*
X679574Y611502D01*
X679802Y611555D01*
X680032Y611602D01*
X680264Y611644D01*
X680496Y611680D01*
X680728Y611711D01*
X680962Y611736D01*
X681196Y611756D01*
X681430Y611770D01*
X681665Y611778D01*
X681900Y611781D01*
X677589Y610786D02*
X677497Y610753D01*
X677406Y610715D01*
X677317Y610674D01*
X677229Y610630D01*
X677144Y610582D01*
X677060Y610531D01*
X676978Y610476D01*
X676899Y610418D01*
X676822Y610357D01*
X676748Y610293D01*
X676676Y610226D01*
X676607Y610156D01*
X676541Y610084D01*
X676477Y610009D01*
X676417Y609931D01*
X676360Y609851D01*
X676306Y609769D01*
X676256Y609685D01*
X676209Y609599D01*
X676165Y609511D01*
X676125Y609421D01*
X676088Y609330D01*
X676056Y609237D01*
X676027Y609143D01*
X676001Y609049D01*
X675980Y608953D01*
X675962Y608856D01*
X675949Y608759D01*
X675939Y608661D01*
X675933Y608563D01*
X675931Y608465D01*
X678584Y605812D02*
X685216Y611118D01*
X686543Y616579D02*
X687869Y616579D01*
X687869Y623211D01*
X675931Y619895D01*
X678584Y628009D02*
X687869Y630662D01*
X678584Y628009D02*
X678584Y634641D01*
X681237Y632651D02*
X675931Y632651D01*
X680574Y639538D02*
X680574Y647496D01*
X678584Y652393D02*
X687869Y655046D01*
X678584Y652393D02*
X678584Y659025D01*
X681237Y657035D02*
X675931Y657035D01*
D12*
X584110Y412330D02*
X584110Y122770D01*
X584110Y412330D02*
X698410Y412330D01*
X698410Y122770D01*
X584110Y122770D01*
D15*
X681900Y120230D02*
X681778Y120228D01*
X681656Y120222D01*
X681534Y120212D01*
X681413Y120199D01*
X681292Y120181D01*
X681172Y120160D01*
X681052Y120134D01*
X680934Y120105D01*
X680816Y120073D01*
X680699Y120036D01*
X680584Y119996D01*
X680470Y119952D01*
X680358Y119904D01*
X680247Y119853D01*
X680138Y119798D01*
X680030Y119740D01*
X679925Y119678D01*
X679822Y119613D01*
X679720Y119545D01*
X679621Y119473D01*
X679525Y119399D01*
X679430Y119321D01*
X679339Y119240D01*
X679249Y119157D01*
X679163Y119071D01*
X679080Y118981D01*
X678999Y118890D01*
X678921Y118795D01*
X678847Y118699D01*
X678775Y118600D01*
X678707Y118498D01*
X678642Y118395D01*
X678580Y118290D01*
X678522Y118182D01*
X678467Y118073D01*
X678416Y117962D01*
X678368Y117850D01*
X678324Y117736D01*
X678284Y117621D01*
X678247Y117504D01*
X678215Y117386D01*
X678186Y117268D01*
X678160Y117148D01*
X678139Y117028D01*
X678121Y116907D01*
X678108Y116786D01*
X678098Y116664D01*
X678092Y116542D01*
X678090Y116420D01*
X678092Y116298D01*
X678098Y116176D01*
X678108Y116054D01*
X678121Y115933D01*
X678139Y115812D01*
X678160Y115692D01*
X678186Y115572D01*
X678215Y115454D01*
X678247Y115336D01*
X678284Y115219D01*
X678324Y115104D01*
X678368Y114990D01*
X678416Y114878D01*
X678467Y114767D01*
X678522Y114658D01*
X678580Y114550D01*
X678642Y114445D01*
X678707Y114342D01*
X678775Y114240D01*
X678847Y114141D01*
X678921Y114045D01*
X678999Y113950D01*
X679080Y113859D01*
X679163Y113769D01*
X679249Y113683D01*
X679339Y113600D01*
X679430Y113519D01*
X679525Y113441D01*
X679621Y113367D01*
X679720Y113295D01*
X679822Y113227D01*
X679925Y113162D01*
X680030Y113100D01*
X680138Y113042D01*
X680247Y112987D01*
X680358Y112936D01*
X680470Y112888D01*
X680584Y112844D01*
X680699Y112804D01*
X680816Y112767D01*
X680934Y112735D01*
X681052Y112706D01*
X681172Y112680D01*
X681292Y112659D01*
X681413Y112641D01*
X681534Y112628D01*
X681656Y112618D01*
X681778Y112612D01*
X681900Y112610D01*
X682022Y112612D01*
X682144Y112618D01*
X682266Y112628D01*
X682387Y112641D01*
X682508Y112659D01*
X682628Y112680D01*
X682748Y112706D01*
X682866Y112735D01*
X682984Y112767D01*
X683101Y112804D01*
X683216Y112844D01*
X683330Y112888D01*
X683442Y112936D01*
X683553Y112987D01*
X683662Y113042D01*
X683770Y113100D01*
X683875Y113162D01*
X683978Y113227D01*
X684080Y113295D01*
X684179Y113367D01*
X684275Y113441D01*
X684370Y113519D01*
X684461Y113600D01*
X684551Y113683D01*
X684637Y113769D01*
X684720Y113859D01*
X684801Y113950D01*
X684879Y114045D01*
X684953Y114141D01*
X685025Y114240D01*
X685093Y114342D01*
X685158Y114445D01*
X685220Y114550D01*
X685278Y114658D01*
X685333Y114767D01*
X685384Y114878D01*
X685432Y114990D01*
X685476Y115104D01*
X685516Y115219D01*
X685553Y115336D01*
X685585Y115454D01*
X685614Y115572D01*
X685640Y115692D01*
X685661Y115812D01*
X685679Y115933D01*
X685692Y116054D01*
X685702Y116176D01*
X685708Y116298D01*
X685710Y116420D01*
X685708Y116542D01*
X685702Y116664D01*
X685692Y116786D01*
X685679Y116907D01*
X685661Y117028D01*
X685640Y117148D01*
X685614Y117268D01*
X685585Y117386D01*
X685553Y117504D01*
X685516Y117621D01*
X685476Y117736D01*
X685432Y117850D01*
X685384Y117962D01*
X685333Y118073D01*
X685278Y118182D01*
X685220Y118290D01*
X685158Y118395D01*
X685093Y118498D01*
X685025Y118600D01*
X684953Y118699D01*
X684879Y118795D01*
X684801Y118890D01*
X684720Y118981D01*
X684637Y119071D01*
X684551Y119157D01*
X684461Y119240D01*
X684370Y119321D01*
X684275Y119399D01*
X684179Y119473D01*
X684080Y119545D01*
X683978Y119613D01*
X683875Y119678D01*
X683770Y119740D01*
X683662Y119798D01*
X683553Y119853D01*
X683442Y119904D01*
X683330Y119952D01*
X683216Y119996D01*
X683101Y120036D01*
X682984Y120073D01*
X682866Y120105D01*
X682748Y120134D01*
X682628Y120160D01*
X682508Y120181D01*
X682387Y120199D01*
X682266Y120212D01*
X682144Y120222D01*
X682022Y120228D01*
X681900Y120230D01*
D13*
X678584Y239144D02*
X687869Y239144D01*
X678584Y239144D02*
X678482Y239142D01*
X678381Y239136D01*
X678280Y239126D01*
X678179Y239113D01*
X678079Y239095D01*
X677980Y239074D01*
X677881Y239049D01*
X677784Y239020D01*
X677687Y238988D01*
X677592Y238952D01*
X677499Y238912D01*
X677407Y238869D01*
X677317Y238822D01*
X677228Y238771D01*
X677142Y238718D01*
X677058Y238661D01*
X676976Y238601D01*
X676896Y238538D01*
X676819Y238472D01*
X676744Y238403D01*
X676672Y238331D01*
X676603Y238256D01*
X676537Y238179D01*
X676474Y238099D01*
X676414Y238017D01*
X676357Y237933D01*
X676304Y237847D01*
X676253Y237758D01*
X676206Y237668D01*
X676163Y237576D01*
X676123Y237483D01*
X676087Y237388D01*
X676055Y237291D01*
X676026Y237194D01*
X676001Y237095D01*
X675980Y236996D01*
X675962Y236896D01*
X675949Y236795D01*
X675939Y236694D01*
X675933Y236593D01*
X675931Y236491D01*
X675931Y235165D01*
X686543Y244282D02*
X687869Y244282D01*
X687869Y250915D01*
X675931Y247599D01*
X685216Y250659D02*
X687869Y253975D01*
X675931Y253975D01*
X675931Y250659D02*
X675931Y257291D01*
X681900Y262089D02*
X682135Y262092D01*
X682370Y262100D01*
X682604Y262114D01*
X682838Y262134D01*
X683072Y262159D01*
X683304Y262190D01*
X683536Y262226D01*
X683768Y262268D01*
X683998Y262315D01*
X684226Y262368D01*
X684454Y262426D01*
X684680Y262490D01*
X684904Y262559D01*
X685127Y262633D01*
X685348Y262713D01*
X685567Y262798D01*
X685784Y262888D01*
X685999Y262983D01*
X686211Y263084D01*
X686303Y263117D01*
X686394Y263155D01*
X686483Y263196D01*
X686571Y263240D01*
X686656Y263288D01*
X686740Y263339D01*
X686822Y263394D01*
X686901Y263452D01*
X686978Y263513D01*
X687052Y263577D01*
X687124Y263644D01*
X687193Y263714D01*
X687259Y263786D01*
X687323Y263861D01*
X687383Y263939D01*
X687440Y264019D01*
X687494Y264101D01*
X687544Y264185D01*
X687591Y264271D01*
X687635Y264359D01*
X687675Y264449D01*
X687712Y264540D01*
X687744Y264633D01*
X687773Y264727D01*
X687799Y264821D01*
X687820Y264917D01*
X687838Y265014D01*
X687851Y265111D01*
X687861Y265209D01*
X687867Y265307D01*
X687869Y265405D01*
X687867Y265503D01*
X687861Y265601D01*
X687851Y265699D01*
X687838Y265796D01*
X687820Y265893D01*
X687799Y265989D01*
X687773Y266083D01*
X687744Y266177D01*
X687712Y266270D01*
X687675Y266361D01*
X687635Y266451D01*
X687591Y266539D01*
X687544Y266625D01*
X687494Y266709D01*
X687440Y266791D01*
X687383Y266871D01*
X687323Y266949D01*
X687259Y267024D01*
X687193Y267096D01*
X687124Y267166D01*
X687052Y267233D01*
X686978Y267297D01*
X686901Y267358D01*
X686822Y267416D01*
X686740Y267471D01*
X686656Y267522D01*
X686571Y267570D01*
X686483Y267614D01*
X686394Y267655D01*
X686303Y267693D01*
X686211Y267726D01*
X686211Y267727D02*
X685999Y267828D01*
X685784Y267923D01*
X685567Y268013D01*
X685348Y268098D01*
X685127Y268178D01*
X684905Y268252D01*
X684680Y268321D01*
X684454Y268385D01*
X684226Y268443D01*
X683998Y268496D01*
X683768Y268543D01*
X683536Y268585D01*
X683304Y268621D01*
X683072Y268652D01*
X682838Y268677D01*
X682604Y268697D01*
X682370Y268711D01*
X682135Y268719D01*
X681900Y268722D01*
X681900Y262089D02*
X681665Y262092D01*
X681430Y262100D01*
X681196Y262114D01*
X680962Y262134D01*
X680728Y262159D01*
X680496Y262190D01*
X680264Y262226D01*
X680033Y262268D01*
X679802Y262315D01*
X679574Y262368D01*
X679346Y262426D01*
X679120Y262490D01*
X678896Y262559D01*
X678673Y262633D01*
X678452Y262713D01*
X678233Y262798D01*
X678016Y262888D01*
X677801Y262983D01*
X677589Y263084D01*
X677497Y263117D01*
X677406Y263155D01*
X677317Y263196D01*
X677229Y263240D01*
X677144Y263288D01*
X677060Y263340D01*
X676978Y263394D01*
X676899Y263452D01*
X676822Y263513D01*
X676748Y263577D01*
X676676Y263644D01*
X676607Y263714D01*
X676541Y263786D01*
X676477Y263861D01*
X676417Y263939D01*
X676360Y264019D01*
X676306Y264101D01*
X676256Y264185D01*
X676209Y264271D01*
X676165Y264359D01*
X676125Y264449D01*
X676088Y264540D01*
X676056Y264633D01*
X676027Y264727D01*
X676001Y264821D01*
X675980Y264917D01*
X675962Y265014D01*
X675949Y265111D01*
X675939Y265209D01*
X675933Y265307D01*
X675931Y265405D01*
X677589Y267726D02*
X677801Y267827D01*
X678016Y267922D01*
X678233Y268012D01*
X678452Y268097D01*
X678673Y268177D01*
X678896Y268251D01*
X679120Y268320D01*
X679346Y268384D01*
X679574Y268442D01*
X679802Y268495D01*
X680032Y268542D01*
X680264Y268584D01*
X680496Y268620D01*
X680728Y268651D01*
X680962Y268676D01*
X681196Y268696D01*
X681430Y268710D01*
X681665Y268718D01*
X681900Y268721D01*
X677589Y267726D02*
X677497Y267693D01*
X677406Y267655D01*
X677317Y267614D01*
X677229Y267570D01*
X677144Y267522D01*
X677060Y267471D01*
X676978Y267416D01*
X676899Y267358D01*
X676822Y267297D01*
X676748Y267233D01*
X676676Y267166D01*
X676607Y267096D01*
X676541Y267024D01*
X676477Y266949D01*
X676417Y266871D01*
X676360Y266791D01*
X676306Y266709D01*
X676256Y266625D01*
X676209Y266539D01*
X676165Y266451D01*
X676125Y266361D01*
X676088Y266270D01*
X676056Y266177D01*
X676027Y266083D01*
X676001Y265989D01*
X675980Y265893D01*
X675962Y265796D01*
X675949Y265699D01*
X675939Y265601D01*
X675933Y265503D01*
X675931Y265405D01*
X678584Y262752D02*
X685216Y268058D01*
X687869Y276172D02*
X678584Y273519D01*
X678584Y280151D01*
X681237Y278161D02*
X675931Y278161D01*
X681900Y284949D02*
X682135Y284952D01*
X682370Y284960D01*
X682604Y284974D01*
X682838Y284994D01*
X683072Y285019D01*
X683304Y285050D01*
X683536Y285086D01*
X683768Y285128D01*
X683998Y285175D01*
X684226Y285228D01*
X684454Y285286D01*
X684680Y285350D01*
X684904Y285419D01*
X685127Y285493D01*
X685348Y285573D01*
X685567Y285658D01*
X685784Y285748D01*
X685999Y285843D01*
X686211Y285944D01*
X686303Y285977D01*
X686394Y286015D01*
X686483Y286056D01*
X686571Y286100D01*
X686656Y286148D01*
X686740Y286199D01*
X686822Y286254D01*
X686901Y286312D01*
X686978Y286373D01*
X687052Y286437D01*
X687124Y286504D01*
X687193Y286574D01*
X687259Y286646D01*
X687323Y286721D01*
X687383Y286799D01*
X687440Y286879D01*
X687494Y286961D01*
X687544Y287045D01*
X687591Y287131D01*
X687635Y287219D01*
X687675Y287309D01*
X687712Y287400D01*
X687744Y287493D01*
X687773Y287587D01*
X687799Y287681D01*
X687820Y287777D01*
X687838Y287874D01*
X687851Y287971D01*
X687861Y288069D01*
X687867Y288167D01*
X687869Y288265D01*
X687867Y288363D01*
X687861Y288461D01*
X687851Y288559D01*
X687838Y288656D01*
X687820Y288753D01*
X687799Y288849D01*
X687773Y288943D01*
X687744Y289037D01*
X687712Y289130D01*
X687675Y289221D01*
X687635Y289311D01*
X687591Y289399D01*
X687544Y289485D01*
X687494Y289569D01*
X687440Y289651D01*
X687383Y289731D01*
X687323Y289809D01*
X687259Y289884D01*
X687193Y289956D01*
X687124Y290026D01*
X687052Y290093D01*
X686978Y290157D01*
X686901Y290218D01*
X686822Y290276D01*
X686740Y290331D01*
X686656Y290382D01*
X686571Y290430D01*
X686483Y290474D01*
X686394Y290515D01*
X686303Y290553D01*
X686211Y290586D01*
X685999Y290687D01*
X685784Y290782D01*
X685567Y290872D01*
X685348Y290957D01*
X685127Y291037D01*
X684905Y291111D01*
X684680Y291180D01*
X684454Y291244D01*
X684226Y291302D01*
X683998Y291355D01*
X683768Y291402D01*
X683536Y291444D01*
X683304Y291480D01*
X683072Y291511D01*
X682838Y291536D01*
X682604Y291556D01*
X682370Y291570D01*
X682135Y291578D01*
X681900Y291581D01*
X681900Y284949D02*
X681665Y284952D01*
X681430Y284960D01*
X681196Y284974D01*
X680962Y284994D01*
X680728Y285019D01*
X680496Y285050D01*
X680264Y285086D01*
X680033Y285128D01*
X679802Y285175D01*
X679574Y285228D01*
X679346Y285286D01*
X679120Y285350D01*
X678896Y285419D01*
X678673Y285493D01*
X678452Y285573D01*
X678233Y285658D01*
X678016Y285748D01*
X677801Y285843D01*
X677589Y285944D01*
X677497Y285977D01*
X677406Y286015D01*
X677317Y286056D01*
X677229Y286100D01*
X677144Y286148D01*
X677060Y286200D01*
X676978Y286254D01*
X676899Y286312D01*
X676822Y286373D01*
X676748Y286437D01*
X676676Y286504D01*
X676607Y286574D01*
X676541Y286646D01*
X676477Y286721D01*
X676417Y286799D01*
X676360Y286879D01*
X676306Y286961D01*
X676256Y287045D01*
X676209Y287131D01*
X676165Y287219D01*
X676125Y287309D01*
X676088Y287400D01*
X676056Y287493D01*
X676027Y287587D01*
X676001Y287681D01*
X675980Y287777D01*
X675962Y287874D01*
X675949Y287971D01*
X675939Y288069D01*
X675933Y288167D01*
X675931Y288265D01*
X677589Y290586D02*
X677801Y290687D01*
X678016Y290782D01*
X678233Y290872D01*
X678452Y290957D01*
X678673Y291037D01*
X678896Y291111D01*
X679120Y291180D01*
X679346Y291244D01*
X679574Y291302D01*
X679802Y291355D01*
X680032Y291402D01*
X680264Y291444D01*
X680496Y291480D01*
X680728Y291511D01*
X680962Y291536D01*
X681196Y291556D01*
X681430Y291570D01*
X681665Y291578D01*
X681900Y291581D01*
X677589Y290586D02*
X677497Y290553D01*
X677406Y290515D01*
X677317Y290474D01*
X677229Y290430D01*
X677144Y290382D01*
X677060Y290331D01*
X676978Y290276D01*
X676899Y290218D01*
X676822Y290157D01*
X676748Y290093D01*
X676676Y290026D01*
X676607Y289956D01*
X676541Y289884D01*
X676477Y289809D01*
X676417Y289731D01*
X676360Y289651D01*
X676306Y289569D01*
X676256Y289485D01*
X676209Y289399D01*
X676165Y289311D01*
X676125Y289221D01*
X676088Y289130D01*
X676056Y289037D01*
X676027Y288943D01*
X676001Y288849D01*
X675980Y288753D01*
X675962Y288656D01*
X675949Y288559D01*
X675939Y288461D01*
X675933Y288363D01*
X675931Y288265D01*
X678584Y285612D02*
X685216Y290918D01*
X686543Y296379D02*
X687869Y296379D01*
X687869Y303011D01*
X675931Y299695D01*
X678584Y307809D02*
X687869Y310462D01*
X678584Y307809D02*
X678584Y314441D01*
X681237Y312451D02*
X675931Y312451D01*
X680574Y319338D02*
X680574Y327296D01*
X678584Y332193D02*
X687869Y334846D01*
X678584Y332193D02*
X678584Y338825D01*
X681237Y336835D02*
X675931Y336835D01*
D11*
X896919Y290705D02*
X901745Y290705D01*
X901745Y292045D01*
X901743Y292116D01*
X901737Y292188D01*
X901728Y292258D01*
X901715Y292328D01*
X901698Y292398D01*
X901677Y292466D01*
X901653Y292533D01*
X901625Y292599D01*
X901594Y292663D01*
X901559Y292726D01*
X901521Y292786D01*
X901480Y292845D01*
X901436Y292901D01*
X901389Y292955D01*
X901340Y293006D01*
X901287Y293054D01*
X901232Y293100D01*
X901175Y293142D01*
X901115Y293182D01*
X901054Y293218D01*
X900990Y293251D01*
X900925Y293280D01*
X900859Y293306D01*
X900791Y293329D01*
X900722Y293348D01*
X900652Y293363D01*
X900582Y293374D01*
X900511Y293382D01*
X900440Y293386D01*
X900368Y293386D01*
X900297Y293382D01*
X900226Y293374D01*
X900156Y293363D01*
X900086Y293348D01*
X900017Y293329D01*
X899949Y293306D01*
X899883Y293280D01*
X899818Y293251D01*
X899754Y293218D01*
X899693Y293182D01*
X899633Y293142D01*
X899576Y293100D01*
X899521Y293054D01*
X899468Y293006D01*
X899419Y292955D01*
X899372Y292901D01*
X899328Y292845D01*
X899287Y292786D01*
X899249Y292726D01*
X899214Y292663D01*
X899183Y292599D01*
X899155Y292533D01*
X899131Y292466D01*
X899110Y292398D01*
X899093Y292328D01*
X899080Y292258D01*
X899071Y292188D01*
X899065Y292116D01*
X899063Y292045D01*
X899064Y292045D02*
X899064Y290705D01*
X899064Y292314D02*
X896919Y293386D01*
X896919Y296128D02*
X896919Y297468D01*
X896921Y297539D01*
X896927Y297611D01*
X896936Y297681D01*
X896949Y297751D01*
X896966Y297821D01*
X896987Y297889D01*
X897011Y297956D01*
X897039Y298022D01*
X897070Y298086D01*
X897105Y298149D01*
X897143Y298209D01*
X897184Y298268D01*
X897228Y298324D01*
X897275Y298378D01*
X897324Y298429D01*
X897377Y298477D01*
X897432Y298523D01*
X897489Y298565D01*
X897549Y298605D01*
X897610Y298641D01*
X897674Y298674D01*
X897739Y298703D01*
X897805Y298729D01*
X897873Y298752D01*
X897942Y298771D01*
X898012Y298786D01*
X898082Y298797D01*
X898153Y298805D01*
X898224Y298809D01*
X898296Y298809D01*
X898367Y298805D01*
X898438Y298797D01*
X898508Y298786D01*
X898578Y298771D01*
X898647Y298752D01*
X898715Y298729D01*
X898781Y298703D01*
X898846Y298674D01*
X898910Y298641D01*
X898971Y298605D01*
X899031Y298565D01*
X899088Y298523D01*
X899143Y298477D01*
X899196Y298429D01*
X899245Y298378D01*
X899292Y298324D01*
X899336Y298268D01*
X899377Y298209D01*
X899415Y298149D01*
X899450Y298086D01*
X899481Y298022D01*
X899509Y297956D01*
X899533Y297889D01*
X899554Y297821D01*
X899571Y297751D01*
X899584Y297681D01*
X899593Y297611D01*
X899599Y297539D01*
X899601Y297468D01*
X901745Y297736D02*
X901745Y296128D01*
X901745Y297736D02*
X901743Y297801D01*
X901737Y297865D01*
X901727Y297929D01*
X901714Y297993D01*
X901696Y298055D01*
X901675Y298116D01*
X901651Y298176D01*
X901622Y298234D01*
X901590Y298291D01*
X901555Y298345D01*
X901517Y298397D01*
X901475Y298447D01*
X901431Y298494D01*
X901384Y298538D01*
X901334Y298580D01*
X901282Y298618D01*
X901228Y298653D01*
X901171Y298685D01*
X901113Y298714D01*
X901053Y298738D01*
X900992Y298759D01*
X900930Y298777D01*
X900866Y298790D01*
X900802Y298800D01*
X900738Y298806D01*
X900673Y298808D01*
X900608Y298806D01*
X900544Y298800D01*
X900480Y298790D01*
X900416Y298777D01*
X900354Y298759D01*
X900293Y298738D01*
X900233Y298714D01*
X900175Y298685D01*
X900118Y298653D01*
X900064Y298618D01*
X900012Y298580D01*
X899962Y298538D01*
X899915Y298494D01*
X899871Y298447D01*
X899829Y298397D01*
X899791Y298345D01*
X899756Y298291D01*
X899724Y298234D01*
X899695Y298176D01*
X899671Y298116D01*
X899650Y298055D01*
X899632Y297993D01*
X899619Y297929D01*
X899609Y297865D01*
X899603Y297801D01*
X899601Y297736D01*
X899600Y297736D02*
X899600Y296664D01*
X896919Y301614D02*
X896919Y302954D01*
X896921Y303025D01*
X896927Y303097D01*
X896936Y303167D01*
X896949Y303237D01*
X896966Y303307D01*
X896987Y303375D01*
X897011Y303442D01*
X897039Y303508D01*
X897070Y303572D01*
X897105Y303635D01*
X897143Y303695D01*
X897184Y303754D01*
X897228Y303810D01*
X897275Y303864D01*
X897324Y303915D01*
X897377Y303963D01*
X897432Y304009D01*
X897489Y304051D01*
X897549Y304091D01*
X897610Y304127D01*
X897674Y304160D01*
X897739Y304189D01*
X897805Y304215D01*
X897873Y304238D01*
X897942Y304257D01*
X898012Y304272D01*
X898082Y304283D01*
X898153Y304291D01*
X898224Y304295D01*
X898296Y304295D01*
X898367Y304291D01*
X898438Y304283D01*
X898508Y304272D01*
X898578Y304257D01*
X898647Y304238D01*
X898715Y304215D01*
X898781Y304189D01*
X898846Y304160D01*
X898910Y304127D01*
X898971Y304091D01*
X899031Y304051D01*
X899088Y304009D01*
X899143Y303963D01*
X899196Y303915D01*
X899245Y303864D01*
X899292Y303810D01*
X899336Y303754D01*
X899377Y303695D01*
X899415Y303635D01*
X899450Y303572D01*
X899481Y303508D01*
X899509Y303442D01*
X899533Y303375D01*
X899554Y303307D01*
X899571Y303237D01*
X899584Y303167D01*
X899593Y303097D01*
X899599Y303025D01*
X899601Y302954D01*
X901745Y303223D02*
X901745Y301614D01*
X901745Y303223D02*
X901743Y303288D01*
X901737Y303352D01*
X901727Y303416D01*
X901714Y303480D01*
X901696Y303542D01*
X901675Y303603D01*
X901651Y303663D01*
X901622Y303721D01*
X901590Y303778D01*
X901555Y303832D01*
X901517Y303884D01*
X901475Y303934D01*
X901431Y303981D01*
X901384Y304025D01*
X901334Y304067D01*
X901282Y304105D01*
X901228Y304140D01*
X901171Y304172D01*
X901113Y304201D01*
X901053Y304225D01*
X900992Y304246D01*
X900930Y304264D01*
X900866Y304277D01*
X900802Y304287D01*
X900738Y304293D01*
X900673Y304295D01*
X900608Y304293D01*
X900544Y304287D01*
X900480Y304277D01*
X900416Y304264D01*
X900354Y304246D01*
X900293Y304225D01*
X900233Y304201D01*
X900175Y304172D01*
X900118Y304140D01*
X900064Y304105D01*
X900012Y304067D01*
X899962Y304025D01*
X899915Y303981D01*
X899871Y303934D01*
X899829Y303884D01*
X899791Y303832D01*
X899756Y303778D01*
X899724Y303721D01*
X899695Y303663D01*
X899671Y303603D01*
X899650Y303542D01*
X899632Y303480D01*
X899619Y303416D01*
X899609Y303352D01*
X899603Y303288D01*
X899601Y303223D01*
X899600Y303223D02*
X899600Y302150D01*
D10*
X1281500Y207260D02*
X1281563Y207258D01*
X1281625Y207252D01*
X1281687Y207243D01*
X1281748Y207229D01*
X1281808Y207212D01*
X1281867Y207191D01*
X1281925Y207167D01*
X1281981Y207139D01*
X1282035Y207108D01*
X1282087Y207073D01*
X1282137Y207036D01*
X1282184Y206995D01*
X1282229Y206951D01*
X1282272Y206905D01*
X1282311Y206856D01*
X1282347Y206805D01*
X1282380Y206752D01*
X1282409Y206697D01*
X1282436Y206640D01*
X1282458Y206582D01*
X1282477Y206522D01*
X1282492Y206461D01*
X1282504Y206400D01*
X1282512Y206338D01*
X1282516Y206275D01*
X1282516Y206213D01*
X1282512Y206150D01*
X1282504Y206088D01*
X1282492Y206027D01*
X1282477Y205966D01*
X1282458Y205906D01*
X1282436Y205848D01*
X1282409Y205791D01*
X1282380Y205736D01*
X1282347Y205683D01*
X1282311Y205632D01*
X1282272Y205583D01*
X1282229Y205537D01*
X1282184Y205493D01*
X1282137Y205452D01*
X1282087Y205415D01*
X1282035Y205380D01*
X1281981Y205349D01*
X1281925Y205321D01*
X1281867Y205297D01*
X1281808Y205276D01*
X1281748Y205259D01*
X1281687Y205245D01*
X1281625Y205236D01*
X1281563Y205230D01*
X1281500Y205228D01*
X1281437Y205230D01*
X1281375Y205236D01*
X1281313Y205245D01*
X1281252Y205259D01*
X1281192Y205276D01*
X1281133Y205297D01*
X1281075Y205321D01*
X1281019Y205349D01*
X1280965Y205380D01*
X1280913Y205415D01*
X1280863Y205452D01*
X1280816Y205493D01*
X1280771Y205537D01*
X1280728Y205583D01*
X1280689Y205632D01*
X1280653Y205683D01*
X1280620Y205736D01*
X1280591Y205791D01*
X1280564Y205848D01*
X1280542Y205906D01*
X1280523Y205966D01*
X1280508Y206027D01*
X1280496Y206088D01*
X1280488Y206150D01*
X1280484Y206213D01*
X1280484Y206275D01*
X1280488Y206338D01*
X1280496Y206400D01*
X1280508Y206461D01*
X1280523Y206522D01*
X1280542Y206582D01*
X1280564Y206640D01*
X1280591Y206697D01*
X1280620Y206752D01*
X1280653Y206805D01*
X1280689Y206856D01*
X1280728Y206905D01*
X1280771Y206951D01*
X1280816Y206995D01*
X1280863Y207036D01*
X1280913Y207073D01*
X1280965Y207108D01*
X1281019Y207139D01*
X1281075Y207167D01*
X1281133Y207191D01*
X1281192Y207212D01*
X1281252Y207229D01*
X1281313Y207243D01*
X1281375Y207252D01*
X1281437Y207258D01*
X1281500Y207260D01*
M02*
