G04 EAGLE Gerber RS-274X export*
G75*
%MOMM*%
%FSLAX34Y34*%
%LPD*%
%INSoldermask Top*%
%IPPOS*%
%AMOC8*
5,1,8,0,0,1.08239X$1,22.5*%
G01*
%ADD10C,4.267200*%
%ADD11C,2.203200*%
%ADD12C,0.505344*%
%ADD13R,1.905000X2.895600*%
%ADD14R,1.303200X1.203200*%
%ADD15C,2.082800*%
%ADD16R,1.536700X0.635000*%
%ADD17R,2.057400X2.362200*%
%ADD18R,1.003197X0.958800*%
%ADD19R,1.143000X0.914400*%
%ADD20R,1.203200X1.303200*%
%ADD21R,1.003200X1.403200*%
%ADD22C,0.990200*%
%ADD23C,1.194200*%
%ADD24R,1.397000X2.209800*%
%ADD25R,1.103200X1.053200*%
%ADD26R,1.053200X1.103200*%
%ADD27C,1.611200*%
%ADD28R,0.812800X1.828800*%
%ADD29R,2.209800X0.914400*%
%ADD30R,0.914400X2.209800*%
%ADD31R,2.209800X1.193800*%
%ADD32R,0.655600X0.952400*%
%ADD33R,1.473200X0.838200*%
%ADD34C,1.270000*%
%ADD35C,1.727200*%
%ADD36R,1.397000X0.508000*%
%ADD37R,0.508000X1.397000*%
%ADD38R,2.514600X0.711200*%
%ADD39R,2.692400X2.209800*%
%ADD40C,1.600200*%
%ADD41R,1.574800X0.685800*%
%ADD42R,2.616200X3.403600*%
%ADD43C,0.959600*%

G36*
X897909Y321773D02*
X897909Y321773D01*
X897911Y321772D01*
X897954Y321792D01*
X897998Y321810D01*
X897998Y321812D01*
X898000Y321813D01*
X898033Y321898D01*
X898033Y341964D01*
X898032Y341966D01*
X898033Y341968D01*
X898013Y342011D01*
X897995Y342055D01*
X897993Y342055D01*
X897992Y342057D01*
X897907Y342090D01*
X885969Y342090D01*
X885967Y342089D01*
X885965Y342090D01*
X885922Y342070D01*
X885878Y342052D01*
X885878Y342050D01*
X885876Y342049D01*
X885843Y341964D01*
X885843Y321898D01*
X885844Y321896D01*
X885843Y321894D01*
X885863Y321851D01*
X885881Y321807D01*
X885883Y321807D01*
X885884Y321805D01*
X885969Y321772D01*
X897907Y321772D01*
X897909Y321773D01*
G37*
G36*
X874033Y321773D02*
X874033Y321773D01*
X874035Y321772D01*
X874078Y321792D01*
X874122Y321810D01*
X874122Y321812D01*
X874124Y321813D01*
X874157Y321898D01*
X874157Y341964D01*
X874156Y341966D01*
X874157Y341968D01*
X874137Y342011D01*
X874119Y342055D01*
X874117Y342055D01*
X874116Y342057D01*
X874031Y342090D01*
X862093Y342090D01*
X862091Y342089D01*
X862089Y342090D01*
X862046Y342070D01*
X862002Y342052D01*
X862002Y342050D01*
X862000Y342049D01*
X861967Y341964D01*
X861967Y321898D01*
X861968Y321896D01*
X861967Y321894D01*
X861987Y321851D01*
X862005Y321807D01*
X862007Y321807D01*
X862008Y321805D01*
X862093Y321772D01*
X874031Y321772D01*
X874033Y321773D01*
G37*
G36*
X897909Y282911D02*
X897909Y282911D01*
X897911Y282910D01*
X897954Y282930D01*
X897998Y282948D01*
X897998Y282950D01*
X898000Y282951D01*
X898033Y283036D01*
X898033Y303102D01*
X898032Y303104D01*
X898033Y303106D01*
X898013Y303149D01*
X897995Y303193D01*
X897993Y303193D01*
X897992Y303195D01*
X897907Y303228D01*
X885969Y303228D01*
X885967Y303227D01*
X885965Y303228D01*
X885922Y303208D01*
X885878Y303190D01*
X885878Y303188D01*
X885876Y303187D01*
X885843Y303102D01*
X885843Y283036D01*
X885844Y283034D01*
X885843Y283032D01*
X885863Y282989D01*
X885881Y282945D01*
X885883Y282945D01*
X885884Y282943D01*
X885969Y282910D01*
X897907Y282910D01*
X897909Y282911D01*
G37*
G36*
X874033Y282911D02*
X874033Y282911D01*
X874035Y282910D01*
X874078Y282930D01*
X874122Y282948D01*
X874122Y282950D01*
X874124Y282951D01*
X874157Y283036D01*
X874157Y303102D01*
X874156Y303104D01*
X874157Y303106D01*
X874137Y303149D01*
X874119Y303193D01*
X874117Y303193D01*
X874116Y303195D01*
X874031Y303228D01*
X862093Y303228D01*
X862091Y303227D01*
X862089Y303228D01*
X862046Y303208D01*
X862002Y303190D01*
X862002Y303188D01*
X862000Y303187D01*
X861967Y303102D01*
X861967Y283036D01*
X861968Y283034D01*
X861967Y283032D01*
X861987Y282989D01*
X862005Y282945D01*
X862007Y282945D01*
X862008Y282943D01*
X862093Y282910D01*
X874031Y282910D01*
X874033Y282911D01*
G37*
D10*
X1332500Y710000D03*
X1327500Y102500D03*
X682500Y77500D03*
D11*
X1252800Y332800D02*
X1252800Y352800D01*
X1313800Y352800D02*
X1313800Y332800D01*
X1293800Y390800D02*
X1273800Y390800D01*
D12*
X1095080Y52990D02*
X1095080Y46010D01*
X1095080Y52990D02*
X1102060Y52990D01*
X1102060Y46010D01*
X1095080Y46010D01*
X1095080Y50810D02*
X1102060Y50810D01*
X1077540Y52990D02*
X1077540Y46010D01*
X1077540Y52990D02*
X1084520Y52990D01*
X1084520Y46010D01*
X1077540Y46010D01*
X1077540Y50810D02*
X1084520Y50810D01*
D13*
X1133187Y77800D03*
X1214213Y77800D03*
D14*
X1211000Y185000D03*
X1194000Y185000D03*
X1099000Y235000D03*
X1116000Y235000D03*
X1098900Y217600D03*
X1115900Y217600D03*
X1058600Y48000D03*
X1041600Y48000D03*
D15*
X1041000Y152300D03*
X1015600Y152300D03*
X990200Y152300D03*
X964800Y152300D03*
X939400Y152300D03*
X914000Y152300D03*
D14*
X1194000Y230000D03*
X1211000Y230000D03*
X1194000Y215000D03*
X1211000Y215000D03*
X1194000Y200000D03*
X1211000Y200000D03*
D16*
X982739Y94150D03*
X982739Y87650D03*
X982739Y81150D03*
X982739Y74650D03*
X1027062Y74650D03*
X1027062Y81150D03*
X1027062Y87650D03*
X1027062Y94150D03*
D17*
X1004900Y84400D03*
D14*
X947000Y100100D03*
X964000Y100100D03*
X947600Y117600D03*
X964600Y117600D03*
X1056500Y97500D03*
X1073500Y97500D03*
X1056500Y112500D03*
X1073500Y112500D03*
X1056500Y127500D03*
X1073500Y127500D03*
D18*
X930000Y54722D03*
X930000Y70278D03*
D19*
X930000Y94231D03*
X930000Y80769D03*
D20*
X950000Y374000D03*
X950000Y391000D03*
D14*
X1078300Y342600D03*
X1095300Y342600D03*
D20*
X1050100Y218600D03*
X1050100Y201600D03*
X935000Y374000D03*
X935000Y391000D03*
X1027400Y219600D03*
X1027400Y202600D03*
D14*
X1095200Y360100D03*
X1078200Y360100D03*
D21*
X891500Y255000D03*
X873500Y255000D03*
D22*
X1160000Y752500D03*
X1160000Y739800D03*
X1160000Y727100D03*
X1160000Y714400D03*
X1160000Y701700D03*
X1172700Y701700D03*
X1172700Y714400D03*
X1172700Y727100D03*
X1172700Y739800D03*
X1172700Y752500D03*
D23*
X1176500Y689000D03*
X1156200Y689000D03*
X1166350Y765200D03*
D24*
X868062Y331931D03*
X868062Y293069D03*
X891938Y293069D03*
X891938Y331931D03*
D14*
X869700Y355300D03*
X886700Y355300D03*
X891000Y272500D03*
X874000Y272500D03*
D25*
X937500Y191700D03*
X937500Y203300D03*
X960000Y191700D03*
X960000Y203300D03*
X982500Y191700D03*
X982500Y203300D03*
D26*
X741700Y475000D03*
X753300Y475000D03*
X938300Y445000D03*
X926700Y445000D03*
X756700Y530000D03*
X768300Y530000D03*
X756700Y572500D03*
X768300Y572500D03*
X756700Y590000D03*
X768300Y590000D03*
X805600Y696200D03*
X817200Y696200D03*
X805600Y711400D03*
X817200Y711400D03*
X753300Y490000D03*
X741700Y490000D03*
X753300Y505000D03*
X741700Y505000D03*
X768300Y555000D03*
X756700Y555000D03*
D27*
X1330000Y620300D03*
X1304600Y620300D03*
X1279200Y620300D03*
X1253800Y620300D03*
X1228400Y620300D03*
X1203000Y620300D03*
X1177600Y620300D03*
X1152200Y620300D03*
X1126800Y620300D03*
X1101400Y620300D03*
X1076000Y620300D03*
X1050600Y620300D03*
X1025200Y620300D03*
X999800Y620300D03*
X974400Y620300D03*
X949000Y620300D03*
X949000Y417100D03*
X974400Y417100D03*
X999800Y417100D03*
X1025200Y417100D03*
X1050600Y417100D03*
X1076000Y417100D03*
X1101400Y417100D03*
X1126800Y417100D03*
X1152200Y417100D03*
X1177600Y417100D03*
X1203000Y417100D03*
X872800Y594900D03*
X872800Y569500D03*
X872800Y544100D03*
X872800Y518700D03*
X872800Y493300D03*
X872800Y467900D03*
X872800Y442500D03*
X872800Y417100D03*
X847400Y594900D03*
X847400Y569500D03*
X847400Y544100D03*
X847400Y518700D03*
X847400Y493300D03*
X847400Y467900D03*
X847400Y442500D03*
X847400Y417100D03*
X1228400Y417100D03*
D28*
X1263450Y674206D03*
X1245150Y674206D03*
X1254300Y654394D03*
D20*
X1220000Y673500D03*
X1220000Y656500D03*
D14*
X940100Y473500D03*
X923100Y473500D03*
X1244300Y701000D03*
X1261300Y701000D03*
D29*
X852800Y805600D03*
X852800Y795600D03*
X852800Y785600D03*
X852800Y775600D03*
X852800Y765600D03*
X852800Y755600D03*
X852800Y745600D03*
X852800Y735600D03*
X852800Y725600D03*
X852800Y715600D03*
X852800Y705600D03*
X852800Y695600D03*
X852800Y685600D03*
D30*
X873800Y680100D03*
X883800Y680100D03*
X893800Y680100D03*
X903800Y680100D03*
X913800Y680100D03*
X923800Y680100D03*
X933800Y680100D03*
D31*
X886299Y766069D03*
D29*
X954800Y685600D03*
X954800Y695600D03*
X954800Y705600D03*
X954800Y715600D03*
X954800Y725600D03*
X954800Y735600D03*
X954800Y745600D03*
X954800Y755600D03*
X954800Y765600D03*
X954800Y775600D03*
X954800Y785600D03*
X954800Y795600D03*
X954800Y805600D03*
D31*
X886299Y746069D03*
X886299Y726069D03*
X886299Y706069D03*
X921301Y766069D03*
X921301Y746069D03*
X921301Y726069D03*
X921301Y706069D03*
D32*
X980238Y747500D03*
X994762Y747500D03*
D20*
X997500Y771500D03*
X997500Y788500D03*
X980000Y771500D03*
X980000Y788500D03*
D22*
X1073500Y752500D03*
X1073500Y739800D03*
X1073500Y727100D03*
X1073500Y714400D03*
X1073500Y701700D03*
X1086200Y701700D03*
X1086200Y714400D03*
X1086200Y727100D03*
X1086200Y739800D03*
X1086200Y752500D03*
D23*
X1090000Y689000D03*
X1069700Y689000D03*
X1079850Y765200D03*
D33*
X827801Y197456D03*
X827801Y164944D03*
X865799Y164944D03*
X865799Y197456D03*
D34*
X687234Y467100D02*
X676566Y467100D01*
X676566Y479800D02*
X687234Y479800D01*
X687234Y492500D02*
X676566Y492500D01*
X676566Y505200D02*
X687234Y505200D01*
X687234Y517900D02*
X676566Y517900D01*
X676566Y530600D02*
X687234Y530600D01*
X687234Y543300D02*
X676566Y543300D01*
X676566Y556000D02*
X687234Y556000D01*
X687234Y568700D02*
X676566Y568700D01*
X676566Y581400D02*
X687234Y581400D01*
X687234Y594100D02*
X676566Y594100D01*
X676566Y606800D02*
X687234Y606800D01*
X687234Y619500D02*
X676566Y619500D01*
X676566Y632200D02*
X687234Y632200D01*
X687234Y644900D02*
X676566Y644900D01*
X676566Y657600D02*
X687234Y657600D01*
X687234Y670300D02*
X676566Y670300D01*
X676566Y683000D02*
X687234Y683000D01*
X687234Y695700D02*
X676566Y695700D01*
X676566Y708400D02*
X687234Y708400D01*
D35*
X641260Y479800D03*
X641260Y695700D03*
X641260Y587750D03*
D34*
X676566Y146900D02*
X687234Y146900D01*
X687234Y159600D02*
X676566Y159600D01*
X676566Y172300D02*
X687234Y172300D01*
X687234Y185000D02*
X676566Y185000D01*
X676566Y197700D02*
X687234Y197700D01*
X687234Y210400D02*
X676566Y210400D01*
X676566Y223100D02*
X687234Y223100D01*
X687234Y235800D02*
X676566Y235800D01*
X676566Y248500D02*
X687234Y248500D01*
X687234Y261200D02*
X676566Y261200D01*
X676566Y273900D02*
X687234Y273900D01*
X687234Y286600D02*
X676566Y286600D01*
X676566Y299300D02*
X687234Y299300D01*
X687234Y312000D02*
X676566Y312000D01*
X676566Y324700D02*
X687234Y324700D01*
X687234Y337400D02*
X676566Y337400D01*
X676566Y350100D02*
X687234Y350100D01*
X687234Y362800D02*
X676566Y362800D01*
X676566Y375500D02*
X687234Y375500D01*
X687234Y388200D02*
X676566Y388200D01*
D35*
X641260Y159600D03*
X641260Y375500D03*
X641260Y267550D03*
D26*
X951700Y585000D03*
X963300Y585000D03*
D36*
X937500Y337000D03*
X937500Y332000D03*
X937500Y327000D03*
X937500Y322000D03*
X937500Y317000D03*
X937500Y312000D03*
X937500Y307000D03*
X937500Y302000D03*
X937500Y297000D03*
X937500Y292000D03*
X937500Y287000D03*
X937500Y282000D03*
X937500Y277000D03*
X937500Y272000D03*
X937500Y267000D03*
X937500Y262000D03*
D37*
X957500Y242000D03*
X962500Y242000D03*
X967500Y242000D03*
X972500Y242000D03*
X977500Y242000D03*
X982500Y242000D03*
X987500Y242000D03*
X992500Y242000D03*
X997500Y242000D03*
X1002500Y242000D03*
X1007500Y242000D03*
X1012500Y242000D03*
X1017500Y242000D03*
X1022500Y242000D03*
X1027500Y242000D03*
X1032500Y242000D03*
D36*
X1052500Y262000D03*
X1052500Y267000D03*
X1052500Y272000D03*
X1052500Y277000D03*
X1052500Y282000D03*
X1052500Y287000D03*
X1052500Y292000D03*
X1052500Y297000D03*
X1052500Y302000D03*
X1052500Y307000D03*
X1052500Y312000D03*
X1052500Y317000D03*
X1052500Y322000D03*
X1052500Y327000D03*
X1052500Y332000D03*
X1052500Y337000D03*
D37*
X1032500Y357000D03*
X1027500Y357000D03*
X1022500Y357000D03*
X1017500Y357000D03*
X1012500Y357000D03*
X1007500Y357000D03*
X1002500Y357000D03*
X997500Y357000D03*
X992500Y357000D03*
X987500Y357000D03*
X982500Y357000D03*
X977500Y357000D03*
X972500Y357000D03*
X967500Y357000D03*
X962500Y357000D03*
X957500Y357000D03*
D20*
X910000Y289000D03*
X910000Y306000D03*
D38*
X1300390Y206500D03*
X1300390Y214500D03*
X1300390Y222500D03*
X1300390Y230500D03*
X1300390Y238500D03*
D39*
X1301342Y178000D03*
X1301342Y267000D03*
X1356450Y178000D03*
X1356450Y267000D03*
D40*
X1326458Y200402D03*
X1326458Y244598D03*
D41*
X1123330Y204050D03*
X1123330Y191350D03*
X1123330Y178650D03*
X1123330Y165950D03*
X1176670Y165950D03*
X1176670Y178650D03*
X1176670Y191350D03*
X1176670Y204050D03*
D42*
X1150000Y185000D03*
D43*
X777500Y807500D03*
X855000Y312500D03*
X1097500Y375170D03*
X911194Y350000D03*
X900972Y420464D03*
X1145000Y725000D03*
X1132500Y215000D03*
X1038806Y336250D03*
X902500Y705000D03*
X1035000Y262500D03*
X980000Y805000D03*
X860000Y272500D03*
X1260000Y235000D03*
X1262500Y222500D03*
X1172500Y315000D03*
X1177500Y325000D03*
X1162500Y305000D03*
X1032500Y112500D03*
X1057492Y80142D03*
X1082500Y147500D03*
X1082500Y235000D03*
X1205000Y452500D03*
X1222500Y435000D03*
X1050000Y800000D03*
X1130000Y797500D03*
X1287500Y802500D03*
X1275000Y797500D03*
X1105000Y175000D03*
X1105000Y195000D03*
X957500Y180000D03*
X927500Y415000D03*
X922500Y490000D03*
X975000Y482500D03*
X1222500Y575000D03*
X850000Y272500D03*
X785000Y218806D03*
X987500Y47500D03*
X925000Y117500D03*
X915000Y95000D03*
X995000Y292500D03*
X967500Y222500D03*
X1072500Y500000D03*
X1055000Y237500D03*
X917500Y270000D03*
X938006Y345912D03*
X1000000Y723694D03*
X1077500Y330000D03*
X1077500Y385000D03*
X940000Y175000D03*
X950000Y457500D03*
X905000Y755000D03*
X1007500Y755000D03*
X977500Y505000D03*
X1000000Y697500D03*
X1090000Y670000D03*
X1132500Y677500D03*
X1065000Y577500D03*
X1156250Y578750D03*
X1037500Y667500D03*
X1202500Y710000D03*
X1012500Y565000D03*
X1200000Y565000D03*
X955000Y312500D03*
X730000Y250000D03*
X730000Y170000D03*
X982500Y172500D03*
X817500Y247500D03*
X967500Y262500D03*
X817500Y265000D03*
X965000Y295000D03*
X922500Y286870D03*
X817500Y280000D03*
X817500Y295000D03*
X957500Y287500D03*
X817500Y227500D03*
X995000Y262500D03*
X832500Y227500D03*
X997500Y227500D03*
X742500Y330000D03*
X850000Y345000D03*
X940000Y355000D03*
X717500Y350000D03*
X907500Y375000D03*
X1007500Y310000D03*
X790000Y282500D03*
X1010000Y327500D03*
X795000Y330000D03*
X1020000Y300000D03*
X980000Y265000D03*
X752500Y427500D03*
X1000000Y432500D03*
X992500Y390000D03*
X1020000Y450000D03*
X907500Y437500D03*
X977500Y433806D03*
X762500Y362500D03*
X1020000Y265000D03*
X1142276Y398694D03*
X792500Y392500D03*
X797500Y347500D03*
X1030000Y277500D03*
X1135000Y652500D03*
X807500Y652556D03*
X1113750Y646250D03*
X792500Y647500D03*
X1100000Y392500D03*
X725000Y360000D03*
X1055000Y347500D03*
X732500Y370000D03*
X1030000Y395000D03*
X780000Y392500D03*
X1015000Y395000D03*
X1002500Y495000D03*
X866250Y213750D03*
X916194Y215000D03*
X1205000Y645000D03*
X976250Y706250D03*
X1037500Y685000D03*
X980000Y730000D03*
X1050000Y710000D03*
X982500Y275000D03*
X922500Y180000D03*
X1092500Y595000D03*
X1265000Y597500D03*
X720000Y150000D03*
X1010000Y190000D03*
X755000Y190000D03*
X1017398Y227602D03*
X740000Y380000D03*
X972500Y390000D03*
X962500Y532500D03*
X745000Y530000D03*
X1012500Y342500D03*
X1025000Y335000D03*
X722500Y127500D03*
X1007500Y272500D03*
X975000Y322500D03*
X880000Y615000D03*
X822500Y637500D03*
X830000Y617500D03*
X1157500Y395000D03*
X765000Y392500D03*
X802500Y227500D03*
X840000Y337500D03*
X975000Y310000D03*
X1025000Y525000D03*
M02*
