G04 EAGLE Gerber RS-274X export*
G75*
%MOMM*%
%FSLAX34Y34*%
%LPD*%
%INSolderpaste Bottom*%
%IPPOS*%
%AMOC8*
5,1,8,0,0,1.08239X$1,22.5*%
G01*
%ADD10R,1.000000X1.100000*%
%ADD11R,1.524000X2.184400*%
%ADD12R,0.838200X0.355600*%
%ADD13R,0.800000X1.200000*%
%ADD14R,1.100000X1.000000*%
%ADD15R,0.850000X0.900000*%


D10*
X1172800Y295300D03*
X1172800Y278300D03*
X1172800Y339500D03*
X1172800Y356500D03*
D11*
X1127400Y336396D03*
X1127400Y375004D03*
X1127400Y275904D03*
X1127400Y237296D03*
D10*
X1172800Y240200D03*
X1172800Y257200D03*
X1172800Y392100D03*
X1172800Y375100D03*
D12*
X1213414Y275200D03*
X1213414Y268700D03*
X1213414Y262200D03*
X1192586Y262200D03*
X1192586Y268700D03*
X1192586Y275200D03*
D13*
X904000Y270000D03*
X886000Y270000D03*
D14*
X916500Y335700D03*
X899500Y335700D03*
D10*
X968200Y206800D03*
X968200Y189800D03*
X893400Y301200D03*
X893400Y318200D03*
X868000Y320700D03*
X868000Y303700D03*
X845000Y320700D03*
X845000Y303700D03*
D15*
X761700Y282500D03*
X773300Y282500D03*
X761700Y297500D03*
X773300Y297500D03*
X761700Y267500D03*
X773300Y267500D03*
X761700Y242500D03*
X773300Y242500D03*
X994200Y445000D03*
X1005800Y445000D03*
X773300Y330000D03*
X761700Y330000D03*
D14*
X1231000Y451800D03*
X1248000Y451800D03*
D10*
X974700Y450000D03*
X974700Y467000D03*
D15*
X911700Y615000D03*
X923300Y615000D03*
D14*
X994000Y482500D03*
X1011000Y482500D03*
X1011000Y462500D03*
X994000Y462500D03*
M02*
